<svg xmlns="http://www.w3.org/2000/svg" viewBox="0 0 96.09 96.09"><defs><style>.cls-1{fill:#fff;stroke:#000;stroke-miterlimit:10;}</style></defs><title>3</title><g id="Layer_2" data-name="Layer 2"><circle class="cls-1" cx="48.04" cy="48.04" r="47.54"/></g><g id="svg2"><g id="g6"><g id="g8"><path id="path10" d="M48.27,35.28h5.06c1.22,0,2,.9,2,2.9a44.75,44.75,0,0,1-.3,4.9c-.67,6-1.34,12.1-2,18.1-.25,2-.49,4-.61,6a11.49,11.49,0,0,0,.18,2.9c.18,1.3.79,2,1.58,1.8a5.64,5.64,0,0,0,2-.9c.48-.3,1-.9,1.46-1.2.73-.5,1.4.4,1.16,1.6a5.19,5.19,0,0,1-.73,2c-1.89,3.1-4.15,5-6.83,5a16.08,16.08,0,0,1-3.78-.3c-2.08-.5-4.7-4.7-4.33-9.1.24-3.1.55-6.1.85-9.1.55-5.3,1.1-10.6,1.71-15.9a5.6,5.6,0,0,0,.06-1c0-2.2-.43-3-1.77-3.3a5.54,5.54,0,0,1-1.71-.5,2.17,2.17,0,0,1-.91-2.1,1.66,1.66,0,0,1,1.16-1.7,4.52,4.52,0,0,1,1.16-.1Z" transform="translate(-1.96 -1.96)"/><path id="path12" d="M51.26,21.62a5,5,0,1,1,0,10,5,5,0,1,1,0-10Z" transform="translate(-1.96 -1.96)"/></g></g></g></svg>