<?xml version="1.0" encoding="utf-8"?>
<!-- Generator: Adobe Illustrator 22.1.0, SVG Export Plug-In . SVG Version: 6.00 Build 0)  -->
<svg version="1.1" id="katman_1" xmlns="http://www.w3.org/2000/svg" xmlns:xlink="http://www.w3.org/1999/xlink" x="0px" y="0px"
	 viewBox="0 0 241.7 302.8" style="enable-background:new 0 0 241.7 302.8;" xml:space="preserve">
<style type="text/css">
	.st0{fill:#231F20;}
</style>
<g>
	<g>
		<path class="st0" d="M124.5,120.6c0.6,0,0.6,1,0,1C123.9,121.6,123.9,120.6,124.5,120.6z M241.4,92.4c0,0.2-0.2,0.3-0.3,0.3
			c0,0.5-0.6,0.7-0.9,0.3c0,0-0.1-0.1-0.1-0.1c0,0-0.1,0-0.1,0c-0.3,0.2-0.7,0.3-1.1,0.1c-0.7-0.4-1.6-0.4-2.4-0.2
			c-0.4,0.1-0.8,0.4-1.1,0.7c0,0.1-0.1,0.1-0.2,0.2c-0.2,0.3-0.4,0.6-0.6,0.9c-0.4,0.8-0.6,1.7-0.9,2.6c-0.3,1.1-0.6,2.2-0.9,3.3
			c-0.6,2.1-1.1,4.3-1.6,6.4c-0.8,3.7-1.5,7.3-2,11.1c0.2,0.2,0.3,0.6,0.2,0.9c-0.6,3.2-1.2,6.3-2,9.5c-1.3,5.2-2.9,10.3-5.5,15
			c-1.2,2.2-2.7,4.3-4.3,6.2c-0.8,0.9-1.7,2.1-2.9,2.2c0,0,0,0,0,0c-0.1,0.1-0.2,0.2-0.4,0.2c-0.2,0-0.3-0.1-0.4-0.2
			c-0.4-0.1-0.8-0.4-1-0.8c-0.1-0.1-0.1-0.2-0.1-0.2c-0.7,2.9-1.5,5.7-2.4,8.5c-2.1,6.3-4.9,12.4-8.2,18.1
			c-3.4,5.7-7.3,11.1-11.8,16c-0.2,0.3-0.5,0.3-0.8,0.3c-0.3,0.3-0.8-0.1-0.8-0.5c-0.1-0.1-0.1-0.2-0.1-0.3
			c-0.8-1.9-1.7-3.9-3.4-5.2c-1-0.8-2.2-1.3-3.4-1.2c-2.8,1.9-5,4.6-7.7,6.8c-3.4,2.7-7.4,4.1-11.5,5.3c-2.2,0.7-4.5,1.3-6.8,1.7
			c-2.3,0.4-4.6,0.4-7,0.2c-2.2-0.2-4.5-0.5-6.6,0.1c-1.8,0.5-3.3,1.5-4.6,2.8c-3,3-4.4,7.1-5.8,11c-0.2,0.5-0.7,0.8-1.2,0.7
			c-0.4-0.1-0.7-0.5-0.7-0.9c-0.1-0.1-0.3-0.2-0.4-0.3c-0.1-0.1-0.1-0.1-0.1-0.2c-0.1-0.1-0.1-0.1-0.2-0.2c0,0,0,0,0-0.1
			c-2.5-3.7-3.6-8.3-3.2-12.7c-1.4,1.9-2.7,3.9-3.8,5.9c-0.4,0.8-1.6,0.5-1.8-0.2c-0.2-0.5-0.3-1.1-0.4-1.6
			c-0.2-0.2-0.3-0.4-0.3-0.7c-0.2-3,0.1-6.1,0.9-9c1.3-5.2,3.9-10.1,7.5-14.1c0.9-1,1.9-1.9,2.9-2.8c1.1-0.9,2.3-1.8,3.4-2.8
			c1.9-1.7,3.8-3.9,3.6-6.6c-0.2,0.1-0.3,0.1-0.5,0.2c-0.3,0.1-0.5,0.2-0.8,0.1c0,0-0.1,0-0.1,0c-0.2,0.4-0.7,0.5-1.1,0.4
			c-0.6-0.2-0.8-0.7-0.7-1.2c1-6.4,1.2-12.9,0.7-19.3c-0.3,0.7-0.6,1.5-0.9,2.2c-2.5,5.9-6.3,11.2-11,15.5c0,1.2-1.6,1.2-1.9,0.3
			c-0.2-0.3-0.3-0.7-0.1-1c-0.4-6.5-2.6-12.7-6.4-17.9c-0.2,1-0.5,2-0.7,2.9c-0.1,0.3-0.5,0.4-0.7,0.3c-0.1,0-0.1-0.1-0.2-0.1
			c-0.4-0.4-0.9-0.8-1.4-1.1c-0.1,0-0.3-0.1-0.4-0.1c-2.4-1.4-5.1-2.1-7.8-2.1c-2.4,0-4.9,0.5-7,1.6c-2.4,1.2-4.3,3.1-6.1,5.1
			c-4,4.6-7.7,9.6-11,14.8c-0.1,0.1-0.2,0.2-0.3,0.3c0,0,0,0,0,0c-1.3,1.6-2.8,2.9-4.6,3.9c-3,1.7-6.7,2.3-10,1.1
			c-3.1-1.1-5.8-3.7-6.5-7c0-0.1,0-0.2,0-0.3c-0.1,0-0.3,0-0.5,0c-1.8-0.5-3.2-1.7-4.2-3.1c-2.1-2.9-2.3-6.9-2.3-10.4
			c0-0.8,0.2-1.7,1-2.1c0.9-0.6,1.8,0.1,2.4,0.7c0.9,0.8,1.8,1.6,2.6,2.4c-0.2-3.1,0-6.4,1.7-9.1c0.4-0.7,1.6-0.6,1.8,0.2
			c0.2,0.8,0.4,1.5,0.7,2.2c0.1-0.3,0.3-0.6,0.5-0.9c0.2-1.1,0.1-2.1,0-3.2c-0.1-0.2-0.1-0.4-0.1-0.7c0,0,0,0,0,0
			c-0.4-2.1-1.2-4.2-1.9-6.2c-0.6-1.5-1.1-2.9-1.5-4.5c-0.4-1.4-0.8-2.8-1.4-4.2c-0.6-1.3-1.3-2.5-2.3-3.5c-1-1-2.3-1.7-3.6-2.3
			c-1.4-0.7-2.9-1.2-4.3-1.8c-1.6-0.6-3.1-1.2-4.7-1.8c-2.1-0.7-4.2-1.4-6.4-2c2.1,2.7,4.7,4.9,7.6,6.6c0.7,0.4,0.6,1.6-0.2,1.8
			c-1.6,0.4-3.3,0.6-5,0.5c-4.2-0.3-8-2.2-11.4-4.4c1.1,1.1,2.4,2,3.9,2.5c1,0.4,0.9,1.9-0.3,1.9c-3.7,0.1-7.7,0-10.9-1.9
			c-2.7-1.5-4.8-4.3-5-7.4c-1.1,0.1-2.3-0.3-3.1-1c-0.7-0.6-1.3-1.2-1.8-2c-1.9-1.2-3.5-2.8-4.8-4.6c-1.3-1.7-2.4-3.5-3.4-5.4
			c0,0,0,0,0-0.1c0,0,0,0,0,0c-0.7-1.3-1.6-2.7-1.6-4.2c-0.2-0.2-0.4-0.5-0.1-0.7c0,0,0.1,0,0.1-0.1c0,0,0,0,0,0c0,0,0,0,0,0
			c0,0,0,0,0,0c0-0.2,0.1-0.4,0.2-0.6c0.7-1.5,2.2-2.4,3.7-3.1c1.4-0.6,2.8-1.1,4.2-1.6c0.7-0.4,1.5-0.8,2.2-1.2
			c6-3.1,12-6.2,18.1-9.1c0.1-0.2,0.2-0.4,0.4-0.6c1.7-1.1,3.3-2.6,4.5-4.2c4.9-6.5,5.4-14.8,5.3-22.7c-0.1-0.4-0.1-0.9-0.2-1.3
			c0-0.2,0.1-0.4,0.2-0.5c0-0.1,0-0.2,0-0.3c0-0.9,1.4-1.4,1.8-0.5c0.6,1.3,1.2,2.6,1.8,3.9c0-0.1,0-0.2,0-0.2
			c-0.3-1.4-0.4-2.8-0.2-4.3c0.5-3.5,2.2-6.9,4.2-9.8c2-2.9,4.4-5.5,7.2-7.7c0.3-0.2,0.6-0.3,0.9-0.3C59.6,31,65.4,28.9,71,27
			c7.4-2.5,15.3-5,20.7-11c0.6-0.6,1.4-0.2,1.6,0.5c0.6,0.3,0.9,1.3,0.1,1.7c0.2,0.1,0.4,0.1,0.6,0.1c0.3-0.1,0.7-0.3,1-0.4
			c0.4-0.3,0.9-0.5,1.3-0.8c1.7-1,3.4-2,5.1-3c3.4-2,6.9-4,10.3-6.1c1-0.6,2,0.8,1.2,1.5c-0.4,0.4,0,0.8,0.5,0.8c0.1,0,0.2,0,0.3,0
			c0.2-0.3,0.5-0.5,0.9-0.5c3.2-0.3,6.3-1.2,9.2-2.4c5.3-2,10.4-4.8,15.9-6.3c4.7-1.3,9.9-1.7,14.5,0c5,0.8,9.9,2.4,14.6,4.2
			c1.6,0.4,3.2,0.7,4.8,1.1c0.7,0.1,0.8,0.8,0.6,1.3c0,0,0,0,0,0.1c0,0.6-0.5,0.9-1,1c-0.4,0-0.8,0.1-1.3,0.1c0.9,0.3,1.9,0.6,2.8,1
			c6.1,2.3,12,5.4,17.4,9.1c2.8,1.7,5.6,3.5,8.2,5.5c0,0,0.1,0,0.1,0c1.3-0.1,1.3,1.9,0,2c-0.6,0-1.3,0.1-1.9,0.1
			c0.8,0.7,1.7,1.5,2.5,2.3c2.4,2.3,4.6,4.8,6.7,7.4c1,1.3,2.1,2.6,3,4.1c0.7,1.2,1,2.7,0.3,3.9c0.6,0.6,1.3,1.2,1.9,1.7
			c1.7,1.3,3.3,2.6,4.8,4C218,50,218,50,218.2,50c0.4,0,0.6,0.4,0.4,0.7c0.6,0.5,1.1,1.1,1.7,1.6c0.3,0.3,0.7,0.7,1,1
			c1.8,1.7,3.6,3.5,5.2,5.4c1.8,2.2,3.3,4.5,4.7,6.9c0.7,1.2,1.4,2.4,2,3.5c0.9,1.3,1.7,2.7,2.4,4.1c3,5.6,6.3,11.7,6.3,18.3
			C241.7,92,241.6,92.2,241.4,92.4z M211.9,147.2c0.1-0.3,0.2-0.6,0.2-0.9c-1.2-2.3-2.1-4.8-2.8-7.3c-0.1-0.4-0.2-0.8-0.3-1.2
			c0,3-0.2,6-0.6,8.9c-0.6,4.2-1.7,8.3-3.1,12.3c-1.4,3.8-3.3,7.4-5.3,10.9c-3.4,5.9-7.5,11.9-8.3,18.8c1.1-1.3,2.1-2.6,3-3.9
			c0.3-0.5,0.7-1,1-1.5c3.7-5.7,7-11.7,9.7-18c1.7-3.9,3.3-7.9,4.6-12c0.5-1.9,1-3.7,1.4-5.6C211.4,147.6,211.6,147.3,211.9,147.2z
			 M139.8,171.3c0,0.1,0,0.1-0.1,0.2c1.7-1.8,3.5-3.5,5.1-5.4c1.9-2.2,3.6-4.6,5.8-6.5c2.2-1.8,4.8-2.9,7.2-4.4
			c2.1-1.4,3.8-3.2,5.2-5.2c0.2-0.2,0.3-0.5,0.5-0.7c-1.5,1.6-3.2,3.1-5.1,4.3c-2,1.3-4.2,2.3-6.5,3.1c-2.5,0.9-5.5,1.9-7.7,3.6
			c0,0,0,0,0,0c-1.2,1.4-2,3.1-2.4,4.9c0,0,0,0,0,0C141.6,167.5,140.9,169.5,139.8,171.3z M135,144.8c0.1-0.3,0.3-0.6,0.4-1
			c-0.7-0.5-1.6-0.9-2.3-1.2c-2.1-0.9-3.8-2.3-5.2-4c1.5,3.2,3.5,6.2,5.8,8.8c0.4-0.8,0.7-1.5,1.1-2.3c0,0,0-0.1,0-0.1
			C134.9,145,135,144.9,135,144.8z M103.4,145.6c2.2-0.1,4.5,0.2,6.6,0.9c-0.2-0.2-0.5-0.4-0.7-0.5c-0.7-0.5-1.5-1-2.2-1.6
			c-0.1,0-0.2-0.1-0.3-0.1c-0.1-0.1-0.2-0.1-0.2-0.2c0,0,0,0,0,0c-2.8-0.2-5.7,0.2-8.4,1.1c-4,1.4-7.5,3.9-10.3,7
			c-1.5,1.6-2.8,3.3-3.9,5.1c-1.3,2-2.5,4.1-3.9,6.1c-2.3,3.3-5.6,6.5-9.7,7.1c-2.7,0.4-5.6-0.3-7.6-2.2c-0.7-0.2-1.3-0.5-1.9-0.9
			c0.2,0.7,0.5,1.3,0.9,1.9c0.6,0.6,1.2,1.1,1.9,1.6c2.2,1.5,4.8,2,7.3,1.5c2.1-0.4,4-1.3,5.6-2.5c0.7-0.6,1.3-1.3,1.9-2
			c0-0.1,0.1-0.1,0.2-0.1c1.9-3,4-5.9,6.2-8.8c1.9-2.5,3.9-5,6.1-7.4c1.6-1.7,3.3-3.1,5.3-4.2c1.7-1,3.5-1.6,5.5-1.8
			C102.2,145.7,102.8,145.6,103.4,145.6z M15.2,114.6c0.1,0,0.3-0.1,0.4-0.1c0.3-0.1,0.6,0,0.8,0.2c0.6-1.5,1.4-2.9,2.2-4.2
			c0.7-1.8,1.4-3.5,2.3-5.2c1.1-1.9,2.3-3.7,4-5.2c1.7-1.5,3.8-2.7,5.8-3.9c1.9-1.2,3.7-2.5,4.8-4.5c0.9-1.5,1.4-3.4,0.8-5.1
			c-0.9,2.5-2.1,4.9-3.8,7c-3.7,4.3-9.4,5.2-14.8,5.4c0.5,1.9,0.5,3.9,0.5,5.8c0,1.7-0.1,3.6-1.2,5.1c-0.2,0.2-0.3,0.4-0.5,0.6
			c0,0,0,0.1-0.1,0.1c-1.1,1.3-2.6,2.2-4.2,2.7c0,0,0.1,0.1,0.1,0.1c0.2,0.2,0.4,0.4,0.7,0.7c0,0,0,0,0,0c0,0,0,0,0,0c0,0,0,0,0,0
			C13.7,114.3,14.5,114.5,15.2,114.6z M207.8,132.6c0-0.3,0.1-0.4,0.3-0.5c-0.4-4.4-0.2-8.9,0.5-13.2c0.9-6,2.5-11.8,4.3-17.6
			c0-0.2,0-0.4-0.1-0.7c0-0.2,0.1-0.3,0.2-0.4c-0.3-3.6-0.1-7.2,0.6-10.7c-0.3,1.3-0.6,2.6-0.8,3.9c-0.4,2.1-0.8,4.2-1.4,6.3
			c-0.6,2.4-1.4,4.7-2.2,7c-1.5,4.6-3,9.3-3.7,14.1c-1.4,9.9-0.2,20,1,29.8c0.1,0.4-0.4,0.6-0.7,0.4c-0.3,1.9-0.9,3.7-1.7,5.4
			c-0.9,1.8-1.9,3.5-3,5.3c-1.1,1.7-2.1,3.5-2.9,5.3c-1.8,3.7-3.2,7.7-4.4,11.7c1.7-3.5,3.7-6.7,5.7-10c2.1-3.6,3.9-7.3,5.2-11.2
			C207.5,149.6,208.6,141,207.8,132.6z M167.5,194.7c4.1-2.4,7.8-5.5,11.4-8.7c0-0.1,0.1-0.2,0.1-0.2c0.7-0.7,1.2-1.4,1.6-2.3
			c-2.1,1.7-4.4,3.2-6.8,4.5c-3.7,2-7.6,3.7-11.6,4.8c-4.4,1.2-8.8,1.6-13.3,2.5c-4.2,0.8-8.1,2.3-11.4,5.2
			c-0.9,0.8-1.8,1.8-2.5,2.7c0.1-0.1,0.1-0.1,0.2-0.2c0.6-0.7,1.2-1.3,1.8-1.9c1.5-1.3,3.3-2.3,5.2-2.7c2.3-0.5,4.6-0.3,6.9-0.1
			c2.3,0.2,4.6,0.1,6.9-0.3c2.3-0.5,4.6-1.2,6.8-1.8C164.5,195.8,166.1,195.3,167.5,194.7z M131,194.8c-1.5,2.5-2.4,5.5-2.4,8.4
			c0.7-3.7,2.9-7.2,5.7-9.7c7.9-6.9,19.3-6.7,28.9-9.5c4.6-1.3,8.9-3.5,12.5-6.6c2.5-2.2,4.7-4.7,6.4-7.5c0-0.7,0.1-1.4,0.1-2.1
			c-1.7,3.1-4.3,5.7-7.3,7.7c-9.4,6.3-21.5,5.9-31.8,9.9c-0.3,0.1-0.6,0.3-0.8,0.4c-0.1,0.1-0.2,0.1-0.3,0.1
			c-2.8,1.2-5.4,2.7-7.6,4.7c-0.1,0.3-0.1,0.6-0.2,0.9c-0.1,0.5-0.6,0.4-0.9,0.1C132.4,192.6,131.6,193.7,131,194.8z M171.5,135.5
			c0.4-1.1,0.8-2.1,1.2-3.2c-0.1,0.3-0.3,0.5-0.4,0.8c-0.7,1.8-1.6,3.6-2.6,5.3c-0.3,0.8-0.5,1.6-0.7,2.4c0,0.2-0.2,0.3-0.4,0.4
			c-0.9,2.4-1.9,4.7-3.1,6.8c-1.4,3.8-3.5,7.3-5.9,10.6c-5.1,6.9-11.5,12.5-17.9,18.2c-6.6,5.8-13.2,11.7-18,19.1c0,0,0,0.1-0.1,0.1
			c-0.1,0.6-0.2,1.2-0.3,1.9c1.9-4.1,5.3-7.5,8.8-10.3c2.6-2.1,5.3-4,7.9-6.1c2.5-2,4.8-4,7.1-6.2c4.6-4.4,8.7-9.3,12.2-14.6
			c3.7-5.5,6.8-11.5,9.4-17.6c0.7-1.7,1.4-3.4,2.1-5.2c0.2-0.6,0.3-1.3,0.5-1.9C171.2,135.6,171.4,135.5,171.5,135.5z M137.6,175
			c-0.4,0.5-0.9,1-1.4,1.4c-4.6,4.8-9.3,10.1-11.8,16.2c-0.1,0.2-0.1,0.4-0.2,0.5c2.3-3.2,5-6.2,7.8-9c6.2-6.1,13-11.4,19.2-17.5
			c4.2-4.2,8.1-8.8,11-14c-1.4,1.5-2.9,2.9-4.7,4c-2.4,1.5-5.1,2.6-7.1,4.6c-2.1,2-3.8,4.4-5.7,6.6c-2,2.2-4,4.2-6.1,6.3
			C138.2,174.3,137.9,174.7,137.6,175z M136.8,143.1c-0.1,0.2-0.1,0.3-0.2,0.5c0.8,0.8,1.3,1.8,1.2,2.9c0,0.2-0.1,0.3-0.3,0.4
			c0,0.2,0,0.4,0,0.6c0.1,1,0.2,2.1,0.3,3.1c0.2-1,0.3-2.1,0.4-3.1c0.2-2.1,0-4.5-1.4-6.2c-1.5-1.8-4-2.1-6.1-3.1
			c-1.6-0.8-3-2-4.1-3.4c1,2.1,2.4,4.1,4.3,5.5c0.6,0.5,1.3,0.9,2.1,1.3c0.8,0.4,1.7,0.7,2.5,1.2c0.1,0.1,0.2,0.1,0.3,0.2
			c0,0,0-0.1,0-0.1C136.1,142.2,137.1,142.5,136.8,143.1z M124.7,163c0.4-0.6,0.9-1.2,1.3-1.8c0.6-0.8,1.1-1.7,1.7-2.5c0,0,0,0,0,0
			c-2.3-4.5-3.1-9.6-2.2-14.5c-0.3,0.8-0.5,1.7-0.8,2.5c-1.2,4.2-1.7,8.6-1.6,13c0.3,1.4,0.6,2.8,0.7,4.3
			C124,163.6,124.3,163.3,124.7,163z M119.5,150c0.2-1.2,0.6-2.3,1.2-3.3c-1.1-2.1-2.2-4.2-3.3-6.4c0.3,2.4,0.6,4.7,0.8,7.1
			c0,0.2,0,0.3-0.1,0.4c0.1,0.2,0.3,0.3,0.4,0.5C118.8,148.8,119.2,149.4,119.5,150z M117.1,146.6c-0.3-2.6-0.6-5.2-0.9-7.9
			c0-0.1,0-0.2,0.1-0.3c0.1-0.5,0.4-1,0.8-1.4c0.7-0.7,1.6-0.9,2.5-1.3c1.5-0.7,2.6-2,3-3.6c0-0.2-0.1-0.4-0.2-0.6
			c0-0.1,0-0.2,0-0.3c-0.6,0.3-1.2,0.6-1.7,1c-2.5,1.7-4.5,4.3-5.6,7.2c-0.3,1-0.6,2-0.7,3c0,0.1,0,0.2,0,0.3
			c-0.1,0.9-0.1,1.8-0.1,2.7c0,0.1,0.1,0.2,0.2,0.3c0-0.2,0-0.4-0.1-0.6c-0.1-0.5,0.4-0.8,0.8-0.5
			C115.8,145.3,116.5,145.9,117.1,146.6z M60.9,157.7c0.2,0.1,0.3,0.1,0.5,0.2c0.4,0.1,0.4,0.5,0.3,0.8c0.9,0.9,2.2,1.5,3.6,1.2
			c1.1-0.3,1.9-1.2,1.9-2.3c-0.3-0.1-0.4-0.4-0.2-0.7c0,0,0-0.1,0.1-0.1c0-0.1-0.1-0.2-0.1-0.2c-0.1-0.2-0.1-0.3,0-0.4
			c0-0.1,0-0.1,0-0.2c-0.5-0.5-1.5-0.8-1.9-1c-1-0.4-1.9-1-2.6-1.8c-1-0.9-1.9-2-2.5-3.2c-0.2,1.3-0.3,2.7-0.2,4.1
			C59.9,155.3,60.2,156.6,60.9,157.7z M39.9,123.3c-1.8-1-3.5-2-4.9-3.5c-0.9-1-1.6-2.1-2.3-3.2c-0.4-0.7-1.2-1.5-2-1.7
			c-0.1,0-0.1,0-0.2,0c-0.1,0-0.2,0-0.2-0.1c-0.2,0-0.4,0-0.6,0.1c-0.2,0.1-0.3,0-0.5,0c-0.8,0.1-1.6-0.1-2.5-0.1
			c-0.6,0-1.4,0-1.9,0.4c-0.1,0.1-0.3,0.3-0.4,0.4c0.1,0,0.2,0.1,0.2,0.1c3.9,4.4,9.5,7.2,15.4,7.6C40,123.4,39.9,123.4,39.9,123.3z
			 M27.1,123.9c-1.2-0.9-2.2-2-2.9-3.3c-0.9-1-1.9-2-2.7-3c-0.6-0.4-1.4-0.5-2-0.2c-0.6,0.3-1.1,0.9-1.2,1.6c0,0,0,0.1,0,0.1
			c0.1,0,0.1,0.1,0.2,0.1c2,2,4.4,3.6,7,4.5C26,123.8,26.5,123.9,27.1,123.9z M17.7,117.8c0.3-0.5,0.8-1,1.4-1.2
			c0.7-0.3,1.4-0.3,2.1-0.2c0.1-0.1,0.3-0.2,0.5-0.2c0.6,0.2,1.3-0.1,1.7-0.6c0.4-0.6,0.7-1.1,1.4-1.5c0.3-0.1,0.6-0.2,1-0.3
			c0.1-0.1,0.1-0.1,0.3-0.1c1.3-0.3,2.7-0.5,4-0.6c0.5,0,1,0,1.5,0c3.1-1,6.3-1.8,9.5-2.6c1.7-0.4,3.5-0.8,5.2-1.1
			c0.1,0,0.2,0,0.3-0.1c-1.2,0.1-2.4,0.2-3.6,0.3c-4.8,0.5-9.6,1.3-14.2,2.4c-2.4,0.5-4.7,1.1-7,1.8c-1.1,0.3-2.2,0.6-3.2,1
			c-0.5,0.2-1.3,0.6-1.5,1.1c0,0,0,0.1,0,0.1c0,0.2,0,0.3,0,0.5c0,0,0.1,0.1,0.1,0.1C17.3,117.2,17.5,117.5,17.7,117.8z M11.4,93.8
			c2.4,0,4.8-0.3,7.1-0.9c5.4-1.4,10.2-4.4,14-8.5c2.5-2.7,4.6-5.7,6.8-8.6c-1.5,1.5-2.9,3-4.4,4.5c0,0,0,0-0.1,0.1c0,0,0,0,0,0
			c0,0.1-0.1,0.1-0.2,0.1c0,0.2-0.1,0.3-0.2,0.4c-0.6,0.4-1.2,0.8-1.8,1.1c-0.8,0.7-1.6,1.3-2.4,1.9c-0.1,0.3-0.2,0.5-0.5,0.6
			c-1.7,0.8-3.5,1.7-5.2,2.5C20.3,89.3,15.8,91.5,11.4,93.8z M79.6,29.1c-3.5,1.9-7.3,3-11.1,4.3c-3.5,1.2-6.9,2.7-10,4.8
			c-2.6,1.8-4.9,3.9-6.9,6.3c2.9-2.7,6.5-4.4,10.2-5.6c4.4-1.4,9-2.3,13.4-3.7c3.9-1.3,7.5-3.1,10.4-6c2.4-2.4,4.1-5.4,4.3-8.8
			c-0.4,0.3-0.8,0.6-1.2,0.9C86.3,24.5,83.2,27.2,79.6,29.1z M89.8,24.9c-0.9,2-2.2,3.8-3.8,5.3c-2.9,2.8-6.5,4.6-10.3,5.9
			c-3.4,1.1-7,1.9-10.5,2.9c0.7-0.1,1.4-0.3,2.1-0.4c4.4-0.8,8.7-1.9,12.8-3.6c4.3-1.8,8.3-4.3,12.3-6.7c3.7-2.3,7.3-4.8,10.4-7.9
			c2.3-2.3,4.3-4.8,6-7.6c0-0.1,0-0.3,0-0.4c-0.7,0.9-1.4,1.7-2.2,2.5c-4.5,4.8-10.2,8.7-16.7,10.1C90,24.9,89.9,24.9,89.8,24.9z
			 M144,3c-1.4,0.4-2.8,0.9-4.2,1.4c-5.5,1.8-11,3.9-15.8,7.2c-4.9,3.2-8.6,7.7-12,12.4c-3.2,4.4-6.2,8.9-9.9,12.9
			c5.1-4.7,9.5-10.2,14.5-15.1c0-0.1,0-0.3,0.1-0.4c2.7-3.1,5.6-6,8.8-8.5c5.7-4.5,12.4-7.9,19.5-9.3c2.5-0.5,5-0.8,7.6-0.8
			c-0.3-0.1-0.6-0.2-0.9-0.3c-0.9-0.2-1.8-0.3-2.8-0.4c-0.1,0-0.2,0-0.3,0C147.1,2.1,145.5,2.5,144,3z M225.6,61
			c-1.4-1-3-1.8-4.7-2.1c-1.6-0.3-3.3-0.3-5-0.4c-1.5,0-3.1-0.1-4.6-0.4c-2.6-0.4-5.1-1.2-7.5-2.4c-0.1,0-0.2,0-0.4-0.1
			c-0.3-0.2-0.6-0.4-0.9-0.6c-1.1-0.6-2.2-1.3-3.2-2c0.3,0.9,0.6,1.8,0.9,2.7c1.9,2,4.2,3.6,6.7,4.8c2.4,1.1,4.9,1.7,7.5,1.8
			c2.9,0.1,5.9-0.2,8.8,0.4c1.8,0.3,3.5,1.1,5,2.2c-0.1-0.1-0.2-0.3-0.3-0.4C227.3,63.2,226.5,62.1,225.6,61z M222.9,121.4
			c-0.1,0.1-0.1,0.1-0.2,0.2c1.1,1.3,2.2,2.5,3.4,3.7c0.4-1.6,0.7-3.2,1-4.8c-0.1-0.2-0.2-0.3-0.2-0.5c0,0,0-0.1,0-0.1
			c-0.1,0-0.2,0-0.3-0.1c-2.2-2-4.2-4.3-5.8-6.8c-3-4.5-5-9.6-5.8-14.9c-0.3,1-0.6,1.9-0.9,2.9c0.4,3.5,1.2,6.9,2.5,10.2
			c1.4,3.5,3.3,6.8,5.6,9.7c0,0,0.1-0.1,0.1-0.1C222.7,120.3,223.4,121,222.9,121.4z M221.4,121.5c-0.7-0.9-1.5-1.9-2.1-2.9
			c-2.1-3.3-3.8-6.9-4.8-10.6c0.1,1,0.2,2.1,0.2,3.1c0.8,12.2,0.8,24.5,0.1,36.8c0.8-1.3,1.5-2.7,2.1-4.1c0.8-1.9,1.3-3.8,1.6-5.8
			c0.3-2.1,0.3-4.2,0.3-6.3C218.8,128.1,219.1,124.3,221.4,121.5z M213.9,98.1c0.1-0.4,0.2-0.7,0.3-1.1c0.1-0.3,0.3-0.4,0.6-0.3
			c-0.3-2.4-0.4-4.7-0.2-7.1c-0.2,0.8-0.3,1.7-0.4,2.5C214,94.1,213.9,96.1,213.9,98.1z M134,197.5c3.7-3.5,8.7-5.1,13.6-6.2
			c5.2-1.1,10.6-1.9,15.7-3.5c4.9-1.6,9.7-3.9,13.4-7.5c2.3-2.2,4.2-4.8,5.3-7.7c0-0.3,0-0.5,0-0.8c-1.8,2.7-4.1,5.1-6.6,7.1
			c-3.7,3-8,5-12.5,6.3c-5.1,1.4-10.4,2-15.5,3.3c-4.7,1.2-9.5,3-13.1,6.4c-2.7,2.6-4.6,6.1-4.9,9.8
			C130.2,201.9,131.9,199.4,134,197.5z M138.4,154.8c0.1-0.6,0.3-1.2,0.4-1.8c-0.2-0.1-0.4-0.3-0.3-0.6c1-4.2,2.6-8.3,4.7-12.1
			c-1.7-0.3-3.4-0.7-5-1.3c-5-1.8-9.4-5-12.7-9.2c0,0,0,0,0,0.1c0.4,1.7,1.2,3.2,2.3,4.6c1.4,1.7,3.3,2.8,5.4,3.5
			c2.1,0.8,4.2,1.6,5.3,3.7C140.6,145.9,138.3,150.4,138.4,154.8z M130.2,154.4C130.2,154.4,130.2,154.4,130.2,154.4
			c-2-2.8-3.3-6-4-9.2c-0.6,4.3,0.1,8.7,2,12.5C128.9,156.6,129.6,155.5,130.2,154.4z M125.8,142.9c0,0.1-0.1,0.2-0.1,0.3
			c0.1,0,0.1,0,0.2,0C125.8,143.1,125.8,143,125.8,142.9z M122.6,140c-0.4-1.2-0.3-2.5-0.2-3.8c0.1-0.6,0.1-1.3,0.2-1.9
			c-0.5,0.7-1.1,1.4-1.8,1.9c-0.8,0.5-1.7,0.7-2.5,1.2c-0.4,0.2-0.8,0.6-1,1C119.1,138.9,120.9,139.5,122.6,140z M83.1,134.1
			c-0.6-1.4-1.4-2.8-2.4-4c-0.1,0-0.3-0.1-0.4-0.2c-0.2-0.3-0.4-0.6-0.7-0.9c0,0,0,0,0-0.1c-1.8-1.9-4.1-3.4-6.5-4.3
			c-1.6,0.6-3.1,1.4-4.3,2.5c-3.2,3.1-2.1,7.4-1.9,11.5c0.1,0.5,0.1,1.1,0.1,1.6c0,1-0.1,2.1-0.5,3c0,0.1-0.1,0.1-0.1,0.2
			c-0.1,0.3-0.2,0.6-0.4,0.9c-0.3,0.5-0.6,0.9-0.9,1.3c-0.1,0.1-0.2,0.2-0.2,0.3c-1,1.5-2.5,3.9-1.1,5.6c0.2,0.2,0.1,0.4,0.1,0.6
			c0.3,0.4,0.7,0.7,1,1.1c0.1,0.1,0.2,0.2,0.1,0.4c0.1,0.1,0.2,0.1,0.3,0.2c0.5,0.2,1.1,0.4,1.6,0.7c0.2,0.1,0.4,0.3,0.6,0.5
			c2.4-2.1,5-4.1,7.2-6.4c1.4-1.4,2.6-3,3.4-4.8c-0.1-0.1-0.1-0.1-0.1-0.2c-0.7-3.3-3.8-5.3-5.1-8.4c-0.5-1.3-0.7-2.6-0.4-4
			c0.4-1.2,1.2-2.3,2.4-2.7c0.6-0.2,0.9,0.7,0.3,0.9c-1.1,0.4-1.7,1.6-1.9,2.7c-0.2,1.3,0.3,2.6,1,3.7c1.3,2.2,3.4,4,4.3,6.4
			c0.1-0.6,0.2-1.3,0.2-2c0-0.2,0.1-0.3,0.2-0.4C79.5,137.6,80.9,135.4,83.1,134.1z M109.5,11.8c0.1-0.1,0.1-0.2,0.2-0.3
			c-0.1,0-0.1,0.1-0.2,0.1c0,0.1-0.1,0.1-0.1,0.2C109.4,11.8,109.5,11.8,109.5,11.8z M79.3,48.2c-0.9,0.4-1.9,0.7-2.8,1
			c2.4-0.2,4.9-0.2,7.3-0.1c0.6-0.1,1.2-0.1,1.8-0.2c8.9-1.3,17.2-5.7,23.2-12.3c0.2-1.3,0.5-2.5,0.9-3.8c0.1-0.5,0.4-1.1,0.9-1.3
			c0,0,0,0,0,0c0.1-0.2,0.2-0.4,0.3-0.7c0-0.1-0.1-0.1-0.1-0.2c-0.2-0.4,0.3-0.9,0.6-0.7c0.7-1.1,1.5-2.2,2.4-3.1
			c4.3-4.5,10.3-6.6,16.1-8.3c5-1.4,10.3-2.7,14.9-5.3c0.1-0.2,0.2-0.3,0.3-0.5c-4.5-1.6-9.4-1.1-13.9,0.4
			c-10.3,3.5-17,12.5-24.2,20.1c-6.5,6.9-14.9,13.8-24.8,14.1C81.3,47.7,80.3,48,79.3,48.2z M87.1,45.7c0.3-0.1,0.5-0.1,0.8-0.2
			c0,0,0-0.1,0-0.1C87.6,45.5,87.4,45.6,87.1,45.7z M133.7,8.7c-3.4,1.8-6.5,4-9.5,6.5c2.3-1.4,4.7-2.7,7.2-3.8
			c5.3-2.4,11-4.1,16.7-5.1c4.3-0.7,8.7-1,13.1-0.9c-1.3-0.4-2.6-0.7-3.9-1.1c-0.1,0-0.3,0-0.4,0c-0.6-0.1-1.1-0.2-1.7-0.4
			c-0.2,0-0.3,0-0.5,0C147.4,3.4,140.1,5.2,133.7,8.7z M165.9,6.9c0.1,0,0.3-0.1,0.4-0.1c-0.1,0-0.2,0-0.3-0.1
			c-0.9-0.1-1.8-0.1-2.8-0.1c-5.3,0.2-10.6,1.9-14.9,5c0,0.1,0,0.1,0,0.2c0,0.2,0,0.5,0,0.7c0.1,0,0.2,0.1,0.2,0.1
			c2.3-0.9,4.7-1.6,7.2-2.1c1.6-0.3,3.2-0.5,4.9-0.6c-0.1-0.2,0-0.4,0.2-0.6c0.3-0.2,0.6-0.4,0.9-0.6c-0.2-0.2-0.2-0.5,0.2-0.7
			C163.3,7.5,164.6,7.1,165.9,6.9z M183,19c-6.7-0.9-13.5-0.1-19.8,2.2c-1.4,0.5-2.8,1.1-4.2,1.9c0.1,0,0.2,0.1,0.2,0.2
			c0.9,1.1,1.9,2.1,2.9,3c0,0,0,0,0.1-0.1c0.2-0.1,0.4-0.2,0.6-0.3c0,0,0.1-0.1,0.1-0.1c2.3-1.4,4.7-2.6,7.3-3.4
			c7.3-2.5,15.3-2.7,22.7-0.6c-0.2-0.1-0.3-0.2-0.5-0.4C189.4,20.2,186.3,19.4,183,19z M208.5,40.4c0,0-0.1,0.1-0.1,0.1
			c0.3,0.3,0.2,0.7-0.1,0.9c-0.1,0.2-0.3,0.5-0.6,0.4c-2.6-0.4-5.4,0.9-6.8,3.2c-1,1.6-1.2,3.5-0.8,5.3c0.1,0.1,0.2,0.1,0.2,0.3
			c0.5,1.5,1.5,2.8,2.7,3.8c0.6,0.3,1.2,0.6,1.8,0.9c1.7,0.8,3.4,1.3,5.2,1.7c-0.8-0.5-1.5-1-2.2-1.6c-2.1-1.8-3.8-4.3-3.8-7.2
			c0-1.8,0.7-3.5,2-4.7c0-0.1,0.1-0.2,0.2-0.2c0,0,0,0,0.1,0c0.5-0.4,1-0.7,1.6-0.9c0.2-0.1,0.3,0,0.4,0c0.4-0.2,0.7-0.3,1.1-0.5
			C209.1,41.3,208.8,40.8,208.5,40.4z M227.8,65.6c-2.1-1.5-4.5-2.2-7.1-2.3c-2.8-0.2-5.6,0.1-8.4-0.3c-4.3-0.6-8.4-2.5-11.6-5.4
			c0.3,1.1,0.6,2.3,0.8,3.5c0,0.1,0,0.2,0,0.3c1.5,2.1,3.5,3.7,5.8,4.8c1.4,0.7,3,1.1,4.6,1.2c2,0.2,4.1-0.1,6.1-0.3
			c1.9-0.1,3.7-0.2,5.6,0.1c1.6,0.3,3.3,0.8,4.8,1.5c1,0.5,2,1.1,2.8,1.7c-0.4-1-0.9-2-1.4-3C229.2,66.8,228.5,66.1,227.8,65.6z
			 M233.6,74c-2.1-2.5-4.9-4.3-8-5.3c-1.7-0.5-3.4-0.8-5.2-0.7c-2,0-4.1,0.3-6.1,0.4c-3.3,0.1-6.6-0.5-9.4-2.3
			c-1.8-1.2-3.4-2.7-4.5-4.5c-0.6-0.2-1.3-0.4-1.9-0.6c1.4,3.3,3.7,6.1,6.5,8.3c2.6,2,5.6,3.3,8.7,4c3.8,0.7,7.6,0.4,11.4,0.7
			c3.5,0.4,6.8,1.5,9.4,3.9c1.1,1,1.9,2.2,2.6,3.5c0-0.1,0-0.1,0-0.2c-0.1-0.2-0.1-0.4-0.2-0.6c-0.4-0.9-0.9-1.8-1.3-2.8
			C234.9,76.6,234.3,75.2,233.6,74z M193.2,147.6c1.6-2.7,2.8-5.4,3.5-8.5c0,0,0-0.1,0-0.1c-2.7-0.2-5.2-1.5-7.2-3.2
			c-1.9-1.6-3.6-3.5-5-5.6c-1.5-2.1-2.9-4.4-4-6.8c-1-2.1-1.7-4.3-2.3-6.5c-0.1,5.3,1.5,10.6,4.6,14.9c2.8,4,6.8,7.1,11.3,8.9
			c0.6,0.2,0.3,1.2-0.3,0.9c-2.7-1.1-5.1-2.5-7.3-4.4c-4-3.3-6.9-7.8-8.3-12.8c-0.4-1.4-0.7-2.8-0.8-4.2c0,0.1-0.1,0.1-0.2,0.1
			c0,0.4,0,0.8-0.1,1.2c0.9,4.3,2.4,8.4,4.5,12.3c2.8,5.3,6.7,10,11.5,13.6C193.1,147.4,193.2,147.5,193.2,147.6z M179.2,154.9
			c-0.8,4.9-3.2,9.3-6.3,13.1c-3.8,4.6-8.7,7.9-13.9,10.6c4.2-1.6,8.3-3.4,12-6c3.9-2.7,7.3-6.2,9.5-10.5c1.1-2.1,1.8-4.3,2.2-6.6
			c0.4-2.3,0.3-4.7-0.1-7c-1.3-7.9-5.5-15.3-6.4-23.2c-0.1,0.2-0.1,0.3-0.2,0.5c0,0.1-0.1,0.2-0.1,0.2c-0.1,4.4,0.9,8.8,1.9,13.1
			C178.9,144.3,180,149.6,179.2,154.9z M172.2,107.9c-0.4-0.9-0.9-1.8-1.5-2.7c-0.8-1.2-1.7-2.2-2.6-3.3c1.4,4.7,1.7,9.7,0.8,14.6
			c-0.9,4.9-3.2,9.5-6.3,13.3c-1.5,1.9-3.3,3.6-5.2,5c-2,1.5-4.3,2.8-6.5,4.1c-2.2,1.3-4.4,2.8-6.2,4.7c-1.6,1.8-2.8,3.9-3.7,6
			c-1.8,4.4-2.4,9.1-2.9,13.8c1.3-5,2.7-10.1,5.7-14.5c1.2-1.8,2.7-3.4,4.4-4.7c1.7-1.3,3.7-2.2,5.8-2.9c2.1-0.7,4.2-1.3,6.2-2.3
			c2-1,3.6-2.4,4.8-4.3c1.2-1.9,2-3.9,2.8-6c0.9-2.4,1.8-4.9,2.5-7.3C171.5,117.1,172.5,112.5,172.2,107.9z M121.4,123.1
			c0.9,0.1,1.8,0.6,2.7,0.5c1.8-0.3,2.2-2.5,2.1-4c0-0.9-0.1-1.7-0.3-2.6c-2.3,0.8-4.4,1.9-6.3,3.4c-3.6,2.9-6.2,6.9-7.2,11.4
			c-0.5,2.3-0.6,4.8-0.3,7.1c0.3,0.6,0.6,1.3,1,1.9c1.2-5.6,3-11.1,5.4-16.3c0.1-0.5,0.4-0.9,0.9-1.1
			C120,123.1,120.7,123,121.4,123.1z M38.8,102.9c6.3-2.1,12.9-3.5,19.4-4.5c2.7-0.4,5.3-0.8,8-1.1c-1.6-0.1-3.2-0.1-4.8-0.1
			c-7.4-0.1-14.9,0.5-21.9,2.9c-5.8,1.9-11.2,5-15.4,9.5C28.8,106.6,33.7,104.5,38.8,102.9z M25.6,109.6c1.5-0.6,3.1-1.2,4.7-1.6
			c3.9-1.1,7.8-1.8,11.8-2c4.3-0.3,8.6-0.2,12.9-0.8c6.3-0.9,12.3-3.6,17.2-7.7c-0.1,0-0.3,0-0.4,0c-5.1,0.6-10.1,1.3-15.2,2.1
			c-6.6,1.1-13.1,2.6-19.4,4.9C33.2,105.9,29.3,107.6,25.6,109.6z M80.5,95.4c7.3-0.9,14.6-2,21.7-3.8c4.3-1.1,8.7-2.6,12.4-5.1
			c-0.3,0-0.5,0.1-0.8,0.1c0,0-0.1,0-0.1,0c-3,1.2-6.2,2.1-9.3,2.9c-11.1,2.8-22.8,3.4-34.2,1.7c-0.2,0-0.3-0.2-0.3-0.3
			c-0.1,0.1-0.3,0.1-0.5,0.2c0,0.1-0.1,0.2-0.2,0.3c0,0-0.1,0-0.1,0.1c0,0,0,0,0,0c-0.1,0.1-0.2,0.1-0.3,0.2
			c-2.4,1.3-5.1,1.9-7.8,2.3c-0.6,0.1-1.2,0.2-1.8,0.2c-0.1,0-0.2,0-0.2,0c-0.5,0-1,0.1-1.5,0.1c-3.9,0.2-7.9,0-11.8,0.9
			c-3.5,0.8-6.8,2.2-9.9,4c-2.2,1.3-4.2,2.8-6.2,4.4c0.5-0.3,1-0.6,1.5-0.9c6-3.5,12.8-5.4,19.7-6.1c7-0.8,14.1-0.5,21.1,0
			c0.6-0.1,1.2-0.1,1.8-0.2c0.3-0.3,0.7-0.6,1-0.9c0.4-0.5,1.1,0.2,0.7,0.7c0,0,0,0-0.1,0.1C77,95.9,78.7,95.6,80.5,95.4z
			 M48.3,89.7c0.1,0,0.1,0,0.2,0c-1.8-1.2-3.1-2.9-3.9-4.9c-0.9-2.2-1-4.6-0.3-6.8c0.6-2,1.7-3.8,3.1-5.4c2.2-2.6,4.9-4.8,7.6-6.9
			c-2.2,0.9-4.3,1.9-6.2,3.3c-3.5,2.5-6.4,6.1-7.6,10.3c-1.1,4.1-0.3,8.7,2.5,12c0,0,0,0,0.1,0.1C45.2,90.7,46.7,90.2,48.3,89.7z
			 M64.2,55.6c2.5-1.1,5-2,7.7-2.7c3.1-0.7,6.2-1.2,9.4-1.2c3.3-0.1,6.7,0.5,10,0.5c1.6,0,3.3-0.2,4.8-0.7c1.4-0.4,2.7-1.1,3.9-2
			c0.7-0.5,1.3-1,2-1.5c-1.7,0.9-3.6,1.5-5.6,1.8c-4,0.7-8,0.5-12.1,0.3c-0.2,0-0.4,0-0.5,0c-2.1,0.2-4.2,0.2-6.3,0
			c-0.1,0-0.1,0-0.2-0.1C72.3,50.5,67.5,51.7,64.2,55.6z M145,16.6c-0.4,0.5-0.9,0.9-1.3,1.4c-0.2,0.6-0.5,1.3-0.7,1.9
			c-1.3,4.3-1.5,9,0.1,13.3c1.4,3.5,3.9,6.7,7.4,8.3c0.2,0,0.4,0,0.6-0.1c0.2,0,0.3,0.1,0.4,0.2c0,0,0.1,0,0.1,0.1
			c0.1-0.1,0.1-0.3,0.2-0.4c0-0.1,0-0.2,0-0.3c-1.2-0.9-2.3-2-3.3-3.2c-2.6-3.1-4.3-6.9-4.8-10.9C143.3,23.5,143.7,19.9,145,16.6z
			 M199.4,88.8c2.2-4.5,5.4-8.4,9.4-11.3c-1.3-0.7-2.6-1.7-3.6-2.8c-1.9,1.7-3.6,3.7-5,5.8c-3.1,4.7-5.1,10.2-5.5,15.8
			c-0.1,1.6-0.1,3.3,0,4.9c0,0,0,0,0,0c0.1,1,0.2,2,0.4,2.9c0.3,0.6,0.6,1.2,1,1.8c0-0.2,0-0.3,0-0.5
			C195.8,99.7,196.9,94,199.4,88.8z M199.6,139.1c-0.4-2-1-4-1.5-5.9c0.1,2.4-0.1,4.9-0.7,7.3c-1.1,4.3-3.4,8-5.9,11.6
			c-1.8,2.6-3.7,5.2-5.1,8c-0.4,1.5-0.7,3.1-0.8,4.7c-0.5,5.4,0.3,10.7,1.3,16c0,0.1,0,0.1,0.1,0.2c-0.3-1.5-0.5-3-0.6-4.5
			c-0.3-3.9-0.1-7.9,1.1-11.6c0.6-1.9,1.4-3.6,2.5-5.3c1.1-1.6,2.3-3.1,3.5-4.5c1.2-1.5,2.5-3,3.5-4.6c1-1.6,1.7-3.4,2.1-5.2
			C199.6,143.2,199.8,141.2,199.6,139.1z M184.4,166.6c0-0.4,0-0.8,0.1-1.2c-0.1,0.3-0.1,0.7-0.2,1
			C184.3,166.5,184.4,166.5,184.4,166.6C184.4,166.5,184.4,166.5,184.4,166.6C184.4,166.6,184.4,166.6,184.4,166.6z M175.2,113.5
			c0-1.7,0-3.5,0.2-5.2c-0.2-1.8-0.6-3.6-1.1-5.3c-0.1,0.2-0.4,0.4-0.7,0.2c-1.7-1.2-3.3-2.6-4.9-3.9c-0.5-0.3-1-0.7-1.5-1.1
			c-0.7-0.6-1.3-1.2-1.9-1.9c0.1,0.4,0.1,0.8,0.2,1.2c0.3,0.3,0.5,0.6,0.8,0.9c0.2-0.1,0.5-0.1,0.6,0.2c0.1,0.3,0.3,0.6,0.4,0.9
			c1.8,2,3.6,3.9,4.9,6.2c0,0,0,0,0,0c0.3-0.2,0.8-0.1,0.9,0.4c0.1,0.5,0.1,1,0.1,1.5C174,109.5,174.7,111.5,175.2,113.5z
			 M166.5,111.5c-0.3,4.2-1.2,8.5-3.4,12.2c-1.7,3-4.3,5.5-6.9,7.8c-4.4,3.7-9.7,7.1-12.8,12.1c0.3-0.4,0.6-0.7,0.9-1
			c1.8-1.8,3.9-3.2,6.1-4.5c2.2-1.3,4.4-2.5,6.5-4.1c1.9-1.5,3.7-3.2,5.2-5.1c3.1-3.9,5.2-8.6,5.9-13.6c0.8-5.1,0.2-10.4-1.7-15.2
			c-0.2-0.2-0.4-0.5-0.6-0.7C166.4,103.3,166.8,107.4,166.5,111.5z M154.1,126.4c0.2-2.3-0.2-4.5-1.1-6.6c0,0.1,0,0.2,0,0.3
			c0,1.2,0,2.3-0.1,3.5c-0.2,1.7-0.6,3.5-1.2,5.1c0.4-0.4,0.8-0.8,1.2-1.2C153.4,127.1,153.7,126.7,154.1,126.4z M148.3,127.2
			c0.1-0.6,0.2-1.1,0.2-1.7c-1.7,0.8-3.4,1.5-5.2,2.1c-6.4,2.1-13.9,2.5-19.4-1.7c0.1,0.2,0.2,0.4,0.3,0.6c0.9,1,2,1.8,3.1,2.6
			c2.9,1.8,6.3,2.8,9.7,2.8c3.6,0,7.1-1.2,10.1-3.3c0,0,0,0,0.1,0C147.6,128,148,127.6,148.3,127.2z M107.1,141.2
			c0.2,0.1,0.5,0.2,0.8,0.3c0.4,0.1,0.4,0.5,0.2,0.8c0.4,0.4,0.7,0.8,1,1.1c0.2,0.1,0.4,0.2,0.6,0.4c0.2,0.1,0.4,0.1,0.7,0.2
			c-0.9-1.5-1.9-3-2.8-4.4c-3.4-5-7.4-9.6-12.7-12.7c-5-2.9-10.9-4.4-16.6-3c-0.6,0.2-0.9-0.8-0.3-0.9c3.2-0.8,6.6-0.7,9.8,0
			c5.9,1.4,11.1,5,15.2,9.4c0.8,0.8,1.5,1.7,2.2,2.6c-0.5-0.9-1.1-1.7-1.6-2.6c-1.6-2.6-3.4-5.1-5.6-7.2c-2.1-2-4.4-3.7-7-4.9
			c-5.4-2.5-11.9-2.8-17.2,0.1c0,0,0,0,0,0c0.1,0.1,0.2,0.2,0.3,0.3c2.1,1.9,4.2,4,6,6.2c0.3,0.2,0.7,0.5,1,0.7
			c0.3,0.2,0.3,0.5,0.1,0.7c0.1,0.1,0.2,0.2,0.3,0.4c2.3,0.3,4.6,0.8,6.9,1.6c4.9,1.5,9.6,3.9,13.7,7
			C104,138.3,105.6,139.7,107.1,141.2z M49.7,89.3c2-0.6,4.1-1.1,6.1-1.7c-2.5-0.7-4.4-2.8-5.4-5.2c-0.5-1.2-0.8-2.4-0.9-3.6
			c0,0,0-0.1,0-0.1c-0.3-3.7,1.1-7.4,3.4-10.3c-0.1,0.1-0.3,0.2-0.4,0.3c-3.1,2.6-6.4,5.7-7.5,9.7C44,82.7,45.9,87.1,49.7,89.3
			C49.7,89.3,49.7,89.3,49.7,89.3z M68.2,61.6c-1.4,0.8-2.9,1.6-4.3,2.5c-2.8,1.8-5.5,3.9-7.6,6.6c-0.2,0.2-0.3,0.5-0.5,0.7
			c0.4-0.3,0.9-0.5,1.4-0.6c0.4-0.1,0.8-0.2,1.2-0.2c2.3-0.9,4.9-1.2,7.2-1.9c0.3-0.1,0.6-0.2,0.9-0.3c-0.9-0.5-1.7-1.1-2.5-1.8
			c-0.2-0.2-0.2-0.5,0-0.7C65.4,64.2,66.7,62.8,68.2,61.6z M55.3,73.7C55.4,73.7,55.4,73.7,55.3,73.7C55.4,73.7,55.4,73.7,55.3,73.7
			C55.4,73.7,55.4,73.7,55.3,73.7C55.4,73.7,55.3,73.7,55.3,73.7z M56,75c0,0.1,0,0.1,0.1,0.2C56.1,75.1,56.1,75,56,75
			C56.1,74.9,56,75,56,75z M60.7,78.2c0.1,0,0.1,0,0.2,0c0,0,0,0,0-0.1c0,0,0,0,0,0C60.8,78.1,60.7,78.1,60.7,78.2z M67.3,69.1
			c0.1,0,0.1-0.1,0.2-0.1C67.4,69.1,67.3,69.1,67.3,69.1C67.3,69.1,67.3,69.1,67.3,69.1z M59.7,81.2c3,0.7,6.2-0.4,8-3
			c0.4-0.6,0.7-1.3,0.9-2c-0.1-0.1-0.2-0.3-0.1-0.6c0.1-0.2,0.2-0.3,0.3-0.5c0.3-1.8,0-3.7-0.9-5.3c0,0-0.1,0-0.1,0.1
			c-0.5,0.3-1,0.5-1.6,0.7c0.5,1.2,0.6,2.6,0.3,4c-0.6,2.2-2.5,3.9-4.7,4.4c0,0-0.1,0-0.1,0.1c-0.1,0.1-0.3,0.1-0.4,0
			c-0.3,0-0.7,0.1-1,0c-2.7-0.1-5-2.2-5.6-4.8c-0.1,0.2-0.3,0.4-0.4,0.6c-0.1,0.2-0.1,0.4-0.1,0.6c0,1.4,0.5,2.8,1.7,3.5
			c0.1,0.1,0.2,0.2,0.2,0.3C57.2,80.4,58.4,80.9,59.7,81.2z M70.2,57.4c1.6,0.3,3.3,0.6,4.9,0.9c6.5,1.3,13.3,2.9,19.9,1.5
			c5-1,9.9-4.1,12-8.9c-0.1-0.9,0-1.9,0.1-2.8c0.1-0.9,0.3-1.9,0.5-2.8c-0.6,1-1.2,1.9-2,2.8c-4.4,5.5-11.3,9.1-18.4,9.1
			c-4.7,0-9.3-1.4-13.9-1.7c-3-0.2-6,0.2-8.9,1.2c1.3,0.1,2.5,0.2,3.8,0.4c0.1-0.2,0.4-0.3,0.7-0.2C69.3,57.1,69.8,57.2,70.2,57.4z
			 M138.9,37.9c1.1,1.5,2.7,2.7,4.4,3.4c0,0,0.1,0,0.1,0c-0.2-0.1-0.4-0.2-0.6-0.4c-2.1-1.5-3.7-3.7-4.5-6.2
			c-0.9-2.7-0.8-5.7-0.2-8.5c0.8-3.3,2.5-6.2,4.6-8.8c0.2-0.5,0.4-1.1,0.7-1.6c-0.9,0.5-1.7,1.2-2.5,1.9c-4.8,4.5-6.2,11.5-3.7,17.5
			C137.8,36.2,138.3,37.1,138.9,37.9z M144.9,15.3c0.1-0.1,0.2-0.2,0.3-0.3c-0.1,0-0.1,0.1-0.2,0.1C145,15.2,145,15.3,144.9,15.3z
			 M155.1,124.1c1.1-1.6,2.1-3.1,3.2-4.7c1-1.5,2.1-3,2.5-4.9c0.4-1.6,0.3-3.4,0.1-5c-0.3-2.2-0.8-4.4-1-6.6c0,0.1-0.1,0.3-0.1,0.4
			c0.1,5.7-0.9,11.5-2.9,16.9c-0.1,0.3-0.3,0.4-0.6,0.3c-1.3-0.2-1.5-1.7-1.8-2.7c0-0.1-0.1-0.4-0.3-0.5c-0.1,0-0.2-0.1-0.2-0.2
			c-0.1,0-0.2,0-0.3,0.1c-0.2,0.3-0.3,0.6-0.4,0.9c0,0,0.1,0.1,0.1,0.2C154.4,120.1,155,122,155.1,124.1z M113.3,119.4
			c2.9-3.9,7.1-6.8,11.8-8.1c0-0.3-0.1-0.5-0.1-0.8c0-0.2,0-0.3-0.1-0.5c-2.7,0.4-5.2,1.4-7.5,2.9c-4.4,2.8-7.6,7.2-8.7,12.3
			c-1,4.9-0.1,10.2,2.5,14.5c0-0.1,0-0.2,0-0.3c-0.7-1.6-1.2-3.2-1.5-4.9C108.9,129.1,110.1,123.7,113.3,119.4z M102.9,95.4
			c-1.8,0.5-3.6,0.5-5.4,0.9c-0.8,0.2-1.6,0.5-2.3,1c2.8-0.7,5.6-0.4,8.5-0.4c2.6,0,5.4-0.3,7.5-2c-0.5-1.1-0.9-2.2-1-3.4
			C108,93.3,105.5,94.6,102.9,95.4z M123.8,97.5c2.4-2.5,5-4.6,7.9-6.5c5.7-3.6,12.5-6.2,19.3-5.8c1,0.1,2,0.2,2.9,0.4
			c-1.3-0.4-2.7-0.7-4.1-1c-5.4-0.9-11.1-0.6-16.4,1.1c-2.6,0.8-5.2,1.9-7.5,3.4c-2,1.3-4,3-4.9,5.3
			C121.9,95.4,122.9,96.5,123.8,97.5z M120.3,93.5c1.1-2.4,3.3-4.2,5.5-5.6c4.9-3,10.7-4.5,16.5-4.8c4.7-0.2,9.5,0.6,14,2.2
			c-0.4-0.3-0.8-0.5-1.2-0.8c-5.2-3-11.1-4.7-17.1-4.8c-5.9-0.1-11.9,1.4-17.1,4.3c0,0.1,0,0.3-0.1,0.4c0.2,0.3,0.1,0.7-0.3,0.8
			c-0.1,0-0.2,0-0.3,0.1c-0.6,1.2-1.3,2.3-2.2,3.4c-0.3,0.4-1,0-0.8-0.5c0.3-0.8,0.5-1.7,0.7-2.5c-0.2,0-0.4,0-0.6,0
			c-0.7,0.6-1.3,1.1-2,1.5c0.1,0,0.2,0.1,0.3,0.2c1.1,1.5,2.3,3,3.5,4.5C119.5,92.5,119.9,93,120.3,93.5z M117,84.8
			c0.5-0.4,0.9-0.8,1.3-1.2c0.3-2.8-0.1-5.6-1-8.3c-0.2-0.2-0.3-0.5-0.3-0.8c-0.1-0.1-0.1-0.1-0.2-0.2c0,2.6-2.4,4.8-5,5.1
			c-3.3,0.4-6.3-1.4-8.8-3.2c-1.3-1-2.6-2-4-2.8c-0.7-0.4-1.4-0.8-2.2-1.1c-0.5-0.1-1-0.1-1.5-0.2c-0.3-0.1-0.4-0.3-0.3-0.5
			c0,0,0,0-0.1,0c-3.1-1.1-6.5-1.5-9.7-1.2c6,1.1,11,4.8,16,8.2C105.7,81.6,111.2,84.9,117,84.8z M76.4,67.7c-2.1,1.1-4,2.8-5,5
			c1.9-2.1,4.4-3.5,7.1-4.3c6.7-2,13.6,0.1,19.7,2.9c0.1,0.1,0.2,0.1,0.3,0.2c5.2,0.1,10.4-1.8,14.2-5.3c-1.9,1.4-4.2,2.3-6.6,2.6
			c-5.9,0.9-11.6-1.1-17.4-2.1c-1.3,0-2.5,0-3.8,0c-0.3,0-0.4-0.2-0.5-0.5C81.9,66.1,79,66.4,76.4,67.7z M185.7,93.1
			c0.8-5.9,3.7-11.2,6.7-16.2c-2.6,2.1-4.8,4.7-6.5,7.6c-3.8,6.7-4.4,14.8-1.8,22.1c0.7,1.9,1.6,3.6,2.7,5.3c1.1,1.7,2.5,3.3,4,4.8
			c1.3,1.3,2.6,2.7,3.7,4.2c0-0.2,0.1-0.5,0.1-0.7c0.1-0.5,0.2-0.9,0.3-1.4c0-3.1-1.7-6-3.5-8.4c-1.9-2.6-3.9-5-5-8.1
			C185.5,99.4,185.3,96.2,185.7,93.1z M149.3,117c0-0.5,0-1,0-1.5c-0.9,1.1-2,2.2-3.1,3.1c-4.7,4-10.7,6.5-16.9,6.8
			c6.5,0.6,13.2-1,18.6-4.8c0.2-0.1,0.3-0.1,0.5,0c0.4-0.3,0.6-1,0.6-1.4C149.2,118.5,149.1,117.7,149.3,117z M127,117.5
			c0-0.1,0.1-0.2,0.1-0.3c0.3-3.2,1.2-6.3,2.6-9.2c-0.4-0.1-0.7-0.2-1-0.4c-0.2-0.1-0.3-0.2-0.5-0.2c-0.8,0.1-1.5,0.1-2.3,0.1
			c-0.2,0.4-0.2,1-0.1,1.5c0.1,0.1,0.1,0.3,0.1,0.5c0.1,0.5,0.1,1,0.2,1.5c0.5,0,0.7,0.8,0.1,1c0.2,1.2,0.3,2.4,0.5,3.6
			C126.8,116.2,126.9,116.9,127,117.5z M93.5,118.4c-0.3-0.3-0.6-0.6-0.8-0.9c-0.4-0.2-0.8-0.5-1.2-0.7c0.3,0.2,0.7,0.5,1,0.7
			c0.1,0.1,0.2,0.2,0.2,0.4C93,118,93.3,118.2,93.5,118.4z M109.1,114c2.8-1.5,5.3-3.3,7.7-5.3c-1.3,0.4-2.6,0.8-4,1.2
			c-3.7,0.9-7.5,1.6-11.2,2.1c-1.7,0.2-3.6,0.5-5,1.5c-1.2,0.9-1.9,2.4-1.4,3.8c0.2,0.4-0.3,0.7-0.7,0.6c0.3,0.2,0.6,0.3,0.9,0.4
			c1.4,0.3,2.4-0.7,3.2-1.7c0.8-1,1.7-1.9,2.8-2.7c2.2-1.5,4.9-2.3,7.5-2.2c0.4,0,0.6,0.4,0.4,0.7c-0.2,0.3-0.4,0.6-0.6,0.9
			C109,113.5,109.1,113.8,109.1,114z M104.9,102.7c-0.4,0-0.8,0-1.1,0c-1.4,0-2.9,0.1-4.4,0.2c0,0,0,0,0,0c0.4,3.1-0.8,5.9-2.5,8.3
			C100.4,109.2,104.2,106.8,104.9,102.7z M93.7,102.5c0.1,0,0.2,0,0.3,0c0,0,0,0,0-0.1C93.8,102.4,93.8,102.4,93.7,102.5z
			 M91.9,103.8c2.1,2.5,2.5,5.9,2.5,9.2c2.3-2.8,4.5-6,4-9.8c0-0.1,0-0.2,0-0.2C96.3,103.1,94.1,103.4,91.9,103.8z M94.5,114.4
			C94.4,114.5,94.4,114.5,94.5,114.4c-0.1,0.1-0.1,0.1-0.1,0.1C94.4,114.5,94.4,114.5,94.5,114.4z M98.2,111.6
			c0.3-0.1,0.7-0.2,1-0.2c-0.1,0-0.2,0-0.2,0c-0.1,0-0.2,0-0.3-0.1C98.5,111.4,98.4,111.5,98.2,111.6z M109.5,102.6
			c-1.2,0-2.4,0-3.6,0c-0.5,3.5-2.9,5.8-5.6,7.6C104.5,109.8,108.2,106.8,109.5,102.6z M92,110.3c0.6,0.6,1.1,1.4,1.5,2.1
			c0-3.1-0.5-6.2-2.7-8.4c-2.3,0.5-4.5,1.2-6.7,2.1c-0.2,0.1-0.4,0.3-0.6,0.4c0.8,0.4,1.6,0.8,2.4,1.3c0.1-0.1,0.2-0.3,0.4-0.2
			C88.4,107.8,90.5,108.7,92,110.3z M94,117.5c0.1,0.1,0.1,0.1,0.2,0.2C94.1,117.6,94.1,117.5,94,117.5C94,117.5,94,117.5,94,117.5z
			 M114.9,105.3c-1.5-0.7-3-1.4-4.4-2.4c-1,3.1-3.2,5.6-5.9,7C108.4,109.6,112,107.9,114.9,105.3z M106.4,101.7
			C106.4,101.6,106.4,101.6,106.4,101.7C106.3,101.6,106.3,101.7,106.4,101.7C106.3,101.7,106.4,101.7,106.4,101.7z M94.7,99.4
			c0,0-0.1,0-0.1,0C94.6,99.4,94.7,99.4,94.7,99.4C94.7,99.4,94.7,99.4,94.7,99.4z M73.2,108.5c1,0.1,2,0.2,3.1,0.3
			c5.1,0.4,10.9,1.1,14.9,4.6c0,0,0,0,0,0c0,0,0,0,0,0c0.3,0.3,0.6,0.5,0.8,0.8c0.4,0.4,0.9,0.9,1.3,1.3c-0.5-3.6-3.3-6.5-7-7
			c-0.1,0.2-0.2,0.3-0.4,0.3c-3.1,0-6.1-0.3-9.1-0.8c-0.4,0.1-0.8,0.1-1.2,0.1C74.8,108.3,74,108.4,73.2,108.5z M94.5,119
			c2.7,1.8,5.2,4.1,7.3,6.6c1.9,2.2,3.5,4.5,5,7c-0.4-1-0.9-2-1.2-3c-1.1-2.9-1.7-6-1.2-9.1c0.3-1.7,0.9-3.4,1.8-4.8
			c0-0.1,0-0.1,0.1-0.2c0.6-0.9,1.2-1.8,1.7-2.7c-1.3,0-2.6,0.3-3.8,0.8c-1.3,0.5-2.6,1.3-3.6,2.3c-1,0.9-1.7,2.1-2.8,2.9
			C96.8,119.4,95.6,119.5,94.5,119z M107.6,131.7c-0.6-5.4,0.8-10.9,4.3-15.2c3.2-4,7.9-6.7,13-7.6c0-0.4-0.1-0.8,0-1.2
			c0-0.1,0-0.1,0-0.2c-3.1-0.1-6.2-0.7-9.1-1.8c0,0,0,0-0.1,0.1c-1.6,1.5-3.4,2.7-5.3,3.6c2.8-0.6,5.6-1.4,8.3-2.4
			c0.5-0.2,0.8,0.5,0.5,0.8c-3.5,3.4-7.6,6.2-12.1,8.3c-0.3,0.5-0.6,1-0.9,1.5C104.1,122.2,105.7,127.2,107.6,131.7z M130.2,107.2
			c0.4,0.1,0.8,0.1,1.1,0c-0.1,0-0.1,0-0.2,0c-0.2-0.1-0.5-0.2-0.7-0.2C130.4,107,130.3,107.1,130.2,107.2z M133.5,106.7
			c-0.2,1.9-0.9,3.5-2,4.9c-1.1,1.5-2.2,2.9-3,4.6c-0.6,1.4-1,2.9-1,4.4c3-2,4.9-5.2,6.2-8.5c1.5-3.5,2.4-7.2,4-10.7
			c1.4-3.1,3.4-5.9,6.1-8c4.5-3.6,10.5-5.2,16.2-4.4c-0.1,0-0.1-0.1-0.2-0.1c-0.1,0-0.2,0-0.3,0c-2.6-0.7-5.2-0.8-7.9-0.5
			c-4.8,0.6-9.2,2.7-13.2,5.2c-0.8,0.5-1.5,1-2.3,1.5c0.2,0.2,0.2,0.5-0.1,0.7c-1.7,0.9-2.4,3-2.5,4.8
			C133.3,102.7,133.7,104.7,133.5,106.7z M115.8,74.1c-1.9,1.8-4.7,2.4-7.3,2.1c-2.6-0.3-5-1.4-7.4-2.6c0.5,0.3,0.9,0.7,1.4,1
			c2.5,1.9,5.2,4,8.5,3.9c1.4,0,2.7-0.6,3.7-1.6C115.4,76.1,115.8,75.2,115.8,74.1z M67,82.5c-0.1,0.1-0.2,0.2-0.3,0.3
			c0.2-0.1,0.4-0.2,0.5-0.3C67.1,82.5,67.1,82.5,67,82.5z M69.1,87.5C69.1,87.5,69.1,87.5,69.1,87.5c0.1,0,0.1,0,0.1-0.1
			c0,0,0,0,0,0c0,0,0,0,0,0c0,0,0,0,0,0C69.2,87.4,69.1,87.5,69.1,87.5C69.1,87.5,69.1,87.5,69.1,87.5
			C69.1,87.5,69.1,87.5,69.1,87.5z M78.9,81.9c2,1.1,4.1,2.1,6.3,2.8c5.8,2.1,12.1,2.9,18.2,2.5c-1.4-0.1-2.8-0.5-4.1-1
			c-4.3-1.6-7.9-4.8-12.4-6c-2.5-0.7-5.6-0.5-7.7,1C79.2,81.4,79.1,81.7,78.9,81.9z M86.1,69.2c1.5-0.1,2.9,0,4.4,0.2
			c-0.8-0.2-1.5-0.4-2.3-0.5c-4.8-0.8-10.3-0.2-14.3,2.8c0.4-0.1,0.9-0.2,1.3-0.2c1.7-0.9,3.6-1.4,5.5-1.6
			C82.5,69.5,84.3,69.3,86.1,69.2z M114.3,66.2c-1.1,1.1-2.3,2-3.6,2.8c-3,1.9-6.6,3.1-10.1,3.3c2.5,1.2,5,2.5,7.8,2.9
			c2.5,0.3,5.4-0.3,7.1-2.2c-1-1.1-1.8-2.2-2.6-3.5c-0.3-0.5,0.4-1,0.8-0.6c0.9,0.8,2,1.5,3.1,2.1c-0.6-2.1-1.5-4.1-2.6-6
			c-0.1,0.1-0.2,0.2-0.3,0.3C114.2,65.3,114.7,65.8,114.3,66.2z M108,51c0.1,0.9,0.2,1.7,0.4,2.6c0,0,0,0.1,0,0.1
			c-0.1-0.7-0.2-1.4-0.3-2.1c0-0.1-0.1-0.2-0.1-0.4C108,51.1,108.1,51,108,51c0.1-0.3,0-0.5,0-0.7c0,0,0-0.1,0-0.1
			C108,50.4,108,50.7,108,51C108,51,108,51,108,51z M181.9,93c1.2-7.1,5.4-13.6,11.3-17.8c0,0,0-0.1,0-0.1c-0.3,0.1-0.5,0.2-0.8,0.2
			c-2.3,1.1-4.4,2.5-6.2,4.3c-3.5,3.3-6,7.6-7,12.3c-0.9,4.2-0.6,8.6,0.7,12.7c3.8,6,6.4,12.9,7.5,19.9c0,0.1,0,0.2,0,0.3
			c2.2,2.3,5.3,4.4,8.5,2.9c0,0,0,0,0,0c0-0.5-0.1-1.1-0.3-1.6c-0.6-1.5-1.7-2.8-2.7-4.1c-2.2-2.8-4.4-5.6-6.6-8.5
			c-0.2-0.2-0.1-0.4,0-0.6C182.4,107.1,180.8,99.9,181.9,93z M180,107.6c-0.2,0.5-0.4,1-0.6,1.6c2.2,4,4.2,8.1,5.9,12.3
			c0.3,0.6,0.6,1.3,0.9,1.9c-0.3-1.7-0.7-3.5-1.2-5.2c-1-3.5-2.4-6.9-4.2-10.1c-0.2,0.1-0.5,0.1-0.6-0.2
			C180.1,107.8,180.1,107.7,180,107.6C180,107.6,180,107.6,180,107.6z M195.5,122.3C195.5,122.3,195.5,122.3,195.5,122.3
			c0,0,0-0.1,0-0.2C195.4,122.1,195.5,122.2,195.5,122.3z M193.6,121.2C193.6,121.2,193.6,121.3,193.6,121.2
			C193.6,121.2,193.6,121.2,193.6,121.2C193.6,121.2,193.6,121.2,193.6,121.2z M162,90.8c0.1,0,0.2,0,0.2,0
			c-0.2-0.1-0.3-0.3-0.5-0.4c-0.1,0-0.1,0-0.2,0c-3.4-0.9-7.1-0.7-10.5,0.4c-3,0.9-5.8,2.5-8,4.7c-2.6,2.5-4.2,5.6-5.4,8.9
			c-2,5.4-3.5,11.9-7.9,15.9c2.1-1.5,4-3.4,5.6-5.4c4.1-5.2,6.7-11.4,11-16.5c3.7-4.4,9.1-7.9,14.9-7.6
			C161.4,90.5,161.7,90.4,162,90.8C161.9,90.7,161.9,90.7,162,90.8z M150.8,105.6c0,0,0,0.1,0,0.1
			C150.8,105.7,150.8,105.6,150.8,105.6C150.8,105.6,150.8,105.6,150.8,105.6z M158.1,100.6C158.1,100.6,158.1,100.6,158.1,100.6
			C158.1,100.6,158.1,100.6,158.1,100.6C158.1,100.6,158.1,100.6,158.1,100.6z M153.2,116C153.3,116,153.3,115.9,153.2,116
			c0.1-0.1,0.1-0.1,0.1-0.1C153.3,115.9,153.2,115.9,153.2,116z M150,102.4c-0.1,0-0.1,0.1-0.2,0.1c-7.6,5-11.4,14.6-19,19.4
			c1.1-0.4,2.2-0.9,3.3-1.4c2-1.1,3.8-2.5,5.3-4.2c1.5-1.7,2.7-3.6,3.9-5.4c1.6-2.5,3.4-5.6,6-7.2
			C149.4,103.3,149.7,102.8,150,102.4z M118,63.3c0.2,0.3,0.5,0.6,0.8,0.9c0.1-1.9,0.6-3.8,1.5-5.5c1.5-2.8,4.1-4.7,7.1-5.7
			c3-1,6.1-1.2,9.3-1.6c3.1-0.3,6.4-0.8,9.2-2.4c0.6-0.4,1.2-0.8,1.7-1.2c-0.9,0.4-1.8,0.6-2.8,0.7c-1.8,0.3-3.7,0.2-5.6,0.2
			c-1.9,0-3.8-0.1-5.6,0c-3.4,0.2-6.9,0.9-9.9,2.6c-2.6,1.5-4.9,3.9-5.7,6.8C117.5,59.9,117.5,61.7,118,63.3z M150.3,46.1
			c-1.1,1.6-2.5,3-4.3,3.9c-5.6,3-12.2,1.9-18.1,3.8c-3,1-5.5,2.9-6.9,5.7c-0.8,1.7-1.2,3.5-1.3,5.3c0.2,0.2,0.2,0.5,0,0.6
			c0,1.2,0.2,2.4,0.5,3.6c0.1-2.5,1-4.9,2.4-6.9c1.9-2.7,4.7-4.3,7.8-5.1c3.4-0.9,6.9-1.1,10.2-2.2c4.7-1.6,8.5-5.2,10.6-9.7
			C150.9,45.5,150.6,45.9,150.3,46.1z M194.4,72.9c-0.1-1.1-0.2-2.2-0.2-3.3c0-0.1-0.1-0.2,0-0.3c0,0,0-0.1,0-0.1c0,0,0-0.1,0-0.1
			c-2.2,1-4.3,2.2-6.3,3.6c-6.7,4.8-11.7,11.8-13.9,19.8c0.3-0.7,0.5-1.4,0.8-2c2-4.4,5-8.3,8.6-11.3
			C186.6,76.3,190.3,74.1,194.4,72.9z M120.2,70.5C120.2,70.5,120.2,70.5,120.2,70.5C120.2,70.5,120.2,70.5,120.2,70.5
			C120.2,70.5,120.2,70.5,120.2,70.5z M121.2,70.6c0.9-2,2.1-3.8,3.7-5.4c2-2,4.4-3.6,7.1-4.5c3-1,6.3-1.1,9.4-1.9
			c1.5-0.4,3-1,4.3-2c1.2-0.9,2.2-2.1,3-3.5c0.9-1.6,1.6-3.3,2.1-5.1c-0.6,0.9-1.3,1.8-2.1,2.7c-2.1,2.2-4.6,3.9-7.4,4.9
			c-3.2,1.1-6.7,1.3-10,2.2c-3.2,0.8-6,2.3-7.8,5.1C121.8,65.2,121,67.9,121.2,70.6z M163.4,60c-3.2,3.2-5.2,7.4-5.5,11.9
			c-0.2,3.8,0.7,7.7,2.6,10.9c-0.4-1.9-0.6-3.8-0.6-5.8c0-4.1,0.8-8.1,2.4-11.8c1.4-3.3,3.4-6.2,5.8-8.7
			C166.4,57.4,164.8,58.6,163.4,60z M180.8,47.6c-3.6,3.1-7.7,5.6-11.1,8.8c-3,2.8-5.3,6.3-6.8,10.1c-2.2,5.8-2.6,12.4-0.9,18.4
			c-0.4-3.2-0.2-6.5,0.7-9.7c0.9-3.4,2.5-6.5,4.5-9.4c0.9-2.3,2.2-4.5,3.8-6.4c1.6-1.9,3.4-3.5,5.5-4.7c2.3-1.4,4.7-2.4,6.9-4
			c3.6-2.7,5.6-7.3,5.2-11.8C186.3,42.2,183.7,45.1,180.8,47.6z M134.9,69.2c-0.1,0-0.1,0-0.2,0C134.8,69.2,134.8,69.2,134.9,69.2
			C134.9,69.2,134.9,69.2,134.9,69.2z M154.6,71.9C154.6,71.9,154.6,71.8,154.6,71.9C154.6,71.8,154.6,71.8,154.6,71.9
			C154.6,71.9,154.6,71.9,154.6,71.9z M125.8,69.4c-0.1,0.1-0.2,0.1-0.2,0.2C125.6,69.6,125.7,69.5,125.8,69.4
			C125.8,69.5,125.8,69.5,125.8,69.4z M129.6,69.7c0.2,0,0.3,0.1,0.5,0.1c-0.1,0-0.1-0.1-0.2-0.1C129.8,69.7,129.7,69.7,129.6,69.7z
			 M145.2,69.4c1.5,2.6,3.7,4.8,6.5,6.1c0,0,0.1,0,0.1,0c-2.3-3-3.8-6.7-4.1-10.5c-0.3,0.7-0.6,1.4-0.8,2
			C146.4,67.8,145.9,68.8,145.2,69.4z M162.4,88.9C162.4,88.9,162.4,89,162.4,88.9c0,0.1,0,0.1,0.1,0.1
			C162.4,89,162.4,89,162.4,88.9z M170.3,98.4c0.1,0.1,0.1,0.1,0.2,0.2c-1.5-3.6-2.4-7.5-2.5-11.5c-0.2-8,2.7-15.9,8.3-21.7
			c5.1-5.3,12.1-8.8,19.4-9.5c0-0.7-0.1-1.4-0.2-2c0-0.2-0.1-0.4-0.1-0.6c-4.6,1.1-9.1,2.3-13.4,4.3c-3.6,1.7-6.9,3.9-9.5,6.9
			c-2.6,3-4.1,6.8-5.1,10.7c-1,4-1.4,8.2-1.4,12.3C166.1,91.5,166.9,95.9,170.3,98.4z M195.8,56.9c-3.9,0.4-7.7,1.6-11.1,3.4
			c-6.6,3.5-11.8,9.4-14.1,16.6c-2.2,6.8-2,14.3,0.7,20.9c-0.8-3-1.1-6.1-1.1-9.1c0.1-6.9,2.3-13.8,6.9-19c4.2-4.7,10-7.9,16.3-8.3
			c0.1,0,0.2,0,0.2,0c-0.1-0.9-0.1-1.7-0.2-2.6c0-0.3,0.2-0.5,0.5-0.5c0.6,0,1.3,0,1.9,0C195.8,57.8,195.8,57.4,195.8,56.9z
			 M179.6,73.1c3.8-4.1,8.7-7.2,14-8.7c0.1,0,0.1,0,0.2,0c-0.1-0.7-0.1-1.5-0.2-2.2c-0.1,0.1-0.2,0.1-0.3,0.1
			c-3.4,0.2-6.7,1.3-9.6,3c-5.4,3.2-9.4,8.5-11.3,14.5c-1.8,5.7-1.7,11.8-0.3,17.6c0,0,0,0,0.1,0c-0.4-2.8-0.4-5.7,0-8.5
			C173,83.1,175.6,77.5,179.6,73.1z M170.5,98.7C170.5,98.7,170.5,98.7,170.5,98.7C170.5,98.7,170.5,98.7,170.5,98.7
			C170.5,98.7,170.5,98.7,170.5,98.7z M174.8,87c3.8-8.4,10.7-15.4,19.2-19c-0.1-0.9-0.1-1.8-0.2-2.7c-2.9,0.8-5.7,2.1-8.2,3.8
			c-4.6,3.1-8.3,7.4-10.4,12.5c-1.5,3.4-2.2,7.1-2.3,10.7C173.4,90.5,174,88.7,174.8,87z M194.7,49.6c-5.1,1.4-10.1,3.3-14.7,6
			c-4.7,2.7-8.9,6.4-12,10.8c-0.1,0.1-0.1,0.3-0.2,0.4c-0.1,0.2-0.2,0.3-0.3,0.3c-1.9,2.9-3.4,6.1-4.2,9.6
			c-1.2,5.4-0.4,11.3,2.3,16.2c0.1,0,0.1,0.1,0.2,0.1c0,0,0,0,0,0c-0.6-2.1-0.7-4.4-0.7-6.5c0.2-8.2,1.6-17.2,7.4-23.4
			c5.9-6.4,14.6-8.8,22.8-10.8C195.2,51.4,195,50.5,194.7,49.6z M156.5,78.7c-0.7-1.4-1.3-2.9-1.7-4.4c0,0,0,0-0.1-0.1
			c-1.9-3.6-3.8-7.2-5.7-10.8c-0.3,0.1-0.6,0.4-0.9,0.6c0.2,0,0.4,0.2,0.4,0.5c0.4,5.1,2.8,9.9,6.7,13.1c0.4,0.3,0.7,0.5,1,0.8
			C156.4,78.6,156.4,78.6,156.5,78.7z M133.6,72.4c0.6-0.1,1.3-0.2,1.9-0.2c-0.2,0-0.4-0.1-0.6-0.2c-2.6-0.2-5.1-1.9-7.8-1.6
			c-0.6,0.1-1.1,0.2-1.6,0.4c-0.1,0.1-0.2,0.1-0.3,0.2c-1.6,1.2-2.6,3-3.4,4.8c0.5-0.7,1.1-1.4,1.8-2c1.2-1,2.5-1.7,4.1-1.8
			C129.5,71.8,131.6,72.3,133.6,72.4z M128.6,73c-1.6,0-3.1,0.5-4.3,1.5c-0.6,0.5-1.1,1.1-1.6,1.8c2.4-1.4,5-2.5,7.7-3.2
			C129.8,73,129.2,73,128.6,73z M147.7,74c-1.3-1.2-2.5-2.6-3.3-4.1c-0.1,0-0.2,0.1-0.3,0.1c-0.4,0.1-0.8,0.1-1.1,0
			c-0.4-0.1-0.8-0.2-1.2-0.1c-0.7,0.2-1.3,0.8-1.8,1.3c-0.5,0.4-1.1,0.8-1.8,1c0,0,0,0,0,0C141.4,72.2,144.6,72.8,147.7,74z
			 M194.5,48.6c-1.1-3.7-2.8-7.2-5.1-10.3c0.3,2.5,0,5-1,7.3c-0.9,2.2-2.4,4.2-4.2,5.7c-2.1,1.7-4.6,2.7-6.9,4.1
			c-2.8,1.7-5.1,3.9-6.9,6.6C176.7,55.2,185.5,51.1,194.5,48.6z M190.1,36.5C190.1,36.4,190,36.4,190.1,36.5c-0.1,0-0.1,0-0.1,0
			C190,36.4,190.1,36.4,190.1,36.5z M155.2,65.1c0.2,2.8,0.4,5.7,0.4,8.5c0.4,1.8,1.1,3.5,2.1,5.2c0-0.1-0.1-0.2-0.1-0.3
			c-1.3-4.7-0.8-9.8,1.4-14.1c1.3-2.5,3.1-4.7,5.2-6.5C160.6,59.4,157.5,62,155.2,65.1z M135.7,68.1
			C135.7,68.1,135.6,68.1,135.7,68.1C135.6,68.1,135.7,68.1,135.7,68.1C135.7,68.1,135.7,68.1,135.7,68.1z M126.3,66.6
			c1.9-1.6,4.1-2.9,6.6-3.6c3-0.8,6.1-0.5,9-1.2c1.3-0.3,2.6-0.8,3.6-1.6c1.1-0.9,1.8-2.1,2.3-3.4c0.2-0.5,0.4-1.1,0.6-1.6
			c-0.7,1-1.6,1.9-2.6,2.6c-1.3,0.9-2.8,1.5-4.3,2c-3.1,0.8-6.3,0.9-9.4,1.9c-4.3,1.5-7.8,4.7-9.8,8.7c0.3-0.3,0.7-0.6,1-0.9
			C124.3,68.4,125.2,67.4,126.3,66.6z M118.5,66.5c0.1,0.3,0.3,0.6,0.4,0.9c0-0.1,0-0.3,0-0.4C118.7,66.8,118.6,66.7,118.5,66.5z
			 M116.9,65.5c-0.2-0.4-0.4-0.8-0.6-1.2c0,0.1-0.1,0.1-0.1,0.2c0,0,0,0,0,0c0.1,0,0.2,0.1,0.3,0.3c0.1,0.3,0.2,0.5,0.3,0.8
			C116.8,65.6,116.8,65.6,116.9,65.5z M115.1,62.3C115.1,62.3,115.1,62.3,115.1,62.3C115.1,62.3,115.1,62.3,115.1,62.3
			C115.1,62.3,115.1,62.3,115.1,62.3z M111.5,34.3C111.5,34.3,111.5,34.3,111.5,34.3C111.5,34.3,111.5,34.3,111.5,34.3
			C111.5,34.4,111.5,34.3,111.5,34.3z M109.7,42c0,0,0.1,0,0.1,0c0.1-0.1,0.1-0.2,0.2-0.4c0,0-0.1,0-0.1,0c0,0,0,0,0,0
			C109.8,41.8,109.7,41.9,109.7,42z M110.2,57.7C110.2,57.7,110.2,57.7,110.2,57.7C110.2,57.7,110.2,57.7,110.2,57.7
			C110.2,57.7,110.2,57.7,110.2,57.7z M113.1,62c0,0,0.1,0.1,0.1,0.1C113.2,62,113.2,62,113.1,62C113.2,61.9,113.2,61.9,113.1,62
			C113.2,61.9,113.1,61.9,113.1,62z M116.2,66.9c0,0.1,0.1,0.1,0.1,0.2C116.3,67,116.3,67,116.2,66.9
			C116.2,66.9,116.2,66.9,116.2,66.9z M115.4,71.4c0,0.1,0.1,0.1,0.1,0.2c0,0,0-0.1,0-0.1C115.5,71.5,115.4,71.4,115.4,71.4z
			 M121.6,79c3-1.5,6.1-2.9,9.4-3.8c2.9-0.8,5.9-1.2,8.9-0.9c2.9,0.3,5.7,1.2,8.3,2.5c5.3,2.7,9.6,7,13.8,11.2c0,0,0,0,0,0
			c-0.1-0.3-0.2-0.6-0.3-0.9c-1.6-2.8-3.7-5.4-6.2-7.5c-4.6-3.9-10.5-6.3-16.6-6.6c-0.8,0-1.7,0-2.5,0c-0.8,0.2-1.6,0.2-2.4,0.2
			c-4.4,0.6-8.6,2.2-12.3,4.7C121.6,78.4,121.6,78.7,121.6,79z M178.2,102.1c-0.2-1-0.4-2-0.4-3c-0.5-5.3,0.7-10.6,3.5-15.1
			c1.6-2.6,3.6-4.8,6-6.7c-6.9,4.5-12,11.6-13.7,19.7c0.2-0.1,0.4,0,0.5,0.1C175.6,98.7,176.9,100.3,178.2,102.1z M161.1,58.4
			c-2.1,0.5-4.3,0.9-6.5,1c0.2,1.4,0.3,2.8,0.5,4.2C156.7,61.6,158.8,59.8,161.1,58.4z M151.8,48.6c-0.6,1.6-1.1,3.2-1.7,4.8
			c-0.6,1.6-1.1,3.2-1.8,4.7c-0.6,1.2-1.4,2.3-2.5,3.1c-1.1,0.8-2.3,1.2-3.6,1.5c-3,0.7-6.1,0.3-9.1,1.2c-2.8,0.8-5.2,2.3-7.2,4.3
			c1.3-0.7,2.7-1.2,4.1-1.4c2.3-0.4,4.7,0.4,7,0.4c2.1,0.1,4.2-0.5,6-1.7c0,0,0.1,0,0.1-0.1c0.6-0.4,1.1-0.8,1.6-1.3
			c0.1-0.1,0.2-0.1,0.2-0.1C149.3,60.2,151.3,54.4,151.8,48.6z M141.9,45.5c-6.7-0.3-14.4-2-20.2,2.4c-2.6,2-3.8,5-4.4,8.1
			c-0.1,0.7-0.2,1.4-0.3,2.1c0-0.1,0.1-0.3,0.1-0.4c0.9-3,3.1-5.3,5.7-7c2.9-1.8,6.4-2.6,9.8-2.9c1.9-0.2,3.8-0.2,5.7-0.1
			c1.9,0,3.9,0.1,5.8-0.1c1.9-0.2,4-0.9,5.5-2.1c0.4-0.5,0.7-1.1,1.1-1.7C148.5,45.8,144.7,45.6,141.9,45.5z M125.4,44.9
			c-2.6,0.5-5.1,1.4-7.3,2.8c-2.6,1.7-4.8,4.1-5.9,7.1c0,0,0,0.1,0,0.1c1.5,3.1,3.3,6,4.9,9.1c0-0.1,0-0.1-0.1-0.2
			c-1.4-2.2-1.2-5.5-0.7-8c0.6-3.2,1.8-6.3,4.4-8.4C122.1,46.3,123.7,45.4,125.4,44.9z M111,58.7c0,0.1,0.1,0.1,0.1,0.2
			C111.1,58.8,111.1,58.7,111,58.7C111,58.7,111,58.7,111,58.7z M112.3,62.5c-5.1,3-11.1,4.6-17,4.5c0.4,0.1,0.7,0.2,1.1,0.2
			c5.8,1.2,12.9,1.6,17.3-3C113.2,63.6,112.7,63,112.3,62.5z M119.3,80.9c0,0.2,0,0.4,0,0.6c0-0.1,0-0.2,0.1-0.4
			C119.4,81,119.3,80.9,119.3,80.9z M119,85.6c0,0.1,0,0.1,0,0.2C119,85.7,119,85.6,119,85.6C119,85.6,119,85.6,119,85.6z
			 M121.1,82.9c2.6-1.4,5.5-2.4,8.4-3.1c6.2-1.4,12.8-1.2,18.8,0.7c3.3,1.1,6.4,2.6,9.3,4.6c-1.1-1.1-2.2-2.1-3.4-3.1
			c-4.4-3.6-9.6-6.5-15.4-6.8c-5.9-0.2-11.7,2-16.9,4.7c-0.1,0.1-0.2,0.1-0.3,0C121.5,81,121.4,81.9,121.1,82.9z M159.1,87.4
			C159.1,87.4,159.1,87.4,159.1,87.4C159.1,87.4,159.2,87.5,159.1,87.4C159.2,87.5,159.2,87.4,159.1,87.4z M132.4,107.5
			c-0.4,0.6-1,0.7-1.7,0.7c0,0.1,0,0.1-0.1,0.2c-0.9,1.8-1.6,3.7-2,5.6c0.7-1.1,1.5-2.1,2.3-3.2c0.6-0.8,1.1-1.6,1.3-2.5
			C132.3,108,132.4,107.7,132.4,107.5z M129.1,123.6c0.5-0.1,1-0.1,1.5-0.2c4.8-0.9,9.2-3.2,12.6-6.7c2.8-2.9,4.9-6.4,6-10.3
			c0-0.4,0-0.8-0.1-1.3c0,0,0,0,0-0.1c-0.9,0.7-1.7,1.5-2.3,2.4c-2.7,3.5-4.6,7.6-7.7,10.7C136.3,120.9,132.7,122.4,129.1,123.6z
			 M158.2,112C158.1,112,158.1,112.1,158.2,112C158.1,112.1,158.1,112.1,158.2,112C158.2,112.1,158.2,112,158.2,112z M160.5,91.7
			c-2.8,0-5.6,1-8.1,2.5c-5.6,3.5-8.9,9.5-12.2,15c-3,4.9-6.4,9.9-11.5,12.8c0,0,0,0,0,0c1.7-0.9,3.3-2,4.7-3.3
			c4.2-3.8,7.1-8.7,11-12.8c3.4-3.6,7.9-6.7,13-7c0.6-0.4,1.1-1,1.5-1.6c0.4-0.6,0.6-1.2,0.7-1.9c0.1-0.8,0-1.5,0.1-2.3
			C159.9,92.6,160.2,92.1,160.5,91.7z M174,101.8c0.1-0.4,0.7-0.5,0.9-0.2c1.1,1.7,2.1,3.4,3.1,5.1c0.3,0.5,0.5,0.9,0.8,1.4
			c0.1-0.2,0.2-0.5,0.3-0.7c0.1-0.3,0.5-0.4,0.8-0.3c-0.3-0.7-0.6-1.4-0.8-2.1c-1.5-2.4-3.2-4.6-5.1-6.7
			C173.5,99.4,173.5,100.7,174,101.8z M176.8,111.6c0,0-0.1,0-0.1-0.1c0,0,0,0.1,0,0.1C176.7,111.7,176.8,111.6,176.8,111.6
			C176.8,111.6,176.8,111.6,176.8,111.6z M176.4,108c0,0.1,0,0.2,0,0.3c0,0.1,0,0.3,0,0.4c0-0.1,0-0.2,0-0.2c0,0,0-0.1,0-0.1
			C176.5,108.2,176.5,108.1,176.4,108C176.5,108,176.4,108,176.4,108z M177.2,107.3c-0.1-0.1-0.1-0.2-0.2-0.3
			C177.1,107.2,177.2,107.2,177.2,107.3C177.2,107.3,177.2,107.3,177.2,107.3z M175.8,119.7c0,0.1,0,0.2,0,0.3c0,0,0,0,0.1,0.1
			C175.8,120,175.8,119.8,175.8,119.7z M198.8,120.5c0-0.1,0-0.1,0-0.2C198.8,120.4,198.8,120.5,198.8,120.5
			C198.8,120.5,198.8,120.5,198.8,120.5z M194.9,74.9C194.9,75,194.9,75,194.9,74.9L194.9,74.9z M176,27.4c0,0,0.1,0,0.1,0
			C176.2,27.4,176.1,27.4,176,27.4C176.1,27.4,176.1,27.4,176,27.4z M185.6,38.7c-0.3,0.2-0.6,0.4-0.9,0.6c0,0,0,0,0,0
			c-1.6,2.2-3.4,4.2-5.4,6c-6.9,6.2-16.1,9.8-25.4,9.8c0.1,0.8,0.2,1.5,0.3,2.3c0.1,0.1,0.2,0.2,0.2,0.4c0,0.2,0,0.4-0.1,0.6
			c0,0,0,0,0,0.1c2.8-0.2,5.6-0.7,8.3-1.5c0.9-0.3,1.7-0.6,2.6-1c0.1,0,0.2,0,0.2,0c4.2-1.6,8.1-4,11.5-6.9c3.2-2.7,6-6,8.1-9.6
			C185.4,39.3,185.5,39,185.6,38.7z M182.1,41.1c-0.5,0.3-0.9,0.6-1.4,0.9c-4.4,2.8-9.2,5.2-14.3,6.3c-4.5,1-9.2,0.9-13.5-0.5
			c0,0.4-0.1,0.8-0.1,1.2c0.1,0.1,0.1,0.1,0.1,0.2c0.3,1.7,0.6,3.4,0.9,5c2.5,0,4.9-0.3,7.4-0.8C169.3,51.7,176.8,47.4,182.1,41.1z
			 M151.9,47.4C151.9,47.4,151.9,47.4,151.9,47.4c-0.1,0-0.1,0.1-0.1,0.1c0,0,0.1,0,0.1,0C151.9,47.5,151.9,47.4,151.9,47.4z
			 M134.9,43.5c0.1,0.2,0,0.3-0.1,0.5c2.1,0.1,4.1,0.3,6.2,0.5c1.9,0.1,3.9,0.3,5.8,0c1.2-0.2,2.4-0.6,3.3-1.5
			c-0.8,0.1-1.7,0.1-2.5,0c-2.6,0.3-5.2,0.6-7.8,0.7C138.2,43.6,136.5,43.6,134.9,43.5z M130.1,43.3c-1.7-0.5-3.4-0.8-5.1-0.9
			c-3.1-0.2-6.3,0.3-9.1,1.7c-2.4,1.3-4.4,3.2-5.7,5.6c0.4,1.4,0.9,2.7,1.5,4c0.6-1.4,1.5-2.7,2.5-3.9
			C118.2,45.3,124.2,43.7,130.1,43.3z M112.6,40.7c-1.5,1.8-2.6,3.9-3.1,6.1c0,0.2,0.1,0.4,0.1,0.6c0.1,0.3,0.1,0.6,0.2,0.9
			c0.7-1.1,1.5-2.1,2.4-2.9c3-2.7,6.8-3.9,10.7-4C119.7,40.1,116,39.8,112.6,40.7z M107.2,52.7c-1.2,2.1-2.9,3.8-4.9,5.2
			c-3.6,2.4-7.9,3.4-12.2,3.4c6.5,0.1,13.1-1,19.2-3.1c0,0-0.1-0.1-0.1-0.1C108.2,56.5,107.5,54.6,107.2,52.7z M109.6,59.9
			c-1.2,1.3-2.5,2.4-4.1,3.3c-2.2,1.3-4.5,2.1-7,2.6c4.6-0.4,9.1-1.9,13.1-4.2c-0.1-0.1-0.1-0.1-0.2-0.2c-0.3-0.3-0.1-0.8,0.3-0.8
			c-0.6-0.5-1.2-1-1.7-1.6c-0.2,0.1-0.3,0.1-0.5,0.2C109.7,59.4,109.8,59.7,109.6,59.9z M57.8,87C57.8,87,57.8,87,57.8,87
			C57.8,87,57.8,87,57.8,87C57.8,87,57.8,87,57.8,87z M71.9,88.7c0.1,0,0.1-0.1,0.2-0.1c0,0,0,0,0,0C72,88.6,71.9,88.7,71.9,88.7z
			 M76.3,86c2,0.8,4.1,1.4,6.2,1.9c6.6,1.5,13.5,1.6,20.1,0.3c-8.3,0.5-16.8-1.4-24.1-5.5C77.9,83.9,77.1,85,76.3,86z M106.4,86.1
			c-0.6-0.2-1.2-0.4-1.8-0.6c-1.7-0.7-3.2-1.6-4.6-2.7c-1.5-1.1-2.9-2.3-4.5-3.2c-3.3-1.8-7.2-2-10.9-1.6c-7,0.7-13.8,3.2-19.7,7.1
			c3.4-0.3,6.8-1.2,10-2.6c0.1,0,0.1-0.1,0.2-0.1c0.1-0.1,0.2-0.1,0.3-0.1c1-0.5,2.1-1,3.1-1.6c0.8-0.7,1.8-1.1,2.9-1.4
			c4.3-1.2,8.3,0.7,12,2.8C97.2,84.2,101.7,87.1,106.4,86.1z M107.3,86.7c0.4-0.1,0.8-0.1,1.2-0.2c-0.4-0.1-0.7-0.1-1.1-0.2
			C107.4,86.5,107.4,86.6,107.3,86.7z M94.4,77.9c-0.7-0.5-1.5-0.9-2.3-1.3c-4-2-8.7-2.6-13.1-1.6c-2.3,0.5-4.4,1.5-6.3,2.7
			c-1.5,1.5-3,2.9-4.7,4.2c0,0,0,0.1-0.1,0.1c-0.1,0.1-0.2,0.2-0.3,0.2c-0.1,0.1-0.2,0.2-0.3,0.2c2.3-1.3,4.8-2.4,7.3-3.3
			c3.5-1.2,7.1-2,10.8-2.2C88.5,76.6,91.6,76.8,94.4,77.9z M124.4,98.2c1.1,1.3,2.3,2.5,3.5,3.7c0.5-2.3,2.3-3.9,4.2-5.2
			c7.1-5.2,15.6-10.4,24.6-9.4c-5.6-2.1-11.9-1.3-17.4,0.8C133.7,90.4,128.6,93.9,124.4,98.2z M128.8,102.9c1.2,1.3,2.5,2.5,3.7,3.7
			c0,0,0,0,0,0c0-0.5,0.1-1,0-1.4c0-2.1-0.4-4.2,0.1-6.3c0.2-0.7,0.4-1.4,0.8-2c-0.3,0.2-0.6,0.5-1,0.7
			C130.8,98.9,128.9,100.6,128.8,102.9z M128.9,106.4c-1.5-0.5-3-1-4.5-1.5c-3.6-1.3-7.2-2.8-10-5.5c-1.1-1.1-2.1-2.3-2.8-3.6
			c-4.9,3.6-11.5,0.9-17,2.6c0,0,0,0-0.1,0c4.8,0.6,9.6,1.5,14.2,2.9c0.1-0.3,0.4-0.4,0.7-0.2c1.3,1,2.6,1.8,4,2.5
			c3.7,1.9,7.9,2.9,12.1,3c0.7-0.6,1.8-0.5,2.7-0.2c0.1,0,0.1,0,0.2,0.1C128.6,106.4,128.7,106.4,128.9,106.4z M94,98.3
			c0.1,0,0.2,0,0.2,0c-0.1,0-0.1-0.1-0.2-0.1C94,98.3,94,98.3,94,98.3z M74.7,109.6c6,1.2,11.7,3.3,17.1,6.2
			c-0.1-0.2-0.2-0.4-0.3-0.6c0-0.1-0.1-0.2,0-0.2c-0.3-0.3-0.6-0.6-0.9-0.9c0,0,0,0,0,0c-0.6-0.5-1.2-0.9-1.9-1.3
			C84.4,110.3,79.5,110.1,74.7,109.6z M65.5,113.9c1.1,0.7,2.2,1.4,3.2,2.1c0,0,0.1-0.1,0.2-0.1c3.9-1.9,8.3-2.5,12.6-2
			c1.7,0.2,3.3,0.6,4.9,1.1C80.2,112.1,71.6,110,65.5,113.9z M50.8,109.4C50.7,109.4,50.7,109.4,50.8,109.4c0,0,0.1,0,0.2,0
			c0,0,0,0,0,0C50.9,109.4,50.8,109.4,50.8,109.4z M66,128C66,128,65.9,128,66,128C65.9,128.1,65.9,128.1,66,128
			c0,0.1,0,0.1-0.1,0.1C65.9,128.1,65.9,128.1,66,128z M73.4,119.3c3-1.7,6.5-2.4,10-2.2c6,0.3,11.6,3.3,15.8,7.6
			c4.2,4.2,6.7,9.7,10.2,14.5c0-0.1,0-0.1,0.1-0.2c-0.6-1.1-1.2-2.3-1.8-3.4c-4-7-9.2-13.6-16.4-17.5c-6.6-3.5-14.7-4.7-21.6-1.4
			c1.2,0.9,2.4,1.9,3.6,2.9C73.2,119.4,73.2,119.3,73.4,119.3z M109.9,141.3c0.1,0.2,0.2,0.3,0.3,0.5c0-0.1-0.1-0.1-0.1-0.2
			c0-0.1-0.1-0.2,0-0.3c0,0,0-0.1-0.1-0.1C110,141.3,110,141.3,109.9,141.3z M111.7,141.5c0,0,0-0.1,0-0.1c0,0,0,0,0,0
			C111.7,141.4,111.7,141.4,111.7,141.5C111.7,141.5,111.7,141.5,111.7,141.5z M130.6,124.4c0.5-0.1,1.1-0.1,1.6-0.2
			c6.8-1.1,13.1-4.8,17.3-10.3c0-1.6,0-3.2-0.1-4.8c-0.5,1.2-1,2.3-1.7,3.4c-2.5,4.2-6.2,7.7-10.6,9.9
			C135,123.3,132.8,124,130.6,124.4z M125.6,125.8c1.1,0.7,2.2,1.2,3.5,1.6c6.7,2.1,13.6-0.2,19.7-3c0.1-1,0.2-2,0.3-3
			c-0.3,0.2-0.6,0.3-0.9,0.3c-1.6,1.1-3.4,2-5.2,2.8C137.4,126.7,131.3,127.1,125.6,125.8z M160.1,97.2c0,0.1-0.1,0.2-0.1,0.2
			C160.1,97.3,160.1,97.3,160.1,97.2C160.1,97.2,160.1,97.2,160.1,97.2z M184.7,122.8c0.2,0.3,0.4,0.6,0.6,0.9c0-0.1,0-0.1-0.1-0.2
			C185,123.4,184.8,123.1,184.7,122.8C184.6,122.8,184.6,122.8,184.7,122.8z M194.2,104.5c-0.6-1.2-1.2-2.4-1.8-3.6
			c-1.9-4.6-2.9-9.7-1.2-14.6c1.3-3.7,4-7.4,4.1-11.4c-0.1,0.1-0.3,0.1-0.4,0.1c0,0-0.1,0.1-0.1,0.1c0,0,0,0-0.1,0
			c0,0.1-0.1,0.2-0.2,0.3c0,0.1,0,0.1-0.1,0.2c-1.9,3.2-3.9,6.4-5.4,9.8c-2.5,5.8-3.8,12.7-0.7,18.6c1.7,3.2,4.6,6.2,6.4,9.6
			c-0.1-1.9,0-3.8,0.3-5.8C194.6,106.7,194.4,105.6,194.2,104.5z M193.8,101.6c0-0.1,0-0.1,0-0.2c-0.7-2.7-0.9-5.6-0.5-8.4
			c0.4-2.5,1.2-4.9,2.4-7.1c1.1-2.2,2.4-4.3,3.1-6.7c1.4-4.8-0.3-9.6-2.2-14c-0.3,2.2-0.5,4.4-0.8,6.6c0,0,0,0,0,0.1
			c0.1,0.2,0.1,0.4,0.2,0.6c0,0,0,0,0,0c0.6-0.2,0.9,0.8,0.3,0.9c0,0-0.1,0-0.1,0c0.3,2.1-0.2,4.3-1,6.3c-0.9,2.3-2.2,4.5-3,6.8
			c-0.8,2.4-1,5-0.7,7.5C191.8,96.7,192.7,99.2,193.8,101.6z M199.7,79.6C199.7,79.6,199.7,79.6,199.7,79.6c1.4-2,3-3.9,4.9-5.6
			c-0.1-0.1-0.1-0.1-0.2-0.2c-2.4-1.8-4.4-4-6-6.6c0.6,1.5,1.1,3.1,1.5,4.7C200.4,74.4,200.5,77.1,199.7,79.6z M179.1,30.4
			c0.1,0.1,0.3,0.1,0.4,0.2c0,0,0,0,0,0c-0.1,0-0.2-0.1-0.2-0.1C179.2,30.4,179.2,30.4,179.1,30.4z M186.8,36.8
			c-2.2,1.4-4.5,2.5-7,3.5c-8.4,3.4-17.8,4.2-26.6,2.5c0.2,0.2,0.1,0.6-0.2,0.7c0,0,0,0,0,0.1c0,1.1,0.1,2.1,0,3.2
			c2.3,0.8,4.8,1.2,7.2,1.2C170.2,48,178.8,42.3,186.8,36.8C186.7,36.8,186.8,36.8,186.8,36.8z M148.6,41.6c-1.3-0.8-2.4-1.8-3.4-3
			c-2.8-3.4-4.2-7.7-4.2-12.1c0-2,0.3-4.1,0.9-6c-2.8,4.2-4.2,9.5-2.4,14.4c1.1,3.1,3.8,5.7,6.9,6.7
			C147.2,41.6,147.9,41.6,148.6,41.6z M131.6,43.3c-0.1,0-0.2,0-0.4,0c0,0,0,0,0,0.1C131.4,43.3,131.5,43.3,131.6,43.3z M119.6,39.5
			c-1-0.6-2-1.3-3-2c0,0-0.1,0.1-0.1,0.1c-1,0.5-1.9,1.1-2.7,1.9C115.7,39.1,117.7,39.1,119.6,39.5z M107.5,43.5
			c-0.1,0.1-0.2,0.2-0.3,0.4c0,0,0,0.1,0,0.1C107.3,43.8,107.4,43.7,107.5,43.5z M99.8,50.9c-2.7,1.7-5.7,2.3-8.8,2.3
			c-3.3,0-6.6-0.6-10-0.5c-3.9,0.1-7.8,0.8-11.6,1.9c1.6-0.2,3.1-0.2,4.7,0c4.5,0.4,9,1.7,13.6,1.7c3.5-0.1,7-1.1,10-2.8
			c3.8-2.1,7-5.2,9.2-8.9C104.7,46.9,102.5,49.3,99.8,50.9z M84.5,62c-1.3,0.2-2.5,0.5-3.8,0.8c-2.7,0.8-5.2,2-7.2,4
			c-1.6,1.6-2.8,3.6-3.1,5.9c1-2.7,3.2-4.7,5.8-6c4.1-2,8.5-1.8,12.8-1c0.8,0,1.6,0,2.4,0c6.2-0.2,12.8-1.5,17.2-6.2
			c-2.2,0.7-4.4,1.3-6.7,1.8C96.2,62.4,90.3,62.6,84.5,62z M59.1,86.5c0,0-0.1,0-0.1,0C59,86.5,59.1,86.5,59.1,86.5
			C59.1,86.5,59.1,86.5,59.1,86.5z M52,83.3C52,83.3,52,83.3,52,83.3C52,83.3,52,83.3,52,83.3C52,83.3,52,83.3,52,83.3z M70.9,90.5
			c3,0.4,6.1,0.7,9.1,0.8c6.4,0.2,12.9-0.3,19.2-1.5c-7.9,1-16.1,0-23.5-3c0,0,0,0-0.1,0C74.2,88.3,72.7,89.5,70.9,90.5z
			 M107.4,87.8c0.2-0.1,0.3-0.1,0.5-0.2C107.7,87.7,107.6,87.7,107.4,87.8C107.4,87.8,107.4,87.8,107.4,87.8z M110.3,86.9
			c0.1,0,0.2-0.1,0.4-0.1c-0.1,0-0.2,0-0.4,0C110.3,86.8,110.3,86.8,110.3,86.9z M114.5,85.6c-1.7-0.2-3.4-0.7-5.1-1.3
			c-6.5-2.5-11.5-7.4-17.6-10.7c-1.4-0.7-3-1.4-4.6-1.9c-0.1,0.1-0.3,0.2-0.5,0.1c-1.6-0.6-3.3-0.7-5-0.3c-2.4,0.6-4.5,1.9-6.3,3.6
			c3.6-1.5,7.5-2,11.3-1.3c4.6,0.8,9,3.2,12.1,6.8c0,0,0,0.1,0.1,0.1c0.6,0.5,1.2,1,1.8,1.4c1.5,1.1,3.1,2,4.8,2.7
			C108.4,85.8,111.5,86.1,114.5,85.6z M111.4,89.5c0.2,0.2,0.2,0.5,0,0.7c-0.1,0.1-0.3,0.3-0.4,0.4c0.1,1.8,0.7,3.4,1.6,5
			c3.8,6.2,11.2,8,17.7,10.2c-0.8-0.8-1.7-1.7-2.5-2.5c-1.4-1.4-2.7-2.9-4-4.3c-0.3,0.1-0.7-0.3-0.6-0.6c-0.9-1-1.8-2.1-2.7-3.2
			c-0.3,0-0.5-0.2-0.5-0.5c-1.8-2.2-3.5-4.3-5.2-6.6c-0.1-0.1-0.1-0.2-0.1-0.2C113.6,88.4,112.5,89,111.4,89.5z M110,90.1
			c-2.9,1.2-6.1,2.1-9.2,2.9c-2.4,0.5-4.7,1-7.1,1.5c0,0.2-0.2,0.4-0.4,0.5c-0.8,0.3-1.3,1.1-1.4,1.9c-0.1,0.7,0.2,1.5,0.7,2
			c0-0.2,0.1-0.4,0.2-0.5c0.6-1.1,1.5-1.9,2.7-2.5c1.3-0.6,2.8-0.7,4.2-0.9c1.4-0.2,2.8-0.4,4.2-0.9C106.2,93.2,108.3,91.9,110,90.1
			C110,90.2,110,90.2,110,90.1z M92,94.8c-4.3,0.7-8.7,1.3-13.1,1.9c2.5,1.4,5.4,1.2,8.2,1.3c1.4,0,2.8,0.2,4.2,0.5
			c-0.2-0.5-0.3-1.1-0.3-1.7C91.1,96,91.4,95.3,92,94.8z M89.8,100.8C89.8,100.8,89.7,100.8,89.8,100.8
			C89.7,100.8,89.7,100.8,89.8,100.8C89.7,100.8,89.7,100.8,89.8,100.8C89.8,100.8,89.8,100.8,89.8,100.8z M88,101.4
			c-0.1,0-0.2,0.1-0.3,0.1c0,0,0,0,0,0C87.8,101.5,87.9,101.4,88,101.4z M56.3,109.6c2.8,0.9,5.5,2.1,8.1,3.6c0.1,0,0.1,0.1,0.2,0.1
			c1.3-0.9,2.8-1.5,4.4-2c2.4-0.6,4.9-0.7,7.4-0.4C69.8,109.4,63,109,56.3,109.6z M111.1,135.7c0.1-4.1,1.4-8.1,3.7-11.5
			c2.7-3.8,6.6-6.8,11-8.2c-0.1-0.8-0.2-1.6-0.3-2.4c-0.1-0.4-0.1-0.9-0.2-1.3c-2.4,0.7-4.6,1.8-6.6,3.2c-4,2.9-7,7.2-7.9,12
			C110.3,130.2,110.4,133,111.1,135.7z M125.4,124.7c0.1,0,0.3,0.1,0.4,0.1c0,0,0-0.1,0-0.1C125.7,124.7,125.5,124.7,125.4,124.7z
			 M155.8,124.8c2.6-2.4,5.1-4.9,6.7-8.1c1.1-2.1,1.7-4.4,1.6-6.8c-0.1-2.1-0.9-4.1-1.7-6.1c-0.5-1.2-1-2.4-1.5-3.7
			c-0.3,1.8-0.1,3.6,0.2,5.3c0.5,3.3,1.5,6.8,0.3,10.1c-0.6,1.8-1.8,3.3-2.8,4.9C157.7,122,156.8,123.4,155.8,124.8z M162.8,93.3
			c0.1,0.1,0.1,0.3,0.2,0.4c0-0.1-0.1-0.2-0.1-0.3C162.9,93.4,162.8,93.3,162.8,93.3z M164.2,95.8C164.2,95.8,164.2,95.8,164.2,95.8
			C164.3,95.8,164.2,95.8,164.2,95.8C164.2,95.8,164.2,95.8,164.2,95.8z M178.4,113.6c0.2,1.1,0.4,2.1,0.7,3.1
			c1.3,4.8,3.4,9.3,6.4,13.2c2.7,3.7,6.5,7.8,11.4,8.1c0.4-2.5,0.4-5.1,0-7.6c-1.7,0.5-3.4,0.4-5.1,0c-2.8-0.8-5-2.7-6.6-5
			c-0.7-0.5-1.1-1.4-1.4-2.3c-0.1-0.3-0.3-0.6-0.4-0.8c-1.8-3.6-2.7-7.6-4.3-11.3C178.7,111.8,178.5,112.7,178.4,113.6z M197.4,127
			C197.4,127,197.4,126.9,197.4,127c0-0.1,0-0.2-0.1-0.2C197.4,126.8,197.4,126.9,197.4,127z M199.3,64.4c-0.1-0.1-0.2-0.3-0.3-0.4
			C199.1,64.2,199.2,64.3,199.3,64.4C199.3,64.4,199.3,64.4,199.3,64.4z M196.9,49.6c0-0.1-0.1-0.1-0.1-0.2c0,0,0,0.1,0,0.1
			C196.8,49.5,196.9,49.5,196.9,49.6C196.9,49.6,196.9,49.6,196.9,49.6z M164.2,27.9c5.2,3.8,11.9,5.7,18.3,5.1
			c-2.9-1.3-5.8-2.6-8.7-3.9c-0.3-0.1-0.3-0.6-0.1-0.8c0.5-0.4,0.9-0.9,1.4-1.3C171.5,26.3,167.7,26.6,164.2,27.9z M184.2,37.1
			c-1.9,0.7-3.8,1.3-5.7,1.8c-2.9,0.8-6,1.3-9,1.6c-3,0.3-6.1,0.3-9-0.4c-3.4-0.8-6.7-2.7-8.7-5.6c0.4,2,0.7,4,0.9,6
			c0.4,0.3,0.8,0.6,1.3,0.9c0.2,0.1,0.3,0.3,0.2,0.5c1.9,0.3,3.8,0.6,5.7,0.7C168.3,43,176.8,41.1,184.2,37.1z M146.9,13.5
			c-0.1,0-0.2-0.1-0.3-0.1c-0.3,0.2-0.6,0.4-0.9,0.6c-0.1,0.1-0.2,0.3-0.2,0.4c0.1,0.1,0.1,0.3,0.1,0.4
			C145.9,14.4,146.4,14,146.9,13.5z M151.1,8.8c2.1-1.1,4.4-1.9,6.7-2.5c-0.7,0-1.3,0-2,0.1c-5.8,0.3-11.5,1.4-17,3.1
			c-1.8,0.6-3.7,1.3-5.5,2c0,0,0.1,0,0.1,0c4-1,8.3-1,12.2,0.4c0,0,0.1,0,0.1-0.1c0.3-0.3,0.8,0,0.8,0.3c0.1,0,0.1-0.1,0.2-0.1
			c-0.1-0.2-0.1-0.4,0.1-0.5C148.2,10.5,149.6,9.6,151.1,8.8z M142,15.8c-0.9,0.4-1.8,0.8-2.8,1.1c-1.2,0.4-2.4,0.8-3.6,1.2
			c0,0,0,0,0,0c-0.6,2.6-0.8,5.2-0.6,7.8c0.1,0.8,0.1,1.5,0.2,2.3C135.5,23.3,138,18.7,142,15.8z M134.5,18.4
			c-1.4,0.4-2.8,0.8-4.2,1.2c0.1,0.1,0.3,0.2,0.3,0.4c0.1,1.9,0.4,3.9,0.8,5.8c0.9,4.9,2.6,11.7,7.8,13.7c-1-1.1-1.8-2.3-2.5-3.7
			c0,0-0.1-0.1-0.1-0.2c0-0.1-0.1-0.2-0.1-0.2c-0.4-0.9-0.8-1.8-1.1-2.8C133.7,28.1,133.5,23.1,134.5,18.4z M129.5,20
			c0-0.1,0-0.2,0-0.2c-1,0.3-2,0.6-3,0.9c0,0,0,0,0,0c0,2.5,0.4,5.1,1.2,7.4c1.4,3.8,3.9,7.2,7.2,9.6c-1.8-2-2.9-4.7-3.6-7.3
			C130.4,27.1,129.8,23.5,129.5,20z M120.9,23c-0.9,0.5-1.9,1-2.7,1.6c0.1,0,0.1,0.1,0.2,0.2c1.1,2.4,2.6,4.6,4.3,6.6
			c3.1,3.6,7.1,6.5,11.5,8.3c1.8,0.7,3.8,1.3,5.7,1.6c-4-1.4-7.6-4-10.1-7.4c-2.7-3.7-4.2-8.3-4.2-12.9
			C124,21.6,122.4,22.2,120.9,23z M117.5,25.1c-1.1,0.8-2.2,1.7-3.1,2.7c0,0,0,0,0,0.1c0.4,2.3,2.2,3.8,3.9,5.1
			c1.6,1.3,3.1,2.8,4.9,4c1.7,1.1,3.5,2,5.4,2.8c3.3,1.4,7,2.8,10.6,2.3c-9.4-1.9-17.5-8.2-21.6-16.9
			C117.5,25.3,117.5,25.2,117.5,25.1z M112.1,30.9c1.3,2.2,3,4.1,5,5.7c4.2,3.3,9.4,5,14.6,5.7c0.2,0,0.4,0,0.5,0.1
			c-1.6-0.5-3.2-1.2-4.8-1.8c-1.9-0.8-3.8-1.8-5.5-3.1c-0.9-0.7-1.7-1.4-2.6-2.2c-0.8-0.7-1.7-1.4-2.5-2.1c-1.4-1.2-2.7-2.6-3.2-4.3
			C113,29.5,112.6,30.2,112.1,30.9z M111.6,32C111.6,32,111.6,32,111.6,32c0.1,0.1,0.1,0.2,0.2,0.3c0,0.1,0.1,0.2,0.1,0.2
			c0,0,0,0,0.1,0.1c0.1,0.1,0.1,0.2,0.1,0.3c0,0,0-0.1,0.1-0.1C112,32.5,111.8,32.2,111.6,32z M108.6,38.4c-1.1,1.1-2.2,2.1-3.3,3.1
			c-4.8,3.9-10.5,6.6-16.5,7.9c2.7,0.1,5.3,0,7.9-0.5c1.9-0.4,3.8-1,5.5-2c1.7-1,3.1-2.3,4.3-3.8c0.7-0.8,1.2-1.6,1.8-2.5
			C108.4,39.9,108.5,39.1,108.6,38.4z M69.2,50.9c-0.8,0.1-1.6,0.2-2.4,0.3c-2.2,0.2-4.4,0.3-6.6,0.5c-3.6,0.5-7.4,1.7-9.8,4.6
			c4.5-1.3,9.1-2.1,13.8-2.4c0.1,0,0.2,0,0.3,0.1C65.8,52.6,67.5,51.6,69.2,50.9z M48.9,50.1C48.9,50.1,48.9,50.1,48.9,50.1
			C48.9,50.1,48.9,50.1,48.9,50.1C48.9,50.1,48.9,50.1,48.9,50.1z M41.6,66.6c4.4-5.3,10.2-9.1,16.7-11.1c-3.4,0.5-6.7,1.4-9.9,2.4
			c-0.3,0.1-0.6-0.2-0.6-0.5c-1.2,1.6-2.4,3.2-3.6,4.8c-0.6,0.9-1.2,1.8-1.8,2.8C42.2,65.6,41.9,66.1,41.6,66.6z M49.6,56.5
			c-0.2-0.1-0.2-0.3-0.2-0.6c-0.1,0.2-0.2,0.5-0.3,0.7C49.3,56.6,49.5,56.5,49.6,56.5z M63.4,55.5c-0.7,0.5-1.4,1-2.1,1.6
			c0.2-0.1,0.4-0.2,0.5-0.3c0.6-0.3,1.3-0.7,1.9-1C63.7,55.8,63.5,55.6,63.4,55.5z M62.6,57.5c0.3,0,0.7,0,1,0
			c-0.1-0.1-0.1-0.3-0.1-0.4C63.2,57.3,62.9,57.4,62.6,57.5z M66.9,57.9c1.6,0.3,3.2,0.8,4.7,1.4c0.4,0.2,0.3,0.7,0,0.8
			c-2.4,1.6-4.6,3.6-6.5,5.9c0.8,0.7,1.7,1.3,2.6,1.7c3-1.4,5.4-3.9,6.6-7.1c0.2-0.6,1.2-0.3,0.9,0.3c-0.8,2-2,3.8-3.5,5.3
			c0,0,0,0-0.1,0.1c0,0,0,0.1-0.1,0.1c-0.8,1.2-1.8,2.2-2.9,3c0.4,0.7,0.7,1.4,0.9,2.2c0.2-0.8,0.5-1.7,0.9-2.4
			c2.2-4.3,6.6-6.4,11.1-7.5c-4-0.7-7.9-1.7-11.7-3.2C68.9,58.2,67.9,58.1,66.9,57.9z M69.3,60.7c0,0-0.1,0-0.1,0c0,0,0,0,0,0
			C69.2,60.8,69.2,60.7,69.3,60.7z M63.6,62.3c-1.7,0.7-3.3,1.4-4.8,2.4c-4,2.5-7.3,6.3-8.1,11c-0.2,1-0.2,2-0.1,3.1
			c0.9,3,3.1,5.4,6,6.6c1.9,0.5,3.9,0.1,5.7-0.7c2.2-1.1,3.9-2.8,5.4-4.7c0,0,0,0,0,0c0.1-0.1,0.1-0.2,0.2-0.3
			c0.1-0.1,0.1-0.2,0.2-0.3c-1,1.3-2.4,2.3-4,2.8c-3.3,0.9-7.1-0.1-9.3-2.7c0,0-0.1-0.1-0.1-0.1c0,0,0,0,0,0c0,0.2,0.1,0.3,0.1,0.5
			c0.2,0.6-0.7,0.8-0.9,0.3c-0.1,0-0.2-0.1-0.2-0.2c-0.9-1.5-0.8-3.3-0.2-4.8c0.2-1.7,1-3.3,2-4.6c1.1-1.5,2.4-2.8,3.7-4
			c2.2-1.9,4.7-3.5,7.2-4.9C65.4,61.7,64.5,62,63.6,62.3z M56,64.8c-0.1,0-0.1,0.1-0.2,0.1c0,0,0,0,0,0.1
			C55.9,64.9,55.9,64.8,56,64.8z M68.6,90.4c-0.1,0.1-0.2,0.2-0.3,0.3c0.1,0,0.2-0.1,0.2-0.1c0.1-0.1,0.2-0.2,0.2-0.2
			c0.1-0.1,0.1-0.2,0.2-0.3c0,0,0,0,0,0C68.9,90.1,68.7,90.2,68.6,90.4z M74.3,101C74.3,101.1,74.3,101.1,74.3,101
			c2.5,1.8,5.7,1.7,8.5,0.9c2.9-0.7,5.6-2,8.6-2.5c-1.6-0.5-3.4-0.5-5-0.6c-2.8,0-5.7-0.1-8.1-1.6C77,98.7,75.7,99.9,74.3,101z
			 M73.2,101.9c-4.7,3.6-10.4,5.9-16.3,6.7c0.8-0.1,1.7-0.1,2.5-0.2c0.1,0,0.1-0.1,0.2-0.1c2.1-0.3,4.2-0.7,6.3-1
			c1.6-0.4,3.2-0.8,4.7-1.2c0.1-0.2,0.3-0.3,0.5-0.2c0,0,0.1,0,0.1,0c2.6-0.7,5.3-1.6,7.8-2.5c-1.9,0-3.8-0.4-5.4-1.5
			c-0.1-0.1-0.2-0.2-0.2-0.4C73.5,101.7,73.4,101.8,73.2,101.9z M48.2,110.1c0.1,0,0.1,0,0.2,0c0,0,0.1,0,0.1,0c0,0,0,0,0,0
			C48.4,110.1,48.3,110.1,48.2,110.1C48.3,110.1,48.2,110.1,48.2,110.1z M74.5,124.1c0,0,0.1,0,0.1,0.1
			C74.6,124.2,74.5,124.1,74.5,124.1C74.5,124.1,74.5,124.1,74.5,124.1z M86.2,138.1c-0.1,0-0.1,0.1-0.2,0.1c0,0,0,0.1,0,0.1
			C86.1,138.2,86.2,138.1,86.2,138.1z M101.2,137.4c-5.5-4-11.9-6.7-18.5-7.9c0.9,1.1,1.6,2.2,2.2,3.5c0.5,1.1,0.9,2.3,1.1,3.5
			c1-0.5,2.1-0.8,3.2-1.1C93.3,134.5,97.6,135.3,101.2,137.4z M104.8,140.3c0.1,0.1,0.2,0.2,0.2,0.3c0,0,0,0,0,0c0,0,0,0,0,0
			C104.9,140.5,104.8,140.4,104.8,140.3z M112.9,142.2C112.9,142.2,112.9,142.2,112.9,142.2C112.9,142.2,112.9,142.2,112.9,142.2
			C112.9,142.2,112.9,142.2,112.9,142.2z M126.4,129.4C126.4,129.4,126.4,129.5,126.4,129.4c0.1,0.1,0.2,0.2,0.2,0.3
			c0.1,0,0.1,0.1,0.2,0.1c1.1,1.1,2.3,2,3.6,2.8c4.7,2.8,10.5,3.5,15.6,1.8c0.3-0.1,0.6,0.1,0.6,0.4c1.1-1.5,2.2-3,3.5-4.4
			c0-0.1,0-0.2,0-0.3c1.1-2.3,1.7-4.8,1.9-7.4c0-0.7,0-1.4,0-2.2c-0.9,2.9-1.8,5.8-2.6,8.7c-0.2,0.6-1.1,0.3-0.9-0.3
			c0-0.1,0.1-0.2,0.1-0.3c-0.1,0-0.2-0.1-0.2-0.2c-0.2,0.2-0.4,0.5-0.6,0.7c-0.1,0.1-0.2,0.1-0.4,0.1c-1.6,1.1-3.5,2-5.4,2.5
			C136.6,133.6,130.8,132.5,126.4,129.4z M131.5,134.4c3.6,2.6,7.8,4.4,12.2,5c0.2-0.4,0.4-0.8,0.7-1.1c0.6-1,1.2-1.9,1.8-2.9
			c-1.5,0.5-3.1,0.8-4.7,0.9C138.1,136.6,134.6,135.9,131.5,134.4z M143.7,141.6c1.3-1.7,2.7-3.2,4.3-4.6
			c5.1-4.5,11.4-8.2,14.7-14.5c4-7.6,3.1-16.4,1.8-24.6c-1.4-1.7-2.5-3.5-3.2-5.5c0,0,0,0.1,0,0.1c-0.6,1.6-0.5,3.2-0.2,4.8
			c0.1,0.1,0.2,0.3,0.1,0.5c0,0,0,0,0,0c0.6,2.7,2.1,5.3,2.9,7.8c0.7,2,1.1,4.2,0.9,6.3c-0.3,2.3-1.1,4.5-2.3,6.4
			c-2,3.3-4.9,5.9-7.6,8.5c0,0.3-0.2,0.4-0.5,0.4c-0.6,0.5-1.1,1.1-1.7,1.6c-3.3,3.3-6.1,7-8.3,11c0,0.2,0,0.5-0.3,0.5
			C144.1,140.8,143.9,141.2,143.7,141.6z M141.5,146.5c0.1-0.1,0.1-0.2,0.2-0.3c0,0,0,0-0.1,0C141.5,146.3,141.5,146.4,141.5,146.5z
			 M173.2,110.5C173.2,110.5,173.2,110.5,173.2,110.5c0,0,0-0.1,0-0.1C173.2,110.4,173.2,110.4,173.2,110.5z M186.9,157
			C186.9,157,186.9,157,186.9,157C186.9,157,186.9,157,186.9,157C186.9,157,186.9,157,186.9,157z M182,183c-0.1,0.2-0.1,0.4-0.2,0.5
			c0,0,0,0,0,0C181.9,183.3,182,183.1,182,183z M186.8,185.7C186.8,185.8,186.9,185.8,186.8,185.7c0.1,0.1,0.1,0.1,0.1,0
			C186.9,185.8,186.8,185.8,186.8,185.7z M188.2,182.4c-0.1-3.4,0.8-6.8,2.1-10c1.9-4.5,4.7-8.6,6.9-12.9c1.1-2.2,2.1-4.4,2.7-6.7
			c0.6-2.3,0.8-4.7,0.7-7.1c0-0.5-0.1-1.1-0.1-1.6c-0.1,0.7-0.3,1.5-0.5,2.2c-0.5,1.8-1.3,3.5-2.3,5.1c-1,1.6-2.3,3.1-3.5,4.6
			c-1.3,1.5-2.5,3-3.6,4.7c-1,1.7-1.8,3.4-2.4,5.3C186.6,171.3,187.1,176.9,188.2,182.4z M203.6,106.7c1.6-2.6,3.7-5.3,5.1-8.1
			c-2,3-4.9,5.5-6.8,8.6c-2.4,3.7-2.4,8.1-2,12.3c0.1-1.6,0.3-3.1,0.6-4.7C201,111.9,202.1,109.2,203.6,106.7z M203.8,101.1
			c-2.7,2.9-5.2,6.7-4.8,10.8c0,0,0.1,0,0.1,0c0.3-1.8,1-3.5,1.9-5.1c1.2-2,2.8-3.6,4.3-5.4c2.1-2.4,4.6-5.7,4.7-9
			C209.1,95.9,206.2,98.5,203.8,101.1z M207.8,86.3c0,0-0.1-0.1-0.1-0.1c-3.2,3.4-5.8,7.5-7.4,12c-1.1,3-1.7,6.2-1.9,9.4
			c0.1-0.4,0.3-0.9,0.5-1.3c0.9-2,2.2-3.7,3.6-5.3c1.4-1.6,2.9-3,4.2-4.6c1.2-1.5,2.2-3.3,2.5-5.2C209.5,89.4,209.1,87.5,207.8,86.3
			z M215.1,79c-1.8,0-3.6-0.4-5.3-1.1c-2.3,1.6-4.3,3.5-6,5.7c-3.3,4.1-5.4,9-6.3,14.2c-0.6,3.4-0.6,6.8-0.2,10.2c0,0,0,0.1,0.1,0.1
			c0.1,0.2,0.1,0.3,0,0.5c0,0.2,0,0.3,0.1,0.5c0-1,0.1-2.1,0.2-3.1c0.7-6.1,2.9-12,6.4-16.9C207,85,210.8,81.6,215.1,79z M222,77.5
			c1.2-0.1,2.4-0.1,3.6-0.1c3.7,0.2,7.4,1.1,10.3,3.6c-0.9-1.5-2.2-2.8-3.6-3.8c-3.1-2.1-6.8-2.5-10.5-2.6
			c-3.6-0.1-7.3-0.1-10.8-1.2c-2.7-0.9-5.2-2.3-7.4-4.1c1.6,2.1,3.2,4.1,5.2,5.7c0.2,0.1,0.4,0.3,0.6,0.4c0,0,0,0,0,0
			c0.6,0.3,1.2,0.5,1.8,0.7c0.3,0.1,0.6,0.2,0.9,0.3C215.5,77.2,218.8,77.3,222,77.5z M229.2,78.8c2.4,0.9,4.6,2.2,6.4,4.1
			c0.7,0.7,1.4,1.5,2,2.3c-0.1-0.3-0.1-0.6-0.2-0.8c-1-1.6-2.4-3-4-4C232,79.6,230.6,79.1,229.2,78.8z M199,55.4c0,0,0-0.1,0-0.1
			C199,55.3,199,55.3,199,55.4C199,55.4,199,55.3,199,55.4z M198.7,51.3c0.4,0.3,0.7,0.6,1.1,0.9c-1.3-2.4-1.2-5.6,0.3-7.9
			c1.1-1.7,2.9-2.9,4.9-3.4c-3.5-0.7-7.1-0.3-10.3,1.3c-0.1,0.1-0.3,0.1-0.4,0C196,45.1,197.5,48.1,198.7,51.3z M203.8,39.7
			c-3-1.1-6-2.1-9.1-2.9c0,0.2-0.2,0.3-0.3,0.3c-1,0.2-2,0.5-3,0.7c0.9,1.2,1.7,2.5,2.5,3.8c0-0.1,0.1-0.2,0.2-0.3
			C197.2,39.9,200.6,39.3,203.8,39.7z M186.4,31.3c0,0-0.1,0-0.1-0.1c0,0,0,0,0,0C186.4,31.3,186.4,31.3,186.4,31.3z M158.5,23.4
			c-2.1,1.2-4,2.6-5.4,4.4c1.8,1.4,3.7,2.6,5.7,3.6c8,4,17.4,5,26.1,2.7c-0.2-0.1-0.5-0.2-0.7-0.3c-2.1,0.3-4.2,0.4-6.3,0.2
			c-7.5-0.6-14.6-4.3-19.4-10.1C158.4,23.7,158.4,23.5,158.5,23.4z M152.6,28.6c-0.5,0.8-0.9,1.7-1.2,2.6c0.6,2.2,2.1,4.1,3.9,5.5
			c4.4,3.4,10.3,3.4,15.6,2.7c5.5-0.7,10.9-2.2,16-4.4c-0.2-0.1-0.5-0.2-0.7-0.3c-0.1,0.1-0.1,0.2-0.3,0.2c-2.6,0.8-5.2,1.2-7.9,1.4
			C168.9,36.9,159.8,34.1,152.6,28.6z M148.3,21.2c-0.4,0.3-1-0.2-0.7-0.6c0.2-0.3,0.3-0.5,0.5-0.7c-0.3-1.8-0.5-3.7-0.5-5.6
			c-0.2,0.2-0.4,0.3-0.6,0.5c0,0,0,0,0,0c-1.1,2.1-1.8,4.3-2.2,6.7c-1,6.8,1.7,13.8,6.9,18.2c-0.3-2.1-0.6-4.3-1-6.4
			c-0.3,0.1-0.7-0.1-0.6-0.4c0.1-0.5,0.1-0.9,0.3-1.4C149.6,28,148.8,24.6,148.3,21.2z M148.9,18.9c1.9-1.9,4.5-2.9,7.1-3.6
			c3.7-0.9,7.6-1.3,11.4-1.5c4.1-0.2,8.2,0,12.2,0.8c0.7,0.1,1.4,0.3,2,0.4c-1.8-0.9-3.6-1.7-5.5-2.3c-9-2.9-18.9-2.6-27.6,1.1
			C148.6,15.5,148.7,17.2,148.9,18.9z M122.4,16.8c0,0,0.1-0.1,0.1-0.1c0,0,0,0,0,0C122.5,16.7,122.4,16.8,122.4,16.8z M72,49.4
			c-2.2,0.2-4.4,0.3-6.6,0.2c-1.5,0-3.1-0.2-4.6-0.3c-1.7-0.1-3.4-0.3-5-0.1c-2.1,0.2-4.3,1.1-5.6,2.9c0.4-0.2,0.7,0.4,0.6,0.7
			c-0.1,0.3-0.2,0.6-0.4,0.9c0.1,0.1,0.1,0.3-0.1,0.4c-0.1,0.1-0.2,0.2-0.3,0.4c-0.2,0.5-0.4,0.9-0.6,1.4c0,0,0-0.1,0-0.1
			c1.3-1.6,3.1-2.8,5-3.6c3.9-1.6,8.2-1.6,12.3-2C68.6,50,70.3,49.7,72,49.4z M49.2,49.7c-0.1,0.1-0.1,0.2-0.2,0.3
			C49,49.8,49.1,49.8,49.2,49.7z M49.4,49.4c1.2-1.7,3.3-3,5.4-3.4c3.7-0.9,7.5,0,11.2,0c3.8,0,7.5-0.8,11-2.1
			c5.3-1.9,10.1-4.9,14.7-8.2c-0.5,0.2-1,0.4-1.5,0.6c-5.5,2.2-11.3,3.3-17.1,4c-5.7,0.7-11.8,1-17.1,3.5c0,0,0,0,0,0
			c-0.1,0.1-0.2,0.1-0.3,0.1C53.3,45.1,50.9,47,49.4,49.4z M103.4,25.9c2.7-3.2,4.6-7,5.3-11c-1.7,2.5-3.7,4.8-5.9,7
			c-3.2,3.1-6.9,5.5-10.7,7.7c-4,2.4-8,4.8-12.4,6.5c-2.1,0.9-4.3,1.6-6.6,2.2c-2.1,0.5-4.1,0.9-6.2,1.3c-2,0.4-4,0.7-5.9,1.4
			c4-1,8.2-1.3,12.3-1.8c5.8-0.7,11.7-1.9,17.1-4.1C95.4,33.1,99.9,30.1,103.4,25.9z M55.9,42.6c-0.3,0.2-0.6,0.4-0.9,0.6
			c0.2-0.1,0.4-0.2,0.5-0.3C55.7,42.8,55.8,42.7,55.9,42.6z M38.9,72.5c0,0.1-0.1,0.3-0.1,0.4c0.2-0.2,0.3-0.4,0.5-0.6
			c5.1-6.4,11.9-11.3,19.4-14.4c1-0.7,1.9-1.5,2.9-2.2c-1.7,0.3-3.3,0.8-5,1.4C49,59.9,42.7,65.4,38.9,72.5z M37.4,76.4
			c1.1-1.2,2.3-2.3,3.5-3.4c2.1-1.9,4.3-3.6,6.6-5.1c2.3-1.4,4.7-2.6,7.2-3.6c2.8-1.2,5.7-2.1,8.6-3c1-0.4,2-0.8,3.1-1.1
			c0.2-0.1,0.4,0,0.5,0.1c0.9-0.2,1.8-0.5,2.7-0.7c-2.9-1-6-1.3-9-1c0,0,0,0,0,0c-0.2,0.1-0.3,0.1-0.4,0c-0.4,0-0.8,0.1-1.1,0.2
			c0,0,0,0,0,0c-1.9,0.8-3.7,1.6-5.4,2.6C47,65.1,41.5,70.2,37.4,76.4z M37.4,93.9c1.7-0.8,3.5-1.6,5.3-2.3
			c-1.6-1.8-2.5-4.1-2.9-6.5c-0.5-3.1,0.1-6.2,1.4-9c-0.3,0.4-0.5,0.7-0.7,1.1C37.5,82.3,37.9,88.3,37.4,93.9z M34.9,96.4
			c-5.4,3.1-10.2,7.1-13.9,12.1c0,0,0,0.1,0,0.1c-0.3,0.9-0.6,1.8-1,2.7c2.3-2.5,4.7-4.9,7.3-7.2c5.4-4.7,11.7-8.7,18.9-10.1
			c4.5-0.9,9.4-0.5,14.1-0.9c2.8-0.4,5.4-1.6,7.6-3.4c0.1-0.1,0.2-0.2,0.3-0.3c-1.9,0.7-4.2,0.3-6.2,0c-1.6-0.3-3.2-0.3-4.9-0.2
			c-1.3,0.1-2.6,0.4-3.9,0.6c-0.9,0.3-1.8,0.6-2.7,0.8c-1.8,0.4-3.6,0.5-5.4,1.1c0,0-0.1,0-0.1,0C41.5,93,38.1,94.5,34.9,96.4z
			 M20,113.4c0.2-0.1,0.5-0.1,0.7-0.2c9.5-2.8,19.3-4.5,29.2-5c0-0.2,0.2-0.4,0.5-0.3c2.2,0.1,4.5,0,6.7-0.3c7.7-1.2,15-5,20.2-10.8
			C76.7,96.9,76,97,75.4,97c0.1,0.3,0,0.7-0.4,0.6c-0.4,0-0.9-0.1-1.3-0.1c-2.5,2.2-5.3,4.1-8.4,5.5c-3.4,1.6-7.1,2.6-10.8,3.1
			c-4.3,0.5-8.6,0.5-12.9,0.8C33.9,107.6,26.6,109.7,20,113.4z M46,115.4c0,0,0.1,0,0.1,0c0,0,0,0,0-0.1
			C46.1,115.4,46,115.4,46,115.4z M99.1,139.1c1.5,0.3,3,0.8,4.4,1.3c-0.8-0.8-1.7-1.5-2.7-2.1c-2.1-1.3-4.5-2-6.9-2.2
			c0,0.2-0.1,0.4-0.3,0.4c-2.8,0.4-6,0.9-7.7,3.4c-0.1,0.7-0.4,1.5-0.7,2.2c0.7-0.5,1.4-1,2.2-1.4C90.9,138.8,95.1,138.4,99.1,139.1
			z M115.2,136.7c0.5-0.9,1-1.7,1.7-2.4c1.5-1.8,3.4-3.2,5.6-4.2c-0.8-1.2-1.8-2.3-2.8-3.3c-0.2-0.2-0.5-0.5-0.7-0.8
			C117.5,129.5,116.2,133.1,115.2,136.7z M123,131c0,0,0.1,0,0.1,0.1C123.1,131.1,123.1,131,123,131C123,131,123,131,123,131z
			 M125.6,140.9c0-0.9,0-1.8,0-2.8c0-0.1,0-0.2,0.1-0.2c-0.4-2.3-1.2-4.4-2.4-6.4c0,0.1,0,0.1,0,0.2c0.1,0.1,0.2,0.3,0.2,0.5
			c0,0,0,0.1,0,0.1c0.2,1.2,0.1,2.4,0,3.6c-0.2,1.5-0.4,3,0.3,4.4c0,0,0,0.1,0,0.1C124.4,140.5,125,140.7,125.6,140.9z M124.2,131
			c0-0.1-0.1-0.3-0.1-0.4c0,0-0.1,0-0.1,0C124,130.7,124.1,130.9,124.2,131z M123.8,129.6c-0.3-1.1-0.5-2.1-0.8-3.2
			c-0.2-0.2-0.3-0.4-0.5-0.6c-0.2-0.2-0.1-0.5,0-0.7c0-0.1-0.1-0.1-0.1-0.2c0-0.1,0-0.1,0-0.2c-0.4-0.2-0.9-0.3-1.3-0.5
			c-0.1-0.1-0.2-0.2-0.2-0.3c-0.4,0-0.7,0.1-1,0.3c-0.1,0-0.1,0.1-0.1,0.1c0,0,0,0.1,0,0.1c0,0.1-0.1,0.2-0.1,0.2
			c0,0.5,0.4,1,0.8,1.3c0.6,0.6,1.2,1.2,1.7,1.8c0.5,0.6,1,1.2,1.4,1.8C123.6,129.7,123.7,129.7,123.8,129.6z M138,156.7
			C138,156.7,138,156.7,138,156.7c-0.1,0.2-0.1,0.3-0.1,0.5C138,157.1,138,156.9,138,156.7z M139.2,163c1.7-3,4-5.8,6.6-8
			c1.5-1.3,3.2-2.5,5-3.5c1.9-1.1,3.9-2,5.8-2.9c1.9-1,3.9-2,5.6-3.2c1.6-1.2,3.1-2.6,4.3-4.2c0.7-0.9,1.4-1.8,2-2.7
			c0.2-0.7,0.5-1.4,0.7-2.1c0.1-0.2,0.2-0.3,0.4-0.3c0.3-0.5,0.5-1.1,0.8-1.6c0,0,0-0.1,0-0.1c1-2.8,2-5.6,3-8.5
			c0.3-1.1,0.5-2.3,0.7-3.4c0.2-3.5-0.2-7-1.1-10.4c-0.3,3.9-1.3,7.7-2.5,11.3c-0.8,2.4-1.6,4.7-2.5,7.1c-0.8,2-1.7,4.1-3,5.8
			c-1.3,1.7-3,3-5,4c-2,0.9-4.1,1.5-6.1,2.2c-2.1,0.7-4.1,1.7-5.8,3.1c-1.7,1.4-3.1,3.1-4.3,5C141.6,154.4,140.4,158.7,139.2,163z
			 M174.8,133c0.5,4.4,1,8.8,0.9,13.2c-0.1,8.2-2,16.6-7.3,23c-2.9,3.5-6.5,6.3-10.3,8.7c1.3-0.7,2.6-1.4,3.8-2.1
			c8.4-5.1,16-13.3,16.5-23.6c0.4-7.1-2.3-14.1-3.3-21.1C175.1,131.8,175,132.4,174.8,133z M174.1,135.5c-0.3,1.1-0.7,2.2-1.1,3.3
			c-0.7,2.1-1.5,4.2-2.1,6.3c-0.6,2.2-1,4.5-1.3,6.7c-0.6,4.4-1.2,8.9-3.1,13c-3,6.4-8.4,11-13.9,15.2c2.6-1.5,5.3-3.1,7.7-4.9
			c3-2.2,5.9-4.7,8.1-7.7c2.4-3.2,4-6.9,5-10.8C175.2,149.8,174.9,142.6,174.1,135.5z M155,181.2c1.5-0.3,2.9-0.6,4.4-0.9
			c5.5-1.2,11.1-2.8,15.7-6.1c3.4-2.4,6.2-5.7,7.4-9.7c-0.2-2.7,1.2-5.3,3-7.4c2.2-2.6,4.9-4.7,6.4-7.8c0.1-0.1,0.2-0.2,0.3-0.2
			c0.2-0.3,0.4-0.6,0.5-0.8c-0.1,0-0.1,0-0.2-0.1c-2.8-2.1-5.2-4.6-7.4-7.3c-3.5-4.4-6.2-9.5-7.9-14.9c0.5,3.7,1.7,7.3,3,10.8
			c1.6,4.5,3.2,9.1,3.6,14c0.3,4.8-1,9.4-3.5,13.5c-5.5,8.8-15.3,13.4-24.8,16.5c0,0,0,0,0,0C155.3,181,155.1,181.1,155,181.2z
			 M197.7,165.9c1.8-3.5,4.2-6.7,5.8-10.4c1.7-3.8,1.9-7.9,1.1-11.9c-0.7-3.4-2-6.7-3.5-9.9c-0.1,0-0.3-0.1-0.3-0.2
			c-0.9-1.4-1.7-2.9-2.5-4.5c0.2,2.2,1.4,4.3,2.2,6.3c0.9,2.2,1.5,4.7,0.7,7c0.2,1.6,0.4,3.1,0.4,4.7c0,2.4-0.3,4.7-1,7
			c-0.7,2.3-1.7,4.5-2.8,6.6c-2.3,4.3-5.1,8.4-6.9,13c-1.7,4.4-2.6,9.6-0.6,14c0,0.1,0,0.1,0,0.2c0,0,0.1,0.1,0.1,0.1
			c0.9-3.6,1.7-7.2,2.8-10.7C194.5,173.4,195.9,169.5,197.7,165.9z M204.9,118.8c0.9-4.9,2.5-9.6,4-14.3c0.7-2.3,1.5-4.7,2-7.1
			c0.5-2,0.8-4.1,1.2-6.1c0.5-2.3,1.1-4.7,2.2-6.8c0.7-1.8,1.5-3.6,2.3-5.3c-2.5,1.3-4.9,3-7,4.9c-0.5,0.4-0.9,0.8-1.3,1.3
			c0,0,0.1,0.1,0.1,0.1c0.9,0.9,1.4,2,1.6,3.1c0,0,0.1,0.1,0.1,0.1c0.3,0.7,0.5,1.5,0.6,2.2c0.6,3-0.3,6.1-1.6,8.8
			c-1.4,2.7-3.3,5-4.9,7.6c-1.5,2.5-2.5,5.3-3,8.2c-1,5.5-0.4,11.2,0.3,16.7c1,2.2,2,4.4,2.7,6.7c-0.1-1.8-0.3-3.5-0.3-5.3
			C203.9,128.8,204.1,123.7,204.9,118.8z M228.1,112.5c-2-1.6-3.9-3.4-5.4-5.4c-5.2-6.7-7.5-15.6-6-23.9c-0.1,0.1-0.1,0.2-0.1,0.2
			c-0.5,2.2-0.9,4.4-1,6.6c-0.6,10.8,3.7,21.5,11.6,28.8C227.4,116.7,227.8,114.6,228.1,112.5z M229.4,106.2
			c-1.7-1.3-3.2-2.8-4.6-4.5c-3.8-4.5-6.4-10.1-7.5-15.9c-0.1,0.9-0.1,1.9-0.1,2.8c0.1,8.7,4.2,17.4,11.1,22.8
			C228.6,109.7,229,107.9,229.4,106.2z M218.9,78.8c0.8,1.2,1.8,2.1,2.9,2.8c2.6,1.7,5.6,2.8,8.4,4c2.8,1.2,5.5,2.4,8.3,3.6
			c0-0.1,0-0.2,0-0.3c-1.1-2.6-2.8-4.8-5-6.6c-1.4-1.2-3.1-2.1-4.8-2.7c-2.1-0.7-4.3-1-6.5-1.2c-0.1,0-0.1,0-0.2,0c0,0-0.1,0-0.1,0
			C220.9,78.5,219.9,78.7,218.9,78.8z M222.1,57c-0.6-0.2-1.1-0.4-1.7-0.5c-1.8-0.4-3.5-0.8-5.2-1.6c-1.5-0.7-3-1.7-4.1-2.9
			c-1.8-2-2.7-4.6-2.4-7.2c-0.1-0.3-0.1-0.7,0.2-0.9c0.1-0.3,0.2-0.6,0.3-0.9c-0.8,0.4-1.7,0.8-2.5,1.2c-0.7,0.6-1.1,1.4-1.4,2.2
			c-0.5,1.4-0.4,3,0.2,4.4c1.2,3.1,4.1,5.1,7,6.5c0.1,0.1,0.2,0.1,0.2,0.2c0.2,0,0.5,0.1,0.7,0.1c3.2,0.3,6.6-0.1,9.7,1.1
			c0.2,0.1,0.4,0.2,0.6,0.3C223.2,58.2,222.7,57.6,222.1,57z M220.7,55.5c-0.3-0.3-0.7-0.7-1-1c-3.3-3-6.6-6-9.9-8.9
			c0,1,0.2,2,0.5,2.9c1.2,3.2,4.2,5.2,7.4,6.2C218.6,55.1,219.6,55.3,220.7,55.5z M207.2,39.9c-1.8-1.4-3.7-2.8-5.7-4.2
			c-3.7-2.6-7.6-5-11.6-7.1c-3.3-1.6-7.1-3-10.8-2.2c-0.2,0.2-0.4,0.3-0.6,0.5c5.7,1.5,11,4.5,15.3,8.4
			C198.3,36.7,202.8,38.2,207.2,39.9z M195.5,23.7C195.5,23.6,195.5,23.6,195.5,23.7c-1.8-0.7-3.6-1.2-5.4-1.6
			c-8.2-1.7-16.9-0.5-24.4,3.3c4.4-1.2,9-1.7,13.6-1.6c0.1-0.1,0.1-0.1,0.2-0.1C184.8,22.4,190.3,22.4,195.5,23.7z M186.3,17.5
			c-6.3-2.4-13.2-3-19.9-2.6c-3.6,0.2-7.3,0.6-10.8,1.6c-2.4,0.7-4.9,1.7-6.5,3.7c0.5,3.2,1.2,6.4,1.8,9.6c0.3-0.6,0.6-1.1,0.9-1.7
			c-0.1-0.1-0.1-0.1-0.2-0.2c-0.5-0.4,0.2-1.1,0.7-0.7c0,0,0,0,0.1,0.1c0.8-1,1.7-2,2.7-2.8c2.5-2,5.4-3.4,8.4-4.5
			c3.3-1.2,6.8-1.9,10.3-2.2c5.2-0.4,10.4,0.1,15.4,1.5C188.3,18.7,187.3,18.1,186.3,17.5z M170.5,10.4c-1.3-0.4-2.7-0.8-4-1.2
			c-0.4-0.1-0.6-0.3-0.7-0.6c-0.3-0.1-0.3-0.4-0.3-0.6c-1.3,0.4-2.5,1.1-3.7,1.9C164.8,9.8,167.7,9.9,170.5,10.4z M102.3,35.1
			c-1.4,1.5-2.8,2.9-4.4,4.2c-2.1,1.7-4.5,3.3-6.9,4.6C95.5,42,99.2,38.7,102.3,35.1z M102.8,34.6C102.8,34.6,102.8,34.5,102.8,34.6
			c0,0.1-0.1,0.1-0.2,0.2C102.7,34.7,102.7,34.6,102.8,34.6z M107.9,24.8c2-4.3,3.1-9,3.1-13.7c0,0.1-0.1,0.2-0.1,0.3
			c0,0.1,0,0.2,0,0.2c0,0.3-0.2,0.4-0.4,0.5c-0.2,0.3-0.4,0.7-0.6,1c0,0.4-0.1,0.7-0.1,1.1c-0.6,5-3,9.6-6.4,13.3
			c-1.9,2.1-4,3.8-6.3,5.3c0,0-0.1,0.1-0.1,0.1c-3.3,2.5-6.6,5-10.1,7.2c-6.2,3.8-13.2,6.7-20.6,6.8c-3.7,0.1-7.5-0.8-11.2,0
			c-2.5,0.5-5,2.1-5.8,4.5c0,0,0,0.1,0,0.1c1.6-2.1,4.3-3.1,6.9-3.3c1.7-0.1,3.4,0.1,5,0.2c1.5,0.1,3,0.2,4.5,0.3
			c4.4,0.1,8.8-0.4,13.1-1.3c0.2-0.1,0.4-0.2,0.6-0.2c0.1-0.1,0.3,0,0.3,0c0.1,0,0.1,0,0.2,0c0-0.3,0.1-0.5,0.5-0.5c0.5,0,1,0,1.5,0
			c0.4-0.1,0.7-0.2,1.1-0.3c5.5-1.8,10.7-4.5,15-8.3C102.3,34.2,105.7,29.8,107.9,24.8z M42.1,59.9C42.1,59.9,42.1,59.9,42.1,59.9
			C42,59.9,42,60,42.1,59.9C42.1,60,42.1,60,42.1,59.9z M15.8,105C15.8,105,15.9,105,15.8,105C15.9,104.9,15.8,104.9,15.8,105
			C15.8,105,15.8,105,15.8,105z M16.7,101.6C16.7,101.6,16.7,101.6,16.7,101.6C16.7,101.6,16.7,101.6,16.7,101.6
			C16.7,101.6,16.7,101.6,16.7,101.6z M17.1,101.6C17.1,101.6,17.1,101.5,17.1,101.6c-0.1-0.1-0.2-0.1-0.2-0.1c0,0-0.1,0-0.1,0.1
			C16.9,101.6,17,101.6,17.1,101.6z M15.5,96.7C15.5,96.7,15.5,96.7,15.5,96.7C15.5,96.7,15.5,96.7,15.5,96.7
			C15.5,96.7,15.5,96.7,15.5,96.7z M3.6,102.5c0,0.2,0.1,0.5,0.2,0.7c0.4,0.9,1,1.6,1.5,2.4c0.6,0.9,1.1,1.7,1.7,2.6
			c0.1,0.2,0.1,0.3,0,0.4c1.1,0.9,2.5,1.4,3.9,1.3c0.1-0.1,0.2-0.2,0.3-0.2c1.7-0.2,3.7-0.5,4.8-2c-1.2,0.4-2.5,0.8-3.7,0.3
			c-0.6-0.2-1.1-0.6-1.4-1.1c-0.4-0.6-0.4-1.1-0.4-1.8c0-0.4,0-0.7-0.4-1c-0.3-0.2-0.6-0.3-0.9-0.3c-0.8-0.3-1.7-0.5-2.5-0.7
			c-0.8-0.2-1.6-0.5-2.4-0.7C4.2,102.4,3.9,102.4,3.6,102.5z M17.1,107C17.1,107,17.1,107,17.1,107C17.1,107,17.1,107,17.1,107
			C17.1,107,17.1,107,17.1,107z M17.4,97.9c3.2-0.1,6.4-0.4,9.4-1.6c7.1-2.9,8.3-10.3,10.9-16.7c-1.7,2.3-3.5,4.6-5.5,6.6
			c-2,2-4.3,3.7-6.8,5c-3.4,1.8-7,3-10.8,3.4c0.2,0.1,0.5,0.3,0.7,0.5C16.3,95.9,16.9,96.8,17.4,97.9C17.4,97.9,17.4,97.9,17.4,97.9
			z M36.7,85.2c0,0,0.1,0.1,0.1,0.2c0.1,0.1,0.1,0.2,0.2,0.3c0.1-0.7,0.2-1.4,0.3-2.1C37.1,84.1,36.9,84.7,36.7,85.2z M36.6,91.7
			c0,0.1-0.1,0.2-0.1,0.3c-2.3,4.2-7.2,5.6-10.6,8.6c-1.8,1.6-3.2,3.6-4.3,5.7c0.8-1,1.6-1.9,2.5-2.8c3.6-3.7,7.8-6.6,12.3-9
			C36.5,93.5,36.5,92.6,36.6,91.7z M59.5,123.4C59.5,123.4,59.5,123.4,59.5,123.4C59.5,123.4,59.5,123.4,59.5,123.4
			C59.5,123.4,59.5,123.4,59.5,123.4z M61.9,160.1c-0.5,1.4-1.4,2.7-2.6,3.7c-0.2,0.2-0.5,0.3-0.7,0.5c0.8,0.9,1.9,1.3,3.1,1.5
			c0,0,0.1,0,0.1,0c0.8,0.1,1.6,0,2.3-0.2c2-0.5,3.7-1.6,5.3-2.9c0,0,0.1-0.1,0.1-0.1c1.4-1.3,2.5-2.8,3.6-4.3c1-1.4,2-2.8,3-4.2
			c0-0.1,0-0.2,0.1-0.3c0.9-1.3,1.8-2.6,2.8-3.9c0.2-0.4,0.4-0.8,0.6-1.2c0.1-0.2,0.2-0.2,0.4-0.2c0.1-0.2,0.2-0.3,0.4-0.5
			c0.6-0.8,1.2-1.6,1.7-2.4c0.9-1.4,1.5-2.9,1.8-4.6c0.3-2,0.1-4-0.5-5.8c-2,1.3-3.3,3.5-3.4,5.9c0,0.1-0.1,0.3-0.2,0.3
			c-0.3,3-2,5.6-4,7.7c-1.2,1.3-2.5,2.4-3.8,3.5c-1.3,1.1-2.6,2.3-3.9,3.4c0.1,0.3,0.1,0.6,0,0.8c0.2,1.2-0.2,2.5-1.1,3.2
			c-1.1,0.9-2.7,1.1-4.1,0.5C62.5,160.5,62.2,160.3,61.9,160.1z M63.2,167.5c1.3,0.4,2.8,0.4,4.1,0.1c2.5-0.5,4.6-1.8,6.4-3.5
			c3.5-3.4,5.6-8,8.5-11.8c2.8-3.6,6.1-6.9,10.2-9c3.4-1.7,7.3-2.4,11-1.8c0,0,0,0,0-0.1c-3.4-1.4-7.2-2.2-10.8-1.6
			c-0.3,0-0.5,0.1-0.8,0.2c0,0.1-0.1,0.2-0.2,0.3c-5,2.8-9.3,6.9-12.4,11.7c-0.1,0.2-0.3,0.2-0.4,0.2c-0.6,1-1.2,2-1.8,3
			c-1.8,2.9-4,5.6-6.6,7.8c-0.9,0.9-1.9,1.6-3,2.3c-1.4,0.8-3,1.4-4.6,1.6C62.9,167.2,63,167.4,63.2,167.5z M64.9,168.8
			c0.5,0.3,1.1,0.5,1.6,0.6c2.1,0.5,4.2,0.2,6.1-0.7c4-1.9,6.5-5.8,8.7-9.4c2.3-3.7,4.7-7.2,8-10.1c3.2-2.7,6.9-4.8,11-5.7
			c1.5-0.3,3-0.5,4.5-0.5c-0.2-0.1-0.3-0.2-0.5-0.4c-0.8-0.2-1.6-0.3-2.4-0.4c-9.4-0.8-16.6,6.6-21.3,13.8c-2.5,3.9-4.9,8.3-9,10.8
			C69.7,168.2,67.3,168.9,64.9,168.8z M125.1,142c0-0.1,0.1-0.2,0.1-0.3c-2.4-0.7-4.7-1.4-7.1-2.1c1,2,2.1,4,3.1,6
			C122.2,144.2,123.6,142.9,125.1,142z M133.4,148.4C133.4,148.4,133.4,148.4,133.4,148.4c-2.8-3-5-6.4-6.6-10.1
			c0.1,0.9,0.2,1.8,0.3,2.8c0.5-0.1,0.8,0.8,0.2,1c-0.2,0.1-0.4,0.1-0.5,0.2c0.4,4,1.8,7.8,4,11.2
			C131.7,151.8,132.5,150.1,133.4,148.4z M151.3,155.9c2.3-0.8,4.6-1.8,6.7-3.2c3.9-2.6,7.1-6.2,9.1-10.5c0,0,0-0.1,0-0.1
			c0-0.1,0.1-0.2,0.1-0.3c-0.2,0.3-0.4,0.5-0.6,0.8c-1.3,1.5-2.9,2.9-4.6,4c-1.8,1.2-3.7,2.2-5.7,3.1c-2,0.9-3.9,1.9-5.8,3
			c-1.7,1-3.4,2.2-4.9,3.6c-2.3,2.1-4.2,4.5-5.7,7.2c0.3-0.2,0.5-0.4,0.8-0.6c0.8-1.6,2.1-2.8,3.5-3.9
			C146.4,157.6,148.9,156.8,151.3,155.9z M129.8,182C129.8,182,129.7,182,129.8,182c-0.1,0.1-0.1,0.1-0.1,0.1
			C129.7,182,129.8,182,129.8,182z M171.6,138c-1.2,4.8-2.5,9.6-4.1,14.3c-2.9,8.5-7.1,16.8-13.5,23.2c-3.1,3.1-6.7,5.5-10.6,7.4
			c-2.9,1.4-6.4,3-8.1,5.8c2.2-1.7,4.8-3,7.4-4.1c1.3-0.6,2.6-1.3,3.9-1.9c0.8-0.4,1.5-0.8,2.3-1.1c0.3-0.1,0.5-0.3,0.8-0.4
			c0,0,0,0,0,0c3.5-2.7,7.1-5.4,10.2-8.6c2.7-2.8,5-5.9,6.4-9.5c1.6-4.2,2-8.7,2.7-13.1c0.3-2.2,0.8-4.3,1.5-6.4
			c0.6-2.1,1.4-4.1,2.1-6.2c0.5-1.5,1-2.9,1.4-4.5c0-0.2-0.1-0.5-0.1-0.7C173.1,134.1,172.4,136.1,171.6,138z M130.3,211
			c0.1-0.2,0.2-0.5,0.3-0.7c-0.1-0.1-0.1-0.2,0-0.4c1.2-4.2,3.7-8,7-10.7c3.4-2.7,7.4-4.1,11.6-5c4.4-0.8,8.9-1.3,13.3-2.5
			c6.9-2,13.4-5.5,18.9-10.1c0.1-0.2,0.1-0.4,0.2-0.6c0.5-2,0.6-4.1,0.5-6.2c-1.3,2.5-3.1,4.7-5.1,6.6c-3.8,3.5-8.5,5.8-13.4,7.4
			c-5.1,1.6-10.4,2.4-15.7,3.5c-4.9,1.1-10,2.7-13.6,6.3c-2.7,2.7-4.6,6.3-4.3,10.1c0,0,0,0,0,0.1c0,0.7,0.2,1.4,0.3,2
			C130.3,210.9,130.3,210.9,130.3,211C130.3,211,130.3,211,130.3,211z M209,130.2c0.3,5.4,1.5,10.7,3.9,15.5
			c0.1,0.1,0.2,0.2,0.3,0.3c0,0.2,0.1,0.3,0.1,0.5c0.2,0.3,0.3,0.6,0.5,0.9c0.2-3.2,0.3-6.5,0.4-9.7c0.3-11.3-0.1-22.5-1-33.8
			c-0.5,1.8-1,3.6-1.5,5.4C209.9,116.1,208.6,123.2,209,130.2z M214.5,150.1C214.5,150.1,214.5,150.1,214.5,150.1
			C214.5,150.1,214.5,150.1,214.5,150.1C214.5,150.1,214.5,150.1,214.5,150.1z M214.8,149.7c0.1-0.1,0.2-0.1,0.3-0.2
			c0.4-0.4,0.8-0.9,1.2-1.3c0.8-0.9,1.5-1.9,2.2-2.8c3.9-5.7,6-12.3,7.5-19c-1.4-1.3-2.7-2.6-3.9-4.1c-1.1,1.3-1.7,2.9-2,4.6
			c-0.4,2.2-0.2,4.4-0.2,6.6c0,2-0.2,4-0.6,6C218.4,143.1,216.9,146.6,214.8,149.7z M231.2,99.1C231.2,99.1,231.2,99.1,231.2,99.1
			c-1.7-0.6-3.4-1.4-4.8-2.4c-4.8-3.3-8-8.8-8.4-14.6c0,0.1,0,0.2-0.1,0.3c0.1,1.3,0.3,2.6,0.5,3.8c1.5,7.4,5.5,14.1,11.3,19
			C230.1,103.1,230.6,101.1,231.2,99.1z M231.4,98.1c0-0.1,0.1-0.3,0.1-0.4c0.4-1.5,0.8-3.3,1.7-4.6c-1.1-0.5-2.3-1-3.4-1.5
			c-4.3-2-8.6-4.9-11-9.1c0.1,1,0.3,2,0.6,2.9C221.1,91.2,225.7,96.2,231.4,98.1C231.4,98.1,231.4,98.1,231.4,98.1z M234.3,91.9
			c1.4-1.1,3.2-1.5,4.9-0.9c0-0.1-0.1-0.2-0.1-0.4c-1.7-0.8-3.5-1.5-5.2-2.3c-3.2-1.4-6.5-2.8-9.7-4.3c-1.8-0.9-3.6-1.9-5-3.3
			c0.4,1,0.9,1.9,1.6,2.7c3.2,4.4,8.3,6.7,13.2,8.8C234,92.1,234.1,92,234.3,91.9z M197.9,28.5c-1-0.8-2-1.6-3.1-2.3
			c-0.3-0.2-0.3-0.8,0.1-0.9c0.1,0,0.3,0,0.4-0.1c0.1-0.2,0.3-0.4,0.5-0.4c-4.7-1.2-9.7-1.4-14.5-0.5c0,0.2,0,0.3-0.1,0.4
			c-0.2,0.2-0.5,0.4-0.7,0.6c1.3-0.1,2.6,0,3.9,0.3c4.5,1,8.5,3.5,12.4,5.9c3.6,2.2,7.1,4.7,10.5,7.3
			C204.6,35.1,201.4,31.6,197.9,28.5z M123.3,9.7c-2.9,1.2-5.9,2.1-9,2.1c-0.2,0.2-0.5,0.4-0.8,0.4c-0.5,0.1-1-0.1-1.4-0.3
			c-0.2,5.1-1.6,10.1-3.9,14.6c-1.2,2.4-2.7,4.7-4.3,6.8c3.3-4,6.1-8.4,9.2-12.4c1.8-2.3,3.6-4.5,5.7-6.4c2.1-2,4.4-3.7,6.9-5.1
			c5-2.9,10.5-4.8,15.9-6.6c0.3-0.1,0.6-0.2,0.9-0.3c-4,0.8-7.9,2.5-11.7,4.2C128.3,7.8,125.8,8.8,123.3,9.7z M100.1,17.1
			c-0.9,0.6-1.8,1.1-2.8,1.7c-0.7,0.4-1.4,0.8-2.2,1.3c-0.6,0.4-1.4,0.9-2.2,0.8c-0.6-0.1-1.1-0.6-1.3-1.2c-0.1-0.2-0.1-0.5-0.1-0.7
			c-0.2,0.2-0.4,0.4-0.7,0.6c0,1.5-0.2,3-0.7,4.3c1.6-0.4,3.2-0.9,4.7-1.6c4.7-2.1,8.7-5.4,12.1-9.2
			C104.7,14.4,102.4,15.8,100.1,17.1z M59.3,33.9c-0.7,0.5-1.4,1-2.1,1.6c-4.4,3.6-7.8,8.3-9.9,13.6c1-1.8,2.2-3.6,3.6-5.2
			c2.2-2.6,4.8-4.9,7.6-6.8c3.1-2.1,6.6-3.5,10.1-4.7c3.8-1.3,7.7-2.5,11.1-4.5c2.2-1.3,4.3-2.9,6.1-4.8c-1.2,0.7-2.4,1.3-3.6,1.8
			c-7.3,3.3-15.4,4.9-22.5,8.7C59.6,33.7,59.4,33.8,59.3,33.9z M58.1,157.5c-1.7-0.8-3.2-1.9-4.2-3.4c-0.1,0.6-0.1,1.1-0.2,1.7
			c0,0.7,0.1,1.5,0.2,2.2c0.2,1.2,0.6,2.3,1.1,3.4c0.3,0.6,0.7,1.3,1.2,1.8c0.7,0.6,1.4,0.5,2.2,0.1c1.2-0.8,2.1-2.1,2.6-3.4
			c0-0.1,0.1-0.2,0.2-0.3c-0.4-0.3-0.7-0.7-0.9-1.1c-0.4-0.2-0.9-0.3-1.3-0.5c-0.3,0-0.5-0.1-0.7-0.3
			C58.2,157.6,58.1,157.6,58.1,157.5z M57.4,164.6C57.4,164.6,57.5,164.6,57.4,164.6C57.5,164.6,57.5,164.6,57.4,164.6
			C57.4,164.6,57.4,164.6,57.4,164.6z M121.5,155c0.2,0.5,0.3,0.9,0.5,1.4c0.2-4.4,1.1-8.7,2.5-12.8c-2.1,1.6-3.7,4.1-4.1,6.8
			c0,0.3-0.3,0.4-0.5,0.3C120.6,152.1,121.1,153.5,121.5,155z M123.1,201.3c1.6-2.7,3.3-5.3,5.3-7.7c0.3-0.4,1,0,0.8,0.5
			c-0.2,0.8-0.4,1.6-0.6,2.4c0.1,0.2,0.1,0.4,0.1,0.7c0,0.1,0,0.2-0.1,0.2c0.5-1.3,1.1-2.5,1.8-3.6c0.9-1.3,1.9-2.5,3-3.5
			c1.3-4.4,6.2-6.6,10.1-8.5c3.9-1.9,7.4-4.5,10.4-7.6c3-3.1,5.5-6.6,7.5-10.4c3.2-5.9,5.4-12.2,7.2-18.6c0,0.1-0.1,0.2-0.1,0.2
			c-2.7,6-5.9,11.9-9.7,17.3c-3.6,5.1-7.7,9.9-12.3,14.2c-2.3,2.2-4.7,4.2-7.2,6.2c-2.6,2-5.4,3.9-7.9,6.1
			c-3.9,3.3-7.5,7.5-8.6,12.6C123,201.5,123.1,201.4,123.1,201.3z M188.8,190.6C188.8,190.6,188.8,190.6,188.8,190.6
			C188.8,190.6,188.8,190.6,188.8,190.6C188.8,190.6,188.8,190.6,188.8,190.6z M93.4,18.2C93.4,18.2,93.4,18.2,93.4,18.2
			C93.4,18.2,93.4,18.2,93.4,18.2z M93.4,18.2C93.4,18.1,93.4,18.1,93.4,18.2C93.4,18.1,93.4,18.1,93.4,18.2z M139.9,167.8
			c0.1,0.2,0.1,0.3,0.2,0.5c0,0.1,0,0.1,0,0.2c0.1-0.3,0.2-0.6,0.3-0.9C140.3,167.7,140.1,167.7,139.9,167.8z"/>
	</g>
	<path class="st0" d="M67.5,208.4v1.4c0,8.7-2.6,13.8-8.8,15.9v0.2c7.3,2.2,10.4,8,10.4,18.2v2.7c0,12.8-6.9,19.6-19.5,19.6H32.3
		v-77.7h16.4C60.9,188.8,67.5,195.7,67.5,208.4z M44,199.7v21.2h3.7c5.7,0,8-2.9,8-9.4v-2.6c0-6.3-2.3-9.2-7.4-9.2H44z M44,231.7
		v23.9h5.1c5.7,0,8.2-3,8.2-9.5v-4.3c0-6.9-2.6-10-8.8-10H44z"/>
	<path class="st0" d="M116.1,266.5h-12l-2.6-17.6h-13L86,266.5H74.2l13.4-77.7h15L116.1,266.5z M94.9,205.4l-4.8,32.7h9.9l-4.8-32.7
		H94.9z"/>
	<g>
		<path class="st0" d="M83.6,284.4v0.6l-3.3,0.3v-0.9c0-1.3-0.6-2-1.8-2s-1.8,0.7-1.8,2v0.3c0,1.3,0.6,2.5,2.9,4.5
			c3.2,2.7,4.4,4.6,4.4,7.3v1.1c0,3.3-1.9,5.1-5.4,5.1s-5.4-1.9-5.4-5.1v-1.5l3.3-0.3v1.6c0,1.4,0.7,2.2,2,2.2c1.3,0,2-0.7,2-2.2
			v-0.8c0-1.4-0.7-2.6-3-4.6c-3.2-2.7-4.3-4.6-4.3-7.3v-0.5c0-3.3,1.9-5.1,5.2-5.1C81.8,279.3,83.6,281.1,83.6,284.4z"/>
		<path class="st0" d="M103.7,282.8h-6.3v6.5h5.1v3.2h-5.1v6.8h6.3v3.2H94v-22.9h9.8V282.8z"/>
		<path class="st0" d="M122.4,302.5l-2.8-9.7H118v9.7h-3.5v-22.9h5c3.7,0,5.8,2,5.8,5.8v1.6c0,2.4-0.9,4.1-2.5,5l3.2,10.4H122.4z
			 M118,282.8v6.8h1.4c1.7,0,2.4-0.9,2.4-2.8v-1.2c0-1.9-0.8-2.8-2.4-2.8H118z"/>
		<path class="st0" d="M139.9,302.5h-3.5v-22.9h3.5V302.5z"/>
		<path class="st0" d="M161.2,282.8h-6.3v6.5h5.1v3.2h-5.1v6.8h6.3v3.2h-9.8v-22.9h9.8V282.8z"/>
		<path class="st0" d="M181.2,284.4v0.6l-3.3,0.3v-0.9c0-1.3-0.6-2-1.8-2s-1.8,0.7-1.8,2v0.3c0,1.3,0.6,2.5,2.9,4.5
			c3.2,2.7,4.4,4.6,4.4,7.3v1.1c0,3.3-1.9,5.1-5.4,5.1c-3.4,0-5.4-1.9-5.4-5.1v-1.5l3.3-0.3v1.6c0,1.4,0.7,2.2,2,2.2s2-0.7,2-2.2
			v-0.8c0-1.4-0.7-2.6-3-4.6c-3.2-2.7-4.3-4.6-4.3-7.3v-0.5c0-3.3,1.9-5.1,5.2-5.1C179.4,279.3,181.2,281.1,181.2,284.4z"/>
	</g>
	<g>
		<path class="st0" d="M144.6,206.6v1.6l11.3-1.1v-2c0-0.6,0-1.3-0.1-1.9c-0.5,0-0.9,0-1.2,0C150.5,203.3,148.3,203.9,144.6,206.6z"
			/>
		<path class="st0" d="M142.5,221.4c-3-2.5-5.1-4.6-6.6-6.6c-2.3,4.2,1.1,6.5,1.1,6.5s0,0-5.4-0.5c-5.4-0.5-7-10.6-7-10.6
			c-0.8,0.9-1.4,3.7-1.7,6.3c2.1,4.8,6,9.3,12.5,14.8c7.9,6.7,10.2,10.5,10.2,15.4v2.6c0,4.9-2.2,7.3-6.7,7.3
			c-4.4,0-6.7-2.4-6.7-7.3v-5.5l-11.3,1.1v5.2c0,11.1,6.5,17.4,18.2,17.4s18.2-6.3,18.2-17.4v-3.9
			C157.3,237,153.3,230.5,142.5,221.4z"/>
	</g>
	<path class="st0" d="M164.4,202.7v63.8h11.8v-64.9C172.1,202.1,168,202.4,164.4,202.7z"/>
	<path class="st0" d="M224,213.3v-7c0-11.8-6.8-18.6-18.3-18.6c-0.5,0-0.9,0-1.4,0.1c-2.2,2.6-6.5,7.3-11.5,10
		c-1.1,0.6-2.5,1.1-4.2,1.6c-0.6,2.1-1,4.4-1,7v42.6c0,11.8,6.7,18.6,18.1,18.6c11.5,0,18.3-6.9,18.3-18.6v-9.3l-11.3-0.6v8.7
		c0,6.2-2.3,9-6.7,9c-4.3,0-6.7-2.8-6.7-7.9v-42.4c0-5.1,2.3-7.9,6.7-7.9c4.3,0,6.7,2.8,6.7,9v6.3L224,213.3z"/>
</g>
</svg>
