<?xml version="1.0" encoding="utf-8"?>
<!-- Generator: Adobe Illustrator 22.1.0, SVG Export Plug-In . SVG Version: 6.00 Build 0)  -->
<svg version="1.1" id="katman_1" xmlns="http://www.w3.org/2000/svg" xmlns:xlink="http://www.w3.org/1999/xlink" x="0px" y="0px"
	 viewBox="0 0 260 307.9" style="enable-background:new 0 0 260 307.9;" xml:space="preserve">
<style type="text/css">
	.st0{fill:#fff;}
</style>
<g>
	<g>
		<path class="st0" d="M121.8,149.4C121.8,149.4,121.8,149.4,121.8,149.4C121.8,149.4,121.8,149.4,121.8,149.4
			C121.8,149.4,121.8,149.4,121.8,149.4C121.8,149.4,121.8,149.4,121.8,149.4z M121.8,149.4C121.8,149.4,121.8,149.4,121.8,149.4
			C121.8,149.4,121.8,149.4,121.8,149.4C121.8,149.4,121.8,149.4,121.8,149.4C121.8,149.4,121.8,149.4,121.8,149.4
			C121.8,149.4,121.8,149.4,121.8,149.4C121.8,149.4,121.8,149.4,121.8,149.4C121.8,149.4,121.8,149.4,121.8,149.4
			C121.8,149.4,121.8,149.4,121.8,149.4C121.8,149.4,121.8,149.4,121.8,149.4C121.8,149.4,121.8,149.4,121.8,149.4
			C121.8,149.4,121.8,149.4,121.8,149.4C121.8,149.4,121.8,149.4,121.8,149.4z M121.8,149.4C121.8,149.4,121.8,149.4,121.8,149.4
			C121.8,149.4,121.8,149.4,121.8,149.4C121.8,149.4,121.8,149.4,121.8,149.4C121.8,149.4,121.8,149.4,121.8,149.4z M121.8,149.4
			C121.8,149.4,121.8,149.4,121.8,149.4C121.8,149.3,121.8,149.3,121.8,149.4C121.8,149.3,121.8,149.3,121.8,149.4
			C121.8,149.3,121.8,149.3,121.8,149.4C121.8,149.3,121.8,149.4,121.8,149.4z M121.8,149.4C121.8,149.4,121.8,149.4,121.8,149.4
			C121.8,149.4,121.8,149.4,121.8,149.4C121.8,149.4,121.8,149.4,121.8,149.4C121.8,149.4,121.8,149.4,121.8,149.4z M248,96.3
			c-1.6,0.1-3.1,0.2-4.7,0.3c0.8,1.7,1.4,3.5,1.9,5.3c2.1,8.1,0.9,17-3.4,24.2c-0.1,0.3-0.2,0.6-0.3,0.8c-0.2,0.5-0.6,1.1-1.2,1.2
			c-0.6,0.1-1.2-0.2-1.5-0.8c-0.4-0.7-0.2-1.4,0-2.1c0.2-0.7,0.2-1.4,0.2-2.1c0-0.4-0.1-0.8-0.2-1.1c-0.1-0.3-0.2-0.7-0.3-1
			c-0.3-0.4-0.7-0.9-1.1-1.3c-1.3-1.4-2.8-2.6-4.4-3.7c-0.1,0-0.2-0.1-0.3-0.1c-1.8-0.5-4-0.6-5.4,0.9c-1.2,1.2-1.6,3.1-1.9,4.8
			c-0.6,4.1-0.4,8.5,0.2,12.6c1.4,8.5,5,16.7,10.6,23.2c0.4,0.4,0.4,1,0,1.5c0,0.3-0.1,0.6-0.2,0.8c-0.2,0.4-0.6,0.6-1,0.7
			c-0.3,0.3-0.7,0.5-1.1,0.3c-0.7-0.3-1.3-0.5-2-0.8c-0.4-0.1-0.8-0.3-1.2-0.5c-0.1,0-0.3,0-0.4-0.1c0,0,0,0-0.1,0
			c-0.7-0.3-1.3-0.6-2-1c-4-2-7.8-4.6-11.2-7.5c0,2.5-0.3,5-0.9,7.5c-0.7,2.8-1.9,5.4-3.3,8c-1.4,2.5-2.9,4.9-4.5,7.3
			c-2.9,4.5-6.4,8.8-11.2,11.3c-0.3,0.2-0.6,0.2-0.9,0.1c-0.7,0.3-1.8-0.3-1.5-1.3c1.5-6.6,3-13.2,4.5-19.9
			c-0.1,0.1-0.1,0.2-0.2,0.3c-2.4,3.7-5.2,7.1-8.4,10.2c-1.6,1.5-3.3,3-5.1,4.4c-1.1,0.8-2.2,1.5-3.4,2.1c-0.3,0.3-0.6,0.5-0.9,0.8
			c-3,2.5-6.5,4.1-10,5.7c-1,0.4-2-0.5-1.5-1.5c2.1-4,3.8-8.1,5.2-12.4c0,0,0,0,0,0c1.4-5.3,1.5-11,0.2-16.3
			c-0.9-4.1-2.7-8.5-6.1-11.2c-2.8-2.2-7.4-2.2-9.1,1.4c-0.4,0.9-0.7,2-0.9,3c-0.2,1.2-0.4,2.4-0.4,3.6c-0.1,2.2,0.3,4.4,1.3,6.3
			c1,1.8,2.5,3.1,4.4,3.7c2,0.7,4.2,0.8,6.3,0.9c0.6,0,0.9,0.4,1,0.9c0,0,0,0,0.1,0c0.1,0,0.1,0,0.2,0c0.7,0.1,1.2,0.8,0.8,1.6
			c-1.9,3.5-4.4,6.6-7.3,9.2c-2.8,2.5-6,4.6-8.5,7.5c0.7,0.1,1.4,0.3,2.2,0.4c0.8,0.2,1,1.3,0.5,1.8c-1.4,1.4-3.1,2.6-4.9,3.6
			c-6.8,3.6-14.6,3.8-21.8,6.4c1.3,1.7,2.9,3.2,4.7,4.3c0.3,0.2,0.5,0.6,0.5,1c1.3,0.7,2.7,1.2,4.2,1.5c0.7,0.1,0.4,1.2-0.3,1
			c-2.5-0.4-4.9-0.9-7.3-1.7c-0.3-0.1-0.6-0.2-0.9-0.3c-1.2-0.2-2.5-0.5-3.7-0.8c-6.9-1.8-13.9-5.7-17.1-12.4c-0.1,0-0.1,0-0.2,0
			c-3.4-0.5-6.5-2.8-8-5.8c-1.6-3.1-1.5-6.9,0.1-10c-1.6-0.8-3.2-1.8-4.6-3c-5.8-4.8-9-12.3-8.6-19.9c0.1-0.8,1.2-1.6,1.9-0.8
			c2.1,2.7,5.1,4.4,8.2,5.9c1.6,0.7,3.2,1.4,4.8,2c0.3,0.1,0.5,0.2,0.8,0.3c-3.3-3.5-6-7.5-8.1-11.9c-0.3-0.7,0-1.7,0.9-1.6
			c1.8,0.2,3.5,0.4,5.3,0.5c1.9-6.2,2.2-12.9,0.3-19.2c-1.6-5.4-4.8-10.2-9.2-13.7c-4.2-3.3-9.4-5.4-14.7-5.5
			c-3.5-0.1-7,0.6-10.4,1.4c-3,0.7-6.2,1.3-8.8,2.8c-2.2,1.3-3.6,3.3-4.2,5.8c-0.5,2.3,0,4.7,1.3,6.7c0.6,0.8-0.4,1.8-1.2,1.6
			c-6.6-1.9-12.8-5.3-17.9-9.8c1.5,4.9,3.1,9.8,4.6,14.7c0.2,0.8-0.6,1.6-1.3,1.3c-2.5-0.8-4.9-1.7-7.3-2.8c-4.2-1.8-8.2-4-12.1-6.4
			c-1.7-1.1-3.5-2.4-4.2-4.4c-0.6-1.5-0.5-3.3,0.5-4.5c0.1-0.3,0.2-0.7,0.4-1c-2.2-1-4.2-2.3-6.1-3.8c-7.3-6-10.8-15.5-9.5-24.8
			c0-0.2,0.1-0.3,0.2-0.4c-0.1-0.1-0.2-0.2-0.2-0.3c-1-1.8-2-3.5-3-5.3c-0.9-1.6-2-3.2-2.5-4.9c-0.5-1.4-0.4-3,0.3-4.3
			c0.6-1.1,1.6-2,2.6-2.8c1.1-0.8,2.4-1.4,3.7-2.1c1.5-0.7,2.9-1.5,4.4-2.1c3-1.2,6.3-2,9.6-1.6c1.3,0.2,2.7,0.6,4,0.7
			c3-2.3,6.7-3.5,10.3-4.1c4.2-0.7,8.5-0.7,12.7-1.2c4.1-0.5,8.3-1.4,11.7-4c1.8-1.4,3.3-3.1,4.9-4.7c1.6-1.6,3.4-3,5.2-4.2
			c3.6-2.4,7.7-4.2,12-5.2c0.3-0.1,0.6,0,0.8,0.1c1.2-1.2,2.2-2.6,3.2-3.9c2-2.8,4.1-5.3,6.8-7.4c2.6-2.1,5.6-3.6,8.8-4.7
			c0.8-0.3,1.6,0.6,1.3,1.3c-0.2,0.5-0.3,1.1-0.5,1.6c1.3-0.4,2.6-0.8,4-1.2c7.2-1.9,14.7-2.5,22.1-1.8c0.3,0,0.7,0.2,0.9,0.4
			c0.2,0,0.3,0,0.5,0c0.5,0.1,1,0.8,0.8,1.3c-0.2,0.5-0.4,1-0.6,1.5c5-1.8,10-3.6,15-5.4c0.4-0.1,0.8,0,1,0.3c0,0,0-0.1,0.1-0.1
			c0.3-0.5,1-0.6,1.5-0.4c1.9,0.9,4.1,0.5,6-0.2c1.8-0.7,3.4-1.9,4.9-3.1c1.7-1.3,3.4-2.7,5.2-4c3.5-2.8,7.1-5.5,10.6-8.3
			c0.8-0.6,1.7-0.2,1.9,0.8c0.6,4.7,1.2,9.5,1.8,14.2c1.8-0.6,3.5-1.2,5.2-2.1c6.7-3.3,12.4-8.6,16.1-15.1c0.4-0.7,1.5-0.8,1.9,0
			c2.5,5.4,3.5,11.3,2.9,17.2c0.2-0.1,0.3-0.1,0.5-0.2c0.7-0.2,1.4,0.4,1.4,1c-0.2,4.9-1.3,9.7-3.2,14.2c1.4,0.3,2.8,0.6,4.1,1
			c6.2,1.8,12,4.7,17.2,8.4c0.3,0.2,0.4,0.4,0.5,0.7c0.1,0.1,0.1,0.1,0.2,0.2c0.1,0,0.1,0.1,0.2,0.1c0.5,0.3,0.7,1,0.4,1.5
			c-0.3,0.5-1,0.6-1.5,0.4c-0.4-0.2-0.9-0.4-1.4-0.4c-0.3,0-0.5,0-0.5,0.2c-0.1,0.5,0.4,0.9,0.7,1.2c0.5,0.4,1,0.7,1.5,1.1
			c7.9,5.6,14.6,13,19.4,21.4c0.4,0.6,0,1.2-0.4,1.5c0.1,0.6-0.3,1.2-1,1.2c-0.9,0-1.7,0-2.6-0.1c0.3,1.4,0.7,2.8,1,4.1
			c1.8,6.3,4.5,12.4,8.1,18c0.2,0.4,0.2,0.7,0,1C249.3,95.1,249,96.2,248,96.3z M230.9,113.5c0.8,0,1.7,0.2,2.5,0.4
			c-1.2-1-2.5-1.8-3.9-2.6c-2.9-1.5-5.9-2.5-8.8-4c-1.4-0.7-2.7-1.5-3.9-2.5c1.9,2.6,3.2,5.6,4.1,8.7c1.4,5,1.8,10.1,2.1,15.2
			c-0.1-1.5-0.1-2.9,0-4.4c0.1-2.2,0.3-4.4,1.1-6.5c0.3-0.7,0.6-1.3,1-1.9c0.5-1.2,1.2-2.2,2.3-2.7
			C228.6,112.8,229.8,113,230.9,113.5z M210.3,166.5c1.9-3.6,3.4-7.5,4.3-11.4c-0.1-0.1-0.2-0.2-0.2-0.4c0-0.1,0-0.2,0-0.3
			c0-0.1,0-0.2,0-0.2c0.1-0.7,0.1-1.4,0.2-2.1c0.4-7,0-14-1.2-20.8c-1.2-6.9-3.2-13.6-6-20c-0.6-1.4-1.3-2.8-1.9-4.2
			c-3.4-1.3-6.7-2.7-10-4.4c-1.4-0.7-2.7-1.4-4.1-2.2c0.1,0.1,0.1,0.3,0.1,0.5c0.4,0.4,0.9,0.8,1.3,1.2c4.2,4,7.8,8.6,10.7,13.7
			c2.8,5,5,10.5,6.2,16.1c1.3,5.8,1.7,11.7,1.1,17.6c-0.6,5.9-2,11.8-4.3,17.3c-2.1,4.9-4.8,9.6-8.1,13.7c1.6-1.2,3-2.5,4.4-3.9
			c1.8-1.8,3.4-3.8,4.8-5.9C208.6,169.3,209.4,167.9,210.3,166.5z M144.6,191c3.7-1.2,7.2-2.6,10.7-4.2c-4,0.6-8.1,0.5-12.2-0.3
			c-2,1-4,1.8-6.1,2.5c-3.9,1.3-8.3,1.9-12.4,1.2c2,1.7,4.3,3,6.7,4c0.5-0.1,0.9-0.2,1.4-0.2c1.9-0.7,3.9-1.2,5.9-1.6
			C140.6,191.8,142.6,191.4,144.6,191z M127.2,197.8c0.8,0.3,1.7,0.6,2.5,0.8c-3.6-2.3-6.6-5.6-8.6-9.5c-1.6-0.6-3-1.4-4.4-2.5
			c-0.1,0.1-0.3,0.1-0.4,0.2c-0.5,0.2-1,0.3-1.4,0.4c0.1,0.1,0.1,0.2,0.2,0.3c0.5,1.2,1.2,2.2,2,3.3c0.6,0.6,1.3,1.2,2,1.7
			C121.6,194.5,124.3,196.3,127.2,197.8z M4.2,75.1c0.3,0.5,0.6,1.1,0.9,1.6c0.7,1.2,1.3,2.3,2,3.5c0.1-0.1,0.2-0.1,0.3-0.1
			c0.1-0.1,0.2-0.2,0.4-0.2c0.9-0.5,2-0.4,2.8-1.2c0.4-0.4,0.7-0.9,0.8-1.5c0-0.1,0-0.3,0-0.4c0-0.9-0.1-1.8-0.2-2.7
			c-0.1-0.2-0.1-0.5-0.1-0.7c-0.1-1.1,0.4-2,1.3-2.7c0,0,0.1-0.1,0.1-0.1c0.3-0.3,0.7-0.5,1.1-0.6c0.4-0.1,0.7-0.1,1.1-0.2
			c1-0.1,2-0.1,2.9-0.2c0.1,0,0.2,0,0.2,0c0.2,0,0.5-0.1,0.7-0.1c1.7-0.4,3.4-1.6,4.1-3.3c0.6-1.6,0.1-3.4-1.1-4.6
			c-1.6-0.3-3.2-0.3-4.8,0c-0.4,0.2-0.7,0.4-1,0.5c-2.3,1.1-4.6,2.3-6.9,3.4c-1.2,0.6-2.3,1.2-3.5,1.7c-0.9,0.5-1.8,1-2.2,2
			c-0.3,1-0.1,2.1,0.1,3.1C3.6,73.3,3.8,74.2,4.2,75.1z M61,52.4c-0.1,0.1-0.2,0.3-0.3,0.4c1.6-0.9,3.2-1.9,4.8-2.8
			c6.4-3.7,12.8-7.5,19.1-11.2c0.4-0.2,0.8,0.1,0.8,0.5c3.7-2.7,8.6-3.2,12.7-5.4c3.9-2.1,7-5.4,8.9-9.3c-2.1,0.5-4.1,1.2-6.1,1.9
			c-0.1,0-0.2,0.1-0.3,0.1c0,0-0.1,0-0.1,0c-0.3,0.1-0.6-0.1-0.7-0.4c-0.2-0.2-0.3-0.4-0.3-0.7c-0.5,1-1.1,2-1.7,3
			c-1.7,2.5-3.7,4.7-6.1,6.6c-1.2,0.9-2.4,1.8-3.7,2.5c-1.3,0.7-2.7,1.2-4.1,1c0,0.1-0.1,0.1-0.2,0.1c0,0,0,0,0,0
			c-0.4,0.3-0.9,0.4-1.4,0.1c-1.6,0.5-3.2,1-4.8,1.7c-3.9,1.7-7.6,3.9-10.9,6.5c-0.7,0.7-1.4,1.3-2.1,2C63.5,50.3,62.3,51.4,61,52.4
			z M201.8,9.9c0-0.3-0.1-0.5-0.1-0.8c-0.6,4.7-2.7,9.1-5.9,12.6c0.1,0.2,0.1,0.4-0.1,0.6c-0.9,0.7-1.8,1.4-2.7,2
			c0.3,0.1,0.5,0.3,0.4,0.7c-0.2,1.1-0.5,2.2-0.7,3.3c2.7-2.7,5.6-5.1,8.6-7.4c-0.2,0.1-0.4,0.1-0.6,0.2c-0.4,0.1-0.8-0.3-0.7-0.7
			C201.3,17,201.9,13.5,201.8,9.9z M207.2,155.1c-0.7,6.3-2.4,12.4-5.1,18.1c1.7-2.9,3.1-5.9,4.3-8.9c4.1-10.9,4.8-23,1.8-34.3
			c-2.6-10-8-19.2-15.4-26.4c0.4,1.8,0.7,3.6,0.9,5.5c0.2,0.9,0.3,1.7,0.5,2.6c0,0,0.1,0,0.1,0.1c1.3,1.5,2.2,3.2,2.8,5.1
			c2.8,3.9,5.1,8.2,6.8,12.7C207,137.6,208.2,146.5,207.2,155.1z M204,147.7c1.3-7.4,0.1-15.3-3.4-22c1.6,3.5,2.4,7.2,2.7,11
			c0.5,8-1.8,15.8-5.6,22.7c-2.4,4.4-5.4,8.5-8.7,12.4c0,0,0,0,0,0c5.2-5.7,9.4-12.4,13.6-18.9c0,0,0.1-0.1,0.1-0.1
			C203.2,151.2,203.7,149.4,204,147.7z M169.9,167.9c-0.1,0-0.1-0.1-0.2-0.1c-0.8,0.5-1.6,0.9-2.4,1.4c-2.9,2.9-5.9,5.7-9.2,8.2
			c-3.2,2.4-6.5,4.6-10,6.6c-1.1,0.6-2.2,1.2-3.3,1.8c3.4,0.5,6.9,0.6,10.4,0c-0.2,0-0.4-0.1-0.7-0.1c-0.2,0-0.3-0.1-0.5-0.3
			c-0.4-0.1-0.9-0.2-1.3-0.3c-0.5-0.1-0.5-0.8-0.1-1c1.4-0.9,2.8-1.9,4.1-2.9c1.8-1.9,3.9-3.4,5.9-5.1
			C165.2,173.5,167.7,170.8,169.9,167.9z M122.6,189.7C122.6,189.7,122.6,189.7,122.6,189.7c2.4,4.2,6.1,7.5,10.4,9.6
			c-1-1-1.8-2.1-2.6-3.3c-0.2-0.3-0.2-0.6-0.1-0.9c0-0.1,0-0.1,0-0.2C127.4,193.6,124.8,191.9,122.6,189.7z M127.4,189.4
			c3.9,0.2,7.8-0.8,11.4-2.2c3.6-1.4,7.1-3.2,10.5-5.2c4-2.4,7.7-5.1,11.3-8c-1.3,0.9-2.7,1.7-4.1,2.4c-7.6,4-16.3,6.5-24.9,6.6
			c-4.4,0-9-0.8-12.8-3.1c-2.5-1.5-4.6-3.6-6-6.1c0.3,4.1,3,7.8,6.9,9.2c0.1-0.2,0.2-0.3,0.3-0.5c0.3-0.6,1.3-0.1,0.9,0.5
			c-0.1,0.2-0.2,0.3-0.3,0.4c0.2,0.4-0.1,0.9-0.6,0.8c-0.6,0.8-1.4,1.5-2.3,2c1.2,0.9,2.5,1.6,3.8,2.1c0.1,0,0.1,0,0.2,0.1
			c0.3,0.1,0.6,0.2,0.9,0.3c0.2,0,0.3,0,0.5,0.1C124.5,189.1,126,189.3,127.4,189.4z M115.8,185.9c-0.3-0.3,0-0.7,0.3-0.8
			c-1.8-0.7-3.2-2.5-4.1-4.1c-1.3-2.4-1.8-5.1-1.6-7.8c0-0.1,0-0.1,0-0.2c-0.8,0.3-1.7,0.4-2.6,0.2c-0.1,0-0.1,0-0.2-0.1
			c-0.3,0.3-0.5,0.7-0.7,1.1c-1.2,2.4-1.2,5.4,0,7.8c1,2,2.8,3.4,4.8,4.2c0,0,0.1,0,0.1,0C113.2,186.4,114.5,186.3,115.8,185.9z
			 M113.5,170.4c-0.2,0.3-0.4,0.6-0.6,0.9c1.3,3.8,4.5,6.7,8.1,8.4c4,1.9,8.6,2.2,13,1.9c4.2-0.3,8.3-1.1,12.3-2.3
			c5.5-1.7,10.7-4.2,15.4-7.5c-1.1,0.5-2.3,0.9-3.5,1.2c0,0,0,0,0,0c-4.1,2.1-8.5,3.7-13,4.7c-4,0.8-8.1,1.2-12.1,1.1
			c-3.8-0.1-7.8-0.6-11.3-2.4c-5.9-3.1-7.4-9.9-8.1-16c0,0-0.1,0.1-0.1,0.1c0,0,0,0,0,0c0,0,0,0,0,0c0,0,0,0-0.1,0.1
			c0,0.1-0.1,0.1-0.1,0.2c0,0.1-0.1,0.1-0.1,0.2c0,0,0,0.1,0,0.1c0,0,0,0,0,0c-0.1,0.1-0.1,0.3-0.1,0.4c0,0.1,0,0.1,0,0.2
			c0,0,0,0.1,0,0.1c0,0,0,0,0,0c0,0.1,0,0.3,0,0.4c0,0.2-0.1,0.4-0.3,0.5c0.1,0.2,0.2,0.3,0.4,0.5
			C114.3,165.4,114.7,168.2,113.5,170.4z M71.9,104.3c4.6-1.1,9.4-1.2,13.9-0.3c-1.1-0.7-2.2-1.3-3.4-1.8c-1.8-0.7-3.6-1.2-5.5-1.4
			c-0.1,0-0.2,0-0.2,0c-4.3-0.5-8.7,0.4-12.5,2.5c0.2,0,0.4,0,0.6,0.1c1.9,0.2,3.7,0.6,5.4,1.3C70.8,104.6,71.3,104.4,71.9,104.3z
			 M68.5,105.3c-2.5-0.8-5.2-1.2-7.8-0.8c-1.4,0.2-2.7,0.7-3.6,1.7c-0.9,0.9-1.3,2.2-1,3.5c0.1,0.2,0,0.3-0.1,0.5
			c0.2,0.9,0.4,1.8,0.6,2.7c0.3-0.3,0.6-0.7,1-1c1-0.9,2-1.8,3.2-2.6c0.2-0.2,0.4-0.3,0.7-0.5C63.6,107.3,66,106.1,68.5,105.3z
			 M56.5,116.8c-0.2-0.9-0.4-1.9-0.7-2.8c-0.6-2.4-1.2-4.9-1.8-7.3c-0.3-1.2-0.5-2.4-1-3.5c-0.4-0.8-1.1-1.3-1.8-1.7
			c-0.1-0.1-0.3-0.1-0.4-0.2c-2.8-0.5-5.4,1.2-7.6,2.8c-1,0.7-2.2,1.5-2.8,2.6c-0.6,1-0.8,2.4,0,3.3c0.2,0.2,0.2,0.4,0.1,0.6
			c0.9,1.1,2,2,3,2.9c1.4,1.2,3,2.4,4.6,3.4c2.7,1.8,5.7,3.2,8.7,4.3C56.5,119.7,56.3,118.2,56.5,116.8z M39.8,119.6
			c-1.1-2.7-2.2-5.5-3.3-8.2c-0.5-1.2-1-2.5-1.7-3.6c-1.3-0.9-2.9-0.9-4.4-0.7c-1.4,0.2-3.1,0.3-4.1,1.4c-1,1.1-1.4,2.8-2,4.2
			c-0.3,0.8-0.6,1.5-0.9,2.3c-0.1,0.3-0.2,0.8-0.2,1.1c0.1,0.1,0.1,0.2,0.2,0.3c0.3,0.3,0.6,0.5,0.8,0.8c0.6,0.6,1.2,1.2,1.8,1.8
			c2.2,1.6,4.7,2.8,7.1,3.9c3.2,1.5,6.4,3,9.5,4.6c-0.4-1.2-0.7-2.3-1.1-3.5C41,122.5,40.4,121.1,39.8,119.6z M14.8,70.9
			c-0.5,0.1-1.1,0.3-1.6,0.6c-0.6,0.6-0.9,1.5-0.9,2.4c0,0.1,0,0.1,0,0.2c0.2,0.7,0.5,1.3,0.6,1.9c0.1,0.5,0.2,0.9,0.2,1.4
			c0.3-0.3,0.7-0.7,1-1c-0.1-0.2,0-0.4,0.1-0.5c2.4-2.4,5.1-4.4,8.1-6c5.4-2.9,11.5-4.5,17.6-5.2c6.2-0.7,12.5-0.6,18.8-0.4
			c-10.6-2.4-21.5-3-32.3-1.7c-0.2,0-0.3,0-0.4-0.1c-0.5,0.2-1,0.5-1.4,0.7c-0.1,0.1-0.3,0.2-0.5,0.3c0,0,0,0,0,0
			c-0.1,0.1-0.2,0.1-0.3,0.1c0.3,1.2,0.1,2.5-0.5,3.6c-0.9,1.8-2.8,3-4.8,3.5c-0.2,0.1-0.5,0.1-0.7,0.1c0,0,0,0,0,0
			C17,71.1,15.9,70.8,14.8,70.9z M31.3,60.4c-0.8,0.2-1.5,0.5-2.3,0.7c2.7-0.3,5.3-0.4,8-0.4c8.2-0.1,16.3,0.9,24.3,3
			c0.2-0.1,0.4-0.1,0.6,0c0.1,0.1,0.2,0.2,0.4,0.3c0.3,0.1,0.7,0.2,1,0.3c0.1,0,0.1,0,0.2,0c1.8-0.2,3.6-0.7,5.3-1.4
			c5.6-2.4,9.8-7.2,11.4-13.1c-0.2,0.2-0.4,0.4-0.6,0.7c-1.3,2.9-3.4,5.4-6.2,7.1c-2.9,1.7-6.2,2.2-9.5,2.4C60,60,56.1,60,52.3,60
			C45.3,60.2,38.3,60.3,31.3,60.4z M41.8,59.1c3.7-0.1,7.4-0.1,11.1-0.2c3.6-0.1,7.3-0.1,10.9-0.2c3.3-0.1,6.5-0.7,9.2-2.5
			c1.6-1,2.9-2.3,4-3.9c-1.4,1.1-3,2-4.6,2.7c-7.6,3.5-16.1,3.4-24.3,3.5c-3.5,0-7.1,0.1-10.6,0.6C38.9,59.2,40.4,59.2,41.8,59.1z
			 M84.9,41.1c-0.4,0.4-0.8,0.9-1.2,1.4c1.8-1.4,4.1-1.8,6.3-2.1c2.4-0.3,4.7-0.6,7-1.5c2.2-0.8,4.3-2.1,6.1-3.6
			c1.6-1.4,3.1-3,4.2-4.9c-0.7,0-0.7-1.1,0-1.1c0.2,0,0.4,0,0.6,0c1-1.7,1.7-3.6,2.1-5.5c-0.6,0.1-1.1,0.2-1.7,0.4
			c-1,2.3-2.4,4.4-4.1,6.2c-1.6,1.7-3.4,3.1-5.4,4.3c-2.3,1.3-4.8,2-7.2,2.8C89.2,38.3,86.8,39.3,84.9,41.1z M200.8,5.4
			c0,0,0-0.1,0-0.1c-0.4,3.8-1.8,7.5-3.9,10.7c-2,2.9-4.6,5.5-7.6,7.4c-3.6,2.2-7.7,3.2-11.7,3.9c-5.9,1.1-13.2,2.2-17.5,6.8
			c0.8-0.4,1.7-0.8,2.5-1.1c5.4-2.2,11.1-3.1,16.7-4.5c3.6-0.9,7.2-1.9,10.5-3.5c1.3-0.8,2.6-1.6,3.8-2.4
			C198.3,18,201,11.7,200.8,5.4z M192.2,30.2c-0.7,2.9-1.6,5.8-2.8,8.6c-0.7,1.5-1.5,2.9-2.4,4.3c0.7-0.6,1.4-1.1,2-1.8
			c3-3,5.2-6.8,7.6-10.3c2.2-3.4,4.5-6.8,6.7-10.2c-3.9,2.7-7.5,5.8-10.8,9.3C192.3,30.1,192.3,30.2,192.2,30.2z M192.3,24.7
			c-0.6,0.4-1.3,0.7-2,1.1c-2.1,1.4-4.3,2.7-6.4,4.1c0.4,0.2,0.9,0.4,1.3,0.6c0.4,0.2,0.3,0.9-0.1,1c-2.2,0.5-4.3,1.1-6.5,1.6
			c-7.3,1.8-14.6,3.7-22,5.5c0.6,0.8,1.1,1.6,1.7,2.4c0.2,0,0.3,0.2,0.3,0.4c0,0,0,0,0,0.1c1.5,2,3.2,4,5.1,5.6
			c1.1,0.9,2.2,1.7,3.5,2.2c0.2,0,0.4,0.1,0.5,0.2c1.7,0.7,3.5,1.1,5.4,1c0.8,0,1.7-0.2,2.5-0.4c0.2-0.2,0.5-0.3,0.7-0.2
			c2.5-0.7,4.7-2.1,6.6-3.8c0.1-0.1,0.3-0.3,0.4-0.4c0-0.1,0.1-0.2,0.2-0.2c0,0,0,0,0,0C189.1,40,190.8,32,192.3,24.7z M195.7,70.4
			c1.2,1.1,2.5,2,3.9,2.8c-0.6-3.2,0.8-6.4,3-8.7c1-1,2.1-1.9,3.3-2.7c-4.2,1.2-8.4,2.6-12.5,4.1C194,67.5,194.8,69,195.7,70.4
			C195.7,70.4,195.7,70.4,195.7,70.4z M223.7,101.6c0.5,1.7,1.7,3.1,3,4.3c1.4,1.1,2.9,2,4.4,3c1.4,0.9,2.7,1.9,3.8,3.1
			c1.4,1.4,2.5,3.1,3.4,4.8c-0.3-1.1-0.7-2.1-1.1-3.2c-1.9-5-4.6-9.7-8.3-13.7c-3-3.3-6.6-6.1-10.6-8.2c1.6,3.2,3.2,6.3,4.8,9.5
			C223.3,101.1,223.6,101.3,223.7,101.6z M240.2,114.5c-0.8-6.2-3.4-12.1-7.5-16.8C229.5,94,225.5,91,221,89c0,0.1,0.1,0.1,0.1,0.2
			c0.2,0.3-0.1,0.8-0.5,0.8c-1.1,0-2.1,0-3.2,0c0,0,0,0.1,0.1,0.1c2.6,1.3,5,2.8,7.3,4.5c4.1,3.2,7.6,7.3,10.2,11.8
			c2.5,4.3,4.2,9,5.5,13.8C240.5,118.3,240.4,116.4,240.2,114.5z M218.2,87.3c-2.8-3-6.3-5.3-10.2-6.6c0,0,0,0.1,0,0.1
			c1.6,1.3,3.3,2.5,4.9,3.8c0.9,0.7,1.9,1.8,1.4,3.1c-0.2,0.5-0.6,0.9-1,1.1c2.3,2.9,4.6,5.9,6.8,8.8c-1.1-2.2-2.3-4.5-3.4-6.7
			c-0.1-0.1-0.2-0.2-0.2-0.3c-0.1-0.3-0.3-0.6-0.4-0.8c-0.2-0.4,0-0.8,0.5-0.8c1,0,2,0,3,0c-0.2-0.2-0.4-0.5-0.6-0.7
			c-0.2-0.1-0.3-0.1-0.5-0.2C218.1,87.9,218.1,87.6,218.2,87.3z M199.3,76.4c-6.2-5.5-9.1-13.8-7.9-21.9c-0.2,0.3-0.4,0.6-0.6,0.9
			c0.1,0.1,0.2,0.3,0.2,0.5c-0.7,3.9-0.6,7.9,0.3,11.7c1.6,6.8,5.5,13,11.2,17.1c1.5,1.1,3,2.1,4.4,3.3c1.4,1.2,2.4,2.7,3.1,4.4
			c1.1,3.2,0.9,7.7,4.2,9.7c-0.2-0.3-0.5-0.6-0.7-1c-3.8-5.9-3.5-13.3-6.2-19.7c-0.5-0.4-1-0.8-1.5-1.2c-0.1,0-0.3,0-0.4,0
			C203,79.3,201.1,78,199.3,76.4z M189.4,62.5c0.1,6.5,2,12.9,5.5,18.5c3.9,6.1,9.3,10.9,14,16.3c0.5,0.6,1,1.2,1.5,1.8
			c-0.8-2.3-1-5-2-7.2c-1.6-3.5-5.4-5.1-8.2-7.4c-2.7-2.3-5-5-6.8-8.1C191.1,72.1,189.7,67.4,189.4,62.5z M215.9,41.3
			c-7.4-1.1-15.2,0-21.9,3.3c0.9,0.1,1.8,0.1,2.6,0.2c0.1,0,0.1,0,0.2,0.1c7.1-4.3,15.9-3.2,23.8-2.3c0,0,0,0,0.1,0c0,0,0,0,0,0
			c-0.1-0.1-0.3-0.2-0.5-0.3C218.8,41.8,217.3,41.5,215.9,41.3z M220.4,43.6c-1.7,0.1-3.4,0.4-5.1,0.7c-2.2,0.4-4.3,1-6.4,1.7
			c3.5,1.5,7.4,1.8,11,0.7c-0.1-0.3-0.2-0.6-0.2-0.9c0-0.4,0.1-0.7,0.2-1C220,44.3,220.2,43.9,220.4,43.6z M239.2,66.3
			c-0.1,0.1-0.2,0.1-0.3,0.2c0.2,0.1,0.4,0.2,0.6,0.3C239.4,66.6,239.3,66.5,239.2,66.3z M240.6,68.6c-4.6-2.8-9.8-4-15.1-4.7
			c3.9,1.3,7.8,2.9,11.4,4.8c0.1,0,0.1,0,0.2,0c1.2,0.1,2.4,0.2,3.7,0.3C240.7,68.8,240.6,68.7,240.6,68.6z M220.2,78.1
			c-4.2-4.4-6.7-10.4-7-16.5c-1.5,5.4-0.1,11.4,3.6,15.6C218,77.5,219.1,77.8,220.2,78.1z M215.1,76.8c-3.5-4.7-4.6-11.2-2.5-16.8
			c-0.2,0.1-0.5,0.1-0.7,0.2c-1,0.5-1.9,1.3-2.6,2.1c-1.8,2.1-2.6,4.9-2.1,7.5c0.5,2.6,2,4.9,4.2,6.3
			C212.6,76.4,213.9,76.6,215.1,76.8z M206.3,75.4c1,0.2,1.9,0.3,2.9,0.5c-0.6-0.6-1.2-1.3-1.7-2.1c-1.6-2.6-2-5.9-0.9-8.8
			c0.4-1.1,1-2.2,1.8-3.1c-1.7,0.9-3.3,1.9-4.7,3.3c-2.3,2.3-3.7,5.6-2.7,8.8C202.6,74.6,204.4,75,206.3,75.4z M193.2,64.9
			c5.6-2,11.4-3.8,17.1-5.4c-5.9,0.8-11.9,1.5-17.8,2.3C192.6,62.9,192.8,63.9,193.2,64.9z M192.3,60.7c5.8-0.7,11.5-1.5,17.3-2.2
			c-5.7-1.2-11.5-2.2-17.3-3c-0.2,1.4-0.2,2.8-0.1,4.2C192.2,60,192.3,60.4,192.3,60.7z M214.5,59.6
			C214.5,59.6,214.5,59.6,214.5,59.6C214.5,59.6,214.5,59.6,214.5,59.6C214.5,59.6,214.5,59.6,214.5,59.6z M215.8,58.8
			c-0.1-0.1-0.2-0.3-0.3-0.4c0,0.1,0,0.1,0,0.2c0,0,0,0.1,0,0.1C215.6,58.7,215.7,58.7,215.8,58.8z M199.3,50.3
			c4.7,2.3,9.5,4.7,14.2,7c-2.5-3.4-4.8-6.9-6.8-10.6C204.2,47.8,201.7,48.9,199.3,50.3z M214.4,56.7c-0.9-1.3-1.9-2.7-2.8-4
			C212.5,54,213.4,55.4,214.4,56.7z M193.1,54.5c6.5,1,12.9,2.1,19.3,3.5c-4.7-2.3-9.5-4.7-14.2-7C196.4,52,194.7,53.2,193.1,54.5z
			 M214.4,60.6c0.9,1.8,1.8,3.6,2.9,5.2c3.9,6,9.3,11.1,15.5,14.7c-4.7-5.6-9.2-11.4-13.3-17.5c-0.1-0.1-0.2-0.2-0.2-0.3
			c-0.1-0.2-0.2-0.4-0.4-0.5c-0.2-0.3,0-0.7,0.3-0.8c1.5-0.4,2.9-0.7,4.4-1.1c-2.9-2.2-5.9-4.5-8.8-6.7c-0.8-0.5-1.6-1-2.3-1.6
			c1.8,2.6,3.7,5.2,5.5,7.9c0.2,0.3-0.1,0.8-0.5,0.8C216.5,60.7,215.4,60.7,214.4,60.6z M235.6,82.6c2.4,2.1,4.7,4.3,6.8,6.7
			c0,0,0-0.1,0-0.1c0-0.1-0.1-0.2-0.1-0.3c0,0,0-0.1,0-0.1c-0.1-0.4-0.3-0.7-0.4-1.1c-1.1-2.3-2.7-4.3-4.4-6.2
			c-1.8-2.1-3.7-4.1-5.5-6.2c-3-3.4-6-6.9-9.4-10c4.1,5.8,8.5,11.4,13.1,16.7C235.7,82.2,235.7,82.4,235.6,82.6z M241.2,84.6
			c-1.9-3.8-4.3-7.3-7.1-10.4c-2.5-2.7-5.3-5.3-8.5-7.2c0.8,0.8,1.5,1.5,2.2,2.3c3.7,4,7.3,8.1,10.9,12.2
			C239.6,82.5,240.4,83.5,241.2,84.6z M228.7,66.2c0.6,0.3,1.2,0.7,1.8,1c2.3,1.3,4.4,2.7,6.7,4.1c-0.2-0.5-0.3-1-0.5-1.6
			C234.1,68.4,231.4,67.2,228.7,66.2z M238.4,66.2c-1.6-1.6-3.3-3.1-5.2-4.4c-3.4-2.3-7-3.9-10.9-5.2c-1.1-0.4-2.1-0.7-3.2-1.1
			c2,1.5,4,3,6,4.5c0.3,0.3,0.4,0.9-0.1,1c-1.4,0.4-2.9,0.7-4.3,1.1C226.7,62.9,232.9,63.7,238.4,66.2z M193,51.9c0,0.1,0,0.1,0,0.2
			c-0.1,0.4-0.2,0.9-0.3,1.4c1.7-1.3,3.4-2.5,5.2-3.6c5.6-3.4,11.8-5.7,18.2-6.8c-6.5-0.6-13.3-0.7-19,2.8c-0.1,0.1-0.2,0.1-0.3,0.1
			C195.6,47.9,194.3,49.9,193,51.9z M202.2,75.4c1.7,1.1,3.7,1.8,5.6,2.4c2.8,0.8,5.6,1.5,8.3,2.4c2.9,0.9,5.8,1.8,8.6,2.9
			c5.6,2,11,4.4,16.3,7c-2.5-1.9-5.1-3.7-7.8-5.2c-5-2.9-10.5-5-16.1-6.4c-0.2,0.2-0.5,0.2-0.7,0c-0.1-0.1-0.1-0.1-0.2-0.2
			c-0.6-0.1-1.2-0.3-1.8-0.4c-0.9-0.2-1.7-0.3-2.6-0.5c-0.2,0.1-0.4,0.2-0.6,0.1c-0.1-0.1-0.2-0.1-0.3-0.2c-2.4-0.4-4.7-0.7-7.1-1.3
			C203.3,75.8,202.7,75.6,202.2,75.4z M239,87.2c-1.7-1.8-3.6-3.4-5.5-5c-1.6-0.9-3.2-1.8-4.8-2.9c-5.9-4.2-10.8-9.7-14.3-16
			c0.6,5.7,3.3,11.2,7.6,15.2c0.1,0.1,0.2,0.2,0.2,0.4c1.4,0.5,2.8,1,4.1,1.5C230.8,82.1,235,84.4,239,87.2z M245.7,93.5
			c0.1,0.1,0.1,0.1,0.2,0.2c-0.2-0.3-0.3-0.7-0.5-1c0.1,0.2,0.1,0.4,0.2,0.6c0,0,0,0,0,0C245.6,93.3,245.7,93.4,245.7,93.5z
			 M239.1,77.3c-0.5-1.5-1-3-1.5-4.5c-0.1,0-0.1,0-0.2-0.1c-2.4-1.5-4.9-3.1-7.3-4.6c-1-0.6-2-1.2-3.1-1.7c1.1,0.7,2.1,1.4,3.1,2.3
			c3.9,3.2,7.3,7.2,10,11.5C239.7,79.4,239.4,78.3,239.1,77.3z M237.7,64.1c-0.5-0.6-0.9-1.3-1.4-1.9c-1.6-2.1-3.4-4.1-5.3-6
			c-2.5,0.3-4.9,0.2-7.4-0.2c2,0.7,3.9,1.4,5.8,2.3C232.5,59.9,235.2,61.8,237.7,64.1z M230,55.2c-1.1-1-2.3-2.1-3.5-3
			c-3,0.7-6.1,0.9-9.2,0.6C221.3,54.7,225.7,55.6,230,55.2z M225.4,51.3c-0.2-0.2-0.5-0.4-0.7-0.5c-1.1-0.8-2.2-1.5-3.2-2.3
			c-0.3-0.3-0.6-0.5-0.9-0.8c-3.9,1.2-8.2,0.9-12-0.7c0.3,0.9,0.8,1.7,1.5,2.3c0.2,0,0.4,0,0.5,0.2c0.1-0.1,0.3-0.1,0.5,0
			c0.6,0.4,1.1,0.9,1.7,1.3c0.9,0.3,1.8,0.6,2.6,0.7C218.7,52.1,222.1,52,225.4,51.3z M199.1,37.5c4.2-0.6,8.5-0.5,12.6,0.3
			c-3.4-1.4-7-2.4-10.6-3.1c-0.1,0-0.2-0.1-0.3-0.1C200.2,35.6,199.7,36.6,199.1,37.5z M194.8,43c1.3-0.6,2.6-1.1,3.9-1.5
			c5.7-1.8,11.8-2.2,17.7-1.3c-5.8-2-12.1-2.6-18.1-1.5C197.2,40.3,196,41.7,194.8,43z M186.8,49.4c-1.7,1.5-3.4,2.9-5,4.6
			c-1.6,1.7-2.7,3.7-3.2,6c-0.9,4.8,1,9.5,4,13.2c0,0.1,0.1,0.1,0.1,0.2c0.1,0,0.2,0,0.2,0c-1.2-3.8-1.2-8.1,0.8-11.6
			c-0.8,0-1.6-0.2-2.3-0.7c-0.6-0.4,0-1.3,0.5-0.9c0.8,0.5,1.7,0.6,2.5,0.4c0.4-0.5,0.8-0.9,1.2-1.3c0.3-0.3,0.7-0.1,0.9,0.2
			c0.9-0.8,1.5-1.8,2.2-2.8c0.1-0.5,0.2-1,0.2-1.5c0.1-0.4,0.6-0.5,0.8-0.3c1.9-3.1,3.9-6.1,5.8-9.2c-1.2-0.1-2.4-0.1-3.6-0.2
			c-0.1,0-0.2-0.1-0.3-0.1C189.8,46.4,188.3,48,186.8,49.4z M175.2,103.6c-4.8-0.3-9.6-1.3-14-3.2c-4.5-1.9-8.6-4.8-12.2-8.2
			c-3.3-3.2-6.2-6.7-8.7-10.6c4.3,9.2,11.6,16.7,20.7,21.1c9.6,4.6,20.7,5.6,31,2.8c-0.2-1-0.4-2-0.6-3.1c0,0,0,0,0-0.1
			c-0.3-0.3-0.6-0.6-0.9-0.8C185.6,103.1,180.4,103.8,175.2,103.6z M178.3,164.7c0-0.1,0.1-0.3,0.1-0.4c1.7-7,4-13.9,6.7-20.6
			c-2.5,3.4-5.4,6.4-8.8,8.8c0.6,1.6,1,3.3,1.3,4.9C178.1,159.8,178.3,162.3,178.3,164.7z M169.5,142.7c2.8-0.9,5.5-2.1,8-3.7
			c6.5-4.2,11.2-10.6,13.4-17.9c0,0.1-0.1,0.2-0.1,0.3c-2.3,4.5-6.2,7.9-10.3,10.7c-4.2,2.9-8.7,5.1-13.5,6.7
			c0.8,1.3,1.6,2.7,2.3,4.1C169.3,142.9,169.4,142.8,169.5,142.7z M166.3,137.9c2.6-0.8,5.1-1.9,7.6-3.1c4.3-2.2,8.5-5,11.9-8.5
			c3-3,5.3-6.9,5.7-11.1c-0.6,1.5-1.3,3-2.1,4.5c-2.6,4.7-6.5,8.8-11.4,11.2c-4.7,2.3-10.1,3-15.1,1.7
			C164.1,134.3,165.3,136.1,166.3,137.9z M150.8,116.2c0,0,0.1,0.1,0.1,0.1c0.1-0.1,0.2-0.1,0.4-0.1c3.2,0.4,6.3,0.7,9.5,1.1
			c5.4,0.6,11,1.5,16.4,1c3-0.3,6-1.1,8.6-2.7c-0.6,0.3-1.3,0.5-1.9,0.8c-5.9,2-12.2,1.7-18.2,0.3c-6.9-1.6-13.4-4.4-20-7
			c0.2,0.5,0.3,1,0.5,1.4C147.8,112.7,149.3,114.4,150.8,116.2z M148.1,121c0.5,6.2,3.1,12.2,7.3,16.9c-1.8-4.9-3.6-9.8-5.4-14.8
			C149.4,122.4,148.8,121.7,148.1,121z M136,128.7c-4.4-10.3-9.9-20-15.5-29.7c0.2,0.5,0.5,1,0.7,1.5c0,0.1,0.1,0.1,0.1,0.2
			c3.5,7,7,14,10.5,21.1c0.2,0.1,0.3,0.2,0.3,0.5c0,0,0,0.1,0,0.1c1.2,2.4,2.4,4.9,3.7,7.3c0,0,0,0.1,0,0.1
			c3.3,5.6,4.9,12.2,4.6,18.7c0,0.2-0.1,0.3-0.2,0.4c0.4,2.3,1.2,4.6,2.3,6.7c2.3,4.3,5.9,7.7,10.3,9.8c3.8,1.7,8.2,2.3,12.3,1.8
			c0,0,0.1-0.1,0.1-0.1c-4.8,0.3-9.7-1.1-13.7-3.9c-2.2-1.6-4-3.6-5.4-6c-1.5-2.5-2.6-5.4-3.5-8.2c-0.9-2.9-1.6-5.8-2.6-8.7
			c-1-3.1-2.1-6.2-3.4-9.2c-0.1-0.3-0.3-0.7-0.4-1c-0.2-0.3-0.3-0.6-0.5-1C136,128.9,136,128.8,136,128.7z M121.8,149.4
			C121.8,149.4,121.8,149.4,121.8,149.4C121.8,149.4,121.8,149.4,121.8,149.4L121.8,149.4C121.8,149.4,121.8,149.4,121.8,149.4z
			 M121.8,149.4C121.8,149.4,121.8,149.4,121.8,149.4C121.8,149.4,121.8,149.4,121.8,149.4C121.8,149.4,121.8,149.4,121.8,149.4
			C121.8,149.4,121.8,149.4,121.8,149.4C121.8,149.4,121.8,149.4,121.8,149.4C121.8,149.4,121.8,149.4,121.8,149.4
			C121.8,149.4,121.8,149.4,121.8,149.4C121.8,149.4,121.8,149.4,121.8,149.4C121.8,149.4,121.8,149.4,121.8,149.4
			C121.8,149.4,121.8,149.4,121.8,149.4z M121.8,149.3C121.8,149.3,121.8,149.3,121.8,149.3C121.8,149.3,121.8,149.3,121.8,149.3
			C121.8,149.3,121.8,149.3,121.8,149.3z M121.8,149.3C121.8,149.3,121.8,149.3,121.8,149.3C121.8,149.3,121.8,149.3,121.8,149.3
			C121.8,149.3,121.8,149.3,121.8,149.3C121.8,149.3,121.8,149.3,121.8,149.3C121.8,149.3,121.8,149.3,121.8,149.3
			C121.8,149.3,121.8,149.3,121.8,149.3C121.8,149.3,121.8,149.4,121.8,149.3C121.8,149.4,121.8,149.4,121.8,149.3
			C121.8,149.4,121.8,149.4,121.8,149.3C121.8,149.4,121.8,149.4,121.8,149.3C121.8,149.4,121.8,149.4,121.8,149.3
			C121.8,149.4,121.8,149.4,121.8,149.3C121.8,149.4,121.8,149.4,121.8,149.3C121.8,149.4,121.8,149.4,121.8,149.3
			C121.8,149.4,121.8,149.4,121.8,149.3C121.8,149.4,121.8,149.4,121.8,149.3C121.8,149.4,121.8,149.4,121.8,149.3
			C121.8,149.4,121.8,149.4,121.8,149.3C121.8,149.4,121.8,149.4,121.8,149.3C121.8,149.4,121.8,149.4,121.8,149.3
			C121.8,149.4,121.8,149.4,121.8,149.3C121.8,149.4,121.8,149.4,121.8,149.3C121.8,149.4,121.8,149.4,121.8,149.3
			C121.8,149.4,121.8,149.4,121.8,149.3C121.8,149.4,121.8,149.4,121.8,149.3C121.8,149.4,121.8,149.4,121.8,149.3
			C121.8,149.4,121.8,149.4,121.8,149.3C121.8,149.4,121.8,149.4,121.8,149.3C121.8,149.4,121.8,149.4,121.8,149.3
			C121.8,149.4,121.8,149.4,121.8,149.3C121.8,149.4,121.8,149.4,121.8,149.3C121.8,149.4,121.8,149.4,121.8,149.3
			C121.8,149.4,121.8,149.4,121.8,149.3C121.8,149.4,121.8,149.4,121.8,149.3C121.8,149.4,121.8,149.4,121.8,149.3
			C121.8,149.4,121.8,149.4,121.8,149.3C121.8,149.4,121.8,149.4,121.8,149.3C121.8,149.3,121.8,149.3,121.8,149.3
			C121.8,149.3,121.8,149.3,121.8,149.3C121.8,149.4,121.8,149.4,121.8,149.3C121.8,149.4,121.8,149.4,121.8,149.3
			C121.8,149.4,121.8,149.4,121.8,149.3C121.8,149.4,121.8,149.4,121.8,149.3C121.8,149.4,121.8,149.4,121.8,149.3
			C121.8,149.4,121.8,149.4,121.8,149.3C121.8,149.4,121.8,149.4,121.8,149.3C121.8,149.3,121.8,149.3,121.8,149.3
			C121.8,149.3,121.8,149.3,121.8,149.3C121.8,149.3,121.8,149.3,121.8,149.3z M121.8,149.4C121.8,149.4,121.8,149.4,121.8,149.4
			L121.8,149.4C121.8,149.4,121.8,149.4,121.8,149.4L121.8,149.4z M121.8,149.4C121.8,149.4,121.8,149.4,121.8,149.4
			C121.8,149.4,121.8,149.4,121.8,149.4C121.8,149.4,121.8,149.4,121.8,149.4z M121.8,149.4C121.8,149.4,121.8,149.4,121.8,149.4
			C121.8,149.4,121.8,149.4,121.8,149.4C121.8,149.4,121.8,149.4,121.8,149.4z M121.8,149.4C121.8,149.4,121.8,149.4,121.8,149.4
			C121.8,149.4,121.8,149.4,121.8,149.4C121.8,149.4,121.8,149.4,121.8,149.4z M121.8,149.4C121.8,149.4,121.8,149.4,121.8,149.4
			C121.8,149.4,121.8,149.4,121.8,149.4C121.8,149.4,121.8,149.4,121.8,149.4z M121.8,149.4C121.8,149.4,121.8,149.4,121.8,149.4
			C121.8,149.4,121.8,149.4,121.8,149.4C121.8,149.4,121.8,149.4,121.8,149.4C121.8,149.4,121.8,149.4,121.8,149.4z M121.8,149.4
			C121.8,149.4,121.8,149.4,121.8,149.4C121.8,149.4,121.8,149.4,121.8,149.4C121.8,149.4,121.8,149.4,121.8,149.4z M121.8,149.4
			C121.8,149.4,121.8,149.4,121.8,149.4C121.8,149.4,121.8,149.4,121.8,149.4C121.8,149.4,121.8,149.4,121.8,149.4z M121.8,149.4
			C121.8,149.4,121.8,149.4,121.8,149.4C121.8,149.4,121.8,149.4,121.8,149.4C121.8,149.4,121.8,149.4,121.8,149.4
			C121.8,149.4,121.8,149.4,121.8,149.4z M121.8,149.4C121.8,149.4,121.8,149.4,121.8,149.4C121.8,149.4,121.8,149.4,121.8,149.4
			C121.8,149.4,121.8,149.4,121.8,149.4z M121.8,149.4C121.8,149.4,121.8,149.4,121.8,149.4C121.8,149.4,121.8,149.4,121.8,149.4
			C121.8,149.4,121.8,149.4,121.8,149.4z M121.8,149.4C121.8,149.4,121.8,149.4,121.8,149.4C121.8,149.4,121.8,149.4,121.8,149.4
			C121.8,149.4,121.8,149.4,121.8,149.4z M121.8,149.4C121.8,149.4,121.8,149.4,121.8,149.4L121.8,149.4
			C121.8,149.4,121.8,149.4,121.8,149.4z M121.8,149.4C121.8,149.4,121.8,149.4,121.8,149.4C121.8,149.4,121.8,149.4,121.8,149.4z
			 M127.5,169.1c0.8-1.3,1.5-2.6,2.2-3.9c-3-6.4-4.6-13.4-4.7-20.4c-0.1,0.3-0.2,0.5-0.3,0.8c0,0.1,0.1,0.2,0,0.3
			C123.4,153.7,124.4,161.8,127.5,169.1z M123.4,136.1c-3.5,1.5-7,3-10.6,4.5c0,0,0,0,0,0c0,0,0,0,0,0c0.1,0.5,0.2,1,0.2,1.6
			C117.1,141.7,120.9,139.4,123.4,136.1z M107.9,123.4c0-0.8,0-1.5-0.1-2.3c-0.6-5-3.4-9.8-7.5-12.8c0.7,1.5,1.2,3.1,1.3,4.7
			C104.3,116,106.5,119.6,107.9,123.4z M55.3,107.1c0.8-1.7,2.6-3.1,4.5-3.5c0.7-0.2,1.5-0.3,2.3-0.3c-3-1.3-6.2-2.1-9.5-2.2
			c0.5,0.4,1,0.9,1.3,1.4c0.6,1,0.9,2.3,1.1,3.5C55.1,106.3,55.2,106.7,55.3,107.1z M23,109.6c0.1,0,0.2,0,0.2,0
			c0.2-0.3,0.4-0.7,0.7-1c-1.1-1.2-2.2-2.5-3.1-3.9c-2.9-4.1-5-8.7-6.1-13.5c-0.7-1.9-1.2-3.9-1.7-5.8c0,1.3,0,2.7,0.2,4
			C13.9,97,17.5,104.3,23,109.6z M13.6,78.4c0,0,0.1,0,0.1,0.1c3.3-1.5,6.8-2.2,10.3-2.5c7.3-0.6,14.5,0.8,21.8,1.5
			c7.1,0.7,14.7,0.8,21.2-2.5c0.6-0.3,1.2,0.6,0.5,0.9c-3.6,1.8-7.5,2.7-11.5,3c-7.3,0.5-14.5-0.9-21.8-1.6
			c-6.3-0.6-13-0.7-18.9,1.7c2.8,0.3,5.5,0.8,8.2,1.5c7.1,1.8,14,4.5,21.3,5.8c6.6,1.1,13.6,1.1,19.7-2.1c0.2-1.2,0.2-2.5,0-3.7
			c-0.1-0.7,1-0.7,1.1,0c0.1,1.2,0.1,2.4,0,3.5c0.4-0.3,0.8-0.6,1.2-0.9c0.4-1,0.8-2.1,1-3.1c1.1-5.6-1.3-11.5-5.9-14.8
			c-0.1,0.2-0.2,0.3-0.5,0.3c-4-0.1-7.9-0.3-11.9-0.3C39.2,65.3,28,66.9,19.4,73c0.1-0.1,0.3-0.1,0.4-0.2c6.1-2.7,13-3.3,19.6-3.7
			c8.2-0.5,16.4-0.4,24.6,0.4c0.7,0.1,0.7,1.2,0,1.1c-4.5-0.4-9-0.7-13.5-0.7c-4,0-7.9,0.1-11.9,0.4c-3.4,0.2-6.9,0.5-10.3,1.2
			C22.9,72.4,17.3,74.3,13.6,78.4z M114.1,30.7c-1.1-0.1-2.2-0.1-3.3-0.2c0.2,0.2,0.3,0.5,0.4,0.8c0.5,1.5-0.3,2.7-1.2,3.8
			c5.5,0.6,11,0.5,16.4-0.3c0,0,0,0,0,0c-4.6-0.6-9.3-1.3-13.9-1.9c-0.5-0.1-0.5-0.8-0.1-1C112.9,31.5,113.5,31.1,114.1,30.7z
			 M173.8,7c-0.9,2.6-2.5,4.8-4.3,6.8c-3.6,3.9-8.2,6.5-12.3,9.8c-2.7,2.2-5.3,4.9-6.9,8.1c1.6-2.1,3.7-3.9,6-5.3
			c2.8-1.7,5.9-2.8,9-3.7c3.7-4.4,6.6-9.5,8.6-14.9C173.8,7.5,173.8,7.2,173.8,7C173.8,7,173.8,7,173.8,7z M167,22.1
			c3-0.8,6.1-1.4,9.1-2.3c-1.1-3.1-1.8-6.3-2.2-9.6C172.2,14.5,169.9,18.5,167,22.1z M145.5,24.3c-2.4,4.5-3.1,9.8-1.9,14.8
			c0.5-0.2,1-0.3,1.5-0.5c0.2-2,0.5-4,0.7-5.9c0-0.2,0.1-0.4,0.3-0.4C145.4,29.7,145.2,27,145.5,24.3z M145,39.8
			c-5.9,1.8-11.2,5.5-14.8,10.5c1.4,0.3,2.6,1.2,3.7,2.1c0.8-1.5,1.8-3,2.9-4.3c3.5-4.3,8.2-7.6,13.4-9.3c-0.8,0.1-1.6,0.2-2.4,0.3
			c-0.6,0.1-1.2,0.3-1.8,0.4c0,0,0,0,0,0C146,40.1,145.2,40.2,145,39.8z M184.9,27.9c-4.7,1.5-9.5,2.4-14.3,3.6
			c-4.2,1-8.5,2.4-12.2,4.6c-0.2,0.3-0.4,0.6-0.5,1c1.4-0.4,2.8-0.7,4.3-1.1c7.1-1.8,14.1-3.5,21.2-5.3c-0.3-0.1-0.5-0.2-0.8-0.3
			c-0.4-0.2-0.3-0.7,0-0.9C183.3,28.9,184.1,28.4,184.9,27.9z M156.9,37.1c0,0-0.1,0.1-0.1,0.1c0,0.1-0.1,0.1-0.1,0.2
			c0.1,0,0.3-0.1,0.4-0.1C157,37.2,157,37.1,156.9,37.1z M159,43.6c0.4,2.3,1,4.6,1.7,6.9c1.6,5.1,4,10.1,7.4,14.2
			c2.7,3.3,6.3,5.9,10.3,7.4c-1.1-0.8-2.1-1.7-3.1-2.7c-5-5.1-8.1-12-8.6-19.2C163.8,48.7,161.2,46.3,159,43.6z M192.3,106.5
			c-5.8,1.6-11.9,1.9-17.8,1.1c-10.8-1.4-20.8-6.6-28-14.8c-1.6-1.9-3.1-3.9-4.4-5.9c4.3,7.2,10.3,13.3,17.5,17.7
			c9.6,5.8,22,9.2,32.9,5.5c0.1,0,0.1,0,0.2,0c0-0.3-0.1-0.6-0.1-0.8c-0.1-0.6-0.2-1.2-0.4-1.8c0-0.2,0-0.3,0.1-0.4
			C192.3,106.9,192.3,106.7,192.3,106.5z M195.8,151.2c2-9,2.3-18.3,2.3-27.6c-0.5,2.4-0.9,4.7-1.5,7.1c-2.2,10-4.9,19.9-8.1,29.6
			c0.2,0.1,0.3,0.2,0.3,0.5c-0.3,2.1-1,4.2-2,6.1c-1.9,3.5-4.5,6.7-7.1,9.7c-1.4,1.7-2.9,3.4-4.4,5.1c3.6-2,6.8-4.7,9.6-7.8
			C190.6,167.5,194,159.4,195.8,151.2z M177.5,172.3C177.5,172.3,177.5,172.3,177.5,172.3C177.5,172.3,177.5,172.3,177.5,172.3
			C177.5,172.3,177.5,172.3,177.5,172.3z M175.4,180c2.7-3,5.2-6,7.6-9.2c1.6-2.2,3.2-4.5,4.1-7.1c-0.3,0-0.6-0.3-0.6-0.7
			c0.7-4.7,1.4-9.3,2-14c-0.7,1.7-1.4,3.4-2.1,5C182.7,162.7,179.1,171.4,175.4,180z M145.9,108.6c3.6,1.4,7.3,2.9,10.9,4.2
			c6.1,2.2,12.6,4.2,19.1,3.9c4.3-0.2,8.6-1.3,12.3-3.6c-0.2,0-0.4,0-0.6,0c-5.2,1.4-10.6,1.7-16,0.9c-9.4-1.3-18.2-5.8-24.6-12.9
			c-5.8-6.4-9.4-14.6-10.4-23.2c-1-2.9-1.7-5.9-2.2-8.9c0,0-0.1,0-0.1,0c0.1,0.4,0.1,0.8,0.2,1.1c1.5,7.3,3.3,14.5,5.3,21.6
			c1.6,5.7,3.4,11.3,5.4,16.9C145.5,108.6,145.7,108.5,145.9,108.6z M131.2,71.7c0,0-0.1,0.1-0.1,0.1c0,0,0,0,0.1,0.1
			C131.1,71.8,131.2,71.8,131.2,71.7z M119.6,89.3c-1-0.7-2-1.4-3.1-2.1c1.8,1.7,3.5,3.6,5.1,5.5c0-0.4,0-0.8,0.1-1.1
			C121,90.8,120.3,90,119.6,89.3z M117.8,90.1c-0.5-0.5-1-1.1-1.5-1.6c0.3,0.5,0.6,1.1,0.9,1.6C117.4,90,117.6,90,117.8,90.1z
			 M154.4,172.7c1.6-0.6,3.2-1.3,4.7-2.1c-0.4,0.1-0.7,0.1-1.1,0.2c-5.8,0.7-11.6-1.6-15.4-6c-3-3.4-4.4-7.8-4.4-12.2
			c-0.4,2.4-0.6,4.9-0.4,7.3c0.3,3.2,1.4,6.5,3.7,8.8c2.1,2.3,5.1,3.5,8.2,3.9C151.3,173,152.9,172.9,154.4,172.7z M74.8,91.7
			c-0.6,0.1-1.1,0.3-1.7,0.4c-0.3,2.2-0.9,4.3-2.4,6c-0.2,0.2-0.4,0.4-0.6,0.6c0.9-0.5,1.7-1,2.4-1.7C73.9,95.6,75,93.7,74.8,91.7z
			 M73.7,68.6C73.7,68.6,73.7,68.6,73.7,68.6c2.1,1.3,4.3,2.5,6.4,3.8c0.6,0.3,0.2,1.1-0.4,1c-2.5-0.4-5.1-0.1-7.5,0.7
			c2.1-0.1,4.3-0.2,6.4-0.1c8.5,0.2,16.9,1.8,24.9,4.6c-3.9-3-8.3-5.3-13-7c-2.8-1-5.6-1.7-8.5-2.2c0,0.6-1,0.6-1.1-0.1
			c0,0,0-0.1,0-0.1C78.6,68.7,76.2,68.5,73.7,68.6z M101,45.4c-1.4,1.5-2.7,3-4.1,4.4c-0.1,0.1-0.2,0.2-0.3,0.3
			c4.5-1.2,8.7-3.3,12.4-6.1c-0.5-2.6-0.2-5.3,0.7-7.7c-0.1,0-0.2,0-0.3,0c0,0.1-0.1,0.2-0.1,0.3C106.6,39.4,103.8,42.4,101,45.4z
			 M118.4,36.6c-0.7,3.2-0.8,6.6-0.1,9.7c0.4,1.9,1.4,3.9,3,4.9c0.2-0.1,0.4-0.1,0.6,0.1c0.2,0.1,0.3,0.3,0.5,0.4
			c0.1,0,0.2,0.1,0.3,0.1c0.4,0,0.8,0,1.3,0c0.1,0,0.2,0,0.3,0.1c-1.7-2.3-1.3-5.6-0.4-8.2c1-2.9,2.5-5.6,4.4-8
			C125,36.2,121.7,36.5,118.4,36.6z M126.6,54.2c-0.6-0.1-1.1-0.3-1.7-0.4c2.2,1.9,4.4,3.7,6.6,5.6c-0.1-0.5-0.2-0.9-0.2-1.4
			c0-0.2,0-0.4,0.2-0.5c-0.2-0.8-0.3-1.7-0.5-2.5c-0.1-0.5,0.5-0.9,0.9-0.5c0.4,0.3,0.8,0.6,1.2,1c0.2,0,0.4,0.1,0.5,0.4
			c0,0,0,0,0,0c0.6,0.5,1.1,0.9,1.7,1.4c0,0,0,0,0,0c0.3,0,0.5,0.2,0.5,0.4c0.7,0.5,1.4,1.1,2.1,1.6c6.6,4.9,13.6,9.1,21,12.6
			c-0.7-0.9-1.4-1.8-2.1-2.6c-0.3-0.4,0-1,0.5-0.9c1.6,0.3,3.1,0.6,4.7,0.9c-3.3-1.3-6.6-2.5-9.9-3.8c0.4,0.6,0.9,1.2,1.3,1.8
			c0.3,0.4-0.3,1.1-0.7,0.7c-2-1.5-4.1-3.1-6.1-4.6c-3.6-2.7-7.1-5.4-10.7-8.1c-0.9-0.7-1.8-1.3-2.7-2c-0.8-0.6-1.6-1.2-2.6-1.6
			c-0.8-0.3-1.7-0.4-2.5,0.1c-0.6,0.4-1.2,1.1-0.8,1.9C127.4,53.9,127.1,54.4,126.6,54.2z M142.6,39.5c-1.3-5.4-0.5-11.3,2.3-16.2
			c-1.8,2.1-3.4,4.3-4.5,6.8c-1.5,3.4-1.8,7.3-1,10.9C140.4,40.4,141.5,39.9,142.6,39.5z M143.9,22.8c-1.2,1-2.4,2.1-3.5,3.2
			c-6,6.3-9.9,14.5-10.7,23.2c1-1.4,2.1-2.6,3.4-3.8c1.6-1.5,3.3-2.7,5.2-3.8c-0.9-3.9-0.6-8,0.9-11.7
			C140.4,27.2,142.1,24.9,143.9,22.8z M152.2,44.6c0-0.1,0-0.2,0-0.3c-0.3,0.7-0.5,1.5-0.7,2.2c-1.7,6.1-0.7,12.9,2.9,18.2
			c0.1,0.1,0.1,0.3,0.1,0.4c3.9,1.5,7.8,3,11.6,4.5c0-0.3,0.3-0.7,0.7-0.5c0.9,0.2,1.7,0.5,2.6,0.7c-1.5-0.7-2.9-1.6-4.3-2.5
			c-4.7-3.3-8.7-7.9-11-13.2C152.8,51.1,152,47.9,152.2,44.6z M132,69.5c0.1-0.3,0.3-0.7,0.4-1c0.2-0.4,0.5-0.3,0.8-0.1
			c-0.2-1.1-0.4-2.2-0.6-3.3c-3.6,2.1-7.4,3.6-11.5,4.6c-7.9,1.9-16.6,1.6-24.1-1.7c-6-2.6-11.1-7.4-13.3-13.5
			c0.6,2.8,1.7,5.4,3.3,7.7c4.6,6.7,12.5,10.2,20.4,11.2C115.8,74.6,124.7,73.6,132,69.5z M130.9,123.1c-2.9-1.5-5.5-3.4-7.8-5.8
			c0.1,0.4,0.2,0.8,0.3,1.2c0.1,0.1,0.2,0.2,0.3,0.3c2.4,5.8,6.1,11.1,10.7,15.4c-0.3-2-0.7-4-1.3-6c-0.5-0.8-0.7-1.8-1-2.7
			c-0.1-0.5-0.3-1-0.6-1.5c-0.1-0.3-0.3-0.5-0.4-0.8C131.2,123.2,131.1,123.2,130.9,123.1z M124.9,133.4c-0.1-1.3-0.3-2.7-0.5-4
			c0,0,0,0-0.1-0.1c-3.6-3.8-8.2-6.6-13.1-8.3C115.6,125.3,120.2,129.4,124.9,133.4z M135,141.5c-1.1-0.9-2.2-1.9-3.2-3
			c-3-3.3-5.3-7.2-6.7-11.4c0.1,0.8,0.3,1.5,0.5,2.2c1.5,5.8,4.8,11.2,9.3,15.1C135,143.5,135,142.5,135,141.5z M127.5,137
			c1.5,4.4,3.9,8.5,7,12c0.2-1.1,0.3-2.3,0.4-3.5c-0.1,0-0.3,0-0.4-0.1c-1.4-1.2-2.7-2.4-3.8-3.8C129.5,140.2,128.4,138.6,127.5,137
			z M134.6,154.4C134.6,154.4,134.6,154.4,134.6,154.4C134.6,154.3,134.6,154.3,134.6,154.4C134.6,154.3,134.6,154.4,134.6,154.4z
			 M134.7,135.8c-3.6-3.2-6.7-6.9-9.1-11c0.2,0.8,0.4,1.6,0.7,2.4c1.7,4.9,4.7,9.4,8.7,12.8C134.9,138.7,134.8,137.3,134.7,135.8z
			 M123.3,122.4c-3.7-1.6-7.8-2.4-11.9-2.4c4.7,1.6,9.1,4.2,12.7,7.6c0,0,0-0.1,0-0.1C123.8,125.8,123.6,124.1,123.3,122.4z
			 M112.4,123.8c2,4.5,6,8,10.6,9.6C119.5,130.2,115.9,127,112.4,123.8z M126.6,138.3c0.7,5.9,2.9,11.6,6.1,16.6
			c0.1,0,0.2,0.1,0.3,0.2c0.1,0.1,0.1,0.2,0.2,0.4c0.4-1.7,0.8-3.4,1.1-5.1c-3.5-3.7-6.2-8.2-7.8-13c0,0.2,0,0.4,0.1,0.5
			C126.6,138,126.6,138.1,126.6,138.3z M121.4,115.2C121.4,115.2,121.3,115.2,121.4,115.2C121.3,115.2,121.3,115.2,121.4,115.2
			c-2.6,0.8-5.2,1.2-7.9,1c-1.1,0.8-2.2,1.8-3.2,2.8c4.3-0.1,8.6,0.6,12.7,2.2c-0.3-1.3-0.6-2.5-0.9-3.8
			C121.9,116.7,121.6,115.9,121.4,115.2z M69.7,97.5c1.4-1.5,2-3.3,2.3-5.2c-0.7,0.1-1.4,0.2-2.1,0.3c-0.1,0-0.2,0-0.2,0
			c-0.5,0.1-1,0.3-1.5,0.5c0.2,2.6-0.6,5.2-2.1,7.2C67.4,99.4,68.7,98.6,69.7,97.5z M50.6,100c-0.1,0-0.1,0-0.2,0.1
			C50.4,100.1,50.5,100.1,50.6,100C50.5,100.1,50.5,100.1,50.6,100z M35.9,98.3c2.3,0,4.5-0.3,6.7-1c0.1,0,0.2,0,0.3,0
			c2.1-0.6,4.2-1,6.3-1.1c-2.5-0.3-5-0.8-7.4-1.4c-10-2.5-19.4-7.4-27.3-14.1c0,0.1,0.1,0.1,0.1,0.2c0.2,0.3,0.3,0.6,0.4,1
			c0.5,1.2,1,2.4,1.7,3.5C20.7,92.4,27.9,97.2,35.9,98.3z M86,75.9c-1.7,0.3-3.4,0.6-5,1.1c-4.5,1.3-8.7,3.4-12.5,6.2
			c2-0.7,4-1.3,6-1.8c9.7-2.5,19.8-3,29.6-1.6c-0.8-0.3-1.5-0.6-2.3-0.8c-5-1.7-10.2-2.9-15.4-3.5C86.4,75.7,86.3,75.9,86,75.9z
			 M75.4,84.6c-0.7,0.1-1.3,0.3-1.9,0.6c-0.5,0.2-0.9,0.4-1.4,0.6c-0.3,0.2-0.7,0.4-1,0.5c-2,0.9-4,1.7-6.1,1.5
			c-0.8,2.3-2,4.4-3.6,6.2c0,0,0.1-0.1,0.2-0.1C67.2,92.8,72.3,89.4,75.4,84.6z M85.6,85.5c-0.6-0.2-1.1-0.4-1.7-0.5
			c-2.3-0.6-4.8-0.9-7.1-0.6c0,0.1,0,0.2-0.1,0.3c-1.5,2.5-3.6,4.7-6,6.4c1.2-0.3,2.4-0.5,3.6-0.7c0.5-0.1,1-0.1,1.5-0.1
			C79.3,89.3,82.6,87.7,85.6,85.5z M110.2,84.5c-1-1.1-2-2.1-3.1-3.1c-3.1-0.6-6.1-1-9.2-1.1c-8.5-0.5-17.1,0.5-25.2,2.8
			c1.5-0.2,3-0.3,4.5-0.3C88.2,82.5,99.2,86,110.2,84.5z M30.8,104.7C30.8,104.7,30.8,104.7,30.8,104.7c0.4,0,0.7,0,1.1,0.1
			c3,0.1,5.8-0.5,8.5-1.4c1.6-1.6,3.7-2.5,5.8-3.3c1.8-0.7,3.6-1.4,5.4-2.1c0,0,0.1-0.1,0.2-0.1c0.1-0.1,0.2-0.1,0.3-0.1
			c0.4-0.1,0.7-0.3,1.1-0.4c-0.4,0-0.8-0.1-1.2-0.2c-1.3,0-2.6,0.1-3.8,0.3C41.7,98.1,35.7,100.7,30.8,104.7z M34.3,105.7
			C34.3,105.8,34.3,105.8,34.3,105.7C34.3,105.8,34.3,105.8,34.3,105.7C34.3,105.8,34.3,105.7,34.3,105.7
			C34.3,105.7,34.3,105.7,34.3,105.7z M57.9,97.1c1.9,1,3.6,2.5,4.8,4.2c0.4-2,0.1-4.2-0.8-6.1c-0.8,0.3-1.7,0.6-2.5,1
			C58.9,96.5,58.4,96.8,57.9,97.1z M63.9,101.1c2.1-2,3.3-4.9,3.2-7.8c-0.7,0.3-1.5,0.5-2.2,0.8c-0.6,0.2-1.3,0.5-1.9,0.7
			C63.9,96.8,64.2,99,63.9,101.1z M79.8,90.4c0.8,0.1,1.6,0.2,2.3,0.4c1,0.2,2,0.4,3,0.7c2.9,0.1,5.9-0.5,8.5-1.9
			c-1.8-0.9-3.4-1.9-5.1-3c-0.6-0.2-1.1-0.5-1.7-0.7c-2.4,1.8-5.1,3.3-7.9,4.4c0.1,0,0.1,0,0.2,0c0.1-0.1,0.2-0.1,0.4,0
			C79.6,90.4,79.7,90.4,79.8,90.4z M119,111.7c-0.2-0.3-0.3-0.6-0.5-0.9c-0.5-0.5-1.1-0.9-1.6-1.4c-2.5,1.4-5.3,2.2-8.2,2
			c-1.2-0.1-2.4-0.3-3.6-0.7C109.2,113.5,114.6,114,119,111.7z M105.9,101.7c-1.7,1.7-3.6,3.1-5.6,4.4c3.1,0.6,6.2-0.3,8.5-2.4
			c-0.4-0.3-0.7-0.5-1-0.8c-0.2-0.2-0.5-0.3-0.7-0.5C106.7,102.2,106.3,101.9,105.9,101.7z M111.8,104.2c1.2,0.6,2.4,1,3.7,1.3
			c-1-1-2.1-1.9-3.4-2.7c-0.1-0.1-0.2-0.2-0.2-0.3c-0.7-0.4-1.4-1-1.9-1.6c-0.1-0.2-0.3-0.3-0.4-0.5c-1,0.3-2,0.4-3.1,0.4
			c0.1,0.1,0.3,0.2,0.4,0.3c0.2-0.1,0.4-0.1,0.6,0.1c0.3,0.3,0.6,0.6,0.9,0.8C109.6,102.7,110.7,103.5,111.8,104.2z M118.2,104.6
			C118.2,104.6,118.2,104.6,118.2,104.6C118.2,104.6,118.2,104.6,118.2,104.6C118.2,104.6,118.2,104.6,118.2,104.6z M104.3,95.5
			c-1.8,0.4-3.6,0.7-5.4,0.6c2.1,1,4.2,2.1,6.1,3.4c0,0,0.1,0.1,0.1,0.1c1.2,0.2,2.5,0.2,3.7-0.1c-0.4-0.5-0.7-1-1.1-1.5
			C106.7,97.1,105.5,96.3,104.3,95.5z M100.6,99c-1.4,1.8-1.8,4.2-1.1,6.3c2-1.2,3.8-2.6,5.5-4.2c-0.4-0.3-0.9-0.5-1.3-0.7
			C102.6,100.1,101.5,99.6,100.6,99z M103.4,107.2c3.1,0.4,6.2,0.1,9.1-1.2c-0.4-0.3-0.8-0.6-1.3-0.9c-0.5-0.3-1-0.6-1.5-0.9
			C108,106,105.8,107,103.4,107.2z M102.8,108.2c3.9,2.7,9,2.7,13.2,0.5c-0.8-0.6-1.6-1.3-2.4-1.9
			C110.2,108.4,106.4,108.9,102.8,108.2z M118.4,109.1c-0.5-0.8-1.1-1.6-1.7-2.3c-0.1,0-0.1,0-0.2,0c-0.5-0.1-1-0.2-1.5-0.3
			c1.1,0.9,2.2,1.7,3.3,2.7C118.3,109.2,118.4,109.1,118.4,109.1z M98,91.5c-1.1-0.4-2.1-0.8-3.2-1.3c0,0-0.1,0.1-0.1,0.1
			c-1.9,1.1-4,1.7-6.1,2.1c2.4,0.6,4.8,1.4,7.1,2.4c2.5,0.5,5,0.5,7.5,0c-0.1,0-0.1-0.1-0.2-0.2C101.3,93.5,99.6,92.5,98,91.5z
			 M81,92c-0.8,2.4-0.5,5.1,0.9,7.3c1.6-1.9,2.6-4.3,2.9-6.7C83.5,92.5,82.3,92.3,81,92z M83.2,99.4c2.5-1.2,4.6-3.1,5.9-5.6
			c-1.1-0.4-2.1-0.7-3.2-1C85.6,95.2,84.6,97.5,83.2,99.4z M85,99.7c3.5-0.1,7.4-0.7,9.5-3.7c0,0-0.1,0-0.1,0
			c-1.4-0.6-2.9-1.2-4.3-1.7C89,96.5,87.2,98.4,85,99.7z M98.2,105.1C98.3,105.1,98.3,105.1,98.2,105.1c-0.5-2.3,0-4.8,1.5-6.7
			c0,0-0.1-0.1-0.1-0.1c-0.9-0.5-1.9-0.9-2.8-1.3C95.8,99.6,96.3,102.9,98.2,105.1z M107.6,113.2c1.5,1.2,3.6,1.7,5.5,1.8
			c2.6,0.2,5.1,0,7.5-0.8c-0.4-0.5-0.7-1-1-1.6C115.8,114.6,111.4,114.7,107.6,113.2z M119.8,100c-1.1-2.1-2.1-4.2-3.2-6.3
			c-2.3,0.3-4.6,0.3-6.9,0.2c-2.2-0.1-4.3-0.4-6.4-0.9C108.5,96.1,114,98.5,119.8,100z M116.1,92.7c-0.5-0.9-0.9-1.9-1.4-2.8
			c-0.2,0-0.4,0-0.5-0.2c-1-1.4-2-2.8-3.1-4.1c-3.1,0.5-6.2,0.6-9.3,0.4c-4.9-0.2-9.9-1-14.9-1.6c0,0,0.1,0,0.1,0.1
			c0.1,0,0.3,0,0.4,0.1c0.5,0.4,1,0.8,1.6,1.2c2.2,0.9,4.4,2.1,6.5,3.2c1,0.5,2,1.1,2.9,1.6C104.1,92.5,110.2,93.3,116.1,92.7z
			 M113.5,85.9c-0.7-0.6-1.4-1.2-2.1-1.8c-0.1-0.1-0.2-0.2-0.2-0.3c-0.2-0.1-0.3-0.2-0.5-0.3c1.5,1.6,2.9,3.4,4.2,5.2
			c0.1,0,0.2,0,0.3,0C114.6,87.8,114.1,86.8,113.5,85.9z M115.6,85.3c2-4.5,5.1-8.4,9.1-11.3c-5,1.9-9.7,4.4-14.1,7.4
			c0.2,0.1,0.3,0.2,0.5,0.2c0.4,0.2,0.3,0.6,0.1,0.9C112.7,83.4,114.2,84.3,115.6,85.3z M114.3,51.3c-2.1,1.3-4.4,2.3-6.7,3
			c-7.1,2.1-14.7,1.2-21.1-2.2c1.3,1.1,2.8,2.2,4.3,3.1c4.9,2.9,10.5,4.4,16.1,4.3c5.9-0.1,11.7-1.9,16.6-5.1
			c0.1-0.1,0.3-0.1,0.4-0.1c-0.4-0.4-0.9-0.7-1.3-1.1c-0.2,0-0.3-0.1-0.5-0.1c-0.1,0-0.2-0.1-0.3-0.2c-1.4,0-2.8-0.1-4.1-0.3
			C116.4,52.3,115.3,51.9,114.3,51.3z M167.6,71.3c-2.5-0.5-5-0.9-7.5-1.4c1.5,1.7,3,3.4,4.6,5.1c4.5-1.2,9.2-1.7,13.9-1.5
			c-3.4-1-6.9-1.9-10.3-2.9C168.4,70.9,168.1,71.4,167.6,71.3z M131.9,61.2c-3.9,2.1-8,3.8-12.2,4.9c-7.5,1.9-15.5,1.8-22.6-1.4
			C92,62.4,87.6,58.8,84.8,54c1,2.9,2.7,5.5,4.8,7.7c5.5,5.6,13.5,8,21.2,8.1c7.6,0.1,15.1-1.9,21.6-5.8
			C132.2,63,132.1,62.1,131.9,61.2z M136.1,60.1c0.9,1.4,2,2.7,3,3.9c6.8,7.8,16.2,13.2,26.4,15c-0.8-0.9-1.5-1.8-2.3-2.7
			c-0.1,0-0.2,0-0.3,0c-2.4-0.7-4.7-1.5-7-2.5C148.5,70.6,141.7,65.9,136.1,60.1z M168.1,78.8c2.2-2,4.9-3.5,7.8-4.3
			c-3.5,0.1-7,0.5-10.4,1.4C166.4,76.9,167.2,77.8,168.1,78.8z M158.6,69.6c-0.1,0-0.1,0-0.2,0c0.1,0.1,0.1,0.2,0.2,0.2
			C158.6,69.7,158.6,69.6,158.6,69.6z M153.5,70.3c-5.1-2.7-10.1-5.8-14.7-9.2c0.6,0.5,1.2,1.1,1.7,1.6c6.3,5.5,13.7,9.7,21.7,12.1
			c-0.3-0.4-0.6-0.8-0.9-1.2c0-0.1-0.1-0.1-0.1-0.2c-0.1,0.2-0.4,0.3-0.7,0.2C158.1,72.6,155.8,71.5,153.5,70.3z M132.4,56.2
			c0.1,0.3,0.1,0.5,0.2,0.8c0-0.2,0-0.5,0-0.7C132.5,56.3,132.4,56.3,132.4,56.2z M131.1,60.4c-2.3-1.9-4.6-3.9-6.9-5.8
			c0.1,0.2,0.1,0.5-0.2,0.7c-2.9,1.9-6.1,3.3-9.4,4.2c-5.8,1.5-12,1.4-17.7-0.3c-4.4-1.4-8.4-3.7-11.9-6.7c1.3,2.6,3.2,4.9,5.4,6.8
			c5.2,4.6,12,6.9,18.8,7C116.9,66.4,124.4,64,131.1,60.4z M135.4,61c1.3,2.6,2.9,5,4.7,7.3c7.4,9.2,18.4,15,30.2,15.9
			c-1.1-1.1-2.1-2.2-3.1-3.3c-0.2,0-0.4-0.3-0.5-0.5c0,0-0.1-0.1-0.1-0.1c0,0,0,0-0.1,0c-3.1-0.5-6.1-1.3-9-2.3
			c-5.2-1.9-10-4.7-14.2-8.3C140.4,67.1,137.7,64.2,135.4,61z M180.3,75c-0.1,0-0.1,0-0.2,0c-4.2,0.1-8.2,1.7-11.2,4.6
			c1.7,1.9,3.3,3.7,5,5.6C174.8,81.2,177,77.6,180.3,75z M180.5,74.8c0.1,0,0.1-0.1,0.2-0.1c0,0-0.1,0-0.1,0
			C180.5,74.7,180.5,74.8,180.5,74.8z M153,64.5c-0.8-1.4-1.5-2.8-2.1-4.3c-1.9-5.5-1.7-11.8,0.7-17.1c-4.2,4.6-7.9,10.6-6.6,17.1
			c0,0.2,0,0.3-0.1,0.5c1.8,1.3,3.5,2.7,5.3,4c-0.1-0.1-0.1-0.2-0.2-0.2c-0.3-0.4,0.2-1,0.6-0.8C151.4,63.9,152.2,64.2,153,64.5z
			 M153,39.5c-1.5,0.7-2.8,1.6-4.2,2.6c-4.6,3.4-8.1,8.2-9.9,13.6c0,0.1-0.1,0.2-0.2,0.2c0.8,0.6,1.6,1.2,2.4,1.8
			c0.9,0.7,1.8,1.4,2.7,2.1c-0.3-1.7-0.2-3.4,0.1-5.1c1.1-6.3,5.4-11.1,9.8-15.4c0.1-0.2,0.2-0.3,0.3-0.4c-0.3,0.1-0.5,0.1-0.8,0.2
			C153.3,39.2,153.2,39.4,153,39.5z M150,39.9c-0.3,0.1-0.6,0.2-1,0.4c-6,2.4-11.2,7-14.2,12.7c0.1,0.1,0.2,0.1,0.2,0.2
			c0.9,0.7,1.9,1.4,2.8,2.1c0.5-1.6,1.2-3.1,2-4.5C142.3,46.4,145.8,42.6,150,39.9z M126,53C126.1,53,126.1,53,126,53
			C126.1,53,126.1,52.9,126,53C126.1,52.9,126.1,53,126,53z M125.2,52.7c-0.2-0.2-0.5-0.4-0.7-0.7c0,0,0,0,0,0c0.1,0.1,0,0.3,0,0.4
			C124.7,52.6,124.9,52.7,125.2,52.7z M117.3,36.6c-2.1,0-4.3-0.1-6.4-0.3c-0.7,1.8-1.1,3.6-1,5.5c0.1,3.1,1.6,6.3,4.2,8.1
			c1.8,1.3,4,1.7,6.2,1.8c-1.4-1.1-2.4-2.9-2.8-4.6C116.5,43.7,116.6,40,117.3,36.6z M89.2,52.2C89.2,52.2,89.1,52.2,89.2,52.2
			c7.8,3.3,16.8,2.7,24.1-1.6c-1.4-1-2.6-2.4-3.3-4.1c-0.2-0.5-0.4-1-0.5-1.5c-5.5,4.1-12.1,6.6-19,7.1c0,0,0,0,0,0
			C90,52.2,89.6,52.2,89.2,52.2z M82,68.1c0.3,0,0.5,0.1,0.8,0.1c6.5,1.2,12.7,3.6,18.2,7.2c2,1.3,4,2.8,5.8,4.4
			c0.9,0.4,1.8,0.7,2.6,1.1c3.6-2.5,7.4-4.7,11.5-6.5c-0.8,0.1-1.6,0.2-2.4,0.3c-8.4,0.9-17.6-0.3-24.9-4.8
			c-6.2-3.9-10.9-10.5-11.3-18C81.5,57.3,81.4,62.7,82,68.1z M71.2,68c-2.2-0.9-4.5-1.6-6.8-2.3c0.5,0.5,1,1,1.4,1.5
			c1.7,2.1,2.7,4.5,3.2,7c2.7-1.5,5.6-2.2,8.6-2.2c-2-1.2-4.1-2.3-6.1-3.5C71.2,68.4,71.1,68.2,71.2,68z M68.5,81.9
			c0,0,0.1-0.1,0.1-0.1c4.6-3.2,9.9-5.5,15.4-6.6c-4.9-0.4-9.9-0.4-14.8,0.1c0,0,0,0-0.1,0C69.3,77.5,69.1,79.8,68.5,81.9z M63.4,86
			c-2.8,1.2-5.9,1.8-8.9,2c-7.1,0.4-14.1-1.4-20.9-3.4c-6-1.8-12-3.8-18.1-4.5c1.8,1.6,3.7,3,5.7,4.4c8.8,5.9,19,9.7,29.6,10.8
			c0.2,0,0.3,0.1,0.4,0.2c2.7,0.5,5.5,0.1,7.9-1.1c0.1-0.1,0.2-0.1,0.2-0.2c1.9-2,2.9-4.7,3.8-7.3c0-0.1,0.1-0.3,0.1-0.4
			C63.3,86.3,63.4,86.1,63.4,86z M15.7,91c0.3,0.9,0.6,1.7,1,2.5c1.3,2.9,3.1,5.6,5.6,7.6c2,1.7,4.5,2.8,7.1,3.3c0,0,0,0,0,0
			c1.5-1.3,3.1-2.4,4.7-3.4c1-0.6,1.9-1.1,2.9-1.6c-0.4,0-0.9-0.1-1.3-0.1c-0.3,0-0.5,0-0.8,0c-0.1,0-0.2-0.1-0.3-0.1
			c-1.4-0.3-2.8-0.6-4.2-1.1c-6.8-2.3-12.3-7.3-15.5-13.6c0,0.8,0,1.7,0,2.5c0.2,1.3,0.4,2.6,0.7,3.8C15.6,90.9,15.6,91,15.7,91z
			 M18.5,98.8c1.6,3.3,3.7,6.3,6.1,9c0.3-0.3,0.6-0.6,0.9-0.9c0.8-0.6,1.6-1.2,2.6-1.6c-2.8-0.7-5.3-2-7.4-4
			C19.9,100.5,19.1,99.6,18.5,98.8z M61.9,102.1c-1.3-1.9-3.2-3.4-5.3-4.4c-0.5,0.2-1,0.4-1.5,0.6c-1.4,0.6-2.8,1.1-4.3,1.6
			C54.7,99.9,58.4,100.6,61.9,102.1z M76.2,91.6c0.1,1.9,0.9,3.5,2.2,4.9c0.6,0.7,1.3,1.4,1.9,2c-0.9-2.2-1.1-4.7-0.3-6.9
			c-0.2-0.1-0.3-0.1-0.5-0.2c-1.1-0.1-2.3-0.2-3.4-0.1C76.1,91.4,76.2,91.5,76.2,91.6z M106.4,113.6c1,1.8,1.8,3.7,2.2,5.7
			c1-1.2,2.2-2.3,3.4-3.3C109.9,115.7,107.8,115,106.4,113.6z M111.8,124.9c0,0.1,0.1,0.3,0.1,0.4c0.6,2.1,1.1,4.3,1.3,6.5
			c1.7-0.1,3.3,0,5,0.2C115.5,130.3,113.3,127.8,111.8,124.9z M113.3,135.5c0,0.4-0.1,0.9-0.1,1.4c1.9-2,4.9-2.7,7.7-2.9
			c-2.5-0.8-5-1.1-7.6-1C113.3,133.8,113.3,134.6,113.3,135.5z M112.4,139.6c0,0,0.1,0,0.1-0.1C112.5,139.5,112.5,139.5,112.4,139.6
			C112.4,139.6,112.4,139.6,112.4,139.6z M123.5,134.9c-3.9,0.1-8.8,0.4-10.7,4.4c-0.1,0.1-0.1,0.2-0.2,0.2
			C116.2,138,119.8,136.4,123.5,134.9z M130.2,163.9c0.1-0.2,0.2-0.4,0.3-0.6c0.9-2,1.7-4.2,2.3-6.3c-0.1-0.3-0.3-0.5-0.4-0.8
			c-0.1,0-0.1-0.1-0.2-0.2c-3-4.4-5.1-9.4-6.2-14.6c0,0.4,0,0.8,0,1.1c0,0,0,0.1,0,0.1C125.8,150,127.2,157.3,130.2,163.9z
			 M132.6,166c0.5,3,2.7,5.4,5.6,6.5c2.8,1.1,5.7,1,8.6,0.8c-2.7-0.8-5.1-2.3-6.9-4.7c-2.5-3.3-3.2-7.1-3.2-11
			C135.7,160.6,134.3,163.4,132.6,166z M163,168.3c-1.3,0-2.6,0-3.9-0.2c-5.1-0.7-10-3.1-13.6-6.9c-3-3.1-5.1-7.1-6-11.3
			c-0.4,2.6-0.2,5.2,0.5,7.7c1.5,5.3,5.6,9.6,10.8,11.3C154.7,170.3,159.1,170.1,163,168.3z M130.7,121.7c-0.1-0.1-0.1-0.3-0.2-0.4
			c-1.7-3.3-3.3-6.7-5-10c-2.4-0.9-4.6-2.1-6.7-3.5c0.3,0.5,0.7,1,1,1.5c1,1.7,1.9,3.5,2.5,5.4C124.6,117.5,127.4,119.9,130.7,121.7
			z M123.4,107.2c0-0.1-0.1-0.1-0.1-0.2c0,0,0,0,0,0C123.3,107.2,123.4,107.2,123.4,107.2z M119.1,95.5c-0.9-1.5-1.7-2.9-2.6-4.4
			c0.8,1.6,1.6,3.1,2.3,4.7C119,95.7,119,95.6,119.1,95.5z M119.3,87.3c0.3-1.3,0.6-2.6,1.1-3.8c1.3-3.5,3.4-6.7,6-9.4
			c-4.3,2.9-7.8,7-9.9,11.7c0.3,0.2,0.6,0.4,0.8,0.6c0.1-0.4,0.6-0.6,0.9-0.3C118.6,86.6,119,87,119.3,87.3z M128.3,72.4
			c-0.1,0-0.2,0.1-0.3,0.1c0,0,0,0.1,0,0.1C128.2,72.5,128.3,72.5,128.3,72.4z M133.6,78.8c0.1,5.5,0.8,10.9,2.7,16.1
			c1.7,4.5,4.2,8.7,7.4,12.4c-0.7-2-1.4-4-2-6c-2.3-7.1-4.3-14.2-6-21.5c-0.7-3-1.4-5.9-2-8.9C133.6,73.6,133.5,76.2,133.6,78.8z
			 M141.5,90.6c3.9,8.2,10.4,14.9,18.6,18.8c7.6,3.6,16.4,4.7,24.7,3.2c-4.2,0.2-8.4-0.3-12.5-1.4c-10.5-2.8-20.1-9.1-26.9-17.6
			c-2.7-3.3-4.9-7-6.7-10.9C139.3,85.5,140.3,88.1,141.5,90.6z M192.3,132.4c-1.1,4.7-2.8,9.3-4.9,13.7c0.7-0.8,1.3-1.5,2-2.3
			c0.4-0.5,1,0.1,0.9,0.5c-0.6,4.2-1.2,8.5-1.8,12.7c0.3-1,0.6-2,1-3c3-9.9,5.6-20,7.6-30.2c-0.1,0.2-0.3,0.4-0.4,0.6
			c-0.2,0.4-0.9,0.4-1-0.1c-0.4-2.3-0.9-4.5-1.3-6.8c0,0.1-0.1,0.3-0.1,0.4C194.1,122.7,193.4,127.6,192.3,132.4z M138.8,68.4
			c0.2,0.3,0.3,0.5,0.5,0.8c4,6.4,9.2,12.2,16,15.9c5.9,3.2,12.9,4.7,19.6,3.5c-0.3-0.2-0.5-0.5-0.8-0.7c-0.3,0.1-0.7-0.1-0.7-0.5
			c0,0,0-0.1,0-0.1c-0.7-0.6-1.3-1.2-2-1.9c-3.5-0.2-6.9-0.7-10.3-1.7c-6.1-1.8-11.7-4.9-16.5-9C142.6,72.8,140.6,70.7,138.8,68.4z
			 M139,70.8c1.2,2.5,2.6,4.9,4.3,7.1c4,5.2,9.4,9.4,15.5,11.9c6.4,2.6,13.5,3.4,20.3,2.4c-0.8-0.6-1.6-1.3-2.4-2
			c-0.3-0.2-0.5-0.5-0.8-0.7c-3.8,0.9-7.7,0.8-11.5,0.1c-7.7-1.5-14.5-5.8-19.8-11.5C142.6,75.8,140.7,73.4,139,70.8z M181.4,91.9
			c-1.6-5.4-1.5-11.3,0.4-16.7c-3.4,2.4-5.8,6-6.8,9.9c1.5,1.9,3.2,3.7,4.9,5.4C180.4,91,180.9,91.4,181.4,91.9z M155.7,39
			c-0.3,0.3-0.7,0.7-1,1c-1,1.9-1.4,4.1-1.4,6.2c0.1,5.8,3.3,11.4,7.2,15.6c3.1,3.4,7,6.1,11.2,7.8c-4-3-6.9-7.2-9.1-11.7
			c-2.5-5.1-4.2-10.5-5-16.1C157,40.8,156.3,39.9,155.7,39z M165.7,29c7.5-3.1,16.1-2.4,23.2-6.8c5.2-3.3,9.1-8.8,10.4-14.8
			c-1.3,2.6-2.9,4.9-4.8,7c-2.4,2.7-5.3,4.9-8.5,6.6c-1.6,0.8-3.2,1.5-4.9,2c-2.1,0.7-4.3,1.1-6.4,1.5c-2.2,0.4-4.4,0.9-6.4,1.7
			c-1.8,0.7-3.4,1.6-4.9,2.7c-2,1.5-3.7,3.3-5,5.3C160.2,31.9,162.9,30.2,165.7,29z M142.8,22.2c-1,0.3-2,0.7-2.9,1.2
			c-4.9,2.3-9,6-11.9,10.5c0.7,0.1,1.3,0.2,2,0.3c0.5,0.1,0.5,0.9,0,1c-0.1,0-0.1,0-0.2,0c0,0.1-0.1,0.2-0.1,0.2
			c-2,2.4-3.6,5.1-4.7,8c-1,2.8-1.6,6.5,1.1,8.6c0,0,0.1,0.1,0.1,0.1c0.3-1,1.3-1.8,2.3-2c0.2-2.6,0.6-5.2,1.3-7.7
			C132,34.6,136.6,27.5,142.8,22.2z M97.3,40c-2.3,0.9-4.6,1.2-7.1,1.5c-1.9,0.2-3.8,0.6-5.4,1.6c2.1-1,4.6-1.2,6.9-1.3
			c3.5-0.2,8-0.4,10-3.9c0.3-0.6,1.3-0.1,0.9,0.5c-0.9,1.6-2.4,2.7-4.1,3.4c-0.7,0.3-1.3,0.5-2,0.6c0.4,1.6,0.4,3.3-0.2,4.8
			c-0.5,1.3-1.3,2.4-2.3,3.2c1.1-0.3,2-1.3,2.8-2.1c1.3-1.4,2.6-2.8,3.9-4.2c2.6-2.8,5.2-5.5,7.7-8.3c-0.2-0.2-0.3-0.5,0-0.7
			c0.9-0.9,2.1-2,1.7-3.4c-0.2-0.8-0.9-1.1-1.6-1.2c-0.1,0.2-0.2,0.3-0.3,0.5C105.7,35,101.8,38.2,97.3,40z M82.9,45.8
			c-0.2,0.3-0.4,0.5-0.5,0.8c0,0.1,0,0.2,0,0.3c0.2-0.1,0.5,0,0.6,0.2c1.5,3.1,5.1,4.7,8.3,3.5c3.3-1.2,5.1-4.8,4.1-8.2
			c-2.7,0.4-5.5,0.1-8.1,0.8C85.6,43.7,84,44.5,82.9,45.8z M82,47.8c-0.1,0.3-0.1,0.7-0.1,1.1c0.1-0.1,0.2-0.2,0.3-0.2
			c0.1-0.1,0.2-0.1,0.3-0.2C82.3,48.2,82.2,48,82,47.8C82,47.8,82,47.8,82,47.8C82,47.8,82,47.8,82,47.8z M81.4,50.8
			c-0.1,0-0.1,0-0.2-0.1c-1,5.8-3,11.5-5.8,16.7c1.8,0,3.6,0.2,5.4,0.4C80.3,62.2,80.5,56.5,81.4,50.8z M79.4,54.4
			c-2.9,5.4-8,9.2-13.9,10.5c2.5,0.8,4.9,1.6,7.3,2.6c0.5,0,1,0,1.5,0C76.5,63.3,78.3,58.9,79.4,54.4z M28.8,106.2c0,0,0.1,0,0.1,0
			c0,0,0,0,0,0C28.9,106.1,28.8,106.1,28.8,106.2z M69.5,100.2c2.2-0.5,4.4-0.6,6.6-0.5c-0.5-1.4-0.8-2.9-1-4.4
			c-0.4,0.8-0.9,1.5-1.5,2.1C72.4,98.6,71,99.4,69.5,100.2z M80.7,100.5c-1.2-1.2-2.4-2.3-3.4-3.6c-0.4-0.5-0.7-0.9-1-1.5
			c0.2,1.5,0.5,2.9,1.1,4.3C78.4,100,79.6,100.2,80.7,100.5z M90.2,100.8c2,0.4,4,1.2,5.7,2.4c-0.6-1.6-0.8-3.4-0.5-5.1
			C94.1,99.5,92.2,100.6,90.2,100.8z M109.2,141.5c3.1-1.2,3.2-5.6,2.9-8.7c-0.1-0.1-0.1-0.4,0-0.5c0-0.1,0-0.2,0-0.3
			c-0.3-4-1.5-7.8-3.2-11.4c0,0,0,0-0.1,0.1c0.2,1.6,0.3,3.3,0,5c0,0.1,0,0.2-0.1,0.3c0.1,0.4,0.2,0.8,0.3,1.1
			C110.2,131.8,110.3,136.7,109.2,141.5z M126.2,173.4c0.5,0.3,1.1,0.6,1.7,0.9c3.3,1.5,7,1.7,10.6,1.6c4.2-0.1,8.4-0.8,12.5-2
			c-0.3,0-0.6,0-1-0.1c-0.1,0.1-0.2,0.2-0.4,0.2c-4.1,0.5-8.4,0.9-12.3-0.8c-2.7-1.2-4.8-3.3-5.6-6.1
			C130.2,169.5,128.3,171.6,126.2,173.4z M140.5,129.9c5.2,8.8,10.3,17.7,15.5,26.5c-0.3-2.4,0-5,0.4-7.4c-0.2,0-0.3-0.1-0.5-0.2
			c-2.8-4.2-5.7-8.5-8.5-12.7c-2.8-4.2-5.6-8.4-8.4-12.6c0.1,0.3-0.1,0.6-0.5,0.6c-0.7,0-0.7-1.1,0-1.1c0.1,0,0.2,0,0.3,0.1
			c-2.2-3.2-4.3-6.5-6.5-9.7c-3.6-5.3-7.1-10.6-10.7-15.9c0.7,1.2,1.4,2.4,2.1,3.6C129.3,110.7,134.9,120.3,140.5,129.9z
			 M157.7,144.9c-0.1-0.1-0.3-0.2-0.2-0.5c0-0.4,0-0.9,0-1.3c-3.4-4.6-6.8-9.2-10.1-13.8c-6-8.2-12-16.4-18.1-24.7
			c-1.8-2.4-3.5-4.8-5.3-7.2c-0.8-0.6-1.4-1.4-1.8-2.3c-1.3-1.6-2.7-3.2-4.1-4.8c2.8,4.2,5.6,8.4,8.5,12.6
			c5.1,7.6,10.1,15.1,15.2,22.7c4.9,7.4,9.9,14.7,14.8,22.1C156.7,146.7,157.1,145.7,157.7,144.9z M129.8,103.4
			c0.1,0.1,0.1,0.2,0.2,0.3c0-0.1-0.1-0.3-0.1-0.5c0,0,0,0,0,0C129.8,103.3,129.8,103.3,129.8,103.4z M136.6,112.7
			c0.2,0.2,0.3,0.5,0.5,0.7c-0.1-0.3-0.2-0.6-0.2-0.9C136.8,112.6,136.7,112.7,136.6,112.7z M142.9,115.2c-0.1,2.8,0.5,5.6,1.9,8.1
			c1.1,2,2.5,3.7,4,5.3c-1-2.9-1.6-5.9-1.7-8.9C145.6,118.2,144.2,116.7,142.9,115.2z M141.8,114.6c0-0.2,0.1-0.3,0.2-0.4
			c-1.5-1.6-3-3.3-4.4-4.9c0,3.8,1.7,7.6,4.6,10.1C141.8,117.9,141.7,116.2,141.8,114.6z M136.9,108.5
			C136.9,108.5,136.9,108.5,136.9,108.5c-0.8-0.9-1.6-1.8-2.4-2.7c-0.4,2.2,0.4,4.5,2.2,5.8c-0.1-0.9-0.2-1.7-0.2-2.6
			C136.5,108.7,136.7,108.6,136.9,108.5z M133.6,104.9c-1-1.1-1.9-2.1-2.9-3.2c0.2,2.1,1,4,2.5,5.5c0-0.7,0-1.4,0.2-2.1
			C133.5,105,133.5,104.9,133.6,104.9z M129.6,100.5c-0.8-0.9-1.5-1.7-2.3-2.6c0.1,1.8,0.9,3.5,2.3,4.6c0,0,0.1,0.1,0.1,0.1
			C129.6,101.9,129.6,101.2,129.6,100.5z M126.3,97.1c0-0.1,0-0.2,0.1-0.3c-1.2-1.4-2.5-2.8-3.7-4.1c0,0.6,0.2,1.3,0.5,1.9
			c0.5,0.7,1.1,1.4,1.6,2.1c0.3,0.2,0.5,0.4,0.8,0.5c0.3,0.2,0.3,0.5,0.2,0.8c0.2,0.3,0.4,0.6,0.6,0.8
			C126.2,98.2,126.2,97.6,126.3,97.1z M120.3,88.4c1.1,0.8,2.2,1.6,3.3,2.4c0.3-6.4,2.4-12.7,6-18c-0.6,0.4-1.2,0.9-1.7,1.4
			C123.9,77.9,121.1,82.9,120.3,88.4C120.2,88.4,120.3,88.4,120.3,88.4z M124.5,91.5c0.5,0.4,1,0.8,1.5,1.1c1,0.7,1.9,1.5,2.9,2.3
			c-0.3-1.6-0.4-3.2-0.5-4.9c-0.3-5.7,0.5-11.5,2.3-16.9c-3.7,5.3-5.8,11.6-6,18.1C124.6,91.3,124.6,91.4,124.5,91.5z M141.1,105.7
			c-1-1.3-1.9-2.7-2.7-4.1c-2.6-4.5-4.4-9.6-5.2-14.7c-0.8-5.3-0.7-10.7-0.4-16.1c-0.5,1.3-1,2.6-1.4,4c-2,6.9-2.4,14.2-1.1,21.2
			C134,99.1,137.6,102.3,141.1,105.7z M144.1,108.8c0.1,0.1,0.2,0.2,0.2,0.2c0-0.1-0.1-0.2-0.1-0.3
			C144.2,108.8,144.2,108.8,144.1,108.8z M151.7,117.3c0.8,1,1.6,2,2.4,3c3.5,0.6,7,1.1,10.5,1.7c3.1,0.5,6.1,1,9.3,0.9
			c2.5-0.1,5-0.8,7.3-2c2.8-1.4,5.2-3.4,7.2-5.8c-1.4,1.1-2.9,2-4.6,2.6c-4.8,2-10.2,1.9-15.3,1.4
			C162.9,118.7,157.3,117.9,151.7,117.3z M155.1,121.5c1.3,1.6,2.5,3.3,3.7,4.9c2.8-0.6,5.7-0.8,8.6-1c4.9-0.2,9.9-0.4,14.4-2.6
			c3-1.5,5.6-3.8,7.2-6.7c-0.6,0.7-1.2,1.3-1.9,2c-3.8,3.5-8.6,5.8-13.8,5.9c-3.2,0.1-6.5-0.6-9.7-1.1
			C160.8,122.4,157.9,122,155.1,121.5z M159.5,127.4c0.9,1.3,1.8,2.5,2.6,3.8c0.1,0,0.1,0,0.2,0c2.8,0.9,5.9,1.1,8.8,0.7
			c5.2-0.8,9.9-3.4,13.5-7.3c2.1-2.3,3.8-4.9,5-7.6c-0.7,1.2-1.5,2.3-2.5,3.2c-3.3,3.3-7.7,5.1-12.2,5.7
			C169.8,126.7,164.6,126.3,159.5,127.4z M191.7,129.9c-0.9,3.2-2.2,6.4-3.8,9.3c0,0.1,0.1,0.3,0,0.4c-1,2.3-1.9,4.6-2.8,7
			c-3,8-5.4,16.2-7.1,24.5c3.5-8.2,7-16.4,10.4-24.6c-1.1,1.3-2.3,2.6-3.4,3.9c-0.4,0.5-1.2-0.1-0.9-0.7c1.8-3.1,3.4-6.4,4.7-9.8
			C190.1,136.7,191,133.3,191.7,129.9z M190.1,168.7c0.3-0.3,0.5-0.6,0.8-1c4.7-6.2,8.7-13.1,10.4-20.7c1.6-7.2,1.3-14.9-2-21.6
			c0,4.3-0.1,8.6-0.4,13c-0.7,9.4-2.5,18.8-6.9,27.2C191.3,166.7,190.7,167.7,190.1,168.7z M137,67.5c0.1,0.2,0.1,0.4,0.2,0.6
			c0,0,0.1,0,0.1,0C137.3,67.9,137.1,67.7,137,67.5z M140.6,75.9c3.7,7.1,9.1,13.4,16,17.4c7.9,4.6,18,5.8,26.4,1.9c0,0,0.1,0,0.1,0
			c-1-0.7-1.9-1.4-2.9-2.2c-0.1,0-0.1,0.1-0.2,0.1c-4.1,0.7-8.2,0.8-12.3,0.2c-7.1-1-13.8-4-19.3-8.5
			C145.4,82.2,142.8,79.2,140.6,75.9z M201.6,103.7c-1.4-1.4-2.8-2.7-4.2-4.1c-2-2-4-3.9-6-5.9c-1.8-1.8-3.5-3.6-4.8-5.8
			c-2.2-3.6-3.4-7.6-4.1-11.8c-1.7,5.6-1.6,11.6,0.4,17.1C188.5,97.8,194.8,101.4,201.6,103.7z M178.1,70.4
			c-0.5-0.7-0.9-1.5-1.3-2.2c-2.6-5.2-3.2-11.3-1.6-16.9c-1.2,0.2-2.4,0.3-3.6,0.2c-1.3-0.1-2.6-0.4-3.7-0.8
			c0.1,1.7,0.4,3.3,0.8,4.9C170.3,61.3,173.6,66.5,178.1,70.4z M198.6,6.5c-1.8,2.3-3.8,4.4-6.1,6.3c-3.1,2.6-6.6,4.7-10.4,6.3
			c-1.5,0.6-3,1.1-4.6,1.6c0.1,0.5-0.7,0.7-1,0.3c-2.7,0.7-5.4,1.3-8,2c-0.9,0.2-1.7,0.5-2.6,0.7c-0.1,0.1-0.2,0.3-0.3,0.4
			c-0.3,0.3-0.6,0.2-0.8-0.1c-6.6,2.1-13.4,5.5-15.8,12.4c-0.2,0.4-0.7,0.6-1,0.1c-0.4-0.7-0.8-1.4-1.2-2.1c-0.2,1.3-0.3,2.7-0.5,4
			c2.6-0.6,5.2-0.9,7.8-0.8c0.2,0,0.3,0.1,0.4,0.2c0.4-0.3,0.8-0.7,1.3-1c0,0,0,0,0,0c0.1-0.1,0.1-0.1,0.2-0.1c0,0,0.1-0.1,0.1-0.1
			c1.6-3.4,4.1-6.4,7.2-8.6c3.4-2.4,7.4-3.5,11.5-4.3c2.1-0.4,4.3-0.8,6.3-1.5c1.7-0.5,3.4-1.3,5-2.1
			C191.4,16.9,195.9,12.1,198.6,6.5z M172.1,8.1c-1.1,0.9-2.2,1.8-3.3,2.7c-3.5,2.8-7.2,5.4-10.9,7.8c-1.8,1.2-3.6,2.6-5.7,3.1
			c-1.6,0.5-3.5,0.2-4.7-0.9c-1.5,4.3-1.3,9.1,0.5,13.4c0,0,0,0.1,0,0.1c0,0.1,0.1,0.1,0.1,0.2c0.5-2.3,1.6-4.4,3-6.3
			c3.2-4.2,7.6-7.1,11.8-10.2C166.5,15.3,170.2,12.2,172.1,8.1z M136.8,23.9c-3,1.1-6.1,2.3-9.1,3.4c-0.1,0-0.2,0-0.3,0
			c-3.4,2.3-7.1,3.9-11,5c3.5,0.5,6.9,0.9,10.4,1.4c0.8-1.2,1.6-2.4,2.5-3.5C131.5,27.7,134,25.6,136.8,23.9z M127.2,26.2
			c-0.1-0.2-0.1-0.5,0-0.7c0.3-0.8,0.6-1.7,1-2.5c-4,2.5-7.9,5-11.9,7.5c0,0.1-0.1,0.2-0.2,0.3c-0.5,0.3-0.9,0.6-1.4,0.9
			C119.1,30.7,123.3,28.8,127.2,26.2C127.1,26.2,127.1,26.2,127.2,26.2z M126.5,22.7c-1.4-0.1-2.8-0.1-4.3-0.1
			c-3.7,0-7.4,0.4-11,1.1c-0.4,2-1.1,3.9-2,5.7c2.1,0.1,4.1,0.3,6.2,0.4c0,0,0.1-0.1,0.1-0.1C119.2,27.3,122.8,25,126.5,22.7z
			 M82.7,44.5c0.1-0.1,0.2-0.2,0.3-0.3c-0.1,0-0.1-0.1-0.2-0.1C82.8,44.2,82.8,44.3,82.7,44.5z M9.5,92.4c0.4,2.1,0.9,4.2,1.7,6.2
			c-0.7-2.7-1-5.5-1.1-8.3c0-2,0.1-4,0.4-5.9c0.1-0.9,0.4-1.9,0.8-2.7c0,0,0,0,0,0c-0.2,0-0.3,0-0.5,0c-0.9,0.7-1.6,1.6-2.2,2.6
			c0.2,2.5,0.5,5,0.9,7.5c0,0.1,0.1,0.2,0.1,0.3C9.5,92.2,9.5,92.3,9.5,92.4z M20.9,108.9c-1-1.1-2-2.3-2.9-3.6
			c-4.5-6.5-6.7-14.5-6-22.3c0,0,0-0.1-0.1-0.1c-0.2,0.7-0.4,1.4-0.5,2.1c-0.2,1.9-0.3,3.8-0.3,5.7c0.1,3.9,0.8,7.7,2.1,11.4
			c0,0.1,0,0.2,0,0.3c0.1,0.3,0.3,0.6,0.5,0.9C15.7,105.5,18.1,107.4,20.9,108.9z M100.3,111.6c-0.3-1.3-0.7-2.5-1.4-3.6
			c-1.6-2.8-4.2-4.7-7.1-5.7c-2.8-0.9-5.8-1.1-8.7-1c1.8,0.7,3.4,1.7,4.9,2.9c0.1,0.1,0.2,0.2,0.2,0.3
			C92.7,105.9,96.9,108.3,100.3,111.6z M107.9,145.7c0,0.1,0,0.2-0.1,0.3c0.5,0.1,1,0.2,1.4,0.3c0.6,0.1,1.2,0.3,1.9,0.4
			c0.7-1.8,1-3.9,0.6-5.8c0,0,0,0,0-0.1c-0.7,0.9-1.6,1.6-2.8,1.9c0,0,0,0,0,0c0,0.1,0,0.2-0.1,0.2c0,0.1-0.1,0.2-0.2,0.3
			c-0.2,0.4-0.4,0.8-0.6,1.2c-0.1,0.3-0.2,0.5-0.2,0.8C107.8,145.4,107.9,145.6,107.9,145.7z M112.2,146.9c0.5,0.1,1,0.2,1.5,0.3
			c2.8-0.5,5.4-1.9,7.4-4c1.6-1.8,2.6-3.9,3-6.3c-2.6,3.5-6.7,5.9-11.2,6.3C112.9,144.5,112.6,145.7,112.2,146.9z M116.1,147.7
			c0.4,0.1,0.7,0.2,1.1,0.2c0.3,0.1,0.6,0.1,1,0.2c0,0,0,0,0.1,0c0.9,0.1,1.8,0.2,2.6,0c0.3-0.1,0.6-0.2,0.9-0.3
			c2.3-2.6,3.2-6.2,3.3-9.6c0-0.2,0-0.5,0-0.7c-0.5,2.3-1.6,4.5-3.1,6.3C120.4,145.6,118.4,147,116.1,147.7z M123.3,156.8
			c-0.9,1.2-2.2,2.1-3.7,2.3c-0.1,0.1-0.1,0.1-0.2,0.2c-0.1,0.1-0.3,0.1-0.4,0.1c0,0,0,0,0,0c-0.2,3.3,0.7,6.5,2.5,9.3
			c1,1.6,2.3,3,3.9,4.1c-0.1-0.1-0.1-0.3,0.1-0.5c0.5-0.7,1-1.4,1.4-2.1c0,0-0.1-0.1-0.1-0.2C124.9,165.8,123.7,161.3,123.3,156.8z
			 M117.8,159.7c-1.1,0.2-2.2,0.2-3.3,0c0.4,3.3,0.9,6.8,2.3,9.8c1.4,3.1,3.8,5.5,7,6.7c3.5,1.3,7.4,1.6,11.1,1.6
			c5.4,0,10.8-0.9,16-2.7c-1,0.3-2,0.6-3,0.8c-3.7,0.8-7.5,1.2-11.2,1.2c-3.6,0-7.3-0.6-10.5-2.4
			C120.9,171.6,117.6,165.7,117.8,159.7z M113.1,161.1C113.1,161.2,113.1,161.2,113.1,161.1L113.1,161.1z M118.9,183.8
			c-4.6-1.8-7.6-6.3-7.3-11.3c-0.1,0.1-0.3,0.2-0.4,0.2c0.2,0.1,0.3,0.2,0.3,0.5c-0.2,2.4,0.2,4.8,1.3,6.9c0.9,1.9,2.6,4.3,5,4.2
			c0.2,0,0.3,0.1,0.4,0.2C118.5,184.2,118.7,184,118.9,183.8z M116.9,185.4c0.1,0,0.1-0.1,0.2-0.1c-0.1,0-0.3,0-0.4-0.1
			C116.7,185.3,116.8,185.3,116.9,185.4z M164.6,165.9c-0.6-0.1-1.2-0.3-1.7-0.5c-0.1,0-0.2,0.1-0.3,0.1c-3-0.2-5.7-1.6-7.9-3.6
			c-2.1-1.9-3.6-4.4-5-6.9c-1.5-2.8-3-5.6-4.4-8.4c-1.5-2.9-3-5.7-4.5-8.6c0.3,0.9,0.6,1.8,0.9,2.7c0.9,2.9,1.6,5.8,2.5,8.6
			c0.9,2.8,2,5.5,3.6,8c1.4,2.2,3.3,4,5.5,5.4C156.6,164.9,160.6,166,164.6,165.9z M160.1,163.9c-1.3-1-2.4-2.2-3.1-3.8
			c-0.1-0.2-0.1-0.3-0.2-0.5c-0.1,0-0.3-0.1-0.3-0.3c-3.2-5.4-6.4-10.9-9.5-16.3c-5.1-8.7-10.2-17.5-15.3-26.2
			c2.1,4.2,4.1,8.4,5.9,12.7c1.5,2.8,3,5.7,4.5,8.5c2.9,5.5,5.7,11.1,8.7,16.5C152.8,158.4,155.8,162.5,160.1,163.9z M157.5,140.3
			c-0.2-3.8-0.8-7.5-2-11.1c-1.2-1.3-2.4-2.6-3.5-3.9C153.8,130.2,155.7,135.2,157.5,140.3z M156.5,128.5c2.9,3.2,5.8,6.4,8.7,9.5
			c-1.9-3.2-3.9-6.3-6-9.3c-1.8-2.6-3.7-5.2-5.7-7.7c0,0,0,0,0,0c-2.1-2.6-4.3-5.2-6.5-7.7c-0.2,0.3-0.8,0.4-1-0.1
			c-0.2-0.5-0.4-1.1-0.6-1.6c-2.7-2.9-5.5-5.7-8.4-8.4c-4.2-3.9-8.6-7.5-13.1-10.9c1.8,2,3.6,4,5.4,6.1c6.1,6.8,12.3,13.7,18.4,20.5
			c0.2,0,0.4,0.2,0.4,0.5c0.2,0.2,0.4,0.4,0.6,0.6c2.4,2.6,4.7,5.2,7.1,7.8c0.2,0,0.5,0.1,0.6,0.4
			C156.4,128.2,156.4,128.4,156.5,128.5z M170.2,143.7c0.2,0.2,0.5,0.4,0.7,0.6c2.3,1.9,3.9,4.4,5,7.2c2-1.5,3.9-3.2,5.6-5.1
			c6.2-6.9,10-15.9,10.6-25.2c0,0.1,0,0.1-0.1,0.2C188.9,131.9,180.7,140.3,170.2,143.7z M191.1,100.2c-2.4-1.4-4.8-2.9-7.1-4.5
			c0,0.2-0.1,0.4-0.3,0.5c-4.9,2.2-10.3,2.9-15.6,2.2c-9.1-1.2-17.1-6.5-22.9-13.5c-3.7-4.5-6.4-9.6-8.4-15c0.1,0.9,0.3,1.8,0.5,2.7
			c0.9,3.1,2.4,6,4.2,8.7c5.4,8.2,12.7,15.4,22,18.9c8.8,3.2,18.6,3.3,27.5,0.2C191,100.2,191,100.2,191.1,100.2z M202.7,104.7
			C202.7,104.7,202.7,104.7,202.7,104.7C202.7,104.7,202.7,104.7,202.7,104.7C202.7,104.7,202.7,104.7,202.7,104.7z M204.5,105
			c-2.2-4.2-4.7-8.2-7.5-11.9c-2.1-2.9-4.5-5.5-6.8-8.2c-2.4-2.7-4.7-5.5-6.3-8.7c-0.2-0.4-0.4-0.8-0.5-1.2c0.4,2.3,0.9,4.6,1.6,6.9
			c0.7,2.3,1.7,4.4,3.1,6.4c1.4,2.1,3.3,3.9,5.1,5.7C197,97.6,200.7,101.3,204.5,105z M198.8,92.5c-4.1-4.7-8.4-9.3-11.1-15
			c-2.5-5.3-3.2-11.8-0.6-17.1c-0.3,0.2-0.6,0.4-0.9,0.6c-0.3,0.2-0.7,0.4-1.1,0.5c0,0-0.1,0.1-0.1,0.1c-1.7,2.5-2.1,5.6-1.7,8.5
			c0.4,3.3,1.9,6.3,3.8,9c2.1,2.9,4.5,5.5,6.9,8.2c1.5,1.7,2.9,3.6,4.3,5.4C198.4,92.7,198.5,92.5,198.8,92.5z M205.3,98.7
			c4.3,6.1,7.3,13.1,8.8,20.4c0.8,4.1,1.2,8.2,2,12.2c0.7,3.5,1.7,6.9,3.2,10.2c2.3,5.3,5.4,10.1,9.3,14.4c0.1,0.1,0.2,0.1,0.3,0.2
			c0.1,0,0.1,0,0.2,0c0.1,0,0.3,0.1,0.4,0.1c-4.4-3.9-7-9.7-8.3-15.4c-2-8.4-1.6-17.2-3.6-25.7c-0.9-3.9-2.4-7.6-4.6-11
			c-2-3.1-4.4-5.8-6.8-8.5c-5-5.4-10.5-10.6-13.8-17.2c-2.8-5.6-4.1-11.9-3.8-18.2c-0.1,0.1-0.2,0.3-0.2,0.4
			c-3.3,6.5-1.2,14.2,2.5,20C194.8,87.3,200.8,92.4,205.3,98.7z M221.6,125c-0.6-7.6-2-15.7-7.3-21.5c-0.1-0.1-0.1-0.2-0.1-0.3
			c-0.1,0.1-0.3,0.1-0.5,0c-0.1-0.1-0.2-0.1-0.3-0.2c0.6,0.9,1.2,1.9,1.7,2.9c1.9,3.5,3.1,7.4,3.8,11.4c1.6,8.3,1.3,17,3.6,25.2
			c1.1,3.8,2.9,7.7,5.5,10.8c0.1,0,0.2,0.1,0.3,0.1c1.1,1.1,2.2,2.2,3.4,3.3c0.2,0.1,0.3,0.2,0.5,0.4c0,0,0.1-0.1,0.1-0.1
			c-2.7-2.1-4.8-4.9-6.3-7.9C222.3,141.5,222.3,133.1,221.6,125z M223.9,138.5c1,6,3.2,12.2,7.6,16.4c-2-3-3.8-6.2-5.1-9.6
			c-1.7-4.2-2.8-8.6-3.3-13.1C223.4,134.3,223.6,136.4,223.9,138.5z M223.1,107.3c4.4,2,9.6,3.8,12.7,7.6c-0.8-1.1-1.7-2.2-2.7-3.1
			c-1.3-1.2-2.8-2.1-4.3-3.1c-2.3-1.5-4.6-3.2-5.8-5.7c-0.1,0-0.3,0-0.4-0.2c-3.7-4.7-7.3-9.5-11-14.2c-0.3-0.4,0.1-1.3,0.7-0.9
			c0.3,0.3,0.7,0,0.8-0.4c0.2-0.4,0-0.9-0.3-1.2c-0.7-0.9-1.7-1.5-2.6-2.2c-0.5-0.4-1-0.8-1.6-1.2c1.1,3.1,1.6,6.4,2.4,9.7
			c0.8,3.3,1.8,6.7,4,9.4C217.2,104.4,220.2,106,223.1,107.3z M242.3,112.8c-0.1-6.1-2.4-12-6.5-16.5c-3.5-3.8-8.2-6.6-13.3-7.7
			c1.9,0.9,3.6,2,5.3,3.2c5,3.7,8.9,8.6,11.2,14.3c1.7,4.2,2.6,8.8,2.5,13.3C242.1,117.2,242.3,115,242.3,112.8z M225,86.6
			c3.1,0.1,6.1,0.5,9.1,1.4c-0.9-0.4-1.8-0.8-2.7-1.2c-5.6-2.4-11.4-4.4-17.3-6.1c-2.7-0.8-5.4-1.4-8.1-2.3
			c-2.4-0.8-4.8-1.9-6.6-3.8c-0.1-0.1-0.2-0.3-0.2-0.4c-0.5-0.2-1-0.5-1.4-0.8c1.8,2,3.9,3.8,6.3,5.1c0.2-0.2,0.5-0.3,0.8-0.1
			c0.2,0.1,0.4,0.3,0.6,0.4c0,0,0.1,0,0.1,0c5.3,1.2,10.1,4.1,13.7,8.1C221.2,86.7,223.1,86.6,225,86.6z M241.6,91
			c0.5,0.3,1,0.6,1.5,0.9c-0.1-0.2-0.2-0.3-0.4-0.5c-0.1,0-0.1,0-0.2-0.1c-0.3-0.2-0.6-0.5-0.9-0.7C241.7,90.7,241.7,90.9,241.6,91z
			 M201.1,31.5c1.2-3,2-6,2.4-9.2c-1,1.5-2,2.9-2.9,4.4c-2.5,3.8-4.9,7.6-7.5,11.3c-2.4,3.3-5.3,6.2-8.8,8.3
			c-0.7,0.6-1.3,1.2-2.1,1.8c-1.7,1.3-3.6,2.3-5.7,2.9c-0.5,1.4-0.8,2.9-0.9,4.4c-0.5,5.1,0.8,10.4,3.6,14.6c-0.6-1.1-1-2.3-1.4-3.5
			c-0.7-2.4-0.8-5-0.2-7.4c0.6-2.4,1.9-4.5,3.6-6.2c1.7-1.8,3.7-3.3,5.5-5c1.7-1.6,3.4-3.2,5.6-4c1.3-1.3,2.5-2.6,3.6-4
			c0.5-0.6,0.9-1.2,1.3-1.8c0-0.1,0.1-0.3,0.2-0.3C198.9,35.8,200.1,33.7,201.1,31.5z M89,32.3c-1.3,1.8-2.5,3.6-4,5.2
			c1.5-0.1,3-1.1,4.2-1.9c1.5-1,2.9-2.1,4.1-3.4c2.4-2.4,4.3-5.1,5.7-8.1c-0.6,0.4-1.2,0.8-1.8,1.2C94.3,27.3,91.5,29.7,89,32.3z
			 M58.4,54.1c-0.2,0.1-0.3,0.2-0.5,0.2C58.1,54.3,58.3,54.2,58.4,54.1C58.4,54.1,58.4,54.1,58.4,54.1z M30.6,59.3
			c0,0-0.1,0-0.1,0.1c0.2,0,0.4,0,0.7,0c1.7-0.5,3.4-0.8,5.1-1c8.5-1.2,17.2-0.2,25.8-1.4c6-0.8,12.2-2.9,16.6-7.2
			c0-0.1,0.1-0.1,0.2-0.2c0.8-0.8,1.5-1.6,2.1-2.5c0.1-0.1,0.2-0.2,0.3-0.2c0.1-0.1,0.1-0.3,0.2-0.4c0-2.3,1.2-4.4,2.8-6
			c0,0,0.1-0.1,0.1-0.1c-1.5,0.9-3,1.8-4.5,2.6c-5.8,3.4-11.6,6.8-17.4,10.1c0.2,0.2,0.2,0.6-0.2,0.8c-2.7,1.3-5.6,2.1-8.6,2.5
			C46.2,57.5,37.8,56.8,30.6,59.3z M8.2,91.7c0.1,0.4,0.2,0.8,0.3,1.2c-0.1-0.3-0.1-0.6-0.2-0.9C8.3,91.8,8.2,91.8,8.2,91.7z
			 M37.7,111.6c-0.4-1.2-0.7-2.3-1.1-3.5c0,0.6,0.1,1.2,0.5,1.8c0.1,0.1,0.1,0.3,0.1,0.4c0,0,0,0,0,0
			C37.4,110.8,37.5,111.2,37.7,111.6z M57,114.3c0,0,0-0.1,0-0.1c0.1-0.2,0.1-0.3,0.2-0.4c-0.1,0.1-0.2,0.2-0.2,0.3c0,0,0,0,0,0
			C57,114.2,57,114.3,57,114.3z M108.3,155c0.7,0.7,1.4,1.3,2.2,1.8c0.9,0.6,2,1.2,3.1,1.5c0.2-0.2,0.7-0.1,0.9,0.2
			c1.4,0.3,2.8,0.3,4.2-0.2c0.1-0.2,0.2-0.3,0.5-0.3c2-0.1,3.9-1.7,4-3.8c0.1-1.2-0.3-2.3-1.1-3.2c-0.1,0-0.1-0.1-0.2-0.2
			c-0.4-0.4-0.9-0.7-1.4-1c-0.9-0.4-1.8-0.6-2.8-0.8c-1.1-0.2-2.3-0.5-3.4-0.7c-2.5-0.5-5-1-7.5-1.5c-0.2,0.1-0.4,0.1-0.5,0
			c-0.1,0-0.1-0.1-0.2-0.1c-0.1,0-0.1,0-0.2,0c-1.2-0.1-2.3-0.2-3.5-0.3C104,149.5,106,152.4,108.3,155z M107.1,171.9
			c0,0,0.1,0,0.1,0c0.2-0.1,0.4-0.1,0.6,0.1c0.3,0,0.5,0.1,0.8,0.1c0.2,0,0.3,0.1,0.3,0.1c1,0,1.9-0.5,2.7-1.2
			c0-0.3,0.2-0.6,0.5-0.6c0.5-0.7,0.9-1.6,1-2.5c0.5-5.4-5.2-8.1-9.4-9.6c-3.3-1.1-6.9-2.2-9.4-4.6c0.1,0.8,0.2,1.6,0.4,2.3
			c1.4,6.7,5.9,12.3,12.1,15.2C106.9,171.4,107.1,171.6,107.1,171.9z M165.7,141.9c0.7,0.1,1.3,0.2,1.9,0.4c0-0.1-0.1-0.2-0.1-0.2
			c-0.1,0-0.2-0.1-0.3-0.2c-3.4-3.7-6.7-7.3-10.1-11c1,3.9,1.5,7.9,1.4,11.9c0.1,0.2,0.1,0.3,0,0.5c0,0.2,0,0.4,0,0.6
			c0.4-0.4,0.8-0.7,1.2-0.9C161.6,141.8,163.7,141.5,165.7,141.9z M202,155.8c0,0,0.1,0,0.1,0c0-0.1,0-0.2,0-0.2
			C202.1,155.7,202.1,155.7,202,155.8z M198.7,176.4c-0.1,0.6-0.2,1.1-0.4,1.7c2.3-3.8,4.2-7.8,5.5-12.1c2.6-8.2,3.3-16.9,1.9-25.4
			c-0.1-0.7-0.2-1.3-0.4-2c0.4,5.1-0.2,10.3-1.9,15.1c-0.2,2-0.5,4-0.8,6C201.8,165.4,200.4,171,198.7,176.4z M218.9,149.4
			c2.1,1.8,4.3,3.4,6.7,4.9c-3.6-4.4-6.4-9.4-8.4-14.7c-1.3-3.5-2.2-7.2-2.8-10.9c-0.7-4.1-1.1-8.2-2.2-12.3
			c-1.9-7.4-5.5-14.3-10.4-20.2c-0.8-1-1.7-2-2.5-3c0,0.2-0.2,0.5-0.5,0.5c0.5,0.7,1,1.4,1.5,2.1c2.3,3.3,4.3,6.8,6.1,10.5
			c0.4,0.2,0.8,0.3,1.2,0.5c0.7,0.2,0.4,1.3-0.3,1c-0.1,0-0.2-0.1-0.3-0.1c1,2.1,1.9,4.3,2.8,6.4c2.5,6.4,4.2,13.2,5.2,20
			c0.6,4.1,0.9,8.3,0.9,12.5c0.2-0.2,0.6-0.2,0.8,0.1C217.4,147.6,218.2,148.5,218.9,149.4z M244.2,94.3c0.2,0,0.4,0,0.6,0
			c-1.6-1.1-3.2-2.1-5-2.9c-5-2.4-10.5-3.6-16-3.6c2.4,0.7,4.7,1.7,6.8,2.9c5.2,3.1,9.2,8,11.2,13.7c1.5,4.4,1.9,9.1,1,13.7
			c2.1-7.3,1.3-15.3-2.3-22c-0.2-0.4-0.2-0.7,0-1.1c-0.1-0.2-0.2-0.3-0.2-0.5c-0.2-0.4,0.2-0.9,0.6-0.8
			C242.1,93.9,243.2,94.1,244.2,94.3z M201.9,18.4c0-0.2,0-0.3,0.1-0.5C201.9,18.1,201.9,18.3,201.9,18.4
			C201.8,18.5,201.8,18.5,201.9,18.4C201.9,18.5,201.9,18.4,201.9,18.4z M40,111.6C40,111.6,40,111.6,40,111.6c0-0.1,0-0.2-0.1-0.2
			C39.9,111.5,40,111.6,40,111.6z"/>
	</g>
	<g>
		<path class="st0" d="M99.9,289.5v0.6l-3.3,0.3v-0.9c0-1.3-0.6-2-1.8-2s-1.8,0.7-1.8,2v0.3c0,1.3,0.6,2.5,2.9,4.5
			c3.2,2.7,4.4,4.6,4.4,7.3v1.1c0,3.3-1.9,5.1-5.4,5.1s-5.4-1.9-5.4-5.1v-1.5l3.3-0.3v1.6c0,1.4,0.7,2.2,2,2.2s2-0.7,2-2.2v-0.8
			c0-1.4-0.7-2.6-3-4.6c-3.2-2.7-4.3-4.6-4.3-7.3v-0.5c0-3.3,1.9-5.1,5.2-5.1C98,284.3,99.9,286.2,99.9,289.5z"/>
		<path class="st0" d="M120,287.9h-6.3v6.5h5.1v3.2h-5.1v6.8h6.3v3.2h-9.8v-22.9h9.8V287.9z"/>
		<path class="st0" d="M138.6,307.6l-2.8-9.7h-1.6v9.7h-3.5v-22.9h5c3.7,0,5.8,2,5.8,5.8v1.6c0,2.4-0.9,4.1-2.5,5l3.2,10.4H138.6z
			 M134.3,287.9v6.8h1.4c1.7,0,2.4-0.9,2.4-2.8v-1.2c0-1.9-0.8-2.8-2.4-2.8H134.3z"/>
		<path class="st0" d="M156.2,307.6h-3.5v-22.9h3.5V307.6z"/>
		<path class="st0" d="M177.5,287.9h-6.3v6.5h5.1v3.2h-5.1v6.8h6.3v3.2h-9.8v-22.9h9.8V287.9z"/>
		<path class="st0" d="M197.5,289.5v0.6l-3.3,0.3v-0.9c0-1.3-0.6-2-1.8-2s-1.8,0.7-1.8,2v0.3c0,1.3,0.6,2.5,2.9,4.5
			c3.2,2.7,4.4,4.6,4.4,7.3v1.1c0,3.3-1.9,5.1-5.4,5.1s-5.4-1.9-5.4-5.1v-1.5l3.3-0.3v1.6c0,1.4,0.7,2.2,2,2.2s2-0.7,2-2.2v-0.8
			c0-1.4-0.7-2.6-3-4.6c-3.2-2.7-4.3-4.6-4.3-7.3v-0.5c0-3.3,1.9-5.1,5.2-5.1C195.6,284.3,197.5,286.2,197.5,289.5z"/>
	</g>
	<path class="st0" d="M75.8,202.4v7L64.5,210v-6.3c0-6.2-2.3-9-6.7-9c-4.3,0-6.7,2.8-6.7,7.9V245c0,5.1,2.3,7.9,6.7,7.9
		c4.3,0,6.7-2.8,6.7-9v-8.7l11.3,0.6v9.3c0,11.8-6.8,18.6-18.3,18.6c-11.4,0-18.1-6.9-18.1-18.6v-42.6c0-11.8,6.7-18.6,18.1-18.6
		C69,183.8,75.8,190.7,75.8,202.4z"/>
	<path class="st0" d="M209.6,203.4v40.6c0,12.2-7.2,19.6-19,19.6c-11.8,0-19-7.4-19-19.6v-40.6c0-12.2,7.2-19.6,19-19.6
		C202.4,183.8,209.6,191.2,209.6,203.4z M183.4,203.6V244c0,5.8,2.6,8.9,7.2,8.9c4.7,0,7.2-3.1,7.2-8.9v-40.4c0-5.8-2.6-8.9-7.2-8.9
		C186,194.7,183.4,197.8,183.4,203.6z"/>
	<path class="st0" d="M247.6,262.6l-9.3-32.9h-5.4v32.9h-11.8v-77.7h17c12.7,0,19.5,6.9,19.5,19.6v5.5c0,8.2-2.9,14-8.3,17.1
		l10.8,35.4H247.6z M232.8,195.8v23.1h4.8c5.7,0,8.2-3,8.2-9.5v-4c0-6.5-2.6-9.5-8.2-9.5H232.8z"/>
	<path class="st0" d="M145.9,207.3H140c0,0-2.5-0.2-5.9-0.8v56.1h31.4v-11.1h-19.6V207.3z"/>
	<path class="st0" d="M120.2,202.4c-7.4-3.8-8.3-9.5-8.3-9.5s0,0-5.5-2.7c-2.9-1.4-5.1-4-6.5-6.2c-9.5,1.5-15.1,8.5-15.1,19.3v40.6
		c0,12.2,7.2,19.6,19,19.6c11.8,0,19-7.4,19-19.6v-40.5C121.9,203.2,121,202.8,120.2,202.4z M111,244c0,5.8-2.6,8.9-7.2,8.9
		c-4.7,0-7.2-3.1-7.2-8.9v-40.4c0-5.8,2.6-8.9,7.2-8.9c4.7,0,7.2,3.1,7.2,8.9V244z"/>
</g>
</svg>
