<?xml version="1.0" encoding="utf-8"?>
<!-- Generator: Adobe Illustrator 22.1.0, SVG Export Plug-In . SVG Version: 6.00 Build 0)  -->
<svg version="1.1" id="katman_1" xmlns="http://www.w3.org/2000/svg" xmlns:xlink="http://www.w3.org/1999/xlink" x="0px" y="0px"
	 viewBox="0 0 208.5 336.7" style="enable-background:new 0 0 208.5 336.7;" xml:space="preserve">
<style type="text/css">
	.st0{fill:#fff;}
</style>
<g>
	<g>
		<path class="st0" d="M196.7,166.7c-0.2-0.6-0.7-0.8-1.3-0.7c-5.4,1-10.8,2-16.3,3c3.5-6.4,6-13.4,7.5-20.5
			c0.1-0.5-0.2-1.1-0.7-1.3c-0.4-0.1-0.8,0-1.1,0.4c-0.2,0.1-0.5,0.2-0.7,0.3c-0.1-0.3-0.4-0.5-0.7-0.3c-0.6,0.4-1.1,0.7-1.7,1
			c-5.1,1.1-10.6,0.4-15-2.6c-2.4-1.6-4.3-3.8-5.6-6.4c-1.4-2.8-1.8-6-1.4-9.2c0.5-3.9,2.1-7.5,3.6-11.1c0,0,0.1,0,0.1,0
			c0.6,0.1,0.6-0.7,0.2-1c0,0,0-0.1,0-0.1c0.4-0.5,0.3-1.4-0.5-1.6c-5.9-1.4-12.1-3-16.8-7c-0.6-0.5-1.1-1-1.6-1.5
			c3.4,0.4,6.9,0.4,10.4-0.2c0,0,0.1,0,0.1,0c0.2,0.1,0.5,0.1,0.7,0.2c1.2,0.2,1.7-1.3,0.9-1.8c-0.1-0.1-0.1-0.1-0.2-0.1
			c-0.1,0-0.3-0.1-0.4-0.1c-4.6-1.1-8.9-3.4-12.3-6.8c-0.8-0.8-1.9-1.8-2.3-2.9c-0.4-0.9,0.2-1.7,0.9-2.2c1-0.8,2.3-1.4,3.4-2
			c1.4-0.8,2.7-1.5,4.1-2.3c3-1.7,6-3.3,9-5c0.3-0.1,0.4-0.3,0.5-0.5c0.2-0.1,0.4-0.2,0.6-0.3c0.2-0.1,0.3-0.2,0.3-0.4
			c0-0.1,0.1-0.1,0.1-0.2c0.1-0.5-0.2-1.2-0.7-1.3c-0.9-0.1-1.7-0.3-2.6-0.5c-3.5-1-6.9-2.2-10.2-3.5c-2.7-1.2-5.3-2.5-7.9-3.8
			c-3.6-1.8-7.1-3.5-10.7-5.3c-1.7-0.8-3.4-1.7-4.9-2.8c-1.2-0.9-2.4-1.9-3.5-2.9c-2.6-2.2-5.3-4.5-8.7-5.2
			c-0.1-0.2-0.3-0.3-0.5-0.3c-0.3-0.2-0.5-0.4-0.7-0.6c0,0,0-0.1,0-0.1c-5.4-8.9-13-16.5-21.9-21.8c-2.5-1.5-5.1-2.8-7.8-3.9
			c-0.1,0-0.2,0-0.2,0c-0.1-0.1-0.3-0.1-0.4-0.1c-6.5,0.5-13,1-19.5,1.5c-0.3,0-0.6,0.2-0.8,0.4c-7.6-8.7-16.5-16.3-26.3-22.5
			c-1.5-1-3.1-1.9-4.6-2.8c-2.9-2.4-5.8-4.7-8.6-7.1C19,0.4,18.3,0,17.6,0c-0.3,0-0.7,0.1-0.9,0.2C13.6,1,11,3.1,9.2,5.6
			C8.6,6.5,8,7.4,7.5,8.3c0,0,0,0-0.1,0.1C7.1,8.7,6.9,9.1,6.8,9.6c-0.2,0.3-0.3,0.7-0.5,1C6.2,11,6,11.5,5.8,11.9
			c-2.9,4.8-4.7,10.2-5.3,15.7c-0.8,7.4,0.8,15,4.2,21.5c0.7,1.3,1.6,2.7,2.3,4.1c0,0.2,0,0.4,0.1,0.6c0.8,1.7,1.9,4.3,0.5,6
			C7,60.6,6,60.8,5.1,60.6c-1-0.3-1.8-1-2.4-1.8c-0.5-0.7-1.7-0.7-1.9,0.2c-0.8,4-1.6,8.3,0.3,12.1c1.4,2.7,4,4.6,6.6,6
			c1.8,1.7,4.1,2.7,6.4,3.6c2.2,0.9,4.6,1.7,6.5,3.2c0.9,1,1.7,2,2.4,3.1c1.5,2.3,2.5,4.8,3.1,7.4c0.2,1.2,0.3,2.5,0.3,3.7
			c0.1,3.3-0.5,6.5-1.6,9.6c-0.1,0.1-0.2,0.2-0.3,0.4c-0.3,0.4-0.1,1.2,0.4,1.4c0.5,0.3,1.1,0.1,1.4-0.4c0.2-0.2,0.5-0.3,0.9-0.3
			c0.3,0,0.8,0.2,1.1,0.4c0.9,0.8,0.9,2.3,0.8,3.4c-0.4,2.9-1.4,5.7-2.6,8.3c-2.6,5.3-6.6,9.7-11.7,12.7c-2.9,1.7-6,2.9-9.2,3.6
			c-0.8,0.2-0.9,1-0.5,1.6c-0.1,0-0.2,0-0.3,0c-0.6-0.1-1,0.5-1,1c0,0.3,0.1,0.5,0.2,0.7c0,0.1,0.1,0.2,0.3,0.2
			c0.1,0.1,0.3,0.1,0.5,0.2c0.2,0,0.5,0.1,0.7,0.1c0.5,0.1,0.9,0.2,1.4,0.3c1.3,0.3,2.6,0.7,3.9,1.1c1.8,0.6,3.6,1.1,5.4,1.7
			c-6.4,8.2-10.2,18.3-11.1,28.6c-0.2,3.1-0.2,6.1,0.1,9.2c0,0.3,0.2,0.6,0.4,0.7c0.1,0.2,0.3,0.3,0.6,0.3c0.3,0,0.6,0,0.8-0.3
			c1.8-1.9,3.6-3.9,5.5-5.8c0.3,7.2,1.4,14.4,3.2,21.4c0.5,2,1.2,4.1,1.8,6.1c0,0.1,0,0.2,0.1,0.2c0,0.1,0.1,0.2,0.2,0.2
			c0.2,0.3,0.5,0.5,0.9,0.5c0.4,0,0.9-0.3,1-0.8c0.5-3.3,1.6-6.5,3.1-9.5c0.9,3.3,2.1,6.6,3.4,9.8c0,0,0,0,0,0c0,0,0,0,0,0
			c0,0.1,0.1,0.2,0.1,0.2c0.2,0.5,0.9,0.6,1.3,0.4c0.5-0.2,0.7-0.7,0.6-1.2c0-0.2-0.1-0.3-0.1-0.5c1-3.9,4.2-6.7,7.4-9
			c4-2.8,8.2-5.5,12.2-8.3c1.9-1.3,3.9-2.6,5.8-3.9c-0.5,6.8-0.1,13.7,1.3,20.4c0.3,1.7,0.7,3.5,1.2,5.2c0.4,1.6,0.9,3.4,1.5,4.9
			c0.2,0.5,0.5,1,1.1,1.2c0.3,0.6,1.3,0.9,1.8,0.1c2.8-4.4,5-9.1,6.8-14.1c2.2,3.8,5,7.3,8.1,10.6c3.7,4,7.8,7.6,12.1,11
			c0.9,0.7,1.7,1.4,2.6,2c0.1,0.2,0.3,0.5,0.4,0.7c0.2,0.3,0.5,0.3,0.7,0.2c0.6,0.5,1.2,1,1.7,1.6c0.6,0.5,1.3,1.1,2.1,1.2
			c0.5,0.3,1.3-0.1,1.5-0.6c0.1-0.2,0.3-0.4,0.3-0.7c0.1-0.9-0.3-1.8-0.6-2.6c-0.3-1-0.6-2-0.9-3c-0.5-2-0.7-4.1-0.8-6.1
			c0.1-2.3,0.5-4.6,1.2-6.9c3.7,2.1,7.4,4.2,11.1,6.3c2.6,2.6,4.3,5.9,5.4,9.5c1.3,4.6,1.3,9.4,0.4,14c-0.3,1.9-0.8,3.8-1.4,5.7
			c0,0-0.1,0-0.1,0.1c-0.6,0.5-1.1,1.1-1.2,1.9c0,0.5,0.1,1.1,0.5,1.5c0.1,0.3,0.4,0.5,0.6,0.5c0.2,0.1,0.4,0,0.6,0
			c1.2,0,2.2-1.3,3-2.1c0.5-0.5,1-1,1.6-1.5c1.7-1.1,3.4-2.4,4.9-3.8c0.2-0.1,0.4-0.3,0.5-0.4c0.2-0.1,0.4-0.3,0.4-0.5
			c1.1-1.1,2.2-2.2,3.2-3.5c3.9-4.7,6.7-10.3,8.2-16.2c0.7-2.7,1.1-5.4,1.2-8.2c1.7,2.4,3.7,4.6,5.7,6.7c2.8,3,5.6,6,8.4,9
			c0,0,0.1,0.1,0.1,0.1c0.2,0.7,1,0.7,1.5,0.4c0.3,0,0.6-0.3,0.5-0.6c0-0.1,0-0.1-0.1-0.2c0-0.1,0-0.2,0-0.3c-0.9-4-1.7-8-2.6-12
			c-0.4-2-0.9-3.9-1.3-5.9c-0.1-0.5-0.2-1.3,0.3-1.5c0.4-0.2,1-0.1,1.5,0c0.7,0.2,1.5,0.5,2.2,0.7c0.8,0.2,1.6,0.5,2.4,0.6
			c1.7,0.4,3.4,0.6,5.1,0.8c3.3,0.2,6.7,0,10-0.8c3.7-0.8,7.2-2.3,10.4-4.4c0.6-0.4,0.6-1,0.3-1.4c0.2-0.5,0-1.1-0.7-1.3
			c-8.6-2-17.6-4-24.7-9.6c-1.6-1.3-3.1-2.7-4.4-4.3c0,0,0-0.1,0-0.1c7.7,1.6,15.6,2.4,23.4,2.5c2.5,0,5,0,7.6-0.1
			c0.5,0,0.8-0.3,0.9-0.7c0.4,0.1,1-0.1,1.2-0.5c0.1-0.2,0.2-0.5,0.1-0.7c0.1-0.2,0.1-0.5-0.2-0.6c-0.2-0.1-0.3-0.1-0.5-0.2
			c-1.7-1.2-3.4-2.5-5.1-3.7c5.6-2.6,10.8-6,15.3-10.4c1.4-1.3,2.7-2.8,3.9-4.3c0.1-0.1,0.2-0.2,0.2-0.4c0,0,0,0,0,0
			C196.5,167.8,196.8,167.2,196.7,166.7z M180.1,178.8c-0.3,0.2-0.6,0.4-1,0.5c-1.6,0.9-3.3,1.7-5,2.4c-0.8,0.3-1,1.3-0.2,1.9
			c0.2,0.2,0.5,0.3,0.7,0.5c-0.1,0.2,0,0.4,0.2,0.6c0.5,0.2,1,0.4,1.4,0.7c0.5,0.4,1.1,0.8,1.6,1.2c-5.3-0.1-10.5-1.3-15.2-3.5
			c6.1-0.8,12-2.7,17.5-5.6c4.1-2.2,7.8-5,11.2-8.2c0.4-0.2,0.9-0.4,1.3-0.6c0,0,0.1,0,0.1-0.1c-1.7,1.9-3.6,3.8-5.7,5.4
			C184.9,175.7,182.5,177.3,180.1,178.8z M132.4,208.8c0,2.5-0.2,4.9-0.6,7.3c-0.6,3-1.6,5.9-2.8,8.6c-1.2,2.7-2.6,5.3-4.3,7.8
			c-0.7,0.9-1.4,1.8-2.2,2.7c1-1.3,1.9-2.7,2.7-4.1c2.8-4.8,4.8-10.2,5.7-15.7c0.9-5.5,0.7-11.1-0.5-16.5c-1.2-5.4-3.5-10.5-6.5-15
			c-2.3-3.4-5-6.4-8-9.1c6.4,1.8,10.6,8,13.5,13.7c1.9,3.8,3.7,7.6,5.6,11.5c1.9,4,3.8,7.9,5.7,11.9c1.2,2.4,2.4,4.9,3.5,7.3
			c-0.8-0.9-1.6-1.7-2.4-2.6c-2.5-2.7-5-5.4-6.9-8.6c-0.2-0.4-0.5-0.5-0.9-0.5c0-0.1-0.1-0.1-0.1-0.1c-0.3-0.4-1-0.3-1,0.3
			c0,0.2,0,0.3,0,0.5C132.5,208.2,132.4,208.4,132.4,208.8z M65.8,197.6c-0.1,0.5-0.3,0.9-0.5,1.4c-1.1,2.6-2.1,5.1-3.2,7.7
			c-0.2,0.4-0.3,0.8-0.5,1.1c-0.7,1.3-1.4,2.6-2.1,3.9c-0.5-1.1-0.9-2.4-0.9-3.7c0.5-4.8,2.7-9.3,6.4-12.5c1.3-1.1,2.7-2,4.3-2.8
			c0.1,0,0.1-0.1,0.2-0.1c3,5.9,6.5,11.6,10.5,16.9c1.1,1.5,2.3,3,3.5,4.4c-0.1,0.1-0.1,0.3,0,0.5c0.8,1.3,1.6,2.6,2.5,3.9
			c0,0.1,0.1,0.2,0.1,0.3c-1.1-0.9-2.2-1.9-3.2-2.8c-3.8-3.4-7.5-7.1-10.7-11.2c-1.8-2.3-3.3-4.7-4.6-7.2c-0.1-0.3-0.4-0.4-0.6-0.5
			c-0.2-0.4-0.8-0.2-0.9,0.2c0,0,0,0.1,0,0.1C65.9,197.3,65.8,197.4,65.8,197.6z M88,38c5.2,3.5,9.7,7.9,13.8,12.5
			c1.5,1.7,3.1,3.5,4.5,5.3c0.1,0.1,0.1,0.2,0.2,0.3c-1.3-0.7-2.7-1.2-4.1-1.6c-5.1-2.3-9.4-6.3-13.6-9.9c-2.5-2.1-5-4.1-7.9-5.7
			c-3.1-1.8-6.5-3-10-3.7c-1.4-0.3-2.8-0.5-4.2-0.6c4.1-0.3,8.3-0.6,12.4-0.9c0.1,0,0.1,0,0.2,0.1C82.4,34.8,85.3,36.3,88,38z
			 M182.9,154.6c-0.7,1.7-1.4,3.3-2.1,4.9c-1.4,3.2-2.8,6.5-4.2,9.7c-0.1,0.2-0.2,0.3-0.3,0.5c-0.1,0.2-0.1,0.3-0.1,0.5
			c-0.1,0.1-0.1,0.3-0.2,0.4c-6.7,3.4-14.1,5.2-21.6,5.4c-1.7,0-3.4,0-5.2-0.1c9.4-1.5,18.5-5.5,25.4-12.2c3.9-3.8,7-8.4,8.7-13.5
			c0.3-0.1,0.6-0.2,0.9-0.3C183.8,151.5,183.4,153.1,182.9,154.6z M166.4,186.7c0-0.2-0.2-0.4-0.5-0.4c-4.2,0.1-8.3-0.9-11.9-3
			c0.7,0,1.4,0.1,2.1,0.1c1.6,0,3.2,0,4.8-0.2c3.2,1.7,6.6,2.9,10.1,3.6C169.4,186.8,167.9,186.8,166.4,186.7z M160.7,182
			c-0.3-0.2-0.6,0-0.7,0.3c-5.1,0.4-10.2-0.1-15.1-1.3c-4-1-7.8-2.4-11.5-4.4c7.1,1.9,14.4,2.7,21.8,2.6c7.4-0.1,14.8-1.2,21.8-3.3
			c2.8-0.8,5.6-1.8,8.3-3c-4.6,3.4-9.9,6-15.4,7.6c-2.9,0.8-5.9,1.4-8.9,1.7C160.9,182.1,160.8,182,160.7,182z M113,173.9
			c0,0.2,0.2,0.4,0.5,0.4c0,0,0.1,0,0.1,0c3.1,2.4,5.9,5.3,8.2,8.5c3.2,4.3,5.6,9.2,7,14.4c1.4,5.2,1.9,10.7,1.3,16
			c-0.6,5.4-2.3,10.8-4.9,15.6c-2,3.7-4.5,7.2-7.4,10.2c5.7-8.2,9.4-17.9,10.1-27.8c0.4-5.7-0.2-11.4-2.3-16.7
			c-1.8-4.5-4.5-8.6-7.9-12c-3.5-3.5-7.7-6.3-12.3-8.2c0.6-0.8,1.5-1.5,2.5-2c0.5-0.2,1-0.4,1.4-0.6c0.4,0.1,0.8,0.2,1.2,0.3
			C111.4,172.7,112.2,173.2,113,173.9z M107.2,211.8c-0.2-0.1-0.3-0.3-0.5-0.4c-0.3-0.3-0.7-0.4-1.1-0.2c-3.4-2-6.9-3.9-10.3-5.9
			c-0.6-0.3-1.3,0-1.5,0.6c-2.1,5.8-2.3,12.2-0.6,18.2c-0.5-0.4-1-0.7-1.5-1.1c-1.2-2-1.7-4.4-1.9-6.8c-0.3-4.5,0.8-8.9,1.4-13.4
			c0.5-4,0.4-7.9-0.6-11.8c-1-3.6-2.6-7-4.9-10c-2.1-2.8-4.6-5.2-7.6-7c1.3-1.5,2.3-3.2,3.2-5c2.6-5.4,3.4-11.5,4.4-17.4
			c1.1-6.3,2.2-12.7,3.3-19c1.9,1.6,3.1,3.9,3.6,6.3c0.7,3.2,0.2,6.5-0.8,9.5c-1.2,3.8-3.1,7.4-4.5,11.1c-1.4,3.7-2.1,7.5-2,11.4
			c0.1,4.3,1.2,8.6,3.2,12.5c0.1,0.1,0.1,0.2,0.2,0.2c0.4,1.1,0.9,2.2,1.5,3.2c0,0.1,0.1,0.1,0.1,0.2c0.2,1.5,0.6,2.9,1.1,4.3
			c2.4,6.4,7.9,10.8,12.7,15.3c4.1,3.8,8.4,8.5,9.7,14.1c-0.5-1.3-1.1-2.7-1.8-3.9C110.8,214.9,109.1,213.1,107.2,211.8z
			 M22.6,134.5c6.3-4.1,11.3-10.2,14.1-17.2c0.2-0.4,0.3-0.9,0.5-1.3c-0.8,5-2.7,9.9-5.6,14.1c-0.1,0-0.2,0-0.3,0
			c-0.1,0-0.2,0-0.3,0c-0.6,0-0.7,0.9-0.1,1c-0.1,0.1-0.1,0.2-0.2,0.3c-0.9,1.2-2,2.4-3.1,3.5c-0.2-0.4-0.5-0.8-0.9-1
			c-0.6-0.3-1.3-0.3-2-0.1c-0.3-0.3-0.9-0.2-0.9,0.3C23.4,134.3,23,134.5,22.6,134.5z M31.2,111.1c-0.1-1.6-0.8-3.1-2.3-3.8
			c-0.5-0.3-1-0.4-1.6-0.4c1.5-5.1,1.6-10.7,0.1-15.8c0.5,0.7,1,1.5,1.5,2.2c1.2,1.9,2.2,3.9,3,5.9c0.9,2.2,1.5,4.6,1.3,6.9
			C33.3,107.9,32.5,109.8,31.2,111.1z M8.1,49.5c0-0.2,0-0.3-0.1-0.5c-0.1-0.2-0.3-0.3-0.4-0.5c-0.1-0.1-0.1-0.2-0.2-0.4
			C7.3,48,7.2,48,7.1,47.9c-1.2-1.7-2.2-3.6-3-5.5c-0.2-0.6-0.4-1.3-0.6-1.9c-0.8-3.1-1.2-6.3-1.1-9.5c1.8,4.5,4.1,8.8,6.9,12.8
			c0.7,1,1.5,2,2.3,3c-1-0.2-2-0.4-3-0.5c-0.4-0.1-0.8,0.3-0.6,0.8c2.1,3.4,3.1,7.4,2.8,11.4c-0.1-0.9-0.3-1.8-0.5-2.6
			C9.8,53.6,9,51.5,8.1,49.5z M104.5,56.3c0.1,0,0.1,0,0.2,0c1,0.4,2.1,1,3,1.5c-3.6-1.4-7.7-1.7-11.5-1c-2.4,0.5-4.7,1.4-6.7,2.8
			c-2.2,1.4-4.2,3.2-6.6,4.4c-2.4,1.2-5.4,1.8-7.8,0.3c-0.3-0.2-0.6,0-0.7,0.3c-1.6-0.7-3.3-1.3-5-1.8c1.8-0.4,3.6-1.2,5.2-2.2
			c1.4-0.9,2.8-1.9,4.2-2.7c1.3-0.8,2.6-1.4,4-1.9c5.4-2.1,11.5-2.5,17.2-1.1c0.8,0.2,1.5,0.4,2.3,0.6
			C103,55.8,103.7,56.1,104.5,56.3z M113.6,61.4c-4.6,4.6-9.3,9.4-12.4,15.2c-3.1,5.7-4.3,12.4-3.6,18.8c0.3,3,1,5.9,2.2,8.7
			c-0.7-0.7-1.3-1.5-1.8-2.4c0-0.1,0-0.3-0.1-0.4c-0.1-0.1-0.2-0.2-0.3-0.3c-2.3-4.2-3-9.4-2.5-14.2c0.8-7.1,3.7-13.9,7.9-19.7
			c1.9-2.7,4.2-5.1,6.6-7.3c0,0,0,0,0,0c0.1,0.1,0.2,0.1,0.4,0.1c0.1,0.1,0.2,0.2,0.4,0.2c1,0.2,1.8,0.5,2.7,0.9
			C113.2,61.2,113.4,61.3,113.6,61.4z M156.7,83.8C156.7,83.8,156.7,83.8,156.7,83.8c-7.5,1-14.8,2.7-21.8,5.1
			c-7.6,2.6-15,6-21.9,10.2c-3.5,2.1-6.9,4.4-10.1,6.9c0,0,0,0,0,0c5.8-6.1,12.7-11.2,20.3-14.9c2.1-1,4.2-2,6.4-2.8
			c6-1.4,12.1-2.8,18.1-4.3c0.2,0,0.3-0.2,0.3-0.4c2.5,0,4.9-0.1,7.4-0.1C155.8,83.6,156.3,83.7,156.7,83.8z M139.2,96.9
			c0.2,0.6,0.5,1.2,0.9,1.7c0.8,1.1,1.8,1.9,2.9,2.7c0.9,0.8,1.8,1.6,2.8,2.3c-5-0.8-10-1.2-15.1-1.1c-6.9,0-13.9,0.8-20.6,2.3
			c-1.8,0.4-3.5,0.8-5.2,1.3c8.5-3.9,17.5-6.7,26.7-8.3C134.2,97.4,136.7,97.1,139.2,96.9z M109.1,111c3.5,0.2,6.9,0.2,10.4,0.3
			c7.2,0.4,14.4,1.2,21.5,2.5c1.1,0.2,2.3,0.4,3.4,0.7c-5.5,0.3-10.9,0.4-16.4,0.3c-3.6-0.1-7.2-0.2-10.9-0.4c-3-0.2-6-0.4-8.9-1
			c-2-0.4-3.9-1.1-5.6-2.1c-0.1-0.1-0.2-0.3-0.3-0.4c-0.1-0.1-0.2-0.3-0.4-0.5c0.1,0,0.2,0,0.3-0.1c0.2-0.1,0.3-0.2,0.4-0.4
			C104.8,110.6,107,110.9,109.1,111z M158.7,139.4c0.4,0.9,0.8,1.7,1.3,2.5c0.9,1.7,2,3.3,3.4,4.7c1.3,1.2,2.8,2.2,4.4,3
			c-3.8-0.9-7.3-2.7-10.3-5.1c-1.4-1.1-2.6-2.3-3.7-3.7c-1.2-3-1.8-6.2-2-9.4c-0.1-2.1,0.1-4.3,0.4-6.3c0.5-1,1.2-1.9,2-2.7
			c1.8-1.7,4-2.7,6.4-3c-1.5,2.9-2.5,6.1-2.9,9.4C157.2,132.3,157.3,135.8,158.7,139.4z M93.7,139.2c-0.5-3-1.9-5.8-4.4-7.6
			c0-0.1,0.1-0.2,0.1-0.3c0-0.2,0-0.4,0-0.6c0-0.1,0-0.2,0-0.2c0.2-0.9,0.3-1.8,0.5-2.6c0-0.2,0-0.3-0.1-0.4
			c0.5-2.3,1.4-4.4,2.8-6.3c5,5.2,7.2,12.9,5.5,20c-1.9,8.5-7.8,15.3-10.4,23.6c-0.9,2.7-1.3,5.7-1.2,8.5c-0.1-0.5-0.1-1.1-0.1-1.6
			c-0.2-4,0.5-7.9,1.9-11.7c1.4-3.8,3.3-7.3,4.6-11.2C93.8,145.7,94.2,142.5,93.7,139.2z M44.2,186.9c-0.7,0.5-1.4,0.9-2.1,1.3
			c-0.1,0.1-0.3,0.1-0.4,0.2c5.7-5,9-12.4,8.8-20c-0.1-2.7-0.5-5.3-1.4-7.8c-0.1-0.2-0.2-0.3-0.4-0.3c0.1-0.1,0.2-0.2,0.3-0.2
			c0.9-0.7,1.7-1.5,2.5-2.4c1.6,5.4,3.3,11.3,2,17C52.4,179.9,48.6,184,44.2,186.9z M21.9,181.7c-1.5,3.7-2.6,7.5-3.6,11.4
			c0.8-7.1,1.6-14.3,2.3-21.4c0-0.2-0.1-0.4-0.3-0.5c3.1-2.1,5.8-4.7,8-7.7c4.4-6,6.6-13.6,6.3-21c-0.1-3.8-0.9-7.5-2.4-11
			c0.1,0,0.3,0,0.4-0.1c0,0,0.1,0,0.1-0.1c2.7,0.7,4.7,3.4,5.6,6.1c1.2,3.8,1.3,8,0.9,11.9c-0.2,2.3-0.7,4.6-1.4,6.9
			c-0.1,0.2,0,0.4,0.1,0.5c-0.6,1.4-1.1,2.9-1.7,4.3c0,0,0,0,0,0c-3.5,2-6.9,4-9,7.5c-1,1.6-1.5,3.5-1.5,5.4
			C24.3,176.4,23,179,21.9,181.7z M13,174.3c-0.2-0.2-0.5-0.2-0.7,0c-0.1,0.1-0.2,0.2-0.3,0.4c-0.2,0-0.5,0.1-0.7,0.3
			c0,0.1-0.1,0.1-0.1,0.2c-0.4,0.2-0.9,0.4-1.3,0.6c3.2-4.3,8.7-7.1,12.5-10.6c4.9-4.6,7.8-11.1,8.5-17.7c0.4-3.8,0-7.6-1.2-11.2
			c-0.2-0.6-1.2-0.4-1,0.3c2.1,6.3,1.6,13.4-1.1,19.4c-1.3,3-3.2,5.8-5.6,8.1c-2.9,2.8-6.3,4.8-9.3,7.4c-1.6,1.4-3.1,3-4.3,4.7
			c1.7-4.9,5-9.1,8.2-13c4.2-5.1,8.6-10.2,10.4-16.7c0.9-3.2,1.2-6.6,0.3-9.8c0.1-0.1,0.1-0.1,0.2-0.2c1.5-1.4,2.8-2.9,4-4.5
			c2.6,6.3,2.9,13.5,1.2,20.1c-0.9,3.5-2.4,6.9-4.4,9.9c-2.1,3.2-4.9,5.9-8,8.1C17.9,171.7,15.5,173.1,13,174.3z M8.8,177.4
			c0.2-0.1,0.3-0.2,0.5-0.2c-0.3,0.3-0.6,0.6-0.9,0.9C8.5,177.8,8.7,177.6,8.8,177.4z M40,99.9c-2.3-5.1-5.5-9.8-9.7-13.5
			c-3-2.7-6.4-4.9-10.1-6.4c4.5,0.8,8.8,2.7,12.4,5.6c4.2,3.5,7.3,8.1,9.1,13.2c2,5.7,2.7,11.9,3.4,17.9c0.7,6.2,1.3,12.4,1.2,18.7
			c0,6.9-0.8,13.8-2.6,20.5c0,0.1,0,0.2,0,0.3c-0.2,0.2-0.5,0.4-0.7,0.6c-1.6,1.3-3.4,2.3-5.2,3.3c0.2-0.4,0.3-0.9,0.5-1.3
			c0.2,0,0.4-0.1,0.4-0.4c0.2-0.7,0.3-1.3,0.5-2c0,0,0-0.1,0-0.1c0,0,0-0.1,0-0.1c1.5-6.1,2.9-12.1,3.9-18.3
			c1.1-6.6,1.6-13.2,1.1-19.8C43.9,111.9,42.5,105.7,40,99.9z M11,14.6c1.1,0.2,2.3,0.1,3.4-0.2c1.9-0.5,3.6-1.6,5.5-2.2
			c1-0.3,2-0.5,3.1-0.4c0,0,0,0,0,0c-3.9,3.1-7.1,7-9.2,11.6c-2.4,5.3-3.3,11.3-2.5,17.1c0.3,2,0.8,3.9,1.7,5.6
			c-2.2-2.5-2.9-6.2-3.4-9.4c-0.7-4.6-0.8-9.4-0.3-14c0.3-2.7,0.9-5.3,1.6-7.9C11,14.7,11,14.6,11,14.6z M15.3,47.5
			c-1.4-2.6-1-5.7-0.6-8.5c0.5-3,1.2-5.9,2.3-8.7c2-5.1,5.4-9.8,10.4-12.2c1.4-0.7,2.8-1.1,4.3-1.4c-4.1,2-7.5,5.2-9.8,9.1
			c-2.7,4.6-3.5,10.1-2.6,15.4c0.5,2.7,1.5,5.3,2.9,7.6c-0.1,0-0.3,0-0.4,0c-2.1-0.2-4.2-0.5-6.3-0.8c0,0,0,0,0,0
			c-0.1-0.1-0.2-0.2-0.2-0.3C15.3,47.6,15.3,47.6,15.3,47.5z M43.6,30.5c3.2,2.9,6,6.2,8.7,9.5c1.5,2,3,4,4.5,6c-0.5,0-0.9,0-1.4,0
			c-0.3,0-0.5,0.2-0.5,0.4c-0.3,0.1-0.5,0.5-0.2,0.8c0.1,0.1,0.2,0.2,0.3,0.3c0.2,1.6,0.5,3.3,0.7,4.9c-1.7-3.3-3.5-6.5-5.4-9.6
			c0,0,0,0,0,0c0.1-0.4-0.1-0.6-0.4-0.6c-2.8-4.5-5.9-8.8-9.2-12.9c-0.9-1.1-1.8-2.1-2.7-3.2c0.8,0.5,1.6,1.1,2.3,1.7
			C41.3,28.9,42.4,29.8,43.6,30.5z M126.2,70.5c2.7,1.4,5.4,2.7,8.2,4.1c-0.1,0-0.2,0-0.3,0c-0.1-0.1-0.2-0.3-0.4-0.3
			c-6.4-0.5-13,1.1-18.4,4.6c-5.4,3.4-9.5,8.6-11.7,14.6c-0.7,1.8-1.2,3.7-1.5,5.7c0.1-4.5,1.1-8.9,3-13c2.5-5.3,6.4-9.8,11.3-13
			c2.5-1.6,5.3-2.9,8.2-3.7C125.1,69.8,125.7,70.2,126.2,70.5z M132.2,81.4c-0.6-0.4-1.4-0.6-2.1-0.8c-1-0.3-2-0.6-3-0.9
			c-0.2-0.1-0.4-0.1-0.6-0.2c5,1,10,2.1,15,3.1c1.2,0.3,2.5,0.5,3.7,0.8c-4.3,1-8.7,2-13,3.1c0.4-0.4,0.7-0.8,0.9-1.3
			C133.7,83.9,133.5,82.3,132.2,81.4z M128.7,87.4c-0.1,0-0.1,0.1-0.2,0.1c-8.6,3.3-16.5,8.2-23.2,14.5c1.9-3.2,3.8-6.3,6.3-9.1
			c3.2-3.6,7.3-6.4,12.1-7.5c2.7-0.7,5.5-0.8,8.2-0.5c0.1,0,0.1,0,0.1,0C131.5,86.2,130,86.8,128.7,87.4z M90.2,180.7
			c-0.3-5.3,2.5-10.5,5.7-14.5c4.3-5.4,9.8-10,12.6-16.4c0.8-1.8,1.3-3.7,1.6-5.6c0.4,0.3,0.9,0.7,1.3,1c-0.2,0.2-0.3,0.5-0.1,0.8
			c2,2.3,1.8,5.5,0.6,8.2c-1.4,3.1-4,5.2-6.8,7c-2.9,1.8-5.9,3.5-8.4,5.9c-2.1,2-3.8,4.5-4.9,7.2C91,176.2,90.5,178.4,90.2,180.7z
			 M110.2,141.2c0-0.4-0.1-0.8-0.1-1.2c0-7.8-1.7-15.6-4.9-22.7c0.2,0.2,0.4,0.3,0.6,0.4c4,4.4,6.5,10,7,15.9c0,0.2,0.1,0.3,0.3,0.4
			C111.7,136.3,110.8,138.7,110.2,141.2z M87.7,175.2c-1.4-7.4,2.7-15,6.2-21.4c2-3.8,4-7.6,5.1-11.8c1-3.9,0.9-7.9-0.1-11.8
			c-1.1-3.9-3.2-7.6-6.2-10.4c0.3-0.5,0.5-0.9,0.8-1.4c1.5-2.4,3.1-4.7,4.7-7c0.2-0.2,0.4-0.4,0.7-0.7c5.2,8.7,6.7,19.6,3.7,29.4
			c-3.2,10.6-11.3,19.1-13.9,30C88.1,171.8,87.8,173.5,87.7,175.2z M54.8,181.3C54.8,181.3,54.8,181.3,54.8,181.3
			c0-0.1,0.1-0.1,0.1-0.2c0,0.1,0,0.2,0,0.2C54.8,181.4,54.8,181.3,54.8,181.3z M54.9,167.2c-0.4-3.4-1.3-6.7-2.3-9.9
			c0-0.2-0.1-0.3-0.3-0.3c1.2-1.3,2.3-2.7,3.4-4.2c0.3-0.4,0.6-0.9,0.9-1.3c1.7,6.7,1.5,13.8-0.5,20.4c-0.6,2-1.4,4-2.3,5.8
			c0,0.1-0.1,0.2-0.1,0.3c-0.3,0.5-0.5,0.9-0.8,1.3c0.6-1,1-2.1,1.4-3.3C55.2,173.1,55.3,170.1,54.9,167.2z M58.1,127.1
			c-0.5,1.9-1,3.8-1.5,5.7c-3.7-8.5-4.8-18.1-3.2-27.2c0-0.2,0.1-0.5,0.1-0.7c-0.1,5.6,0.7,11.3,2.5,16.6c0.6,1.8,1.3,3.5,2.1,5.2
			C58.2,126.9,58.2,127,58.1,127.1C58.1,127.1,58.1,127.1,58.1,127.1z M41.5,44.3c-3.7-1.1-6.4-4.2-7.9-7.7c-1-2.2-1.5-4.7-1.8-7.1
			c-0.2-1.5-0.3-3-0.4-4.5c1.3,4.9,4.2,9.2,8.3,12.3c1.3,1,2.7,1.8,4.2,2.5c0.1,0,0.2,0.1,0.3,0c-0.2,0.9-0.6,1.7-1.1,2.5
			C42.7,43.1,42.1,43.7,41.5,44.3z M34,48.2c0,0-0.1-0.1-0.1-0.1c-4.1-2.4-6.3-7-6.8-11.6c-0.3-2.7-0.2-5.5,0.3-8.1
			c0.4-2.5,1.1-5.1,2.4-7.3c0.1-0.2,0.2-0.3,0.3-0.5c-0.1,0.9,0,1.8,0.4,2.6c-0.1,1.8,0,3.7,0.2,5.3c0.5,4.8,1.7,9.7,5.1,13.4
			c1.4,1.4,3,2.6,4.9,3.3c-0.9,0.7-1.8,1.2-2.8,1.7C36.6,47.4,35.3,47.8,34,48.2z M44.1,35.4c0,0.1,0,0.1,0,0.2
			c0.4,1.1,0.4,2.2,0.3,3.3c-5-2.2-9.1-6.5-11.1-11.6c-0.6-1.4-1-2.9-1.2-4.4c1,0.4,2,0.9,3,1.4C38.2,27.8,41.2,31.5,44.1,35.4z
			 M26.5,26.9c-1.1,5.4-1.1,11.2,1.4,16.2c1.1,2.1,2.7,4,4.7,5.4c-3,0.6-6,0.7-9,0.5c-2.8-4.3-4.1-9.6-3.4-14.7
			c0.6-4.8,3-9.4,6.5-12.7c1-1,2.2-1.9,3.4-2.7C28.2,21.1,27.1,24.1,26.5,26.9z M30,49.9c4.1-0.4,8.6-1.7,11.8-4.4c0,0,0,0,0,0
			c0.4,0.1,0.7-0.3,0.6-0.6c0.5-0.5,0.9-1,1.3-1.6c1.2-1.7,1.8-3.8,1.7-5.8c1.3,1.8,2.5,3.7,3.7,5.5c-1.9,3.8-6.4,5.2-10.2,6.3
			c-2.3,0.6-4.7,1.3-7.1,1.5c-2.4,0.2-4.8,0.1-7.2-0.3c-1-0.2-2.1-0.4-3.1-0.6C24.4,50.1,27.2,50.2,30,49.9z M78.2,55.3
			C73.2,56,68,55.8,63,54.6c-2.1-0.5-4.2-1.1-6.2-1.9c-0.2-1.4-0.4-2.8-0.6-4.2C62,53,69.4,55.3,76.7,55c0.8,0,1.5-0.1,2.3-0.2
			C78.7,55,78.5,55.1,78.2,55.3z M75.8,87.9c-1.7,1-3.5,1.7-5.3,2.2c-2.1,0.6-4.2,1.1-6.3,1.3c-0.1,0-0.1,0-0.2,0
			c2.3-0.5,4.6-1.3,6.7-2.4c3.5-1.9,6.2-5.1,7.5-8.8c0.6-1.7,0.9-3.6,0.9-5.4c0.5,0.7,1,1.4,1.4,2.1c0.3,0.6,0.6,1.2,0.9,1.8
			c-0.1,0.1-0.1,0.2-0.1,0.3C81.6,82.8,78.9,86.1,75.8,87.9z M87.2,113.2c-1-2-1.9-4-2.8-6c0.1,0.3,0.5,0.5,0.8,0.1
			c1.8-2.1,4.3-3.5,7-3.7c2.6-0.2,5.2,0.6,7.2,2.2c0,0.1,0,0.1,0,0.2c-5.1,0.2-9.7,3.3-11.7,8C87.5,113.9,87.3,113.5,87.2,113.2z
			 M84.4,107.3c-0.1-0.1-0.1-0.3-0.2-0.4c-0.8-1.7-1.6-3.3-2.3-5c2.9-1.6,6.4-2.1,9.6-1.4c2.3,0.5,4.5,1.7,6.3,3.2
			c-1.7-0.8-3.6-1.2-5.5-1c-3,0.2-5.8,1.7-7.7,4C84.3,106.9,84.3,107.1,84.4,107.3z M100.3,107.2c-0.1,0.1-0.1,0.1-0.2,0.2
			c-0.1-0.1-0.2-0.1-0.4-0.1c-1.8,0.4-3.5,1.4-4.8,2.7c-0.7,0.7-1.2,1.6-1.7,2.5c-0.5,0.8-1,1.7-1.8,2.3c-0.7,0.5-1.8,0.9-2.7,0.5
			c-0.1-0.1-0.2-0.1-0.4-0.2C90.3,110.2,95.1,107,100.3,107.2z M87.1,120.1C87.1,120.1,87.1,120.1,87.1,120.1
			C87.2,120.1,87.2,120.1,87.1,120.1C87.2,120.1,87.1,120.1,87.1,120.1z M91.6,99.4c-3.4-0.7-7.1-0.2-10.2,1.5
			c-0.2-0.5-0.5-1-0.7-1.5c-0.1-0.2-0.2-0.2-0.3-0.3c-0.3-0.9-0.5-1.8-0.8-2.7c4.8-1.1,10.1-0.1,14.2,2.7c1,0.7,1.9,1.5,2.8,2.3
			C95,100.5,93.3,99.8,91.6,99.4z M78.3,95.9c-0.1,0.2,0,0.6,0.2,0.7c2.9,8.9,4.4,18.3,4.5,27.7c0,2.1,0,4.2-0.2,6.3
			c-1.3-10-2.7-20.1-6.7-29.4c-1-2.3-2.2-4.6-3.6-6.8c1.7,0,3.4-0.2,5-0.6C77.8,94.5,78,95.2,78.3,95.9z M26.9,67.2
			C26.9,67.2,26.9,67.2,26.9,67.2C26.9,67.2,26.9,67.2,26.9,67.2z M24.1,66.7C24.1,66.7,24.1,66.7,24.1,66.7c0,0.1,0,0.1,0,0.1
			c0,0,0,0,0,0C24,66.8,24,66.7,24.1,66.7z M35.5,74.4C35.5,74.4,35.5,74.4,35.5,74.4c-0.2-0.1-0.3-0.3-0.4-0.4
			C35.3,74.1,35.4,74.3,35.5,74.4z M38.3,73.7c0.6,0.2,1.3,0.5,1.9,0.7c1.6,0.5,3.2,0.9,4.8,1.1c0.1,0,0.3,0,0.4-0.1
			c1,1.1,2.1,2.2,3.1,3.3c1.1,1.2,2.2,2.3,3.3,3.5C47.2,79.7,42.6,76.8,38.3,73.7z M36,59.7c0.4,0.9,0.7,1.7,1.1,2.6
			c-7-2-13.4-5.7-19.5-9.8c-1.1-0.8-2.3-1.5-3.4-2.3c1.9,0.9,3.8,1.8,5.6,2.6c3.3,1.6,6.6,3.2,10,4.6C31.8,58.3,33.9,59.1,36,59.7z
			 M31.2,61.3c2,0.8,4,1.5,6,2.1c0.1,0,0.3,0,0.4,0c0.3,0.7,0.6,1.4,1,2.1c-3.8-0.5-7.6-1.8-10.9-3.9c-3.5-2.2-6.6-5-9.8-7.6
			c-0.3-0.3-0.6-0.5-1-0.8C21.4,56.3,26.1,59.2,31.2,61.3z M37.2,60.1c2.1,0.6,4.2,1,6.4,1.1c4.3,5,7.3,11,8.7,17.5
			c0.2,1.1,0.4,2.1,0.5,3.2c-2.3-2.4-4.7-4.8-6.9-7.3c-1.3-1.4-2.6-2.9-3.7-4.4c-1-1.5-1.9-3.1-2.7-4.8C38.7,63.6,38,61.9,37.2,60.1
			z M58.9,62.7c2.5,6.8,2.3,14.5-0.4,21.2c-0.4,0.9-0.8,1.9-1.3,2.8c0.3-3.2,0-6.4-1.1-9.4c0-0.1-0.1-0.1-0.1-0.2c0,0,0-0.1,0-0.1
			c0-0.2,0-0.4,0-0.5c0-0.3-0.1-0.4-0.3-0.5c-0.3-1.1-0.7-2.2-1.2-3.2c-0.1-0.2-0.3-0.3-0.5-0.2c-1.2-3.9-3.1-7.6-5.5-10.8
			c3.5,0.7,7,0.9,10.5,0.7C58.9,62.4,58.8,62.6,58.9,62.7z M52.7,95.2C52.7,95.3,52.7,95.3,52.7,95.2C52.7,95.3,52.7,95.3,52.7,95.2
			C52.7,95.2,52.7,95.2,52.7,95.2z M58.4,100.5c0,0.1,0,0.2,0,0.3C58.3,100.7,58.3,100.6,58.4,100.5
			C58.3,100.5,58.3,100.5,58.4,100.5z M54.4,93.3c0,0-0.1-0.1-0.1-0.1c0.1,0,0.1,0,0.1,0C54.5,93.2,54.5,93.2,54.4,93.3
			C54.4,93.2,54.4,93.3,54.4,93.3C54.4,93.3,54.4,93.3,54.4,93.3z M56.6,92.7C56.6,92.7,56.6,92.6,56.6,92.7
			C56.6,92.6,56.7,92.7,56.6,92.7C56.7,92.7,56.6,92.7,56.6,92.7z M57.5,103.3c0,0.2,0,0.4,0,0.6C57.5,103.6,57.4,103.5,57.5,103.3
			C57.4,103.3,57.5,103.3,57.5,103.3z M62.2,102.5c0,0.1,0,0.2,0,0.3c-0.1,0.1-0.2,0.1-0.2,0.3c-0.1,0.2-0.2,0.4-0.2,0.6
			c0,0-0.1,0-0.1,0C61.9,103.2,62.1,102.9,62.2,102.5z M46.7,61.2c3.5,4.2,5.9,9.2,7,14.5c0.1,1.5,0.1,3.1,0,4.6
			c-0.9-5.4-2.9-10.6-5.9-15.3c-0.9-1.3-1.8-2.6-2.8-3.8C45.6,61.3,46.2,61.2,46.7,61.2z M51.5,93.6c0,0.1,0.1,0.1,0.2,0.2
			c0,0,0,0,0,0C51.6,93.8,51.5,93.7,51.5,93.6C51.4,93.7,51.5,93.6,51.5,93.6z M53.8,97.9c-2.1,4.2-3.5,8.7-4.3,13.3
			c-0.2-1.8-0.5-3.7-0.8-5.5c-0.2-1.4-0.5-2.7-0.8-4.1C49.8,100.5,51.8,99.2,53.8,97.9z M61.6,109.9c0,0.1,0,0.2,0.1,0.3
			C61.7,110.1,61.6,110,61.6,109.9C61.6,109.9,61.6,109.9,61.6,109.9z M70.5,122.7c0.1-0.1,0.1-0.3,0-0.5c-3.4-5-5.8-10.7-6.8-16.6
			c-0.3-1.7-0.5-3.4-0.6-5.1c0-0.5-0.7-0.8-1-0.3c-0.5,1-1,2.1-1.4,3.1c-0.4-3.5-0.9-6.9-1.3-10.4c0.8,0.2,1.7,0.4,2.5,0.6
			c3.3,4.3,6.6,8.8,8.6,13.9c1.1,2.7,1.9,5.5,2.9,8.2c0.9,2.6,2,5.1,3.3,7.5c1.4,2.7,3.1,5.3,4.9,7.8c0.1,0.1,0.2,0.2,0.3,0.2
			c0,0.1,0,0.1,0,0.2C77.7,129,73.9,126.1,70.5,122.7z M71.3,94.4c5.5,8.4,7.9,18.2,9.4,28c0.3,2.2,0.6,4.5,0.9,6.7
			c-2.9-4.1-5.3-8.5-7.1-13.2c-1-2.7-1.8-5.5-2.8-8.2c-1-2.6-2.3-5.1-3.8-7.5c-1.4-2.2-3-4.3-4.6-6.4C66,94.2,68.7,94.4,71.3,94.4z
			 M74.9,84.2c-2.5,3.2-6.1,5-9.9,6c-2.1,0.6-4.2,0.9-6.3,1.3c2.8-1.5,5.8-2.7,8.6-4.4c3.1-1.9,6.3-4.6,7.3-8.3
			c0.4-1.4,0.4-2.8-0.1-4.1c0-0.1,0-0.1,0-0.2c-0.3-1.1-0.7-2.3-1-3.4c1.8,0.4,3.3,1.4,4.6,2.6c0,0,0,0.1,0,0.1
			C78.3,77.4,77.2,81.2,74.9,84.2z M73.3,74.6c0.5,1.2,0.5,2.6,0.2,3.9C73,80.2,72,81.7,70.8,83c-2.6,2.7-6.1,4.3-9.4,5.9
			c-1.2,0.6-2.5,1.2-3.7,1.9c5.1-4.5,8.5-10.7,9.7-17.3c0.3-1.6,0.4-3.1,0.4-4.7C69.6,70.7,71.5,72.7,73.3,74.6z M66.7,67.6
			c0.2,7-2.2,14-6.7,19.3c-1.1,1.3-2.3,2.4-3.5,3.5c0.1-0.3,0.2-0.7,0.2-1c4-6.1,5.6-13.6,4.7-20.8c-0.3-2.1-0.8-4.2-1.5-6.1
			c0-0.1-0.1-0.1-0.1-0.2c0.3,0,0.5,0,0.8-0.1c0,0,0.1,0.1,0.1,0.1c0.2,0.1,0.4,0,0.5-0.1c0.1,0,0.2,0,0.3,0c0,0,0.1,0.1,0.1,0.1
			c0.3,0.3,0.5,0.6,0.8,0.8c0.5,0.6,1,1.1,1.5,1.7C64.9,65.7,65.8,66.6,66.7,67.6z M61.8,60.9c-0.3-0.2-0.8-0.4-1.2-0.2c0,0,0,0,0,0
			c-0.4-0.1-0.6,0.2-0.6,0.5c-1.4,0.1-2.9,0.2-4.3,0.2c-2,0-4-0.2-6-0.5c0.2,0,0.5-0.1,0.7-0.1c1.7-0.4,3.4-1.1,4.6-2.3
			c0.6-0.7,1.1-1.5,1.4-2.3c0.3,0.3,0.9-0.1,0.8-0.6c-0.1-0.5-0.2-1.1-0.2-1.6c6,2.3,12.5,3.2,18.9,2.7c-4.3,2.2-9,3.7-13.8,4.4
			C62.1,60.9,61.9,60.9,61.8,60.9z M55.6,54.5c0.2,3-3.1,4.7-5.7,5.2c-0.9,0.2-1.8,0.3-2.8,0.4c0,0,0,0,0,0
			c-0.3-0.3-0.6-0.2-0.8,0.1c-2.2,0.1-4.4-0.1-6.5-0.5c-6.7-1.3-12.8-4.5-18.9-7.4c-1.5-0.7-3-1.4-4.6-2.1c4.5,1.7,9.1,3.3,13.9,4.3
			c3.1,0.7,6.2,1.1,9.4,1.1c2.9,0.1,6-0.1,8.8-0.9c2.2-0.6,4.3-2.2,5-4.4C54.2,51.7,54.9,53.1,55.6,54.5z M52.6,48.7
			c0.1,2.6-2.3,4.3-4.6,5c-2.7,0.8-5.7,0.9-8.6,0.8c-5.9-0.1-11.7-1.6-17.3-3.4c-0.2,0-0.3-0.1-0.5-0.2c3.2,0.7,6.5,1.1,9.8,0.9
			c2.5-0.2,5-0.8,7.4-1.5c2.3-0.6,4.6-1.3,6.7-2.5c1.7-1,3.1-2.3,4.1-3.9c0.9,1.4,1.7,2.9,2.5,4.3C52.4,48.4,52.5,48.5,52.6,48.7z
			 M21.7,58.6c3.2,2.6,6.5,4.9,10.4,6.4c2.1,0.8,4.3,1.3,6.6,1.6c0.1,0,0.2,0,0.3-0.1c0.6,1.2,1.2,2.3,1.9,3.4
			c1,1.6,2.2,3.1,3.5,4.5c-3.6-0.7-7-1.9-10.2-3.6c-3.3-2.5-6.5-5.2-9.6-8c0-0.3-0.2-0.5-0.5-0.5c0,0,0,0,0,0
			c-1.9-1.8-3.8-3.6-5.6-5.5c-1-1-1.9-2-2.9-3.1C17.7,55.3,19.7,56.9,21.7,58.6z M18.8,58.5C18.8,58.6,18.8,58.6,18.8,58.5
			c1.6,1.6,3.2,3.2,4.9,4.7c0.1,1.5-0.4,3-1.3,4.2c-0.4-2.1-1.5-4-3.2-5.3c-2-1.6-4.8-2.2-7.3-1.6c0,0,0,0,0.1-0.1
			C13.7,58.4,16.4,57.7,18.8,58.5z M26,67.1C26,67.1,26,67.1,26,67.1c0,0,0.1,0.1,0.1,0.1c0,0,0.1,0.1,0.1,0.1c0,0,0,0.1,0.1,0.1
			c-0.1,0-0.2,0-0.3,0C25.9,67.2,25.9,67.2,26,67.1z M34.2,72C34.2,72.1,34.2,72.1,34.2,72c-0.1,0-0.1-0.1-0.2-0.1
			C34.1,72,34.1,72,34.2,72z M41.5,78c0.1,0.1,0.2,0.2,0.3,0.2C41.7,78.2,41.6,78.2,41.5,78C41.5,78.1,41.5,78.1,41.5,78z
			 M53.1,84.1C53.1,84.1,53.1,84.1,53.1,84.1c-0.1,0-0.3-0.1-0.4-0.2C52.8,83.9,53,84,53.1,84.1z M48.5,96.9
			c-0.4,0.7-0.9,1.5-1.4,2.2c-0.9-3.2-2.2-6.2-4-9c-2.7-4.2-6.7-7.5-11.2-9.6c-1.4-0.6-2.8-1.2-4.3-1.6c6.5,0.6,12.9,2.7,18.5,6.1
			c2.2,1.3,4.2,2.9,6,4.6C51.1,92.2,49.9,94.6,48.5,96.9z M41.5,89.7c2.3,3.2,3.8,6.8,4.8,10.5c-0.5,0.6-0.9,1.2-1.4,1.8
			c-0.4,0.4,0.1,1.1,0.6,0.8c0.4-0.2,0.9-0.4,1.3-0.7c0.2,0.8,0.4,1.7,0.5,2.5c0.7,3.5,1.1,7.1,1.5,10.7c0,0,0,0.1,0,0.1
			c0,0.1,0,0.2,0.1,0.3c0.2,2.1,0.4,4.2,0.7,6.3c0.8,6.9,1.5,13.8,2.3,20.7c-1.1,4.7-3.5,8.9-6.9,12.3c3.1-12,2.7-24.6,1.3-36.8
			c-0.7-6.2-1.3-12.5-3.2-18.5c-1.7-5.3-4.6-10.3-8.8-14.1c-3.8-3.4-8.4-5.7-13.4-6.7C28.9,79.2,36.8,83.2,41.5,89.7z M53.6,145
			c-0.1-1.1-0.3-2.2-0.4-3.3c0-0.2-0.2-0.4-0.4-0.5c-0.6-5.8-1.3-11.7-1.9-17.5c-0.3-2.8-0.6-5.6-0.9-8.4c0.4-5,1.6-9.9,3.6-14.4
			c-2.3,8.2-2.3,17-0.2,25.3c0.7,2.6,1.6,5.1,2.7,7.6c0.1,0.2,0.3,0.3,0.4,0.3C55.5,137.7,54.5,141.4,53.6,145z M59.4,128.4
			c0.3-0.1,0.5-0.4,0.4-0.8c-3.7-7.3-5.4-15.4-5.1-23.6c0.1-1.7,0.2-3.4,0.5-5c0.1-0.3,0.2-0.6,0.3-1c0.1-0.2,0-0.3-0.1-0.4
			c0-0.1,0-0.3,0.1-0.4c0-0.1,0-0.2,0-0.3c0-0.1,0.1-0.1,0.1-0.2c0.8,7.7,2.3,15.3,4.8,22.7c0.2,0.6,1.1,0.4,1-0.3
			c-0.1-0.8-0.2-1.6-0.3-2.3c1.4,6.6,2.3,13.5,0,20c-0.4,1.1-0.9,2.2-1.5,3.2C60.1,136.2,60,132.3,59.4,128.4z M58.9,142.7
			c5.1-6.5,5.1-15.2,3.7-23c-0.5-2.6-1.1-5.1-1.7-7.6c0,0,0-0.1,0-0.1c0-0.2,0-0.4,0-0.6c1.5,4.1,4.2,7.8,7.6,10.6
			c0,0.1,0.1,0.2,0.1,0.3c0,0,0,0,0,0c-0.2,0.1-0.3,0.2-0.3,0.4c0,0.4,0,0.8,0.1,1.2c-0.3,0-0.6,0.1-0.6,0.5c0,0.2,0,0.4-0.1,0.6
			c0,0,0,0.1-0.1,0.1c-0.3,1.4-0.6,2.8-0.9,4.2c-0.1-2.8-0.3-5.5-0.7-8.2c-0.1-0.6-1.1-0.7-1,0c0.6,4.7,0.9,9.4,0.7,14.1
			c-0.5,3.7-0.9,7.3-1,11c-0.4,2.8-1,5.5-1.6,8.2c0.2-1.8,0.2-3.6-0.1-5.5c-0.3-1.9-0.8-3.8-1.7-5.5c0.2-0.3,0.4-0.7,0.6-1
			c0.3-0.5-0.3-1-0.7-0.7c-0.9,0.5-1.8,1-2.6,1.5C58.8,143,58.9,142.9,58.9,142.7z M61,166.1c-0.1-0.1-0.2-0.1-0.3-0.1
			c0.1-0.4,0.3-0.7,0.4-1.1C61.1,165.3,61,165.7,61,166.1z M57.8,169.4C57.9,169.4,57.9,169.4,57.8,169.4c0.5-0.8,0.9-1.6,1.3-2.4
			c-0.3,0.6-0.5,1.3-0.8,1.9c-0.3,0.6-0.5,1.2-0.8,1.8C57.6,170.3,57.7,169.9,57.8,169.4z M60.9,144.6c2.6,6.1,1.4,13.1-1.3,19.1
			c-0.4,0.9-0.8,1.7-1.2,2.5c0.5-3.3,0.5-6.6,0.1-9.9c-0.2-2-0.6-4-1.2-5.9C58.7,148.4,59.8,146.5,60.9,144.6z M57.1,191.4
			C57.1,191.3,57.1,191.3,57.1,191.4c0-0.1,0-0.2,0-0.4c-2-6.3-1.5-13.4,1.2-19.4c0.7-1.6,1.6-3.2,2.7-4.6c0,2,0.1,3.9,0.3,5.9
			c0.2,1.6,0.5,3.1,0.9,4.7C59.9,181.9,58.1,186.5,57.1,191.4z M62.9,159.5c0-0.1,0-0.1,0.1-0.2c0.3-1.1,0.7-2.2,1-3.4
			c0.2-0.5,0.4-1.1,0.6-1.6c0.1-0.2,0-0.3-0.1-0.4c0.1-0.6,0.3-1.1,0.4-1.7c0,2.6,0.2,5.1,0.4,7.7c0.3,3.2,0.7,6.5,1.3,9.7
			c0,0.3,0.2,0.4,0.4,0.4c-1.4,2.1-2.8,4.2-4.1,6.3C61.7,170.7,61.7,165,62.9,159.5z M67.6,169.1c-1.4-7.5-1.9-15.1-1.7-22.7
			c0.6-3.7,0.9-7.4,1-11.2c0-0.1,0-0.2,0-0.3c0.1-0.9,0.3-1.8,0.4-2.6c-0.2,7.6,0.7,15.2,2.5,22.5c0.6,2.2,1.2,4.4,1.9,6.6
			c0,0.1,0,0.2,0,0.2c0.1,0.3,0.2,0.6,0.3,0.8c-0.1,0.2-0.3,0.4-0.4,0.6C70.4,165.1,69,167.1,67.6,169.1z M68.4,133
			c0-2.1,0.1-4.3,0.3-6.4c0.7,6.9,2.4,13.7,5.3,20c1,2.1,2,4.2,3.2,6.2c0.3,0.6,1.2,0.1,0.9-0.5c-4.1-7-6.8-14.8-8-22.8
			c-0.3-2.1-0.5-4.3-0.6-6.4c0.2,0.3,0.5,0.5,0.7,0.8c-0.4-0.1-0.8,0.3-0.6,0.8c3.8,6.1,7.5,12.3,11.3,18.4c0.2,0.3,0.6,0.3,0.8,0.1
			c-1.6,6.6-5.2,12.8-8.9,18.3C69.8,152.3,68.3,142.7,68.4,133z M82,142.6c0,0,0-0.1-0.1-0.1c-3.7-6.1-7.4-12.1-11.2-18.2
			c3.4,3.3,7.3,6.1,11.6,8.3C82.9,136,82.7,139.4,82,142.6z M81.5,103.6c1.6,3.3,3.1,6.7,4.7,10c0.3,0.6,0.6,1.2,1,1.7
			c-0.1,0.4,0.3,0.6,0.6,0.6c0,0,0,0,0.1,0.1c0.7,0.5,1.7,0.7,2.5,0.5c2.1-0.5,3.1-2.4,4.2-4.1c0.7-1.2,1.6-2.1,2.7-2.8
			c-0.7,0.7-1.3,1.6-1.8,2.5c-0.3,0.6-0.7,1.2-1,1.8c-0.5,0.6-1,1.2-1.4,1.9c-1.7,2.3-3.2,4.8-4.2,7.5c-0.2-1.7-0.7-3.5-1.3-5.1
			c-0.2-0.5-0.9-0.5-1,0c-0.9,3.4-1.7,6.8-2.6,10.2C84.3,119.9,83.4,111.7,81.5,103.6z M113.7,132.9c-0.5-4.6-2.2-9-4.7-12.8
			c3.4,2.8,7.7,4.5,12.1,4.6c-2.2,1.8-4.3,3.9-6,6.2C114.5,131.6,114.1,132.3,113.7,132.9z M121.8,124.1c0-0.2-0.2-0.5-0.5-0.5
			c-5.2,0-10.2-2.4-13.6-6.3c0,0,0.1-0.1,0.1-0.1c0,0,0-0.1,0-0.1c1.4,0.6,2.8,1.2,4.3,1.6c6,1.7,12.3,1.3,18.3,0.2
			c0.5-0.1,1.1-0.2,1.6-0.3C128.3,119.9,124.8,121.8,121.8,124.1z M141,116.4C141,116.4,141,116.4,141,116.4c-0.1,0-0.2,0.1-0.2,0.1
			C140.9,116.4,140.9,116.4,141,116.4z M106.3,115.3c-0.4-0.2-0.8-0.5-1.2-0.8c-0.4-0.5-0.7-0.9-1.1-1.4c3.5,1.5,7.4,1.9,11.1,2.2
			c7.4,0.5,14.7,0.7,22.1,0.5c0.7,0,1.4,0,2-0.1C128.5,118.6,116.6,121.1,106.3,115.3z M101.8,104.8c0,0.1,0,0.1-0.1,0.2
			c0-0.1,0-0.1,0-0.2C101.8,104.8,101.8,104.8,101.8,104.8z M83.2,95c-1.3,0-2.7,0.2-4,0.5c-0.2-0.7-0.5-1.4-0.7-2
			c1.3-0.4,2.4-1.1,3.4-2c1.3-1.2,2.2-2.9,2.4-4.7c0-0.7-1-0.7-1,0c-0.2,2.9-2.6,4.9-5.1,5.8c0-0.1,0-0.1-0.1-0.2
			c-0.2-0.6-1.2-0.3-1,0.3c0,0.1,0,0.1,0.1,0.2c0,0-0.1,0-0.1,0c-1.7,0.4-3.5,0.5-5.3,0.6c-1.9,0-3.8-0.1-5.7-0.3
			c-1.1-0.1-2.2-0.3-3.3-0.5c2.6-0.2,5.2-0.7,7.7-1.4c3.8-1.1,7.7-2.8,10.1-6.1c0.9-1.3,1.5-2.8,1.8-4.3c0.2,0.5,0.4,0.9,0.6,1.4
			c0.8,1.9,1.5,3.9,2.3,5.8c0.9,2.2,1.8,4.5,2.7,6.7c0.2,0.5,1,0.5,1-0.1c0.5-6.7,0.9-14.1-3.2-19.8c-0.8-1.1-1.8-2.2-2.9-3.1
			c0.7-0.2,1.4-0.5,2.2-0.7c1.1,0.5,2.4,0.6,3.6,0.4c1.9-0.3,3.6-1.3,5-2.5c3-2.6,5-6.6,8.6-8.6c1.8-1,4-1.3,5.9-0.3
			c-4.5,4.2-8.1,9.3-10.6,14.9c-3.1,7-4.8,15.3-2.4,22.8c0.2,0.5,0.3,1,0.5,1.5C92,96.4,87.6,94.9,83.2,95z M103.5,58.7
			c-1.9,0.5-3.5,1.7-4.9,3c-2.8,2.7-4.8,6.7-8.6,8.2c-1.9,0.8-4.2,0.9-5.9-0.5c-0.1-0.1-0.2-0.1-0.3-0.1c-1.9-1.2-3.9-2.2-5.9-3.2
			c1.2,0.1,2.4-0.1,3.5-0.5c2.4-0.8,4.5-2.3,6.5-3.8c2.1-1.5,4.2-2.8,6.6-3.6c2.3-0.7,4.8-1,7.2-0.8c1.5,0.1,3,0.4,4.5,0.9
			C105.3,58.4,104.4,58.4,103.5,58.7z M79.5,68.1c1.4,0.7,2.7,1.5,4,2.3c-0.7,0.2-1.3,0.4-2,0.7c-0.4,0.1-0.5,0.7-0.1,0.9
			c2.5,1.8,4.3,4.3,5.3,7.2c1.1,3,1.4,6.3,1.4,9.5c0,1.2-0.1,2.4-0.1,3.6c-1.4-3.5-2.7-6.9-4.1-10.4c-1.4-3.5-2.9-7.2-5.9-9.7
			c-1.5-1.3-3.3-2.1-5.3-2.3c-0.3,0-0.6,0.4-0.5,0.7c0.2,0.7,0.4,1.4,0.6,2.1c-1.7-1.8-3.4-3.6-5-5.4c0-0.2-0.2-0.4-0.4-0.4
			c-0.4-0.4-0.8-0.9-1.2-1.3c-0.7-0.7-1.3-1.4-2-2.1c-0.3-0.4-0.7-0.7-1-1.1C68.8,63.4,74.3,65.4,79.5,68.1z M65.7,61.7
			c-0.1,0-0.2,0-0.3,0c-0.2,0-0.3-0.1-0.5-0.1c3.7-0.7,7.2-1.9,10.6-3.6c1.1-0.5,2.1-1.1,3.1-1.7c0.5-0.1,1-0.1,1.5-0.2
			c-1.3,0.7-2.6,1.4-3.9,2.3C73.1,60.4,69.5,62.8,65.7,61.7z M83.7,53.7C83.7,53.7,83.7,53.7,83.7,53.7c0.1,0,0.1,0,0.2,0
			C83.8,53.7,83.8,53.7,83.7,53.7z M61.1,42.8c-0.3,0.4,0.1,0.8,0.5,0.7c3.4,4.3,8.3,7.4,13.6,8.6c1.6,0.4,3.1,0.6,4.7,0.6
			c0.1,0,0.2,0,0.2,0c0.2,0.1,0.4,0.2,0.6,0.4c0.2,0.1,0.4,0.1,0.5,0c0,0,0,0,0.1,0c-0.1,0.1-0.3,0.2-0.4,0.3
			c-6.8,1.3-14.1,0.1-20.2-3.2c-1.7-0.9-3.3-2-4.7-3.2c0.6,0,1.2,0,1.8,0.1c0.4,0,0.7-0.5,0.4-0.8c-1.8-2.4-3.6-4.9-5.5-7.3
			c2.3,1.5,5.2,1.7,7.9,1.5c1.3-0.1,2.5-0.3,3.8-0.4C63.2,40.7,62,41.6,61.1,42.8z M62.9,43.5c1.3,0.1,2.7,0.1,4,0.2
			c0.8,0,1.7,0.1,2.5,0.1c0.7,0,1.8-0.1,2.4,0.3c0.6,0.3,0.9,1.1,1.2,1.6c0.4,0.6,0.8,1.2,1.2,1.8c0.8,1.1,1.7,2.1,2.7,3
			c0.5,0.4,1,0.9,1.6,1.3C72.5,51.1,66.8,48.1,62.9,43.5z M40,26.3c0.1,0,0.1,0,0.2,0C40.1,26.3,40.1,26.3,40,26.3
			C40.1,26.3,40,26.3,40,26.3z M17.5,57.2c-2.1-0.2-4.2,0.5-5.7,1.9c0.4-3.4-0.2-7-1.5-10.2C12.6,51.8,15,54.5,17.5,57.2z
			 M11.8,61.5c2.3-0.6,4.9-0.1,6.8,1.4c1.6,1.3,2.6,3.2,2.8,5.2c-1.6-0.9-3.2-1.9-4.7-3c-1.7-1.1-3.4-2.3-5.1-3.6
			C11.7,61.6,11.8,61.5,11.8,61.5z M29.5,69c0.7,0.5,1.5,1,2.2,1.5c0.1,0.1,0.3,0.3,0.4,0.5c0.6,0.6,1,1.4,1.3,2.2
			c0.2,0.5,0.5,1,0.8,1.4c-3.8-1.6-7.6-3.4-11.2-5.5C25.2,68.1,27.5,68.1,29.5,69z M26.4,75.7c0-0.2-0.1-0.3-0.4-0.4
			c-7.4-1.2-14.4-4.6-19.9-9.6c-1.2-1.1-2.3-2.2-3.4-3.4c3.6,2.7,7.6,4.9,11.6,6.9c2.3,1.1,4.7,2.2,7,3.3c2.4,1.1,4.9,2.2,7.4,3.1
			c0.1,0,0.2,0.1,0.4,0.1C28.3,75.7,27.4,75.7,26.4,75.7z M45.6,80.9c0,0,0.1,0.1,0.1,0.1c0.8,0.4,1.6,0.8,2.4,1.2
			c1.8,1,3.6,2.2,5.3,3.5c-0.3,1-0.6,2-1,3c-7.2-6.5-16.7-10.3-26.4-10.8c-2.2-0.1-4.4,0-6.5,0.2c-0.3,0-0.7,0-1,0.1
			c0.1-0.2,0.1-0.4,0-0.5C27.6,75.7,37.2,77,45.6,80.9z M40.5,143.4c-0.3-3.9-1-8.3-4-11.1c-0.7-0.7-1.5-1.2-2.4-1.6
			c2.8-1.5,6-2.2,9.2-2.1c-0.2,2.4-0.4,4.7-0.8,7c-0.5,3.5-1.1,6.9-1.9,10.3C40.6,145.1,40.6,144.2,40.5,143.4z M43.1,124.2
			c0.1,0,0.2-0.1,0.3-0.1c0,1.2-0.1,2.3-0.1,3.5c-3.4-0.2-6.7,0.6-9.7,2.2C35.8,126.7,39.3,124.5,43.1,124.2z M43.4,123.3
			c-0.1-0.1-0.2-0.1-0.3-0.1c-2.8,0.2-5.5,1.4-7.7,3.1c1.4-3.7,4.2-6.7,7.8-8.3C43.4,119.8,43.4,121.5,43.4,123.3z M43.1,116.3
			c0,0.2,0,0.5,0.1,0.7c-2,0.8-3.9,2.1-5.4,3.7c0,0,0-0.1,0-0.1c-0.2-3.2,1.9-6.4,4.9-7.5C42.9,114.1,43,115.2,43.1,116.3z
			 M37.1,121c0.1,0,0.2,0.1,0.4,0c-0.2,0.2-0.4,0.5-0.6,0.7C36.9,121.5,37,121.2,37.1,121z M28.2,169.2c1.6-2.7,4.2-4.6,6.8-6.2
			c2.9-1.7,5.9-3.2,8.6-5.3c2.3-1.8,4.3-4.1,5.9-6.6c1.3-2,2.3-4.3,3-6.6c0.1,1.1,0.3,2.1,0.4,3.2c0.1,0.5,0.9,0.8,1,0.1
			c1.5-6.1,3.1-12.1,4.6-18.2c0.6,4.2,0.4,8.4-0.6,12.5c0,0.1-0.1,0.1-0.1,0.2c-0.2,0.2-0.2,0.4-0.1,0.6c-0.1,0.4-0.2,0.8-0.3,1.2
			c-0.1,0.4,0.4,0.8,0.8,0.6c0.7-0.4,1.4-0.8,2.1-1.2c-1.2,2.1-2.4,4.1-3.7,6.1c-0.1,0.1-0.2,0.2-0.2,0.4c-2.2,3.3-4.6,6.4-7.6,9
			c-2.5,2.2-5.4,3.7-8.5,5c-0.3-0.3-0.9-0.1-0.9,0.4c-3,1.2-6.1,2.3-8.6,4.4c-0.7,0.6-1.4,1.3-2,2.1c-0.2-0.3-0.7-0.4-0.9-0.1
			c-0.2,0.3-0.5,0.7-0.7,1C27.3,170.9,27.7,170,28.2,169.2z M48.2,160.9c2.8,8.2,1.1,17.4-4.5,24.1c-1.4,1.7-3.1,3.2-4.9,4.5
			c-0.1,0-0.1,0.1-0.1,0.1c-0.4,0.2-0.7,0.4-1,0.6c0.9-1,1.8-2,2.6-3.1c3.5-4.4,6.3-9.5,6.8-15.3c0.3-3-0.2-6.1-1.7-8.8
			c-0.1-0.1-0.1-0.2-0.2-0.2c1-0.6,2-1.3,3-2C48.2,160.8,48.2,160.8,48.2,160.9z M44.6,163.5c2.5,4.9,1.7,10.6-0.4,15.5
			c-1.3,2.9-3.1,5.6-5.1,8c2.5-4.2,3.3-9.1,3-13.9c-0.2-2.7-0.7-5.5-1.4-8.1c1.4-0.5,2.7-1.2,3.9-1.9
			C44.5,163.2,44.5,163.3,44.6,163.5z M39.6,165.4c1.3,4.7,1.9,9.6,1,14.4c-0.5,2.5-1.4,4.9-2.7,7c-1.2,2-2.8,3.8-4.5,5.5
			c-1.4,1.4-3,2.8-4.5,4c0-0.1,0.1-0.2,0.1-0.4c1.3-2.8,3.3-5.3,5-7.7c1.4-2.1,2.7-4.2,3.3-6.6c0.6-2.3,0.9-4.7,0.6-7
			c-0.3-2.7-1.1-5.2-2.4-7.6C36.9,166.4,38.3,165.9,39.6,165.4z M34.7,167.4C34.7,167.4,34.7,167.4,34.7,167.4
			c2.4,4.1,3,9.1,1.7,13.7c-0.5,1.9-1.4,3.6-2.5,5.2c1.4-3.7,1.5-7.9,0-11.7c-0.6-1.7-1.6-3.3-2.7-4.7c-0.1-0.1-0.2-0.1-0.2-0.2
			c0.1-0.1,0.2-0.2,0.3-0.3C32.4,168.7,33.6,168,34.7,167.4z M27.3,173.5c-0.2,0.5-0.3,0.9-0.4,1.4c0-0.2,0-0.5,0-0.7
			C27,174,27.2,173.7,27.3,173.5z M27.8,176.8c-0.1-2.4,1-4.7,2.7-6.4c0,0.1,0,0.2,0.1,0.3c3.8,4.7,4.5,11.2,1.9,16.6
			c-0.6,1.3-1.4,2.5-2.4,3.6c0-0.1,0-0.2,0-0.3c0-0.1,0-0.1,0-0.2c0.3-1.1,0.5-2.1,0.6-3.2c0.2-1.8,0-3.7-0.5-5.5
			C29.7,179.9,28.9,178.3,27.8,176.8z M62.9,178.5c0.3,0,0.7-0.2,0.5-0.6c0-0.1,0-0.1-0.1-0.2c2.8-5,6.2-9.6,9.5-14.3
			c0.3,0.1,0.7-0.2,0.6-0.6c0,0,0-0.1,0-0.1c2.9-4.2,5.5-8.4,7.5-13.1c2.1-5,3.3-10.4,2.7-15.7c0,0,0.1-0.1,0.1-0.2
			c0.7-2.9,1.5-5.8,2.2-8.7c0,0.5,0,1.1,0,1.6c0,0.4,0,0.7,0,1.1c-0.1,9.3-1.8,18.6-5.1,27.4c-2,5.3-4.5,10.3-7.6,15.1
			c-2.9,4.5-6.4,8.6-9.6,12.9c-2.3,3.1-4.4,6.3-5.8,9.8C58.7,187.9,60.4,183,62.9,178.5z M87.7,178.6
			C87.7,178.6,87.7,178.7,87.7,178.6c0,0.2,0,0.3,0.1,0.4c-0.2-0.5-0.3-1-0.4-1.5C87.4,178,87.5,178.3,87.7,178.6z M89.3,171.2
			c1.2-5.4,3.7-10.2,6.4-15c2.8-4.9,5.7-9.7,7.4-15c1.7-5,2.2-10.3,1.6-15.5c-0.5-4.7-1.8-9.3-4-13.4c0.4,0.4,0.8,0.8,1.3,1.2
			c3.5,6.3,5.8,13.3,6.6,20.5c0.2,1.5,0.3,3.1,0.3,4.6c-0.1,0.1-0.2,0.3-0.2,0.5c0.1,0.3,0.1,0.7,0.2,1c0,0.2,0,0.5,0,0.7
			c0,0.1,0,0.3,0.1,0.3c0,0.3,0,0.5,0,0.8c-0.5-0.2-1-0.5-1.5-0.7c-0.6-0.2-0.9,0.6-0.4,0.9c0.6,0.4,1.2,0.8,1.9,1.2
			c-0.4,5.3-3.7,10.2-7.1,14.1c-4.4,5.2-9.7,9.9-11.9,16.5c-0.9,2.6-1.3,5.5-0.8,8.2C88.4,178.8,88.5,174.9,89.3,171.2z M92.4,175.8
			c1-2.8,2.6-5.5,4.6-7.6c2.4-2.5,5.4-4.2,8.3-6c2.8-1.8,5.6-3.8,7.2-6.8c1.3-2.5,2-5.6,0.9-8.2c0.6,0.8,1,1.6,1.4,2.5
			c1.1,3.4-0.6,7-2.9,9.5c-0.8,0.8-1.6,1.6-2.5,2.3c-4,1.7-7.5,4.6-10,8.2c-3,4.4-4.3,9.8-3.8,15.1c0.3,2.7,1,5.3,2.2,7.7
			c1.2,2.5,2.9,4.7,4.7,6.8c3.6,4.3,7.8,8.1,10.6,13c1,1.8,1.9,3.8,2.3,5.9c0.2,2,0.2,4,0.1,6c-0.1,0.4-0.2,0.9-0.3,1.3
			c0.7-6.5-3.2-12.6-7.6-17.1c-4.8-4.9-10.8-9-14.1-15.3C90.6,187.9,90.4,181.5,92.4,175.8z M99.5,173.3c-1.5,3.6-1.4,7.7-0.4,11.5
			c1.3,4.7,3.9,8.8,6.7,12.8c2.8,4,5.9,8,7.7,12.6c0.3,0.8,0.6,1.5,0.8,2.3c-2.1-3.9-5.3-7.2-8.3-10.5c-3.7-4.1-7.4-8.4-8.8-13.9
			c-1.4-5.2-0.8-10.9,1.8-15.7c1.3-2.5,3.1-4.7,5.3-6.5c-0.1,0.1-0.3,0.2-0.4,0.4C101.9,168.2,100.1,170.6,99.5,173.3z M116.5,224.2
			c0.4-2,0.3-4.1-0.1-6.1c-0.2-1.9-0.5-3.8-1.1-5.7c-1.4-4.8-4.1-9-6.9-13c-2.8-4-5.8-7.9-7.5-12.5c-1.2-3.1-1.8-6.6-1.4-9.9
			c0.4,1.8,1.5,3.5,3.1,4.5c0,0,0,0.1,0.1,0.1c5.1,7.2,10.4,14.5,13.6,22.8c1.6,4.1,2.6,8.3,2.9,12.7c0.2,4.1-0.3,8.3-1.5,12.3
			c-0.8,2.7-1.9,5.3-3.3,7.8c0-0.3,0.1-0.5,0.1-0.8C115.5,232.4,116.3,228.3,116.5,224.2z M146.1,150.9c-0.6-0.1-0.9,0.6-0.4,0.9
			c1,0.6,1.9,1.1,2.9,1.6c0,0,0,0-0.1,0.1c-4.4,4.5-9.5,8.1-15.1,10.9c0.9-0.7,1.7-1.4,2.5-2.2c1.7-1.7,3-3.6,4.1-5.7
			c1.2-2.1,2.3-4.4,4-6.1c1.7-1.8,4.2-3.3,6.8-2.9c0.6,0.1,0.9-0.9,0.3-1c-2.3-0.4-4.5,0.4-6.3,1.8c-2,1.5-3.3,3.5-4.5,5.6
			c-1.2,2.1-2.3,4.3-3.9,6.2c-1.4,1.7-3.2,3.2-5.1,4.4c-2,1.2-4.2,2.1-6.5,2.7c2.2-1.5,4.2-3.3,5.9-5.3c2.2-2.7,3.9-5.6,5.4-8.7
			c1.6-3.2,3.2-6.6,5.7-9.3c2.2-2.4,5.1-4.2,8.4-4.4c0.3,2.5,0.8,4.9,1.6,7.3c0.5,1.8,1.2,3.6,2,5.3
			C151.2,151.7,148.7,151.3,146.1,150.9z M119.8,171c3.8-0.1,7.6-0.7,11.3-1.7c5.4-1.5,10.6-3.9,15.3-7.1c2.6-1.8,5.1-3.8,7.3-6.1
			c0.1-0.1,0.2-0.2,0.1-0.4c1.4,0.5,2.8,0.9,4.2,1.3c0,0,0,0,0,0c-4.5,3.9-9.7,7.1-15.2,9.4c-5.5,2.3-11.4,3.8-17.3,4.3
			C123.5,171,121.6,171,119.8,171z M139.5,165c-5,2.4-10.4,4-15.8,4.7c-1,0.1-1.9,0.2-2.9,0.2c0.4-0.1,0.8-0.1,1.2-0.2
			c0.8-0.1,1.9-0.2,2.5-0.8c6.5-1.8,12.7-4.9,18.2-8.9c2.4-1.8,4.6-3.7,6.7-5.8c0.1-0.1,0.2-0.2,0.1-0.4c1.1,0.5,2.3,1,3.4,1.5
			C149,159.4,144.5,162.6,139.5,165z M150.9,132.8C150.9,132.8,150.9,132.8,150.9,132.8c0.2,2,0.6,4,1.1,5.9
			c-0.1-0.1-0.2-0.2-0.4-0.2c-0.2,0-0.3,0-0.5,0C151,136.6,150.9,134.7,150.9,132.8z M149.6,133.4c0,0.1,0,0.2,0.1,0.2
			c-2.5-0.2-5,0.5-7.1,1.9c-2.4,1.6-4.2,3.9-5.6,6.3c-1.6,2.7-2.7,5.6-4,8.4c-1.3,2.7-2.7,5.3-4.7,7.5c-1.6,1.9-3.5,3.6-5.5,5
			c-0.1,0-0.2,0-0.3,0.1c-0.7,0.3-1.4,0.6-2.1,0.9c4.5-3.5,8.2-8,10.7-13.1c1.9-3.8,2.9-7.9,4.2-12c1.3-4,3.1-7.7,6.2-10.6
			c2.6-2.4,5.8-4.2,9.2-5.1C149.1,126.3,149.3,129.9,149.6,133.4z M121.8,164.7c4.7-2.8,8.5-6.9,11-11.8c2.7-5.2,4.3-11.3,8.8-15.4
			c2.2-2,5.3-3.3,8.3-2.9c0,1.3,0.1,2.5,0.2,3.8c-2.7,0.1-5.3,1.4-7.4,3.2c-2.7,2.3-4.6,5.4-6.2,8.5c-1.6,3.2-3.1,6.4-5.1,9.3
			c-1.9,2.6-4.2,5-6.9,6.8c-1.7,1.1-3.5,2-5.4,2.6c1.4-1,2.5-2.4,2.7-4C121.8,164.8,121.8,164.7,121.8,164.7z M113.3,242.1
			c0.2-0.6,0.3-1.2,0.5-1.8c4-6.4,6.5-13.9,6.4-21.5c-0.1-8.9-3.6-17.4-8-24.9c-2.4-4-5.1-7.9-7.9-11.7c0.1-0.1,0.2-0.2,0.2-0.4
			c0-0.1,0-0.1,0-0.2c4.3,0.9,8.3,3,11.4,6.1c3,3,5.2,6.9,6.4,11c1.3,4.2,1.8,8.6,1.5,13c-0.3,5.2-1.7,10.4-3.5,15.3
			C118.3,232.1,115.8,237.1,113.3,242.1z M124.7,212.8c0.8-8.8-1.3-18.4-7.3-25.1c-3.4-3.8-8-6.3-13-7.3c-0.2-1.4-0.2-2.9,0.2-4.3
			c0.1-0.4,0.2-0.7,0.4-1c8.4,3.3,15.4,10,19.1,18.2c4.7,10.2,3.5,22.1-0.3,32.4c-2,5.5-5,10.7-8.7,15.3
			C119.5,232.2,123.7,222.9,124.7,212.8z M103.7,175.2C103.7,175.1,103.7,175.1,103.7,175.2c0-0.1,0.1-0.3,0.1-0.4c0,0,0,0,0,0
			C103.8,174.9,103.8,175,103.7,175.2z M133.4,170.6c5.9-1.4,11.7-3.6,16.9-6.7c2.9-1.7,5.7-3.7,8.3-6c0.2-0.2,0.2-0.4,0.1-0.5
			c1.1,0.3,2.2,0.5,3.3,0.7c-3.9,5.4-10.2,8.5-16.5,10.3c-3.5,1-7.1,1.8-10.7,2.4c-2.3,0.4-4.5,0.7-6.8,0.8
			C129.8,171.3,131.6,171,133.4,170.6z M151.3,153.7c-0.9-0.4-1.8-0.8-2.7-1.3c2,0.3,3.9,0.6,5.9,0.9c0.5,0.1,0.8-0.3,0.6-0.8
			c-1.9-4.1-3.2-8.5-3.8-13c0.1,0,0.2,0,0.3,0c0.3,0,0.5-0.2,0.5-0.5c0.1,0.2,0.1,0.5,0.2,0.7c0.1,0.4,0.3,0.7,0.4,1.1
			c0,0.1,0,0.2,0.1,0.3c0,0,0,0,0,0c1.8,4.4,4.6,8.4,8.2,11.6c0,0.2,0.1,0.5,0.4,0.6c0.1,0,0.3,0.1,0.4,0.1c0.2,0.2,0.4,0.3,0.6,0.5
			c1.9,1.4,3.9,2.6,6,3.6C162.6,157.4,156.8,156.1,151.3,153.7z M171.3,157.6c-2.6-0.9-5-2.2-7.2-3.8c4.6,0.6,9.3-0.1,13.6-2
			C175.6,153.9,173.5,155.8,171.3,157.6z M178.2,151.3c0-0.1-0.1-0.2-0.1-0.3c0.1,0,0.3,0,0.4,0
			C178.4,151.1,178.3,151.2,178.2,151.3z M177,151c-4.6,2-9.7,2.5-14.6,1.5c-1.6-1.3-3.1-2.9-4.4-4.5c-1-1.3-2-2.7-2.7-4.2
			c4.1,3.9,9.4,6.5,15,7.3c1.9,0.3,3.8,0.3,5.8,0.2c0.2,0,0.3-0.1,0.4-0.3c0,0,0,0,0.1,0C176.6,151,176.8,151,177,151z M152.9,120.3
			c-0.2,0-0.5,0.1-0.6,0.4c0,0.1,0,0.1-0.1,0.2c-0.3,0.3-0.6,0.6-0.8,1c-3.3,0.7-6.4,2.1-9,4.1c-3.2,2.5-5.5,5.8-7,9.6
			c-1.7,4-2.6,8.4-4.2,12.4c-1.5,3.7-3.7,7.1-6.3,10.1c-2.2,2.5-4.7,4.7-7.4,6.5c0.2-0.2,0.4-0.4,0.6-0.7c3.1-3,5.6-6.5,7.3-10.4
			c0.9-2,1.6-4.2,2.1-6.3c0.5-2.2,0.8-4.4,1.1-6.7c0.6-4.4,1.3-9,4-12.6c2.7-3.6,6.9-5.8,11.2-6.9c2.9-0.8,5.8-1.2,8.8-1.5
			c0.7-0.1,1.3-0.1,2-0.2C153.9,119.5,153.4,119.9,152.9,120.3z M116.6,161.7c-0.7,2.2-1.9,4.2-3.5,5.9c-0.3,0.3,0,1.1,0.5,0.9
			c2.3-1,4.6-1.9,7-2.9c-1.1,3-4.7,3.8-7.6,4.4c-3,0-6,0.4-8.4,2.4c-1.9,1.6-2.9,4.2-2.2,6.5c0,0.1,0,0.2,0,0.4c0,0.2,0,0.4,0,0.5
			c-0.1-0.1-0.2-0.1-0.4-0.1c0,0,0,0,0,0c-1.2-1.4-1.7-3.5-1.5-5.4c0-0.2,0.1-0.4,0.1-0.6c0.2-0.5,0.5-1.1,0.8-1.6
			c0.1-0.2,0.1-0.5-0.1-0.6c1-2,2.6-3.8,4.3-5.3c1.4-1.3,3-2.5,4.5-3.7c0.3-0.1,0.7-0.3,1-0.4c0.4-0.1,0.4-0.5,0.3-0.8
			c0.8-0.7,1.5-1.5,2.1-2.3c2-2.5,3.3-5.9,2.4-9.1c0,0,0,0,0,0.1C117.7,153.6,117.9,157.8,116.6,161.7z M113.6,145.1
			c-1-1-2-1.8-3.2-2.5c0.3,0.1,0.6,0,0.6-0.3c1.4-7,5.8-13.1,11.4-17.4c6.4-4.9,14.3-7.3,22.2-7.9c0.8-0.1,1.6-0.1,2.5-0.1
			c-4.2,0.4-8.4,1.3-12.3,3c-3.5,1.5-6.7,3.7-9.4,6.6c-2.6,2.8-4.5,6.1-6,9.5c-1.7,4-2.7,8.1-3.3,12.4
			C115.4,147.2,114.6,146.1,113.6,145.1z M146.5,82.6c-0.1,0-0.2,0-0.2,0.1c-6.4-1.3-12.8-2.7-19.1-4c-2-0.4-3.9-0.8-5.9-1.2
			c-0.4-0.1-0.7,0.4-0.6,0.7c-0.2,0.2-0.2,0.8,0.2,0.9c1.7,0.5,3.4,1,5.1,1.5c1.6,0.5,3.3,0.9,4.8,1.4c0.6,0.2,1.2,0.5,1.5,1.1
			c0.2,0.3,0.2,0.7,0.1,1.1c-0.1-0.1-0.2-0.2-0.4-0.2c-5-0.6-10.3,0.4-14.7,3c-4.2,2.4-7.4,6.2-10.1,10.2c-1.5,2.3-2.9,4.6-4.2,7
			c-0.1-0.1-0.1-0.2-0.2-0.2c0-6.1,2-12.1,5.6-17.1c3.7-5.1,9.1-8.7,15-10.5c2.8-0.8,5.7-1.2,8.6-1.1c0,0.3,0.2,0.5,0.5,0.5
			c1.3-0.1,2.5-0.2,3.8-0.3c0.2,0.1,0.4,0.2,0.6,0.3c3.4,1.7,6.8,3.4,10.3,4.9c1.6,0.7,3.2,1.3,4.9,1.9
			C150.2,82.5,148.3,82.6,146.5,82.6z M118.5,65c1,0.9,2,1.8,3.1,2.6c0.6,0.4,1.2,0.8,1.8,1.2c-5.1,1.6-9.7,4.6-13.4,8.4
			c-4.3,4.5-7.1,10.2-8.3,16.3c-0.5,2.6-0.7,5.2-0.6,7.8c-0.7-5-0.4-10.1,1-14.9c1.6-5.8,4.8-11.2,9-15.5
			C113.3,68.6,115.8,66.6,118.5,65z M88,52.8c-2.8,0-5.9,0.1-8.2-1.6c-0.1-0.1-0.2-0.1-0.3-0.1c-1.8-1.2-3.3-2.7-4.6-4.5
			c-0.4-0.6-0.8-1.2-1.1-1.8c-0.3-0.6-0.6-1.2-1.2-1.6c-0.6-0.5-1.5-0.5-2.2-0.5c-0.9,0-1.7-0.1-2.6-0.1c-1.6-0.1-3.3-0.1-4.9-0.2
			c2-2,5-2.5,7.8-2.1c0.3,0.1,0.5,0.2,0.8,0.2c0.2,0.1,0.3,0,0.4,0c0.9,0.2,1.8,0.5,2.7,0.9c5,2.3,8.8,6.7,13.6,9.2
			c2.7,1.4,5.7,2.3,8.8,1.9c0.1,0,0.2,0,0.2-0.1c0.2,0.1,0.4,0.3,0.6,0.4C94.5,52.9,91.3,52.9,88,52.8z M81.3,44.7
			c-3.1-2.4-6.6-4.8-10.5-5.4c-3.1-0.9-6.3-0.2-9.4,0.1c-2.6,0.3-5.6,0.3-7.9-1.1c2.5,0.3,5-1,7.1-2.3c0.2-0.1,0.3-0.3,0.2-0.5
			c6.6-0.6,13.3,0.7,19.1,3.9c5.7,3.1,10.2,7.9,15.2,11.8c0.2,0.2,0.5,0.3,0.7,0.5C90.3,52.1,85.5,48,81.3,44.7z M58.7,35.3
			c0.1,0.2,0.2,0.3,0.4,0.4c-2,1.1-4.2,2.1-6.4,1.4c-2.3-0.7-3.8-2.8-5.1-4.8c2.4,0.7,5,0.8,7.5,0.2c0.1,0,0.1,0,0.2-0.1
			c0.8,0.9,1.6,1.7,2.4,2.6c0.2,0.2,0.5,0.3,0.9,0.3C58.6,35.3,58.7,35.3,58.7,35.3z M54.6,31.6c-3.6,0.7-7.3,0-10.4-1.9
			c-1-0.9-2.1-1.8-3.2-2.7c-0.2-0.2-0.3-0.4-0.5-0.5c0,0-0.1-0.1-0.1-0.1c2.7,0.7,5.6,0.8,8.3,0.4c0.1,0,0.2-0.1,0.2-0.1
			c0.4,0.3,0.8,0.7,1.2,1c1.2,1.1,2.5,2.1,3.7,3.2C54.1,31.1,54.4,31.3,54.6,31.6z M48,25.8c-3.2,0.4-6.4,0-9.4-1
			c-1.7-1.2-3.5-2.3-5.4-3.2c1.6-0.8,3.6-0.4,5.3,0.1c2.3,0.6,4.5,1.3,6.8,1.9c0,0,0.1,0,0.1,0C46.3,24.3,47.2,25.1,48,25.8z
			 M38.2,20.5c-2-0.5-4.4-0.7-6.2,0.5C32,21,31.9,21,31.8,21c0.4-1.4,1-2.7,2.1-3.6c0.6-0.3,1.2-0.5,1.9-0.6c0,0,0.1,0,0.1,0
			c0.4,0,0.7,0.1,1,0.2c0.1,0,0.2,0,0.2,0c2.1,1.7,4.2,3.4,6.2,5.1C41.7,21.5,39.9,21,38.2,20.5z M34.5,14.7c0.4,0.3,0.8,0.7,1.2,1
			c-0.2,0-0.5-0.1-0.7-0.1c0,0-0.1,0-0.1,0c-5.1-0.2-10,2.2-13.5,5.9c-4.3,4.6-6.4,10.6-7.4,16.6c-0.3,2-0.7,4.1-0.5,6.1
			c-0.4-1-0.7-2.1-0.9-3.2c-0.5-2.7-0.5-5.5-0.2-8.3c0.6-5.4,2.7-10.6,6.1-14.9c1.7-2.2,3.8-4.2,6-5.9c0.5,0.1,1,0.3,1.5,0.4
			c1.2,0.2,2.7-0.2,3.3-1.3c1.5,0.9,2.9,1.8,4.3,2.7C33.8,14.1,34.1,14.4,34.5,14.7z M9.6,14.1c0.2,0.1,0.4,0.2,0.5,0.2
			c0,0.1-0.1,0.1-0.1,0.2c-1.3,4.7-2,9.7-2,14.6c0,2.5,0.2,5,0.6,7.4c0.3,2.2,0.7,4.4,1.5,6.4c-2.5-3.5-4.6-7.3-6.3-11.2
			c-0.5-1.1-0.9-2.2-1.3-3.4c0.3-3,0.9-5.9,1.9-8.7c0.9-2.5,2-4.9,3.4-7.1C8.2,13.2,8.8,13.7,9.6,14.1z M9,61.7
			c0.3,0.2,0.8,0.3,1.1,0.2c0,0.1,0,0.3,0,0.4c0,0.6,0.8,0.7,1,0.2c3.4,2.5,6.9,4.9,10.5,7c0.1,0.1,0.2,0.1,0.3,0.1
			c3.8,2.2,7.7,4.1,11.7,5.8c0.7,0.3,1.4,0.6,2,0.8c-4.5-0.6-8.8-2.3-13-4.2c-4.6-2.1-9.2-4.2-13.6-6.7c-1.4-0.8-2.8-1.7-4.1-2.6
			c0.5,0.1,1,0.1,1.5,0C7.3,62.6,8.2,62.3,9,61.7z M19.5,74.8c1.3,0.4,2.6,0.8,3.9,1.1c-2.2,0.2-4.4,0.5-6.6,1.1
			c-0.1,0-0.2,0.1-0.3,0.2C11,75.7,6.4,71.9,4,66.6c-0.3-0.8-0.6-1.5-0.8-2.3C7.7,69.1,13.3,72.7,19.5,74.8z M26.3,87.5
			c-0.1-0.1-0.3-0.3-0.4-0.4c-0.7-1.3-1.6-2.6-2.7-3.7c-1-1-2.1-1.7-3.3-2.4c2.9,1.2,5.7,2.9,8.2,4.9c4.2,3.4,7.6,7.8,10,12.6
			c1.4,2.9,2.5,5.9,3.4,9.1c-0.6,0.2-1.2,0.4-1.8,0.8C36.8,100.6,32.2,93.4,26.3,87.5z M39.8,109.7c0.1,0,0.2-0.1,0.2-0.2
			c0.5-0.4,1.1-0.7,1.8-0.9c0.3,1.1,0.5,2.3,0.7,3.4c-1.7,0.6-3.2,1.7-4.2,3.1c0.2-1.3,0.3-2.7,0.3-4
			C38.9,110.6,39.3,110.1,39.8,109.7z M24.8,134.9c0.5-0.1,1.2-0.2,1.6,0.2c0.1,0.1,0.2,0.3,0.2,0.5c-0.3,0-0.7,0.2-0.6,0.6
			c2,6.3-0.5,12.8-4,18.1c-3.6,5.4-8.3,10-11.8,15.6c-1.4,2.2-2.5,4.6-3.3,7.1c0-1.8,0.1-3.6,0.3-5.4c1.3-3.6,3.9-6.9,6.3-9.7
			c2.2-2.5,4.4-5,6.1-7.9c1.7-2.8,3-5.8,3.8-8.9C24.5,141.8,24.9,138.4,24.8,134.9z M19.6,171.8c-0.9,7.9-1.7,15.8-2.6,23.7
			c-1.1-4.4-1.8-9-2.3-13.5c-0.2-2.1-0.3-4.3-0.4-6.5c0-0.3-0.1-0.5-0.2-0.6C16.1,173.9,17.9,172.9,19.6,171.8z M18.4,200.3
			c-0.1-0.4-0.3-0.9-0.4-1.3c1.7-7.5,3.6-15,7.2-21.8c0.3-0.5,0.6-1.1,0.9-1.6c0.2,0.9,0.5,1.8,1,2.6c0.2,0.3,0.4,0.3,0.7,0.2
			c1.6,2.6,2.3,5.7,2,8.8c-0.4,3.7-2.1,7.1-3,10.7c-0.1,0.6-0.2,1.1-0.3,1.7c-0.8-3.1-1.7-6.2-2.5-9.3c-0.1-0.4-0.7-0.5-0.9-0.1
			c-0.9,1.5-1.6,3-2.3,4.5C19.6,196.5,18.9,198.4,18.4,200.3z M57.4,198c2.2-10.2,10.4-17.8,16.1-26.2c6.2-9.3,10.5-20,12.4-31.1
			c0.5-3,0.9-6,1-8.9c0.3,0.3,0.8,0.4,1.2,0.3c-1,5.6-1.9,11.3-2.9,16.9c-1,6.1-1.8,12.4-4.1,18.2c-0.9,2.3-2.2,4.5-3.8,6.4
			c-0.3-0.2-0.6-0.3-0.9-0.5c-0.6-0.3-1.1,0.6-0.5,0.9c0.2,0.1,0.5,0.3,0.7,0.4c-0.1,0.1-0.1,0.1-0.2,0.2c-0.5,0.5-1,1-1.6,1.5
			c-0.5-0.2-0.9,0.3-0.7,0.6c-1.5,1.3-3.1,2.4-4.7,3.6c-0.3,0-0.6-0.1-0.9-0.1c-0.6-0.1-0.6,0.8-0.2,1c-1.9,1.6-3.6,3.2-5.1,5.2
			c-1.6,2.2-3,4.6-3.9,7.1c-1,2.5-1.6,5-1.9,7.6C57.3,200,57.3,199,57.4,198z M88.8,215.8c0.1,1,0.2,2.1,0.4,3.1
			c-1.7-6-0.3-12.6-0.2-18.7c0-3.4-0.4-6.8-1.6-9.9c-1.1-2.8-2.6-5.5-4.5-7.8c-2-2.4-4.3-4.4-7-5.9c0.2-0.1,0.3-0.3,0.5-0.4
			c0.4-0.4,0.8-0.8,1.2-1.2c5.8,3.6,10.1,9.4,12,15.9c1.1,3.8,1.3,7.7,0.8,11.6C89.7,206.9,88.6,211.3,88.8,215.8z M58.2,204.6
			c0-3.2,0.5-6.4,1.5-9.5c1.8-5.3,5-9.8,9.4-13.3c0.2-0.2,0.4-0.3,0.6-0.5c5.7,0.9,10.9,4.8,13.7,9.9c1.7,3.1,2.3,6.4,2.2,9.9
			c-0.1,4-1,7.9-0.7,11.9c0,0.1,0,0.2,0,0.3c-2.6-5.4-4.3-11.2-4.9-17.1c-0.2-1.8-0.3-3.7-0.3-5.5c0-0.5-0.7-0.7-1-0.3
			c-0.7,1.5-1.3,3-2,4.5c-3.1-3-6.2-6-9.3-9c0-0.1,0-0.1-0.1-0.2c-0.2-0.5-0.9-0.4-1,0c-0.1,0.2-0.1,0.4,0.1,0.6
			c0.1,0.1,0.1,0.1,0.2,0.2c0.8,1.8,1.6,3.6,2.5,5.4c-0.1,0-0.2,0-0.3,0C63.5,194.4,59.7,199.1,58.2,204.6z M68.6,188.4
			c2.7,2.6,5.3,5.2,8,7.8c0.2,0.2,0.7,0.2,0.8-0.1c0.5-1,0.9-2,1.4-3.1c0.2,5.9,1.5,11.8,3.7,17.3c0.2,0.5,0.4,0.9,0.6,1.4
			c-4.8-5.9-9-12.3-12.4-19C69.9,191.2,69.2,189.8,68.6,188.4z M85.9,213.1c-0.3-4.1,0.6-8.1,0.7-12.1c0.1-3.5-0.6-6.9-2.2-10
			c-1.5-2.8-3.6-5.2-6.1-7.1c-2.2-1.6-4.8-2.8-7.5-3.4c1.4-1.1,2.8-2.1,4.2-3.2C80,180,84,184.6,86.2,190c1.2,3.1,1.7,6.4,1.7,9.7
			c0,3.9-0.6,7.7-0.6,11.6c0,3,0.2,6,1.2,8.9c-0.5-0.8-1-1.6-1.6-2.4C86.4,216.3,86.1,214.7,85.9,213.1z M111.3,171.3
			c0.1,0,0.3,0,0.4-0.1c7.2,2,14.8,1.8,22.1,0.7c3.7-0.6,7.4-1.3,11.1-2.3c3.5-1,7-2.2,10.1-4c3.2-1.9,6.1-4.3,8.2-7.4c0,0,0,0,0,0
			c0.7,0.1,1.4,0.2,2.1,0.3c1.6,0.2,3.1,0.2,4.7,0.2c-2.6,2-5.3,3.8-8.1,5.5c-7,4.1-14.6,7-22.5,8.7c-4.5,0.9-9,1.5-13.6,1.6
			c-0.1,0-0.2,0-0.2,0.1C120.7,173.7,116,172.5,111.3,171.3z M149.8,170.9c7.7-2.8,14.9-6.8,21.4-11.8c3.2-2.5,6.2-5.2,8.9-8.2
			c0.7-0.1,1.4-0.2,2.1-0.4c-3.3,9-10.6,15.8-19,20c-7.1,3.5-14.8,5-22.7,5.1c0,0,0,0-0.1,0c-0.1,0-0.1,0-0.2,0
			c-3.2,0-6.4-0.1-9.6-0.5C137.1,174.6,143.6,173.1,149.8,170.9z M176,171.8c0.1,0,0.2,0.1,0.4,0c2.8-0.6,5.5-1.2,8.3-1.8
			c1.3-0.2,2.5-0.5,3.8-0.7c-5.2,2.1-10.5,3.8-15.9,4.9c-1.9,0.4-3.9,0.8-5.8,1.1c1.3-0.4,2.6-0.8,3.9-1.2
			C172.5,173.4,174.3,172.6,176,171.8z M140.5,176.7c6.9,0.9,13.8,1,20.8,0.3c6.9-0.6,13.8-2,20.4-4.1c2.2-0.7,4.3-1.5,6.5-2.3
			c-6.6,3.1-13.6,5.3-20.8,6.5c-7.2,1.2-14.5,1.4-21.8,0.7c-2.4-0.2-4.8-0.6-7.1-1.1C139.1,176.7,139.8,176.7,140.5,176.7z
			 M147.1,176.2c0.1,0,0.2,0,0.3,0c0,0,0,0,0,0.1C147.3,176.2,147.2,176.2,147.1,176.2z M188.4,170.4c0,0-0.1,0-0.1,0
			C188.4,170.4,188.4,170.4,188.4,170.4C188.5,170.4,188.5,170.4,188.4,170.4z M153.4,118.3c-2.7,0.3-5.3,0.6-7.9,1.1
			c-4.5,1-8.9,2.7-12.2,6c-3.2,3.2-4.6,7.6-5.3,11.9c-0.8,4.5-1.1,9.1-2.7,13.5c-1.6,4.5-4.3,8.6-7.7,12c-0.1,0-0.1,0.1-0.2,0.1
			c0,0-0.1,0.1-0.1,0.1c-0.1,0-0.1,0-0.2,0c0.9-2.1,1.3-4.5,1.3-6.8c-0.1-2.2-0.6-4.4-1.5-6.4c0,0,0,0,0,0c1-7.8,3.3-15.7,8.4-21.8
			c2.4-2.9,5.4-5.1,8.7-6.8c3.5-1.7,7.3-2.6,11.1-3.2c4.2-0.6,8.4-0.7,12.7-0.7c0.1,0,0.3,0,0.4,0.1c0.3,0.1,0.6,0.2,0.9,0.2
			C157.3,118,155.3,118.1,153.4,118.3z M149.5,114.2c-0.4,0-0.8,0.1-1.2,0.1c-5.3-1.2-10.7-2.2-16.1-2.9c-3.6-0.5-7.1-0.8-10.7-1
			c-3.5-0.2-7-0.3-10.5-0.4c-2.7-0.1-5.5-0.3-8.1-1c0,0,0,0,0-0.1c0.2-0.2,0.5-0.5,0.8-0.6c9.7-0.7,19.5-1,29.3-0.9
			c2.7,0,5.5,0,8.2,0.1c0.7,0.8,1.3,1.5,2.1,2.2C145.1,111.5,147.2,113,149.5,114.2z M142.5,105.7c-0.3-0.1-0.7,0-1,0.3
			c-0.2,0-0.3,0-0.5,0c-0.3,0-0.4,0.2-0.5,0.4c-9.9-0.2-19.8-0.1-29.7,0.4c-1.9,0.1-3.8,0.2-5.7,0.3c4.6-1.3,9.2-2.3,13.9-2.9
			c6.8-0.9,13.8-1,20.6-0.4c2.8,0.3,5.5,0.6,8.3,1.1c0.6,0.4,1.3,0.7,1.9,1c-1.9,0-3.9,0-5.8,0C143.6,105.9,143.1,105.8,142.5,105.7
			z M141.5,92.3c-1,0.7-1.9,1.5-2.3,2.7c-0.1,0.3-0.1,0.6-0.2,1c-9.5,0.9-18.9,3.1-27.9,6.5c-1.4,0.5-2.7,1.1-4.1,1.6
			c4.9-3.5,10.2-6.5,15.6-9.1c7.2-3.5,14.8-6.1,22.5-8c2.9-0.7,5.9-1.3,8.9-1.7c-1.7,0.9-3.3,1.8-5,2.8c-1.5,0.8-2.9,1.6-4.4,2.5
			c-0.4,0.2-0.7,0.4-1.1,0.6C143,91.4,142.2,91.8,141.5,92.3z M117.6,64.3c-4.9,3-9.1,7.2-12.2,12.1c-3.5,5.6-5.5,12.1-5.7,18.7
			c-0.1,2.5,0.1,5.1,0.5,7.6c-1.8-5-2.3-10.4-1.4-15.7c0.5-3.1,1.4-6.2,2.9-9c1.4-2.9,3.3-5.5,5.3-8c2.3-2.8,4.9-5.3,7.4-7.9
			C115.4,62.8,116.5,63.5,117.6,64.3C117.6,64.2,117.6,64.3,117.6,64.3z M2.3,68.1c-0.2-0.7-0.2-1.4-0.3-2.1c0-0.6,0-1.2,0-1.7
			c1.5,5.5,5.4,10.2,10.6,12.6c1,0.4,2,0.8,3,1.1c-0.3,0-0.5,0-0.8,0c-2-0.6-4-1.4-5.8-2.5c-0.1-0.1-0.3-0.2-0.5-0.3
			c-0.7-0.4-1.4-0.8-2-1.3c-0.1-0.1-0.3-0.2-0.4-0.3C4.5,72.1,3.1,70.2,2.3,68.1z M19.6,132.9c0.2-0.2,0.5-0.3,0.7-0.5
			c0.1-0.1,0.2-0.2,0.2-0.3c0.9-0.8,1.8-1.7,2.6-2.6c2.2-2.5,4.1-5.3,5.5-8.3c0.7-1.5,1.3-3.1,1.7-4.7c0.4-1.3,0.7-2.7,0.8-4.1
			c1.5-1.2,2.5-2.9,3-4.8c0.6-2.4,0.2-4.8-0.5-7.1c-0.7-2.1-1.6-4.1-2.7-6.1c1.9,2.6,3.7,5.4,5.2,8.3c1,2,2,4.1,2.8,6.3
			c-0.4,0.3-0.7,0.7-1,1.1c-0.2,0-0.4,0.1-0.4,0.4c0,0.2-0.1,0.4-0.1,0.6c-0.4,0.8-0.6,1.6-0.6,2.4c-1.8,6.4-5.5,12.3-10.5,16.8
			c-1.1,1-2.2,1.9-3.4,2.7c-0.1,0-0.1,0-0.2,0.1c-4.5,3-9.6,5.2-15,6.3c1.1-0.5,2.3-1.1,3.4-1.6C14.2,136.6,17,135,19.6,132.9z
			 M11.1,140.4c-0.4-0.1-0.9-0.3-1.3-0.4c3.9-1,7.7-2.6,11.2-4.6c0.9,0.4,1.8,0.1,2.7-0.2c0,6.2-1.6,12.5-4.8,17.8
			c-1.7,3-4,5.5-6.2,8.1c-1.8,2.2-3.7,4.4-5.1,6.9c1-5.8,3-11.4,5.9-16.5c1.5-2.6,3.1-5,5-7.3c0.3-0.3,0.4-0.8,0.2-1.2
			c0-0.2-0.1-0.3-0.4-0.4c-0.2-0.1-0.5-0.2-0.8-0.2c-0.1,0-0.2,0-0.3-0.1C15.3,141.7,13.2,141.1,11.1,140.4z M147.7,222.9
			c-0.4-0.4-0.8-0.9-1.2-1.3c-3.4-7.1-6.9-14.2-10.3-21.3c-1.9-3.9-3.8-7.9-5.7-11.8c-1.8-3.5-3.7-7-6.5-9.8
			c-2.7-2.7-6.1-4.8-9.9-5.3c-0.2-0.2-0.4-0.3-0.6-0.5c5.7,1.5,11.5,2.7,17.4,3.3c0,0.1,0.1,0.2,0.2,0.2c2.8,1.7,5.8,3,8.9,4.1
			c0,0.1,0,0.2,0.1,0.2c1,1.5,2.4,2.7,4,3.6c0.9,1.1,1.9,2.2,2.9,3.2c5.5,7.3,14.1,11,22.6,13.4c1.4,0.4,2.8,0.7,4.3,1.1
			c-0.6,0.2-1.3,0.3-1.9,0.5c-0.3,0.1-0.4,0.3-0.4,0.5c-5.9,1.5-12.3,1.1-18-1c0,0-0.1,0-0.2-0.1c-0.7-0.3-1.5-0.6-2.2-0.9
			c-1.8-0.9-3.5-1.9-5.1-3.1c0.9-0.8,2-1.4,3.1-1.8c0.7,0.2,1.5,0.3,2.2,0.4c0.7,0.1,0.7-1,0-1c-0.1,0-0.3,0-0.4,0
			c0.1-0.3-0.2-0.7-0.6-0.7c-0.4,0.1-0.9,0.2-1.3,0.3c-5-1.4-8.9-5.6-11.8-9.9c-1-1.5-2-3.1-2.9-4.6c-0.3-0.6-1.2-0.1-0.9,0.5
			c3,6.1,5.3,12.5,7,19.1c0.4,1.6,0.8,3.3,1.1,4.9c-0.1,0.1-0.2,0.2-0.3,0.3c-0.1,0.3,0.1,0.5,0.4,0.6c0.7,0.3,1.5,0.3,2.3,0.3
			c-0.1,0.2-0.1,0.5-0.2,0.7c-0.1,0.9,0.2,1.8,0.5,2.7c0.3,1,0.6,2.1,0.9,3.1c0.2,0.7,0.4,1.3,0.6,2
			C146.5,217.5,147.1,220.2,147.7,222.9z M162.8,205C162.8,205,162.8,205,162.8,205c1,0.6,2.1,0.9,3.1,1.2c-0.5,0.2-1.1,0.3-1.6,0.5
			c-0.1,0-0.3,0-0.4,0c-0.3,0-0.5,0.1-0.8,0.1c-0.1,0-0.1,0-0.2,0c-1.7,0.1-3.4,0.1-5,0c-0.2,0-0.5,0-0.7-0.1
			c-1.6-0.6-2.9-1.8-3.4-3.4C156.8,204.3,159.8,204.9,162.8,205z M152.8,202.9c0.2,1.4,0.9,2.5,1.9,3.4c0,0-0.1,0-0.1,0
			c-0.5-0.1-1.1-0.2-1.6-0.3c-0.8-0.2-1.7-0.4-2.5-0.7c-0.7-0.2-1.4-0.5-2.2-0.6c-0.2,0-0.3,0-0.5,0c-1.6-1.3-2.4-3.5-2-5.6
			C148,200.6,150.3,201.9,152.8,202.9z M145.1,197.5c-0.2,0.1-0.4,0.2-0.4,0.4c-1.2,1.3-2.1,2.8-2.6,4.5c-1.2-5.3-2.8-10.5-4.9-15.6
			c2.5,3.5,5.4,6.6,9.4,8.4c0.4,0.2,0.7,0.3,1.1,0.4C146.7,196.1,145.9,196.8,145.1,197.5z M142.8,205.3c-0.1-2.1,0.7-4.2,2-5.9
			c-0.2,1.9,0.4,3.8,1.7,5.3c-0.5,0-1,0.2-1.4,0.4C144.3,205.4,143.6,205.4,142.8,205.3z M176,202.6c-0.1,0.2-0.3,0.3-0.4,0.5
			c-1.5,0.8-3,1.5-4.5,2c-0.1,0-0.2,0-0.3,0c-1.7,0.4-3.5,0.4-5.2,0c0.7,0,1.5-0.1,2.2-0.2c2.3-0.3,4.5-0.8,6.7-1.6
			c0.2-0.1,0.3-0.2,0.3-0.4c0.4-0.1,0.7-0.2,1.1-0.3C175.9,202.6,175.9,202.6,176,202.6z M153.8,185.8c-2.1-0.3-4.2-0.8-6.3-1.2
			c-1.1-0.4-2.1-0.8-3.2-1.3c-0.1,0-0.2-0.1-0.2-0.1c-1-0.6-1.9-1.3-2.7-2.2c3.3,1,6.8,1.7,10.3,2.1c0,0,0.1,0.1,0.1,0.1
			c2.1,1.4,4.4,2.5,6.8,3.2c-0.4,0-0.8-0.1-1.2-0.1C156.2,186.2,155,186,153.8,185.8z M57.3,209.8C57.3,209.8,57.3,209.8,57.3,209.8
			c0,0,0,0.1,0,0.1C57.3,209.9,57.3,209.9,57.3,209.8z"/>
	</g>
	<g>
		<path class="st0" d="M69.7,318.3v0.6l-3.3,0.3v-0.9c0-1.3-0.6-2-1.8-2c-1.1,0-1.8,0.7-1.8,2v0.3c0,1.3,0.6,2.5,2.9,4.5
			c3.2,2.7,4.4,4.6,4.4,7.3v1.1c0,3.3-1.9,5.1-5.4,5.1s-5.4-1.9-5.4-5.1v-1.5l3.3-0.3v1.6c0,1.4,0.7,2.2,2,2.2c1.3,0,2-0.7,2-2.2
			v-0.8c0-1.4-0.7-2.6-3-4.6c-3.2-2.7-4.3-4.6-4.3-7.3v-0.5c0-3.3,1.9-5.1,5.2-5.1C67.9,313.2,69.7,315,69.7,318.3z"/>
		<path class="st0" d="M89.8,316.7h-6.3v6.5h5.1v3.2h-5.1v6.8h6.3v3.2h-9.8v-22.9h9.8V316.7z"/>
		<path class="st0" d="M108.5,336.4l-2.8-9.7h-1.6v9.7h-3.5v-22.9h5c3.7,0,5.8,2,5.8,5.8v1.6c0,2.4-0.9,4.1-2.5,5l3.2,10.4H108.5z
			 M104.1,316.7v6.8h1.4c1.7,0,2.4-0.9,2.4-2.8v-1.2c0-1.9-0.8-2.8-2.4-2.8H104.1z"/>
		<path class="st0" d="M126,336.4h-3.5v-22.9h3.5V336.4z"/>
		<path class="st0" d="M147.3,316.7H141v6.5h5.1v3.2H141v6.8h6.3v3.2h-9.8v-22.9h9.8V316.7z"/>
		<path class="st0" d="M167.3,318.3v0.6l-3.3,0.3v-0.9c0-1.3-0.6-2-1.8-2s-1.8,0.7-1.8,2v0.3c0,1.3,0.6,2.5,2.9,4.5
			c3.2,2.7,4.4,4.6,4.4,7.3v1.1c0,3.3-1.9,5.1-5.4,5.1s-5.4-1.9-5.4-5.1v-1.5l3.3-0.3v1.6c0,1.4,0.7,2.2,2,2.2c1.3,0,2-0.7,2-2.2
			v-0.8c0-1.4-0.7-2.6-3-4.6c-3.2-2.7-4.3-4.6-4.3-7.3v-0.5c0-3.3,1.9-5.1,5.2-5.1C165.5,313.2,167.3,315,167.3,318.3z"/>
	</g>
	<path class="st0" d="M44.4,225.1h-24v24.8h19.4v12.2H20.4v26h24v12.3H7.1v-87.5h37.3V225.1z"/>
	<path class="st0" d="M208.5,225.1h-24v24.8h19.4v12.2h-19.4v26h24v12.3h-37.3v-87.5h37.3V225.1z"/>
	<path class="st0" d="M68.9,212.9c-1.3,0.4-9.5,11.4-9.5,11.4s0,0-1.2-0.2c-0.4-0.1-1.4-2.1-2.5-4.8v81.1H91v-12.5H68.9V212.9z"/>
	<path class="st0" d="M99.5,244.4c3.7-6.3,8-14.1,8.2-15.8c0.3-3-4.5-8.8-6.2-7.3c-1.7,1.5,0.6,15.9,0.6,15.9s-1-0.4-2.6-1.1V244.4z
		"/>
	<path class="st0" d="M99.5,253.9v46.5h13.3V253C107.8,254.4,103,254.3,99.5,253.9z"/>
	<path class="st0" d="M136.8,228.7c0,0-0.5,1.2-1.4,3.2v68.5h13.3v-66.7C143.7,233,136.8,228.7,136.8,228.7z"/>
	<path class="st0" d="M158.6,217c-2,1.3-2.9,5-3.2,8.4h7.3v-10.8C161.4,215.3,159.9,216.2,158.6,217z"/>
</g>
</svg>
