<?xml version="1.0" encoding="utf-8"?>
<!-- Generator: Adobe Illustrator 22.1.0, SVG Export Plug-In . SVG Version: 6.00 Build 0)  -->
<svg version="1.1" id="katman_1" xmlns="http://www.w3.org/2000/svg" xmlns:xlink="http://www.w3.org/1999/xlink" x="0px" y="0px"
	 viewBox="0 0 113 101.7" style="enable-background:new 0 0 113 101.7;" xml:space="preserve">
<style type="text/css">
	.st0{fill:#E5E6EE;}
	.st1{fill:#2F3038;}
	.st2{fill:#1C1C22;}
	.st3{fill:#3C3D47;}
	.st4{fill:#D0D1DB;}
	.st5{fill:none;stroke:#000000;stroke-linecap:round;stroke-linejoin:round;}
	.st6{fill-rule:evenodd;clip-rule:evenodd;fill:#D0D1DB;}
	.st7{fill:none;stroke:#515261;stroke-linecap:round;stroke-linejoin:round;}
	.st8{fill:none;stroke:#FFFFFF;stroke-linecap:round;stroke-linejoin:round;}
	.st9{fill:none;stroke:#000000;}
	.st10{fill:none;stroke:#000000;stroke-width:2;stroke-linecap:round;stroke-linejoin:round;}
	.st11{fill:#75D39B;}
	.st12{fill:#FFFFFF;}
</style>
<g>
	<path class="st0" d="M69.6,53.2H57.5H43.4c-3.9,0-5.8-2-6.3-4.4c-0.6-2.9-1.5-7.8-2.4-13.2c-0.8-4.4,1.5-5.1,4.9-5.9
		c4.4-1,13.1-1.5,18-1.5c5.1,0,11.8,0.3,17,1.5c4.4,1,4.1,3.1,3.9,4.9c-0.5,3.4-1.2,7.5-1.9,12.3l0,0C75.7,51.5,72.6,53.2,69.6,53.2
		"/>
	<path class="st1" d="M14.5,101.2l-4.1-0.5c-1.7,0.3-3-0.1-3.4-0.4c-4.9-2.5-8.3-13.3-5.4-32.5c2.4-15.4,8.2-29.1,10.8-34
		c6.7-3.2,18.1-3.6,23-3.5c6.9-1.5,25.1-3.5,42.2,0c4.9-0.2,16.4,0.3,23,3.5c2.6,4.9,8.4,18.6,10.8,34c2.9,19.2-0.5,30.1-5.4,32.5
		c-1.6,0.4-3,0.4-3.5,0.4l-3.5,0.6c-4,0.5-4.9-2.7-6-5.5c-2-5-2.6-7.8-5-13.5c-2-4.8-6-7.5-11.4-6.1H36.4c-6.9-1.4-9.4,2.3-10.8,4.4
		c-1,1.5-3.6,9.2-6.1,14.7C17.6,99.3,17,101.2,14.5,101.2"/>
	<path class="st0" d="M79.1,34.6c-0.3,1.6-1.2,6.2-2,11.3c-1,5.8-5.5,7.3-7.6,7.2h-26c-5.6,0-7.4-4.8-7.6-7.2
		c-0.8-5.1-1.6-9.7-2-11.3c-0.2-1.3-0.1-4,1.5-4.4c7.1-1.5,25.5-3.5,42.2,0C79.2,30.6,79.2,33.3,79.1,34.6"/>
	<path class="st2" d="M75,57.2c4.1,0,7.5,3.4,7.5,7.5c0,4.1-3.4,7.5-7.5,7.5c-4.1,0-7.5-3.4-7.5-7.5C67.5,60.5,70.9,57.2,75,57.2"/>
	<path class="st2" d="M38,57.2c4.1,0,7.5,3.4,7.5,7.5c0,4.1-3.4,7.5-7.5,7.5c-4.1,0-7.5-3.4-7.5-7.5C30.5,60.5,33.9,57.2,38,57.2"/>
	<path class="st3" d="M43.5,64.7c0,3-2.5,5.5-5.5,5.5c-3,0-5.5-2.5-5.5-5.5c0-3,2.5-5.5,5.5-5.5C41,59.2,43.5,61.6,43.5,64.7"/>
	<path class="st3" d="M75,59.2c3,0,5.5,2.5,5.5,5.5c0,3-2.5,5.5-5.5,5.5c-3,0-5.5-2.5-5.5-5.5C69.5,61.6,72,59.2,75,59.2"/>
	<path class="st1" d="M84.2,27.7c5.9-1.6,11.9,1.3,14.2,2.9v1.8c-5.3-1.8-11.6-2.2-14.2-2.2V27.7z"/>
	<path class="st1" d="M28.4,27.7c-5.9-1.6-11.9,1.3-14.2,2.9v1.8c5.3-1.8,11.6-2.2,14.2-2.2V27.7z"/>
	<path class="st0" d="M111.4,67.3c-2.4-15.2-8.3-28.8-10.9-33.7c-6.7-3.1-18.4-3.6-23.3-3.4c1.6,0.4,1.7,3.1,1.5,4.4
		c-0.3,1.6-1.2,6.1-2,11.2c-0.8,5.1,1.3,8.6,2.5,9.8c1.7,1.7,3.5,3.4,6,6.8c5.1,7,14.4,31.2,16.4,36.1c0.5,1,1.1,2.6,4.5,1
		C110.9,97,114.4,86.3,111.4,67.3"/>
	<path class="st0" d="M1.6,67.3C4,52,9.9,38.5,12.5,33.6c6.7-3.1,18.4-3.6,23.3-3.4c-1.6,0.4-1.7,3.1-1.5,4.4
		c0.3,1.6,1.2,6.1,2,11.2c0.8,5.1-1.3,8.6-2.5,9.8c-1.7,1.7-3.5,3.4-6,6.8c-5.1,7-14.4,31.2-16.4,36.1c-0.5,1-1.1,2.6-4.5,1
		C2.1,97-1.4,86.3,1.6,67.3"/>
	<path class="st4" d="M99.5,45.2c1.7,0,3,1.3,3,3c0,1.7-1.3,3-3,3c-1.7,0-3-1.3-3-3C96.5,46.5,97.8,45.2,99.5,45.2"/>
	<path class="st4" d="M91.5,37.2c1.7,0,3,1.3,3,3c0,1.7-1.3,3-3,3c-1.7,0-3-1.3-3-3C88.5,38.5,89.8,37.2,91.5,37.2"/>
	<path class="st4" d="M91.5,53.2c1.7,0,3,1.3,3,3c0,1.7-1.3,3-3,3c-1.7,0-3-1.3-3-3C88.5,54.5,89.8,53.2,91.5,53.2"/>
	<path class="st4" d="M83.5,45.2c1.7,0,3,1.3,3,3c0,1.7-1.3,3-3,3c-1.7,0-3-1.3-3-3C80.5,46.5,81.8,45.2,83.5,45.2"/>
	<line class="st5" x1="53.5" y1="70.2" x2="59.5" y2="70.2"/>
	<path class="st4" d="M18.8,54.1l2-2.1c0.4-0.4,1.1-0.4,1.5,0l2,2.1c0.2,0.2,0.3,0.4,0.3,0.7v3.4c0,0.5-0.4,1-1,1h-4
		c-0.6,0-1-0.5-1-1v-3.4C18.5,54.5,18.6,54.3,18.8,54.1"/>
	<path class="st4" d="M24.2,44.2l-2,2.1c-0.4,0.4-1.1,0.4-1.5,0l-2-2.1c-0.2-0.2-0.3-0.4-0.3-0.7v-3.4c0-0.5,0.4-1,1-1h4
		c0.6,0,1,0.5,1,1v3.4C24.5,43.8,24.4,44.1,24.2,44.2"/>
	<path class="st4" d="M16.6,46.4l2.1,2c0.4,0.4,0.4,1.1,0,1.5l-2.1,2c-0.2,0.2-0.4,0.3-0.7,0.3h-3.4c-0.6,0-1-0.5-1-1v-4
		c0-0.5,0.4-1,1-1h3.4C16.2,46.2,16.4,46.3,16.6,46.4"/>
	<path class="st4" d="M26.4,51.9l-2.1-2c-0.4-0.4-0.4-1.1,0-1.5l2.1-2c0.2-0.2,0.4-0.3,0.7-0.3h3.4c0.6,0,1,0.5,1,1v4
		c0,0.5-0.4,1-1,1h-3.4C26.8,52.2,26.6,52.1,26.4,51.9"/>
	<path class="st6" d="M83.7,33.2c-0.5-0.1-1.1,0.2-1.2,0.7l-1,4c-0.1,0.5,0.2,1.1,0.7,1.2c0.5,0.1,1.1-0.2,1.2-0.7l1-4
		C84.6,33.9,84.3,33.3,83.7,33.2"/>
	<path class="st6" d="M29.3,33.2c0.5-0.1,1.1,0.2,1.2,0.7l1,4c0.1,0.5-0.2,1.1-0.7,1.2c-0.5,0.1-1.1-0.2-1.2-0.7l-1-4
		C28.4,33.9,28.7,33.3,29.3,33.2"/>
	<line class="st5" x1="52.5" y1="58.2" x2="60.5" y2="58.2"/>
	<line class="st5" x1="50.5" y1="56.2" x2="62.5" y2="56.2"/>
	<path class="st7" d="M70.5,64.7c0-2.5,2-4.5,4.5-4.5"/>
	<path class="st7" d="M33.5,64.7c0-2.5,2-4.5,4.5-4.5"/>
	<path class="st8" d="M73.7,30.5c-5-1.1-11.4-1.3-16.2-1.3c-4.6,0-13,0.5-17.2,1.3c-3.4,0.7-5.5,0.9-4.6,5.4c0.9,5,1.8,9.5,2.3,12.2
		"/>
	<path class="st8" d="M34.9,31.2c-4.7-0.1-15.6,0.3-22,3.3c-2.5,4.7-8.1,17.7-10.3,32.2c-1.8,11.9-1.1,20.4,1,25.5"/>
	<path class="st8" d="M100.2,34.5c-6.4-3-17.3-3.4-22-3.3c1.5,0.4,1.6,3,1.4,4.2c-0.3,1.6-1.1,5.9-1.9,10.7
		c-0.7,4.9,1.3,8.3,2.3,9.3c1.6,1.6,3.3,3.3,5.6,6.5c4.8,6.7,13.6,29.9,15.5,34.5"/>
	<path class="st9" d="M69.6,53.2H57.5H43.4c-3.9,0-5.8-2-6.3-4.4c-0.6-2.9-1.5-7.8-2.4-13.2c-0.8-4.4,1.5-5.1,4.9-5.9
		c4.4-1,13.1-1.5,18-1.5c5.1,0,11.8,0.3,17,1.5c4.4,1,4.1,3.1,3.9,4.9c-0.5,3.4-1.2,7.5-1.9,12.3l0,0C75.7,51.5,72.6,53.2,69.6,53.2
		z"/>
	<path class="st5" d="M10.4,100.6l4.1,0.5c2.5,0,3.1-1.9,5-6c2.5-5.5,5.1-13.2,6.1-14.7c1.4-2.1,3.9-5.8,10.8-4.4h40.2
		C82,74.7,86,77.3,88,82.2c2.4,5.7,3,8.5,5,13.5c1.1,2.8,2,6,6,5.5l3.5-0.6 M100.6,33.6c2.6,4.9,8.4,18.6,10.8,34
		c2.9,19.2-0.5,30.1-5.4,32.5c-3.4,1.7-3.9,0-4.4-1c-2-4.9-11.2-29.4-16.2-36.5c-2.5-3.5-4.2-5.2-5.9-6.9c-1.1-1.2-3.2-4.7-2.5-9.9
		c0.8-5.1,1.6-9.7,2-11.3c0.2-1.3,0.1-4-1.5-4.4C82.5,30,94,30.5,100.6,33.6z M12.4,33.6c-2.6,4.9-8.4,18.6-10.8,34
		C-1.4,86.9,2.1,97.7,7,100.2c3.4,1.7,3.9,0,4.4-1c2-4.9,11.2-29.4,16.2-36.5c2.5-3.5,4.2-5.2,5.9-6.9c1.1-1.2,3.2-4.7,2.5-9.9
		c-0.8-5.1-1.6-9.7-2-11.3c-0.2-1.3-0.1-4,1.5-4.4C30.5,30,19,30.5,12.4,33.6z"/>
	<circle class="st5" cx="91.5" cy="40.2" r="3"/>
	<circle class="st5" cx="91.5" cy="56.2" r="3"/>
	<circle class="st5" cx="83.5" cy="48.2" r="3"/>
	<circle class="st5" cx="75" cy="64.7" r="7.5"/>
	<circle class="st5" cx="38" cy="64.7" r="7.5"/>
	<circle class="st5" cx="38" cy="64.7" r="5.5"/>
	<circle class="st5" cx="75" cy="64.7" r="5.5"/>
	<path class="st5" d="M84.2,27.7c5.9-1.6,11.9,1.3,14.2,2.9v1.8c-5.3-1.8-11.6-2.2-14.2-2.2V27.7z"/>
	<path class="st5" d="M28.4,27.7c-5.9-1.6-11.9,1.3-14.2,2.9v1.8c5.3-1.8,11.6-2.2,14.2-2.2V27.7z"/>
	<path class="st5" d="M111.4,67.3c-2.4-15.2-8.3-28.8-10.9-33.7c-6.7-3.1-18.4-3.6-23.3-3.4c1.6,0.4,1.7,3.1,1.5,4.4
		c-0.3,1.6-1.2,6.1-2,11.2c-0.8,5.1,1.3,8.6,2.5,9.8c1.7,1.7,3.5,3.4,6,6.8c5.1,7,14.4,31.2,16.4,36.1c0.5,1,1.1,2.6,4.5,1
		C110.9,97,114.4,86.3,111.4,67.3z"/>
	<path class="st5" d="M1.6,67.3C4,52,9.9,38.5,12.5,33.6c6.7-3.1,18.4-3.6,23.3-3.4c-1.6,0.4-1.7,3.1-1.5,4.4
		c0.3,1.6,1.2,6.1,2,11.2c0.8,5.1-1.3,8.6-2.5,9.8c-1.7,1.7-3.5,3.4-6,6.8c-5.1,7-14.4,31.2-16.4,36.1c-0.5,1-1.1,2.6-4.5,1
		C2.1,97-1.4,86.3,1.6,67.3z"/>
	<circle class="st5" cx="99.5" cy="48.2" r="3"/>
	<line class="st5" x1="53.5" y1="70.2" x2="59.5" y2="70.2"/>
	<path class="st5" d="M18.8,54.1l2-2.1c0.4-0.4,1.1-0.4,1.5,0l2,2.1c0.2,0.2,0.3,0.4,0.3,0.7v3.4c0,0.5-0.4,1-1,1h-4
		c-0.6,0-1-0.5-1-1v-3.4C18.5,54.5,18.6,54.3,18.8,54.1z"/>
	<path class="st5" d="M24.2,44.2l-2,2.1c-0.4,0.4-1.1,0.4-1.5,0l-2-2.1c-0.2-0.2-0.3-0.4-0.3-0.7v-3.4c0-0.5,0.4-1,1-1h4
		c0.6,0,1,0.5,1,1v3.4C24.5,43.8,24.4,44.1,24.2,44.2z"/>
	<path class="st5" d="M16.6,46.4l2.1,2c0.4,0.4,0.4,1.1,0,1.5l-2.1,2c-0.2,0.2-0.4,0.3-0.7,0.3h-3.4c-0.6,0-1-0.5-1-1v-4
		c0-0.5,0.4-1,1-1h3.4C16.2,46.2,16.4,46.3,16.6,46.4z"/>
	<path class="st5" d="M26.4,51.9l-2.1-2c-0.4-0.4-0.4-1.1,0-1.5l2.1-2c0.2-0.2,0.4-0.3,0.7-0.3h3.4c0.6,0,1,0.5,1,1v4
		c0,0.5-0.4,1-1,1h-3.4C26.8,52.2,26.6,52.1,26.4,51.9z"/>
	<line class="st10" x1="83.5" y1="34.2" x2="82.5" y2="38.2"/>
	<line class="st10" x1="29.5" y1="34.2" x2="30.5" y2="38.2"/>
	<line class="st5" x1="52.5" y1="58.2" x2="60.5" y2="58.2"/>
	<line class="st5" x1="50.5" y1="56.2" x2="62.5" y2="56.2"/>
	<circle class="st11" cx="57.4" cy="19.6" r="19.6"/>
	<path class="st12" d="M54.6,22.3c0.4-0.4,0.8-0.8,1.1-1.2c1.3-1.4,2.7-2.7,4.1-4.1c1.3-1.3,2.7-2.7,4-4c0.8-0.8,1.5-1.5,2.3-2.3
		c0.4-0.4,1-0.4,1.4,0c0.7,0.7,1.4,1.4,2.1,2.1c0.4,0.4,0.4,0.9,0,1.4c-0.9,1-1.9,1.9-2.8,2.8c-1.8,1.8-3.5,3.5-5.3,5.3
		c-1.8,1.8-3.5,3.5-5.3,5.3c-0.3,0.3-0.5,0.5-0.8,0.8c-0.5,0.5-1.1,0.5-1.6,0c-1.8-1.8-3.5-3.5-5.3-5.3c-1.1-1.1-2.2-2.2-3.2-3.2
		c-0.5-0.5-0.5-1.1,0-1.6c0.6-0.6,1.2-1.2,1.9-1.9c0.5-0.5,1.1-0.5,1.6,0c1.9,1.9,3.7,3.8,5.6,5.6C54.3,22.1,54.4,22.1,54.6,22.3z"
		/>
</g>
</svg>
